<svg width="359" height="312" viewBox="0 0 359 312" fill="none" xmlns="http://www.w3.org/2000/svg"><path opacity=".15" d="M169.429 274.56l-36.445 21.126a4.53 4.53 0 01-4.093 0L21.219 233.51a1.245 1.245 0 010-2.364l36.445-21.141a4.556 4.556 0 014.079 0l107.686 62.19a1.25 1.25 0 01.853 1.183 1.246 1.246 0 01-.853 1.182z" fill="#000"/><path d="M23.427 227.396a1.4 1.4 0 01.852-1.175l34.238-19.797a4.465 4.465 0 014.078 0l104.488 60.511a1.395 1.395 0 01.838 1.189v3.596a1.407 1.407 0 01-.838 1.175l-34.224 19.797a4.485 4.485 0 01-4.093 0L24.279 232.251a1.398 1.398 0 01-.852-1.175v-3.68z" fill="#263238"/><path d="M132.859 289.013l34.223-19.714a1.245 1.245 0 000-2.364L62.595 206.424a4.465 4.465 0 00-4.079 0L24.28 226.221a1.244 1.244 0 00-.618 1.912c.153.212.37.37.618.452l104.487 60.414a4.542 4.542 0 004.093.014z" fill="#37474F"/><path d="M130.945 289.488v3.68a4.068 4.068 0 001.914-.476l34.21-19.783a1.399 1.399 0 00.852-1.189v-3.61a1.399 1.399 0 01-.852 1.189l-34.21 19.714a4.183 4.183 0 01-1.914.475z" fill="#263238"/><path d="M29.768 227.662l3.38-1.959 4.596 2.659-3.408 2.028-4.596-2.658.028-.07zm5.308-3.064l3.395-1.959 3.618 2.085-3.409 1.931-3.604-2.085v.028zm1.118 6.786l3.394-1.959 3.604 2.085-3.408 2.028-3.604-2.084.014-.07zm4.19-9.794l3.395-1.959 5.825 3.386-3.408 2.015-5.825-3.372.014-.07zm.126 6.212l3.38-1.973 2.878 1.665-3.394 1.959-2.864-1.693v.042zm1.118 6.772l3.38-1.959 3.618 2.085-3.422 2.028-3.604-2.084.028-.07zm3.576-4.058l3.38-1.959 2.794 1.665-3.408 2.029-2.794-1.665.028-.07zm.475-12.004l3.394-1.959 4.596 2.658-3.38 1.931-4.596-2.658-.014.028zm1.397 19.21l3.38-1.959 26.094 15.082-3.409 2.029-26.093-15.082.028-.07zm.977-11.711l3.38-1.959 2.795 1.665-3.409 2.015-2.863-1.651.097-.07zm1.858 7.219l3.38-1.958 2.864 1.665-3.408 2.028-2.864-1.665.028-.07zm1.076-17.768l3.38-1.959 2.878 1.665-3.408 2.015L51 215.462h-.014zm1.117 6.786l3.38-1.959 2.878 1.651-3.38 1.916-2.878-1.65v.042zm.629 6.491l3.38-1.958 2.864 1.665-3.408 2.014-2.864-1.651.028-.07zm1.858 7.22L57.97 234l2.794 1.665-3.408 2.029-2.794-1.665.028-.07zm1.09-17.783l3.38-1.959 2.877 1.665-3.408 2.015-2.794-1.651-.056-.07zm1.117 6.786l3.38-1.959 2.878 1.651-3.408 2.029-2.864-1.651.014-.07zm.628 6.492l3.381-1.959 2.794 1.665-3.409 2.015-2.793-1.651.027-.07zm0-19.714l3.381-1.959 3.618 2.085-3.422 2.029-3.604-2.085.027-.07zm1.858 26.933l3.38-1.959 2.864 1.665-3.408 2.029-2.863-1.665.027-.07zm1.09-17.783l3.38-1.958 2.878 1.665-3.38 1.86-2.864-1.651-.014.084zm1.117 6.786l3.381-1.959 2.877 1.651-3.408 2.029-2.877-1.763.028.042zm.63 6.492l3.38-1.959 2.863 1.665-3.408 2.015-2.864-1.651.028-.07zm1.857 7.219l3.38-1.958 2.794 1.664-3.408 2.029-2.794-1.665.028-.07zm.922-25.324l3.394-1.958 2.864 1.651-3.409 2.028-2.863-1.651.014-.07zm.167 7.542l3.381-1.959 2.878 1.665-3.395 1.945-2.794-1.651h-.07zm1.118 6.785l3.38-1.958 2.878 1.65-3.408 2.029-2.864-1.651.014-.07zm.629 6.492l3.38-1.959 2.794 1.665-3.409 2.015-2.793-1.651.028-.07zm1.858 7.22l3.408-2.057 2.794 1.665-3.409 2.028-2.863-1.664.07.028zm.921-25.324l3.38-1.959 2.879 1.651-3.409 2.029-2.794-1.651-.056-.07zm.168 7.541l3.38-1.959 2.878 1.665-3.38 1.903-2.794-1.651-.084.042zm1.118 6.786l3.38-1.959 2.878 1.651-3.409 2.028-2.863-1.65.014-.07zm.628 6.491l3.395-1.958 2.863 1.665-3.408 2.014-2.864-1.651.014-.07zm1.858 7.22l3.38-1.973 2.864 1.665-3.408 2.029-2.864-1.665.028-.056zm.922-25.324l3.394-1.959 2.864 1.651-3.408 2.029-2.864-1.651.014-.07zm.168 7.541l3.394-1.959 2.864 1.665-3.423 2.015-2.794-1.651-.041-.07zm.517 24.848l3.394-1.959 3.604 2.085-3.409 2.029-3.604-2.085.015-.07zm.6-18.062l3.38-1.959 2.878 1.651-3.408 2.029-2.864-1.651.014-.07zm.629 6.492l3.394-1.959 2.822 1.553-3.409 2.015-2.863-1.651.056.042zm1.858 7.219l3.38-1.959 2.878 1.665-3.423 2.029-2.863-1.665.028-.07zm.922-25.324l3.394-1.958 2.836 1.608-3.409 2.029-2.863-1.651.042-.028zm.167 7.541l3.395-1.958 2.863 1.665-3.408 2.014-2.864-1.651.014-.07zm1.118 6.786l3.394-1.959 2.794 1.651-3.408 2.029-2.794-1.651.014-.07zm.14 18.482l3.394-1.959 3.604 2.085-3.409 2.029-3.604-2.085.014-.07zm.488-11.99l3.38-1.959 2.794 1.665-3.254 1.903-2.794-1.651-.126.042zm1.858 7.219l3.38-1.958 2.878 1.664-3.422 2.029-2.864-1.665.028-.07zm1.09-17.782l3.394-1.959 2.794 1.665-3.409 2.015-2.807-1.763.028.042zm1.117 6.785l3.395-1.958 2.863 1.651-3.408 2.028-2.864-1.651.014-.07zm.629 6.492l3.38-1.959 2.864 1.665-3.408 2.015-2.836-1.819v.098zm.14-19.587l3.394-1.959 2.864 1.665-3.409 2.029-2.85-1.833v.098zm.111 32.053l3.395-1.959 3.604 2.085-3.437 1.875-3.604-2.085.042.084zm1.607-5.204l3.38-1.973 2.878 1.665-3.423 2.028-2.793-1.665-.042-.055zm1.09-17.783l3.38-1.959 2.877 1.665-3.408 2.015-2.864-1.651.014-.07zm1.117 6.786l3.394-1.959 2.864 1.651-3.409 2.028-2.863-1.65.014-.07zm.628 6.491l3.38-1.958 2.878 1.665-3.422 2.014-2.836-1.777v.056zm.14-19.587l3.394-1.959 2.864 1.665-3.408 2.029-2.794-1.665-.056-.07zm.866 32.487l3.394-1.973 4.596 2.659-3.408 2.028-4.596-2.658.014-.056zm.852-5.596l3.38-1.973 9.052 5.233-3.408 2.028-8.968-5.47-.056.182zm1.09-17.783l3.394-1.959 2.864 1.665-3.409 2.015-2.863-1.651.014-.07zm1.117 6.786l3.395-1.959 2.835 1.399-3.408 2.029-2.864-1.651.042.182zm.629 6.492l3.38-1.959 2.878 1.665-3.45 1.777-2.794-1.651-.014.168zm.14-19.588l3.394-1.959 2.864 1.665-3.409 2.029-2.863-1.665.014-.07zm2.793 9.066l3.395-1.958 2.863 1.665-3.408 2.014-2.864-1.651.014-.07zm.769 24.988l3.38-1.958 2.878 1.651-3.423 2.028-2.793-1.651-.042-.07zm.349-18.188l3.394-1.959 2.794 1.651-3.241 1.735-2.793-1.651-.154.224zm.628 6.492l3.381-1.959 2.626 1.511c.255.13.539.193.824.182.299.01.596-.052.866-.182l4.456-2.574 3.353 1.945-8.703 5.092-6.83-3.945.027-.07zm.14-19.588l3.395-1.958 2.863 1.665-3.38 1.665-2.864-1.665-.014.293zm2.794 9.067l3.38-1.959 2.878 1.665-3.408 2.014-2.794-1.65-.056-.07zm.768 24.988l3.381-1.959 2.877 1.651-3.422 2.028-2.794-1.65-.042-.07zm.349-18.189l3.395-1.959 2.863 1.651-3.408 2.029-2.864-1.651.014-.07zm2.794-11.962l3.381-1.959 2.877 1.651-3.422 2.029-2.864-1.651.028-.07zm.768 7.891l3.381-1.959 2.878 1.665-3.409 2.015-2.863-1.651.013-.07zm.769 24.988l3.394-1.959 2.864 1.651-3.423 2.029-2.793-1.651-.042-.07zm.614-5.778l3.381-1.959 2.877 1.665-3.422 2.028-2.794-1.986-.042.252zm2.543-24.387l3.38-1.959 2.864 1.651-3.409 2.029-2.863-1.651.028-.07zm.768 7.891l3.394-1.959 5.085 2.938-3.408 2.029-5.085-2.938.014-.07zm1.76 25.562l3.381-1.959 7.571 4.365-3.423 2.029-7.557-4.365.028-.07zm.838-17.923l3.395-1.959 2.863 1.665-3.408 2.015-2.864-1.651.014-.07zm1.327-12.816l3.381-1.958 2.863 1.651-3.394 1.679-2.794-1.651-.056.279zm3.143 27.675l3.395-1.959 2.863 1.665-3.408 2.029-2.864-1.665.014-.07zm.224-12.145l3.394-1.958 2.794 1.665-3.408 2.014-2.794-1.651.014-.07zm.614-5.778l3.395-1.959 2.794 1.651-3.409 2.029-2.794-1.651.014-.07zm.713-6.995l3.38-1.959 2.794 1.651-3.408 2.029-2.794-1.651.028-.07zm2.528 33.452l3.381-1.959 2.877 1.651-3.422 2.029-2.794-1.651-.042-.07zm.615-5.778l3.394-1.959 2.794 1.665-3.408 2.029-2.794-1.665.014-.07zm.223-12.144l3.395-1.959 2.863 1.665-3.408 2.015-2.864-1.651.014-.07zm.391 6.352l3.395-1.959 2.794 1.665-3.409 2.015-2.794-1.651.014-.07zm.224-12.131l3.394-1.958 2.864 1.651-3.408 2.028-2.864-1.651.014-.07zm1.746-6.435l3.381-1.959 2.877 1.651-3.338 1.665-2.864-1.651-.056.294zm1.495 32.85l8.688-5.036 2.864 1.665-8.703 5.092-2.877-1.651.028-.07zm.614-5.778l3.395-1.959 2.863 1.665-3.366 1.623-2.794-1.665-.098.336zm.615-5.792l3.394-1.959 2.864 1.665-3.408 2.015-2.808-2.057-.042.336zm.223-12.13l3.395-1.959 2.864 1.651-3.409 2.029-2.863-1.651.013-.07zm.378 6.352l3.394-1.959 2.864 1.651-3.409 2.028-2.863-1.65.014-.07zm1.397-12.788l3.38-1.959 2.878 1.651-3.409 2.029-2.863-1.651.014-.07zm2.723 21.28l3.395-1.959 2.864 1.665-3.409 2.029-2.836-1.987-.014.252zm.601-5.778l3.395-1.959 2.863 1.651-3.366 1.637-2.864-1.651-.028.322zm.615-5.778l3.38-1.959 2.878 1.651-3.423 2.028-2.793-1.65-.042-.07zm.754-6.996l3.381-1.959 2.877 1.651-3.408 2.029-2.864-1.651.014-.07zm2.724 21.28l8.703-5.022 2.863 1.651-8.716 5.106-2.864-1.665.014-.07zm.601-5.778l3.394-1.959 2.864 1.651-3.409 2.029-2.863-1.651.014-.07zm.614-5.778l3.381-1.959 2.877 1.651-3.436 1.623-2.794-1.651-.028.336zm3.115-7.234l1.397-.853 2.878 1.665-1.481.909-2.794-1.651v-.07zm1.579 9.948l3.38-1.959 2.878 1.651-3.422 2.029-2.794-1.651-.042-.07zm3.115-7.233l1.397-.854 2.877 1.665-1.48.91-2.794-1.651v-.07zm1.578 9.947l3.381-1.958 2.877 1.651-3.422 2.028-2.794-1.651-.042-.07zm3.115-7.233l1.397-.853 2.878 1.664-1.481.91-2.794-1.651v-.07zm4.68 2.714l1.397-.853 2.877 1.665-1.48.909-2.794-1.651v-.07z" fill="#79BB49"/><path opacity=".15" d="M252.646 278.08c.62.359 1.383.359 2.003 0l28.063-16.227c1.332-.771 1.332-2.693 0-3.463l-156.311-90.394a1.997 1.997 0 00-2.003 0l-28.063 16.227c-1.332.771-1.332 2.693 0 3.463l156.311 90.394z" fill="#000"/><path d="M162.864 248.481l-22.881-13.264c-2.361-1.399-3.548-3.148-3.548-4.939v-3.19l21.54-12.242a5.059 5.059 0 002.276-3.959v-28.262l39.979 23.141v28.262a5.058 5.058 0 01-2.277 3.959l-17.991 10.494a18.901 18.901 0 01-17.098 0z" fill="#E6E6E6"/><path d="M190.634 239.037v3.176l7.319-4.198a5.027 5.027 0 002.277-3.959v-28.262l-7.613-4.407c-.153 1.945-.335 3.945-.489 5.89l5.337 3.106v22.078a5.002 5.002 0 01-2.277 3.959l-4.554 2.617z" fill="#E0E0E0"/><path d="M197.465 232.433a5.038 5.038 0 01-2.277 3.959l-15.226 8.899a18.889 18.889 0 01-17.098 0l-22.895-13.264c-4.722-2.714-4.722-7.149 0-9.877l15.24-8.899a5.035 5.035 0 002.277-3.945v-22.092l39.979 23.141v22.078z" fill="#F5F5F5"/><path d="M150.571 215.938l4.638-2.687a5.035 5.035 0 002.277-3.945v-22.092l39.979 23.141v22.078a5.038 5.038 0 01-2.277 3.959l-4.554 2.645-40.063-23.099zM136.435 227.088v3.19c0 1.791 1.187 3.568 3.534 4.939l22.895 13.25a17.183 17.183 0 008.157 2.028v-3.176a17.183 17.183 0 01-8.157-2.028l-22.895-13.264c-2.347-1.357-3.534-3.148-3.534-4.939z" fill="#EBEBEB"/><path d="M261.666 262.933a6.096 6.096 0 01-5.518-.097l-154.622-89.347a6.28 6.28 0 01-2.793-4.939V32.935a5.366 5.366 0 012.67-4.85 5.343 5.343 0 015.529.107l154.608 89.417a6.28 6.28 0 012.794 4.938v135.546a6.097 6.097 0 01-2.668 4.84z" fill="#455A64"/><path d="M256.148 262.822l-154.622-89.333a6.282 6.282 0 01-2.794-4.939V32.92c0-1.818 1.272-2.546 2.794-1.636l154.622 89.403a6.326 6.326 0 012.793 4.938v135.56c.056 1.846-1.229 2.546-2.793 1.637z" fill="#37474F"/><path d="M256.567 263.395a5.32 5.32 0 007.767-4.953v-15.25l-5.336 3.05v15.25c0 1.707-1.048 2.449-2.431 1.903z" fill="#E0E0E0"/><path d="M258.997 246.242v15.25c0 1.819-1.285 2.561-2.794 1.651l-154.677-89.374a6.282 6.282 0 01-2.794-4.939v-15.25l160.265 92.662z" fill="#fff"/><path d="M253.648 234.686V127.402a3.806 3.806 0 00-1.704-2.966L105.732 39.902c-.936-.545-1.705-.111-1.705.98v107.283a3.77 3.77 0 001.705 2.966l146.212 84.548c.894.546 1.704.098 1.704-.993z" fill="#79BB49"/><path opacity=".5" d="M253.648 234.686V127.402a3.806 3.806 0 00-1.704-2.966L105.732 39.902c-.936-.545-1.705-.111-1.705.98v107.283a3.77 3.77 0 001.705 2.966l146.212 84.548c.894.546 1.704.098 1.704-.993z" fill="#fff"/><path d="M178.802 205.766a5.935 5.935 0 012.668 4.631c0 1.707-1.201 2.407-2.668 1.553a5.93 5.93 0 01-2.682-4.645c.042-1.637 1.285-2.392 2.682-1.539z" fill="#455A64"/><path d="M258.159 122.813c.5.852.787 1.812.838 2.799v120.63l5.336-3.092V122.547a5.876 5.876 0 00-.838-2.798l-5.336 3.064z" fill="#263238"/><path d="M124.854 3.47a1.999 1.999 0 011.83.238l180.45 104.289a6.09 6.09 0 012.724 4.743v8.982l3.478-2.043v-8.856a6.041 6.041 0 00-2.723-4.729L130.163 1.734a1.9 1.9 0 00-1.97-.167c-.489.308-2.752 1.595-3.339 1.903z" fill="#79BB49"/><path d="M123.96 5.26c0-1.72 1.229-2.42 2.724-1.552l180.45 104.303a5.999 5.999 0 012.724 4.729v8.982L123.96 14.229V5.26z" fill="#79BB49"/><path opacity=".5" d="M126.684 3.708l180.45 104.303a5.592 5.592 0 011.914 2.014l3.464-2a5.46 5.46 0 00-1.9-2.001L130.176 1.734a1.926 1.926 0 00-1.983-.167c-.489.308-2.794 1.595-3.325 1.903a1.926 1.926 0 011.816.238z" fill="#fff"/><path opacity=".15" d="M313.35 119.623v-8.87a5.602 5.602 0 00-.824-2.798l-3.478 2.001a5.38 5.38 0 01.824 2.714v9.052l3.478-2.099z" fill="#000"/><path d="M303.711 109.886a4.07 4.07 0 011.537 3.273c0 1.302-.685 1.973-1.537 1.483a4.078 4.078 0 01-1.536-3.273c0-1.302.684-1.973 1.536-1.483zM298.165 106.682a4.042 4.042 0 011.537 3.26c0 1.315-.685 1.972-1.537 1.483a4.063 4.063 0 01-1.151-1.449 4.06 4.06 0 01-.385-1.811c0-1.315.684-1.973 1.536-1.483zM292.62 103.534a4.07 4.07 0 011.537 3.274c0 1.301-.685 1.972-1.537 1.483a4.077 4.077 0 01-1.149-1.458 4.08 4.08 0 01-.387-1.816c0-1.385.684-2.043 1.536-1.483z" fill="#455A64"/><path opacity=".9" d="M308.88 245.808l.14-.084 2.877-1.664a2.882 2.882 0 001.397-2.113 3.661 3.661 0 000-.392V119.609l-3.492 2.057v122.491a1.803 1.803 0 01-.852 1.553h-.084l.014.098z" fill="#263238"/><path d="M179.234 60.777l38.038 21.952a2.072 2.072 0 01.977 1.609c0 .588-.433.811-.977.49l-38.038-21.952a2.09 2.09 0 01-.963-1.61c0-.587.433-.797.963-.489z" fill="#79BB49"/><path d="M193.776 102.806l14.36 8.311a2.063 2.063 0 01.964 1.609c0 .573-.433.797-.964.489l-14.36-8.282a2.04 2.04 0 01-.978-1.609c-.028-.602.433-.826.978-.518zM193.776 111.215l14.36 8.296a2.109 2.109 0 01.964 1.623c0 .574-.433.798-.964.49l-14.36-8.297a2.07 2.07 0 01-.978-1.609c-.028-.601.433-.811.978-.503z" fill="#E6E6E6"/><path d="M221.029 84.898l76.172 43.931c.276.178.506.416.674.698.167.282.266.599.29.925 0 .574-.433.798-.964.49L221.029 87.01a2.111 2.111 0 01-.964-1.623c0-.573.433-.797.964-.49zM194.083 161.75l23.188 13.446c.28.17.515.404.685.685.171.28.271.597.293.924 0 .573-.433.797-.978.489l-23.188-13.445a2.067 2.067 0 01-.964-1.609c0-.574.433-.797.964-.49zM221.029 177.364l76.172 43.988a2.077 2.077 0 01.964 1.609c0 .588-.433.798-.964.49l-76.172-43.988a2.084 2.084 0 01-.964-1.609c0-.588.433-.798.964-.49zM179.234 69.2l19.124 11.025a2.09 2.09 0 01.964 1.609c0 .587-.433.811-.964.49l-19.124-10.97a2.081 2.081 0 01-.963-1.609c0-.63.433-.853.963-.545z" fill="#79BB49"/><path opacity=".6" d="M179.234 69.2l19.124 11.025a2.09 2.09 0 01.964 1.609c0 .587-.433.811-.964.49l-19.124-10.97a2.081 2.081 0 01-.963-1.609c0-.63.433-.853.963-.545z" fill="#fff"/><path d="M179.234 77.594l8.968 5.177a2.08 2.08 0 01.964 1.609c0 .574-.433.797-.964.49l-8.968-5.121a2.09 2.09 0 01-.963-1.61c0-.643.433-.853.963-.545z" fill="#79BB49"/><path opacity=".6" d="M179.234 77.594l8.968 5.177a2.08 2.08 0 01.964 1.609c0 .574-.433.797-.964.49l-8.968-5.121a2.09 2.09 0 01-.963-1.61c0-.643.433-.853.963-.545z" fill="#fff"/><path d="M179.234 94.397l8.968 5.177a2.1 2.1 0 01.673.698c.168.281.267.598.291.925 0 .574-.433.798-.964.49l-8.968-5.177a2.121 2.121 0 01-.963-1.623c0-.573.433-.797.963-.49z" fill="#79BB49"/><path opacity=".6" d="M179.234 94.397l8.968 5.177a2.1 2.1 0 01.673.698c.168.281.267.598.291.925 0 .574-.433.798-.964.49l-8.968-5.177a2.121 2.121 0 01-.963-1.623c0-.573.433-.797.963-.49z" fill="#fff"/><path d="M179.234 102.806l8.968 5.177a2.075 2.075 0 01.964 1.609c0 .587-.433.811-.964.489l-8.968-5.176a2.07 2.07 0 01-.963-1.609c0-.574.433-.798.963-.49z" fill="#79BB49"/><path opacity=".6" d="M179.234 102.806l8.968 5.177a2.075 2.075 0 01.964 1.609c0 .587-.433.811-.964.489l-8.968-5.176a2.07 2.07 0 01-.963-1.609c0-.574.433-.798.963-.49z" fill="#fff"/><path d="M202.158 82.393l11.482 6.674a2.064 2.064 0 01.978 1.609c0 .587-.433.797-.978.49l-11.482-6.66a2.097 2.097 0 01-.978-1.623c-.028-.574.433-.798.978-.49z" fill="#79BB49"/><path opacity=".6" d="M202.158 82.393l11.482 6.674a2.064 2.064 0 01.978 1.609c0 .587-.433.797-.978.49l-11.482-6.66a2.097 2.097 0 01-.978-1.623c-.028-.574.433-.798.978-.49z" fill="#fff"/><path d="M219.926 143.17l77.276 44.562a2.063 2.063 0 01.964 1.609c0 .573-.433.797-.964.489l-77.276-44.561a2.074 2.074 0 01-.978-1.609c0-.588.433-.798.978-.49zM285.705 172.649l11.496 6.66a2.075 2.075 0 01.964 1.609c0 .588-.433.798-.964.49l-11.496-6.66a2.084 2.084 0 01-.964-1.609c0-.588.433-.811.964-.49zM204.672 125.919l77.276 44.562a2.123 2.123 0 01.964 1.623c0 .573-.434.797-.964.489l-77.276-44.575a2.102 2.102 0 01-.964-1.623c0-.574.433-.798.964-.476z" fill="#fff"/><path d="M193.776 86.003l19.151 11.025a2.038 2.038 0 01.978 1.609c0 .573-.433.797-.978.49l-19.151-10.983a2.073 2.073 0 01-.978-1.61c-.028-.63.433-.853.978-.531z" fill="#79BB49"/><path opacity=".6" d="M193.776 86.003l19.151 11.025a2.038 2.038 0 01.978 1.609c0 .573-.433.797-.978.49l-19.151-10.983a2.073 2.073 0 01-.978-1.61c-.028-.63.433-.853.978-.531z" fill="#fff"/><path d="M216.685 99.196l79.943 46.311a2.105 2.105 0 01.964 1.623c0 .573-.433.797-.964.489l-79.943-46.324a2.075 2.075 0 01-.964-1.609c0-.588.433-.797.964-.49z" fill="#79BB49"/><path opacity=".6" d="M216.685 99.196l79.943 46.311a2.105 2.105 0 01.964 1.623c0 .573-.433.797-.964.489l-79.943-46.324a2.075 2.075 0 01-.964-1.609c0-.588.433-.797.964-.49z" fill="#fff"/><path d="M193.776 136.608l103.37 59.728a2.084 2.084 0 01.964 1.609c0 .588-.433.812-.964.504l-103.37-59.742a2.07 2.07 0 01-1.005-1.595c0-.602.46-.811 1.005-.504z" fill="#E6E6E6"/><path d="M179.234 128.2l8.968 5.177a2.081 2.081 0 01.964 1.608c0 .588-.433.798-.964.49l-8.968-5.177a2.07 2.07 0 01-.963-1.608c0-.574.433-.798.963-.49z" fill="#79BB49"/><path opacity=".6" d="M179.234 128.2l8.968 5.177a2.081 2.081 0 01.964 1.608c0 .588-.433.798-.964.49l-8.968-5.177a2.07 2.07 0 01-.963-1.608c0-.574.433-.798.963-.49z" fill="#fff"/><path d="M193.776 145.003l103.37 59.742a2.09 2.09 0 01.964 1.609c0 .587-.433.797-.964.489l-103.37-59.741a2.046 2.046 0 01-1.005-1.595c0-.588.46-.812 1.005-.504z" fill="#E6E6E6"/><path d="M179.234 136.608l8.968 5.177a2.068 2.068 0 01.964 1.609c0 .574-.433.798-.964.49l-8.968-5.177a2.084 2.084 0 01-.963-1.609c0-.588.433-.797.963-.49z" fill="#79BB49"/><path opacity=".6" d="M179.234 136.608l8.968 5.177a2.068 2.068 0 01.964 1.609c0 .574-.433.798-.964.49l-8.968-5.177a2.084 2.084 0 01-.963-1.609c0-.588.433-.797.963-.49z" fill="#fff"/><path d="M193.776 153.412l103.37 59.741a2.074 2.074 0 01.964 1.609c0 .574-.433.798-.964.49l-103.37-59.742a2.07 2.07 0 01-1.005-1.609c0-.587.46-.797 1.005-.489z" fill="#E6E6E6"/><path d="M179.234 145.003l8.968 5.177a2.081 2.081 0 01.964 1.609c0 .587-.433.811-.964.503l-8.968-5.19a2.07 2.07 0 01-.963-1.609c0-.574.433-.798.963-.49z" fill="#79BB49"/><path opacity=".6" d="M179.234 145.003l8.968 5.177a2.081 2.081 0 01.964 1.609c0 .587-.433.811-.964.503l-8.968-5.19a2.07 2.07 0 01-.963-1.609c0-.574.433-.798.963-.49z" fill="#fff"/><g opacity=".6" fill="#fff"><path opacity=".6" d="M165.266 52.34l5.266 3.05a2.111 2.111 0 01.95 1.665V59c0 .602-.419.854-.95.546l-5.266-3.05a2.1 2.1 0 01-.964-1.651V52.9c0-.615.433-.853.964-.56zM165.266 60.833l5.266 3.05a2.115 2.115 0 01.95 1.651v1.945c0 .615-.419.853-.95.56l-5.266-3.05a2.122 2.122 0 01-.964-1.666V61.38c0-.602.433-.854.964-.546zM165.266 69.312l5.266 3.05a2.111 2.111 0 01.95 1.665v1.944c0 .602-.419.854-.95.546l-5.266-3.05a2.115 2.115 0 01-.964-1.651v-1.945c0-.615.433-.853.964-.56zM165.266 77.804l5.266 3.05a2.113 2.113 0 01.95 1.651v1.945c0 .615-.419.853-.95.56l-5.266-3.05a2.122 2.122 0 01-.964-1.665V78.35c0-.602.433-.854.964-.546zM165.266 86.283l5.266 3.05a2.112 2.112 0 01.95 1.665v1.93c0 .616-.419.868-.95.56l-5.266-3.05a2.115 2.115 0 01-.964-1.65v-1.946c0-.615.433-.867.964-.56zM165.266 94.775l5.266 3.05a2.08 2.08 0 01.95 1.651v1.945c0 .616-.419.853-.95.56l-5.266-3.05a2.122 2.122 0 01-.964-1.665V95.32c0-.602.433-.854.964-.546zM165.266 103.254l5.266 3.05a2.116 2.116 0 01.95 1.665v1.931c0 .615-.419.867-.95.559l-5.266-3.05a2.115 2.115 0 01-.964-1.651v-1.945c0-.615.433-.867.964-.559zM165.266 111.746l5.266 3.05a2.085 2.085 0 01.95 1.651v1.945c0 .616-.419.854-.95.546l-5.266-3.036a2.124 2.124 0 01-.964-1.665v-1.945c0-.602.433-.853.964-.546zM165.266 120.225l5.266 3.05a2.116 2.116 0 01.95 1.665v1.931c0 .615-.419.867-.95.559l-5.266-3.05a2.115 2.115 0 01-.964-1.665v-1.93c0-.616.433-.868.964-.56zM165.266 128.717l5.266 3.051a2.067 2.067 0 01.95 1.65v1.945c0 .616-.419.854-.95.546l-5.266-2.994a2.124 2.124 0 01-.964-1.665v-1.945c0-.588.433-.895.964-.588zM165.266 137.196l5.266 3.05a2.116 2.116 0 01.95 1.665v1.931c0 .615-.419.867-.95.559l-5.266-3.092a2.115 2.115 0 01-.964-1.665v-1.93c0-.602.433-.826.964-.518zM165.266 145.689l5.266 3.036a2.106 2.106 0 01.95 1.665v1.944c0 .616-.419.854-.95.546l-5.266-3.036a2.124 2.124 0 01-.964-1.665v-1.945c0-.601.433-.853.964-.545z"/></g><path d="M130.301 24.778l28.497 16.482a4.207 4.207 0 011.914 3.316v32.962c0 1.218-.852 1.721-1.914 1.106l-28.497-16.482a4.203 4.203 0 01-1.913-3.316V25.897c0-1.23.852-1.72 1.913-1.119z" fill="#37474F"/><path d="M132.941 57.447l2.627 1.525a2.104 2.104 0 01.977 1.61c0 .587-.447.797-.977.489l-2.627-1.525a2.08 2.08 0 01-.963-1.61c0-.573.433-.797.963-.489z" fill="#79BB49"/><path opacity=".6" d="M132.941 57.447l2.627 1.525a2.104 2.104 0 01.977 1.61c0 .587-.447.797-.977.489l-2.627-1.525a2.08 2.08 0 01-.963-1.61c0-.573.433-.797.963-.489z" fill="#fff"/><path d="M132.941 30.459l2.627 1.524c.276.175.508.41.677.69.17.279.273.594.3.92 0 .587-.447.797-.977.49l-2.627-1.512a2.121 2.121 0 01-.963-1.623c0-.573.433-.797.963-.49z" fill="#79BB49"/><path opacity=".6" d="M132.941 30.459l2.627 1.524c.276.175.508.41.677.69.17.279.273.594.3.92 0 .587-.447.797-.977.49l-2.627-1.512a2.121 2.121 0 01-.963-1.623c0-.573.433-.797.963-.49z" fill="#fff"/><path d="M136.629 37.986l2.626 1.51a2.08 2.08 0 01.964 1.61c0 .587-.433.811-.964.49l-2.626-1.512a2.08 2.08 0 01-.964-1.609c0-.587.433-.797.964-.49z" fill="#79BB49"/><path opacity=".6" d="M136.629 37.986l2.626 1.51a2.08 2.08 0 01.964 1.61c0 .587-.433.811-.964.49l-2.626-1.512a2.08 2.08 0 01-.964-1.609c0-.587.433-.797.964-.49z" fill="#fff"/><path d="M136.629 43.372l2.626 1.525a2.08 2.08 0 01.964 1.61c0 .587-.433.797-.964.489l-2.626-1.511a2.08 2.08 0 01-.964-1.61c0-.6.433-.825.964-.503z" fill="#79BB49"/><path opacity=".6" d="M136.629 43.372l2.626 1.525a2.08 2.08 0 01.964 1.61c0 .587-.433.797-.964.489l-2.626-1.511a2.08 2.08 0 01-.964-1.61c0-.6.433-.825.964-.503z" fill="#fff"/><path d="M132.941 46.646l2.627 1.525a2.104 2.104 0 01.977 1.61c0 .587-.447.797-.977.489l-2.627-1.511a2.093 2.093 0 01-.963-1.623c0-.574.433-.798.963-.49z" fill="#79BB49"/><path opacity=".6" d="M132.941 46.646l2.627 1.525a2.104 2.104 0 01.977 1.61c0 .587-.447.797-.977.489l-2.627-1.511a2.093 2.093 0 01-.963-1.623c0-.574.433-.798.963-.49z" fill="#fff"/><path d="M136.629 54.173l2.626 1.525a2.07 2.07 0 01.964 1.609c0 .574-.433.798-.964.49l-2.626-1.525a2.07 2.07 0 01-.964-1.609c0-.574.433-.797.964-.49z" fill="#79BB49"/><path opacity=".6" d="M136.629 54.173l2.626 1.525a2.07 2.07 0 01.964 1.609c0 .574-.433.798-.964.49l-2.626-1.525a2.07 2.07 0 01-.964-1.609c0-.574.433-.797.964-.49z" fill="#fff"/><path d="M140.135 34.614l16.008 9.276a2.045 2.045 0 01.978 1.609c0 .573-.433.797-.978.49l-16.008-9.263a2.07 2.07 0 01-.978-1.623c0-.573.433-.797.978-.49z" fill="#79BB49"/><path opacity=".8" d="M140.135 34.614l16.008 9.276a2.045 2.045 0 01.978 1.609c0 .573-.433.797-.978.49l-16.008-9.263a2.07 2.07 0 01-.978-1.623c0-.573.433-.797.978-.49z" fill="#fff"/><path d="M140.135 61.56l16.008 9.277a2.046 2.046 0 01.978 1.609c0 .573-.433.797-.978.49l-16.008-9.263a2.095 2.095 0 01-.978-1.623c0-.49.433-.755.978-.49z" fill="#79BB49"/><path opacity=".8" d="M140.135 61.56l16.008 9.277a2.046 2.046 0 01.978 1.609c0 .573-.433.797-.978.49l-16.008-9.263a2.095 2.095 0 01-.978-1.623c0-.49.433-.755.978-.49z" fill="#fff"/><path d="M143.879 42.141l12.321 7.135a2.07 2.07 0 01.977 1.623c0 .574-.433.798-.977.49l-12.321-7.15a2.072 2.072 0 01-.978-1.608c-.056-.588.378-.798.978-.49z" fill="#79BB49"/><path opacity=".8" d="M143.879 42.141l12.321 7.135a2.07 2.07 0 01.977 1.623c0 .574-.433.798-.977.49l-12.321-7.15a2.072 2.072 0 01-.978-1.608c-.056-.588.378-.798.978-.49z" fill="#fff"/><path d="M143.879 47.57l12.321 7.149a2.073 2.073 0 01.977 1.609c0 .587-.433.797-.977.49l-12.321-7.178a2.073 2.073 0 01-.978-1.609c-.056-.587.378-.811.978-.462z" fill="#79BB49"/><path opacity=".8" d="M143.879 47.57l12.321 7.149a2.073 2.073 0 01.977 1.609c0 .587-.433.797-.977.49l-12.321-7.178a2.073 2.073 0 01-.978-1.609c-.056-.587.378-.811.978-.462z" fill="#fff"/><path d="M140.135 50.815l16.008 9.263a2.066 2.066 0 01.978 1.608c0 .588-.433.798-.978.49l-16.008-9.262a2.073 2.073 0 01-.978-1.609c0-.587.433-.797.978-.49z" fill="#79BB49"/><path opacity=".8" d="M140.135 50.815l16.008 9.263a2.066 2.066 0 01.978 1.608c0 .588-.433.798-.978.49l-16.008-9.262a2.073 2.073 0 01-.978-1.609c0-.587.433-.797.978-.49z" fill="#fff"/><path d="M143.879 58.329l12.321 7.149a2.038 2.038 0 01.977 1.609c0 .574-.433.797-.977.49l-12.321-7.15a2.038 2.038 0 01-.978-1.609c-.056-.573.378-.797.978-.49z" fill="#79BB49"/><path opacity=".8" d="M143.879 58.329l12.321 7.149a2.038 2.038 0 01.977 1.609c0 .574-.433.797-.977.49l-12.321-7.15a2.038 2.038 0 01-.978-1.609c-.056-.573.378-.797.978-.49z" fill="#fff"/><path d="M130.301 68.374l28.497 16.468a4.204 4.204 0 011.914 3.302v65.114c0 1.231-.852 1.721-1.914 1.105l-28.497-16.481a4.2 4.2 0 01-1.913-3.316V69.479c0-1.23.852-1.72 1.913-1.105z" fill="#37474F"/><path d="M132.941 74.04l2.627 1.512a2.103 2.103 0 01.977 1.609c0 .587-.447.797-.977.49l-2.627-1.512a2.09 2.09 0 01-.963-1.609c0-.573.433-.797.963-.49z" fill="#79BB49"/><path opacity=".6" d="M132.941 74.04l2.627 1.512a2.103 2.103 0 01.977 1.609c0 .587-.447.797-.977.49l-2.627-1.512a2.09 2.09 0 01-.963-1.609c0-.573.433-.797.963-.49z" fill="#fff"/><path d="M136.629 81.568l2.626 1.51a2.105 2.105 0 01.964 1.624c0 .573-.433.797-.964.49l-2.626-1.526a2.08 2.08 0 01-.964-1.609c0-.587.433-.797.964-.49z" fill="#79BB49"/><path opacity=".6" d="M136.629 81.568l2.626 1.51a2.105 2.105 0 01.964 1.624c0 .573-.433.797-.964.49l-2.626-1.526a2.08 2.08 0 01-.964-1.609c0-.587.433-.797.964-.49z" fill="#fff"/><path d="M136.629 86.954l2.626 1.511a2.08 2.08 0 01.964 1.61c0 .587-.433.797-.964.489l-2.626-1.511a2.08 2.08 0 01-.964-1.61c0-.587.433-.81.964-.489z" fill="#79BB49"/><path opacity=".6" d="M136.629 86.954l2.626 1.511a2.08 2.08 0 01.964 1.61c0 .587-.433.797-.964.489l-2.626-1.511a2.08 2.08 0 01-.964-1.61c0-.587.433-.81.964-.489z" fill="#fff"/><path d="M132.941 90.242l2.627 1.511c.276.174.508.41.677.69.17.279.273.594.3.92 0 .587-.447.797-.977.489l-2.627-1.511a2.09 2.09 0 01-.963-1.61c0-.587.433-.81.963-.489z" fill="#79BB49"/><path opacity=".6" d="M132.941 90.242l2.627 1.511c.276.174.508.41.677.69.17.279.273.594.3.92 0 .587-.447.797-.977.489l-2.627-1.511a2.09 2.09 0 01-.963-1.61c0-.587.433-.81.963-.489z" fill="#fff"/><path d="M140.135 78.21l16.008 9.262a2.045 2.045 0 01.978 1.609c0 .573-.433.797-.978.49l-16.008-9.263a2.072 2.072 0 01-.978-1.609c0-.587.433-.81.978-.49z" fill="#79BB49"/><path opacity=".8" d="M140.135 78.21l16.008 9.262a2.045 2.045 0 01.978 1.609c0 .573-.433.797-.978.49l-16.008-9.263a2.072 2.072 0 01-.978-1.609c0-.587.433-.81.978-.49z" fill="#fff"/><path d="M143.879 85.723l12.321 7.15a2.04 2.04 0 01.977 1.608c0 .574-.433.798-.977.49l-12.321-7.15a2.073 2.073 0 01-.978-1.608c-.056-.588.378-.798.978-.49z" fill="#79BB49"/><path opacity=".8" d="M143.879 85.723l12.321 7.15a2.04 2.04 0 01.977 1.608c0 .574-.433.798-.977.49l-12.321-7.15a2.073 2.073 0 01-.978-1.608c-.056-.588.378-.798.978-.49z" fill="#fff"/><path d="M143.879 91.124l12.321 7.135a2.073 2.073 0 01.977 1.609c0 .588-.433.811-.977.504l-12.321-7.15a2.072 2.072 0 01-.978-1.609c-.056-.587.378-.811.978-.49z" fill="#79BB49"/><path opacity=".8" d="M143.879 91.124l12.321 7.135a2.073 2.073 0 01.977 1.609c0 .588-.433.811-.977.504l-12.321-7.15a2.072 2.072 0 01-.978-1.609c-.056-.587.378-.811.978-.49z" fill="#fff"/><path d="M140.135 94.397l16.008 9.263a2.064 2.064 0 01.978 1.609c0 .587-.433.797-.978.489l-16.008-9.22a2.072 2.072 0 01-.978-1.609c0-.63.433-.84.978-.532z" fill="#79BB49"/><path opacity=".8" d="M140.135 94.397l16.008 9.263a2.064 2.064 0 01.978 1.609c0 .587-.433.797-.978.489l-16.008-9.22a2.072 2.072 0 01-.978-1.609c0-.63.433-.84.978-.532z" fill="#fff"/><path d="M136.629 97.783l2.626 1.525a2.08 2.08 0 01.964 1.609c0 .588-.433.798-.964.49l-2.626-1.511a2.08 2.08 0 01-.964-1.609c0-.588.433-.812.964-.504z" fill="#79BB49"/><path opacity=".6" d="M136.629 97.783l2.626 1.525a2.08 2.08 0 01.964 1.609c0 .588-.433.798-.964.49l-2.626-1.511a2.08 2.08 0 01-.964-1.609c0-.588.433-.812.964-.504z" fill="#fff"/><path d="M136.629 103.17l2.626 1.525a2.075 2.075 0 01.964 1.609c0 .573-.433.797-.964.49l-2.626-1.525a2.074 2.074 0 01-.964-1.609c0-.574.433-.798.964-.49z" fill="#79BB49"/><path opacity=".6" d="M136.629 103.17l2.626 1.525a2.075 2.075 0 01.964 1.609c0 .573-.433.797-.964.49l-2.626-1.525a2.074 2.074 0 01-.964-1.609c0-.574.433-.798.964-.49z" fill="#fff"/><path d="M143.879 101.939l12.321 7.149a2.074 2.074 0 01.977 1.609c0 .588-.433.812-.977.49l-12.321-7.136a2.07 2.07 0 01-.978-1.609c-.056-.587.378-.811.978-.503z" fill="#79BB49"/><path opacity=".8" d="M143.879 101.939l12.321 7.149a2.074 2.074 0 01.977 1.609c0 .588-.433.812-.977.49l-12.321-7.136a2.07 2.07 0 01-.978-1.609c-.056-.587.378-.811.978-.503z" fill="#fff"/><path d="M143.879 107.339l12.321 7.15a2.07 2.07 0 01.977 1.609c0 .587-.433.797-.977.489l-12.321-7.149a2.04 2.04 0 01-.978-1.609c-.056-.574.378-.798.978-.49z" fill="#79BB49"/><path opacity=".8" d="M143.879 107.339l12.321 7.15a2.07 2.07 0 01.977 1.609c0 .587-.433.797-.977.489l-12.321-7.149a2.04 2.04 0 01-.978-1.609c-.056-.574.378-.798.978-.49z" fill="#fff"/><path d="M132.941 117.287l2.627 1.525a2.087 2.087 0 01.977 1.609c0 .573-.447.797-.977.489l-2.627-1.525a2.07 2.07 0 01-.963-1.609c0-.573.433-.797.963-.489z" fill="#79BB49"/><path opacity=".6" d="M132.941 117.287l2.627 1.525a2.087 2.087 0 01.977 1.609c0 .573-.447.797-.977.489l-2.627-1.525a2.07 2.07 0 01-.963-1.609c0-.573.433-.797.963-.489z" fill="#fff"/><path d="M140.135 121.442l16.008 9.276a2.045 2.045 0 01.978 1.609c0 .574-.433.798-.978.49l-16.008-9.262a2.074 2.074 0 01-.978-1.609c0-.588.433-.812.978-.504z" fill="#79BB49"/><path opacity=".8" d="M140.135 121.442l16.008 9.276a2.045 2.045 0 01.978 1.609c0 .574-.433.798-.978.49l-16.008-9.262a2.074 2.074 0 01-.978-1.609c0-.588.433-.812.978-.504z" fill="#fff"/><path d="M136.629 124.842l2.626 1.525a2.067 2.067 0 01.964 1.609c0 .574-.433.797-.964.49l-2.626-1.525a2.074 2.074 0 01-.964-1.609c0-.574.433-.812.964-.49z" fill="#79BB49"/><path opacity=".6" d="M136.629 124.842l2.626 1.525a2.067 2.067 0 01.964 1.609c0 .574-.433.797-.964.49l-2.626-1.525a2.074 2.074 0 01-.964-1.609c0-.574.433-.812.964-.49z" fill="#fff"/><path d="M136.629 130.229l2.626 1.511a2.106 2.106 0 01.964 1.623c0 .573-.433.797-.964.489l-2.626-1.525a2.075 2.075 0 01-.964-1.609c0-.601.433-.797.964-.489z" fill="#79BB49"/><path opacity=".6" d="M136.629 130.229l2.626 1.511a2.106 2.106 0 01.964 1.623c0 .573-.433.797-.964.489l-2.626-1.525a2.075 2.075 0 01-.964-1.609c0-.601.433-.797.964-.489z" fill="#fff"/><path d="M143.879 128.997l12.321 7.15a2.04 2.04 0 01.977 1.609c0 .573-.433.797-.977.489l-12.321-7.149a2.04 2.04 0 01-.978-1.609c-.056-.574.378-.77.978-.49z" fill="#79BB49"/><path opacity=".8" d="M143.879 128.997l12.321 7.15a2.04 2.04 0 01.977 1.609c0 .573-.433.797-.977.489l-12.321-7.149a2.04 2.04 0 01-.978-1.609c-.056-.574.378-.77.978-.49z" fill="#fff"/><path d="M143.879 134.398l12.321 7.149a2.04 2.04 0 01.977 1.609c0 .574-.433.798-.977.49l-12.321-7.15a2.062 2.062 0 01-.978-1.608c-.056-.574.378-.798.978-.49z" fill="#79BB49"/><path opacity=".8" d="M143.879 134.398l12.321 7.149a2.04 2.04 0 01.977 1.609c0 .574-.433.798-.977.49l-12.321-7.15a2.062 2.062 0 01-.978-1.608c-.056-.574.378-.798.978-.49z" fill="#fff"/><path d="M136.629 108.528l2.626 1.525a2.074 2.074 0 01.964 1.609c0 .574-.433.798-.964.49l-2.626-1.525a2.067 2.067 0 01-.964-1.609c0-.574.433-.797.964-.49z" fill="#79BB49"/><path opacity=".6" d="M136.629 108.528l2.626 1.525a2.074 2.074 0 01.964 1.609c0 .574-.433.798-.964.49l-2.626-1.525a2.067 2.067 0 01-.964-1.609c0-.574.433-.797.964-.49z" fill="#fff"/><path d="M132.941 111.816l2.627 1.525a2.09 2.09 0 01.977 1.609c0 .574-.447.798-.977.49l-2.627-1.525a2.075 2.075 0 01-.963-1.609c0-.574.433-.797.963-.49z" fill="#79BB49"/><path opacity=".6" d="M132.941 111.816l2.627 1.525a2.09 2.09 0 01.977 1.609c0 .574-.447.798-.977.49l-2.627-1.525a2.075 2.075 0 01-.963-1.609c0-.574.433-.797.963-.49z" fill="#fff"/><path d="M143.879 112.698l12.321 7.149a2.04 2.04 0 01.977 1.609c0 .574-.433.798-.977.49l-12.321-7.15a2.037 2.037 0 01-.978-1.609c-.056-.573.378-.797.978-.489z" fill="#79BB49"/><path opacity=".8" d="M143.879 112.698l12.321 7.149a2.04 2.04 0 01.977 1.609c0 .574-.433.798-.977.49l-12.321-7.15a2.037 2.037 0 01-.978-1.609c-.056-.573.378-.797.978-.489z" fill="#fff"/><path d="M140.135 115.972l16.008 9.276a2.045 2.045 0 01.978 1.609c0 .573-.433.797-.978.489l-16.008-9.262a2.108 2.108 0 01-.978-1.623c0-.573.433-.797.978-.489z" fill="#79BB49"/><path opacity=".8" d="M140.135 115.972l16.008 9.276a2.045 2.045 0 01.978 1.609c0 .573-.433.797-.978.489l-16.008-9.262a2.108 2.108 0 01-.978-1.623c0-.573.433-.797.978-.489z" fill="#fff"/><path d="M132.941 133.586l2.627 1.525a2.09 2.09 0 01.977 1.609c0 .574-.447.798-.977.49l-2.627-1.497a2.075 2.075 0 01-.963-1.609c0-.602.433-.825.963-.518z" fill="#79BB49"/><path opacity=".6" d="M132.941 133.586l2.627 1.525a2.09 2.09 0 01.977 1.609c0 .574-.447.798-.977.49l-2.627-1.497a2.075 2.075 0 01-.963-1.609c0-.602.433-.825.963-.518z" fill="#fff"/><path d="M140.135 137.756l16.008 9.262a2.045 2.045 0 01.978 1.609c0 .573-.433.797-.978.489l-16.008-9.206a2.07 2.07 0 01-.978-1.609c0-.643.433-.867.978-.545z" fill="#79BB49"/><path opacity=".8" d="M140.135 137.756l16.008 9.262a2.045 2.045 0 01.978 1.609c0 .573-.433.797-.978.489l-16.008-9.206a2.07 2.07 0 01-.978-1.609c0-.643.433-.867.978-.545z" fill="#fff"/><path opacity=".8" d="M288.849 159.903v106.864a4.917 4.917 0 002.221 3.848l61.295 35.425c.225.132.48.204.74.21h.587l.126-.084.126-.112c.174-.165.312-.366.405-.588.16-.351.241-.733.237-1.119V198.015a4.907 4.907 0 00-2.221-3.847l-61.295-35.384a1.624 1.624 0 00-1.495-.196l-.182.112-.153.14a.295.295 0 000 .084.364.364 0 00-.07.126.761.761 0 00-.14.28.803.803 0 000 .196v.21c-.167-.014-.181.084-.181.167z" fill="#455A64"/><path d="M289.575 158.434a1.623 1.623 0 011.495.196l61.295 35.384a4.894 4.894 0 012.221 3.847v7.248l3.534-2.043v-7.192a4.86 4.86 0 00-2.221-3.833L294.604 156.7a1.548 1.548 0 00-1.606-.14c-.406.14-2.948 1.637-3.423 1.874z" fill="#79BB49"/><path d="M288.862 159.89c0-1.4.992-1.959 2.207-1.26l61.296 35.384a4.91 4.91 0 012.221 3.847v7.248l-65.654-37.93-.07-7.289z" fill="#79BB49"/><path opacity=".5" d="M291.07 158.63l61.295 35.384c.652.409 1.19.977 1.565 1.651l3.52-2.029a4.52 4.52 0 00-1.551-1.609L294.604 156.7a1.554 1.554 0 00-1.607-.14c-.391.251-2.947 1.679-3.408 1.93a1.55 1.55 0 011.481.14z" fill="#fff"/><path opacity=".15" d="M358.121 203.08v-7.206a4.7 4.7 0 00-.671-2.224l-3.534 2.015c.415.664.647 1.427.671 2.21v7.248l3.534-2.043z" fill="#000"/><path d="M351.359 196.994a3.308 3.308 0 011.257 2.658c0 1.063-.558 1.609-1.257 1.203a3.3 3.3 0 01-1.257-2.644c0-1.077.517-1.609 1.257-1.217zM346.847 194.391a3.258 3.258 0 011.257 2.645c0 1.077-.558 1.609-1.257 1.217a3.345 3.345 0 01-1.243-2.658c0-1.12.559-1.609 1.243-1.204zM342.349 191.775a3.344 3.344 0 011.286 2.7c0 1.064-.559 1.609-1.244 1.204a3.292 3.292 0 01-1.257-2.659c-.042-1.105.517-1.637 1.215-1.245z" fill="#455A64"/><path opacity=".9" d="M353.776 306.04l.266-.154.684-.392c.115-.08.237-.15.363-.21l.587-.335 1.187-.672.28-.154c.143-.073.271-.173.377-.294.125-.135.224-.291.293-.461.178-.367.269-.769.266-1.176v-99.126l-3.534 2.043v99.07a3.235 3.235 0 01-.238 1.119c-.092.223-.23.423-.405.588a.34.34 0 01-.126.112v.042z" fill="#37474F"/><path d="M293.947 179.435a.364.364 0 01.024-.153.363.363 0 01.088-.127l1.592-1.399h.07a.246.246 0 01.08.063.26.26 0 01.046.091.406.406 0 010 .224v1.105c.01.102.01.206 0 .308-.032.059-.07.115-.112.168l-.852.769.852 1.749c0 .112.084.21.112.308.009.112.009.224 0 .336v1.273a.098.098 0 01-.126 0l-.07-.098-1.592-3.316a.932.932 0 01-.112-.406v-.895zM299.772 177.896a.422.422 0 01.126-.182h.237l.587.35a.233.233 0 01.126.154.406.406 0 010 .224.269.269 0 010 .098l-2.794 8.506a.358.358 0 01-.112.182h-.237l-.573-.336a.282.282 0 01-.126-.154.447.447 0 010-.224v-.097l2.766-8.521zM304.005 186.081a.373.373 0 01-.112.294l-1.593 1.399a.098.098 0 01-.083 0 .278.278 0 01-.126-.154.447.447 0 010-.224v-1.105a1.441 1.441 0 010-.308.491.491 0 01.112-.182l.838-.77-.838-1.734a2.912 2.912 0 01-.112-.308 2.094 2.094 0 010-.336v-1.119a.175.175 0 01-.019-.077c0-.027.007-.053.019-.077h.126a.292.292 0 01.083.098l1.593 3.302a.946.946 0 01.112.419v.882zM308.433 190.432a.408.408 0 01.154.182.695.695 0 010 .28v1.217a.253.253 0 010 .196.114.114 0 01-.154 0l-.754-.434a.408.408 0 01-.154-.182.695.695 0 010-.28v-1.133a.292.292 0 010-.21.11.11 0 01.077-.03.11.11 0 01.077.03l.754.364zM310.947 191.887a.408.408 0 01.154.182.695.695 0 010 .28v1.217a.253.253 0 010 .196.126.126 0 01-.154 0l-.754-.434a.502.502 0 01-.154-.182.755.755 0 01-.07-.28v-1.189a.298.298 0 01.07-.21.114.114 0 01.154 0l.754.42zM313.461 193.342a.348.348 0 01.154.182.66.66 0 010 .28v1.217a.276.276 0 010 .196.126.126 0 01-.154 0l-.754-.434a.47.47 0 01-.154-.196.629.629 0 01-.069-.266v-1.245a.28.28 0 01.069-.196.126.126 0 01.154 0l.754.462zM294.618 189.117l36.822 21.294c.228.14.419.332.557.561.139.229.221.487.239.754 0 .476-.349.644-.796.392l-36.822-21.294a1.7 1.7 0 01-.782-1.301c0-.476.349-.644.782-.406z" fill="#79BB49"/><path d="M306.436 216.455l36.821 21.295a1.671 1.671 0 01.797 1.301c0 .475-.35.657-.797.406l-36.821-21.295a1.692 1.692 0 01-.783-1.315c0-.476.35-.644.783-.392zM306.436 230.11l17.642 10.2a1.692 1.692 0 01.783 1.315c0 .476-.35.644-.783.392l-17.628-10.2a1.664 1.664 0 01-.783-1.301c-.014-.475.336-.657.769-.406z" fill="#E6E6E6"/><path d="M334.499 212.174l14.667 8.395a1.671 1.671 0 01.797 1.301c0 .475-.364.657-.797.405l-14.667-8.394a1.665 1.665 0 01-.782-1.301c0-.476.349-.658.782-.406zM294.618 264.277l36.822 21.294a1.664 1.664 0 01.796 1.301c0 .476-.349.658-.796.406l-36.822-21.295a1.695 1.695 0 01-.782-1.315c0-.475.349-.643.782-.391zM334.499 287.334l14.667 8.394a1.716 1.716 0 01.797 1.316c0 .461-.364.643-.797.391l-14.667-8.394a1.695 1.695 0 01-.782-1.315c0-.462.349-.644.782-.392zM334.499 266.865l14.667 8.395a1.68 1.68 0 01.797 1.301c0 .475-.364.657-.797.405l-14.667-8.394a1.698 1.698 0 01-.782-1.315c0-.462.349-.644.782-.392zM334.499 273.707l14.667 8.394a1.699 1.699 0 01.797 1.301c0 .476-.364.658-.797.406l-14.667-8.395a1.689 1.689 0 01-.782-1.315c0-.475.349-.643.782-.391zM321.982 259.618l8.242 4.771a1.648 1.648 0 01.796 1.301c0 .475-.349.657-.796.405l-8.242-4.771a1.695 1.695 0 01-.782-1.315c0-.461.349-.643.782-.391zM294.618 195.972l21.484 12.41a1.69 1.69 0 01.783 1.302c0 .475-.35.657-.783.405l-21.484-12.41a1.689 1.689 0 01-.782-1.315c0-.49.349-.643.782-.392z" fill="#79BB49"/><path opacity=".6" d="M294.618 195.972l21.484 12.41a1.69 1.69 0 01.783 1.302c0 .475-.35.657-.783.405l-21.484-12.41a1.689 1.689 0 01-.782-1.315c0-.49.349-.643.782-.392z" fill="#fff"/><path d="M294.618 202.786l7.292 4.197a1.69 1.69 0 01.782 1.301c0 .476-.349.658-.782.406l-7.292-4.197a1.7 1.7 0 01-.782-1.301c0-.476.349-.658.782-.406z" fill="#79BB49"/><path opacity=".6" d="M294.618 202.786l7.292 4.197a1.69 1.69 0 01.782 1.301c0 .476-.349.658-.782.406l-7.292-4.197a1.7 1.7 0 01-.782-1.301c0-.476.349-.658.782-.406z" fill="#fff"/><path d="M294.618 209.614l7.292 4.197a1.689 1.689 0 01.782 1.315c0 .462-.349.644-.782.392l-7.292-4.197a1.65 1.65 0 01-.782-1.302c0-.475.349-.657.782-.405z" fill="#79BB49"/><path opacity=".6" d="M294.618 209.614l7.292 4.197a1.689 1.689 0 01.782 1.315c0 .462-.349.644-.782.392l-7.292-4.197a1.65 1.65 0 01-.782-1.302c0-.475.349-.657.782-.405z" fill="#fff"/><path d="M294.618 216.455l7.292 4.198a1.656 1.656 0 01.782 1.301c0 .475-.349.657-.782.405l-7.292-4.197a1.689 1.689 0 01-.782-1.315c0-.476.349-.644.782-.392z" fill="#79BB49"/><path opacity=".6" d="M294.618 216.455l7.292 4.198a1.689 1.689 0 01.782 1.315c0 .475-.349.643-.782.391l-7.292-4.197a1.689 1.689 0 01-.782-1.315c0-.476.349-.644.782-.392z" fill="#fff"/><path opacity=".6" d="M306.436 223.283l21.484 12.41a1.689 1.689 0 01.782 1.315c0 .462-.349.644-.782.392l-21.484-12.41a1.689 1.689 0 01-.783-1.315c0-.462.35-.644.783-.392zM330.965 237.456l9.345 5.428a1.656 1.656 0 01.782 1.301c0 .476-.349.658-.782.406l-9.345-5.428a1.69 1.69 0 01-.782-1.301c0-.476.349-.658.782-.406z" fill="#79BB49"/><path opacity=".6" d="M306.436 223.283l21.484 12.41a1.689 1.689 0 01.782 1.315c0 .462-.349.644-.782.392l-21.484-12.41a1.689 1.689 0 01-.783-1.315c0-.462.35-.644.783-.392zM330.965 237.456l9.345 5.428a1.656 1.656 0 01.782 1.301c0 .476-.349.658-.782.406l-9.345-5.428a1.69 1.69 0 01-.782-1.301c0-.476.349-.658.782-.406z" fill="#fff"/><path d="M294.618 223.283l7.292 4.197a1.69 1.69 0 01.782 1.301c0 .476-.349.658-.782.406l-7.292-4.197a1.7 1.7 0 01-.782-1.301c0-.476.349-.658.782-.406z" fill="#79BB49"/><path opacity=".6" d="M294.618 223.283l7.292 4.197a1.69 1.69 0 01.782 1.301c0 .476-.349.658-.782.406l-7.292-4.197a1.7 1.7 0 01-.782-1.301c0-.476.349-.658.782-.406z" fill="#fff"/><path d="M319.147 210.145l9.346 5.415a1.689 1.689 0 01.782 1.315c0 .462-.349.644-.782.392l-9.346-5.415a1.689 1.689 0 01-.782-1.315c0-.462.349-.672.782-.392z" fill="#79BB49"/><path opacity=".6" d="M319.147 210.145l9.346 5.415a1.689 1.689 0 01.782 1.315c0 .462-.349.644-.782.392l-9.346-5.415a1.689 1.689 0 01-.782-1.315c0-.462.349-.672.782-.392z" fill="#fff"/><path d="M315.292 242.045l21.484 12.41a1.707 1.707 0 01.796 1.315c0 .476-.363.644-.796.406l-21.484-12.424a1.69 1.69 0 01-.782-1.301c0-.406.349-.644.782-.406zM327.696 256.036l21.526 12.466a1.714 1.714 0 01.797 1.315c0 .462-.364.644-.797.392l-21.47-12.41a1.679 1.679 0 01-.796-1.315c-.084-.448.293-.644.74-.448zM339.835 256.246l9.387 5.386a1.699 1.699 0 01.797 1.301c0 .476-.363.658-.797.406l-9.331-5.414a1.679 1.679 0 01-.796-1.315c-.056-.448.349-.574.74-.364z" fill="#fff"/><path d="M339.835 283.304l9.331 5.415a1.714 1.714 0 01.797 1.315c0 .462-.363.644-.797.392l-9.331-5.415a1.688 1.688 0 01-.796-1.315c0-.462.405-.643.796-.392z" fill="#E6E6E6"/><path d="M306.436 209.614l21.484 12.424a1.656 1.656 0 01.782 1.301c0 .476-.349.657-.782.406l-21.484-12.48a1.652 1.652 0 01-.783-1.302c0-.419.35-.601.783-.349z" fill="#79BB49"/><path opacity=".6" d="M306.436 209.614l21.484 12.424a1.656 1.656 0 01.782 1.301c0 .476-.349.657-.782.406l-21.484-12.48a1.652 1.652 0 01-.783-1.302c0-.419.35-.601.783-.349z" fill="#fff"/><path d="M330.965 223.856l9.345 5.415a1.698 1.698 0 01.782 1.315c0 .462-.349.644-.782.392l-9.345-5.415a1.687 1.687 0 01-.782-1.315c0-.531.349-.699.782-.392z" fill="#79BB49"/><path opacity=".6" d="M330.965 223.856l9.345 5.415a1.698 1.698 0 01.782 1.315c0 .462-.349.644-.782.392l-9.345-5.415a1.687 1.687 0 01-.782-1.315c0-.531.349-.699.782-.392z" fill="#fff"/><path opacity=".15" d="M184.558 302.08l13.158 7.611a14.482 14.482 0 0014.528-.769l21.722-15.88c3.869-2.798 3.645-6.995-.503-9.472l-6.594-3.833a17.896 17.896 0 00-15.268-.462l-26.806 14.537c-4.288 2.168-4.4 5.862-.237 8.268z" fill="#000"/><path d="M234.315 286.131l-15.002 11.766-11.091 8.688a9.764 9.764 0 01-3.535.854 9.603 9.603 0 01-5.266-1.105l-11.776-6.814h-.069a8.388 8.388 0 01-3.752-5.454 8.4 8.4 0 011.363-6.48l.349-.49a15.696 15.696 0 019.485-6.016l5.965-1.189c9.666-1.973 17.587-2.925 18.508-2.295l14.766 8.563.055-.028z" fill="#37474F"/><path d="M225.919 292.72l.852-.671-13.256-7.653 11.594-3.596-1.173-.686-11.595 3.596-7.906-4.561-1.495.28 22.979 13.291z" fill="#79BB49"/><path d="M209.534 305.872l10.561-7.639 14.234-10.298v-1.678a.14.14 0 00-.017-.073.142.142 0 00-.053-.053h-.084c-1.061-.364-7.235 1.497-14.695 4.463l-4.945 1.972a15.668 15.668 0 00-7.219 5.79 15.699 15.699 0 00-2.699 8.859v.252a9.754 9.754 0 003.534-.854l1.383-.741z" fill="#263238"/><path d="M32.256 164.102l-4.65-8.809 3.76-10.891v-6.663l-11.515 6.663v6.663l4.949 8.584a.665.665 0 00.343.301l7.113 4.152z" fill="#79BB49"/><path opacity=".2" d="M32.256 164.102l-4.65-8.809 3.76-10.891v-6.663l-11.515 6.663v6.663l4.949 8.584a.665.665 0 00.343.301l7.113 4.152z" fill="#000"/><path d="M59.745 84.766a7.672 7.672 0 00-3.46-5.998l-2.807-1.62a7.617 7.617 0 00-6.91 0L3.45 102.138A7.648 7.648 0 000 108.136v47.543a7.659 7.659 0 003.45 5.987l2.817 1.631a7.614 7.614 0 006.91 0l13.873-8.026 4.949 8.584a.73.73 0 001.091.214.732.732 0 00.237-.343l5.228-15.107 17.762-10.301a7.668 7.668 0 003.428-6.008V84.766z" fill="#79BB49"/><path opacity=".2" d="M0 155.679a7.659 7.659 0 003.45 5.987l2.817 1.631a7.71 7.71 0 006.32.279c-1.628.612-2.87-.3-2.87-2.274v-47.544a7.134 7.134 0 011.017-3.412l-9.727-5.622A7.108 7.108 0 000 108.136v47.543z" fill="#000"/><path opacity=".5" d="M59.659 83.78c-.396-1.47-1.735-1.932-3.332-1.02l-43.15 25a6.833 6.833 0 00-2.432 2.586l-9.727-5.622a7.05 7.05 0 012.431-2.575l43.14-25a7.618 7.618 0 016.91 0l2.828 1.63a7.592 7.592 0 013.332 5z" fill="#fff"/><path d="M16.07 132.417c-.01-.337.05-.673.171-.987.146-.319.315-.627.504-.923l9.384-15.182a.71.71 0 01.15-.183l.107-.075a.258.258 0 01.343 0 .62.62 0 01.15.462v5.858c.012.425-.084.846-.278 1.223-.141.278-.299.547-.472.805l-4.842 7.382 4.842 2.232c.166.055.325.13.472.225.182.118.278.419.278.891v4.163a1.396 1.396 0 01-.15.622.887.887 0 01-.343.429h-.107a.24.24 0 01-.15 0l-9.384-4.292a1.255 1.255 0 01-.504-.343 1.255 1.255 0 01-.171-.783v-1.524zM36.51 108.962c.092-.324.21-.64.354-.944.149-.311.388-.569.685-.741l3.14-1.856a.277.277 0 01.363 0c.11.132.164.301.15.472.014.118.014.237 0 .354l-7.927 33.842c-.078.315-.19.621-.332.912-.148.32-.391.586-.696.762l-3.075 1.781a.277.277 0 01-.364 0 .608.608 0 01-.15-.472 1.434 1.434 0 010-.344l7.852-33.766zM53.746 114.434c.011.337-.047.673-.17.987a7.492 7.492 0 01-.504.923l-9.396 15.193a1.346 1.346 0 01-.15.172l-.107.086a.268.268 0 01-.353 0 .59.59 0 01-.14-.462v-5.879a2.407 2.407 0 01.268-1.202c.183-.322.343-.58.482-.783l4.103-6.352-4.103-1.567a1.693 1.693 0 01-.482-.247c-.182-.128-.267-.429-.267-.912v-5.858a1.436 1.436 0 01.139-.623c.076-.169.199-.314.353-.418h.258l9.384 4.292a.932.932 0 01.675 1.073l.01 1.577z" fill="#fff"/></svg>