<svg width="254" height="254" viewBox="0 0 254 254" fill="none" xmlns="http://www.w3.org/2000/svg"><path d="M128.168 247.675c65.416 0 118.446-30.395 118.446-67.889s-53.03-67.889-118.446-67.889c-65.415 0-118.445 30.395-118.445 67.889s53.03 67.889 118.445 67.889z" fill="#F5F5F5"/><path d="M210.078 180.274c14.238 0 25.781-6.664 25.781-14.884 0-8.221-11.543-14.885-25.781-14.885-14.239 0-25.781 6.664-25.781 14.885 0 8.22 11.542 14.884 25.781 14.884zM48.102 214.681c13.437 0 24.329-6.289 24.329-14.046 0-7.758-10.892-14.047-24.328-14.047-13.437 0-24.329 6.289-24.329 14.047 0 7.757 10.892 14.046 24.328 14.046zM127.437 193.009c11.48 0 20.787-5.372 20.787-11.999 0-6.626-9.307-11.999-20.787-11.999-11.481 0-20.788 5.373-20.788 11.999 0 6.627 9.307 11.999 20.788 11.999z" fill="#E0E0E0"/><path d="M93.69 182.372L96.23 181s1.362-6.604.6-12.298c-1.072-8.032-6.452-10.917-8.448-10.16-1.997.757-2.54 3.104.945 7.813 2.037 2.768 4.607 8.595 4.363 16.017z" fill="#79BB49"/><path opacity=".15" d="M93.69 182.372L96.23 181s1.362-6.604.6-12.298c-1.072-8.032-6.452-10.917-8.448-10.16-1.997.757-2.54 3.104.945 7.813 2.037 2.768 4.607 8.595 4.363 16.017z" fill="#000"/><path d="M94.67 179.217h-.025a.176.176 0 01-.147-.203c1.214-7.462-1.6-15.748-4.902-19.126a.178.178 0 01.254-.249c3.368 3.449 6.233 11.862 5.004 19.431a.181.181 0 01-.183.147z" fill="#fff"/><path d="M86.797 186.136c-.401.219-1.204-.3-1.524-.508a3.796 3.796 0 01-1.22-1.468 3.557 3.557 0 01-.263-2.134c.07-.38.169-.756.294-1.122.117-.366.229-.727.34-1.092.14-.35.205-.726.189-1.103-.076-.752-.732-1.29-1.326-1.757-.595-.468-1.336-1.199-1.31-2.104a3.198 3.198 0 01.837-1.869c.448-.538.97-1.016 1.377-1.575.321-.393.5-.884.508-1.392a2.287 2.287 0 00-.284-.884 13.152 13.152 0 01-.92-1.783 1.779 1.779 0 01.35-1.864 2.058 2.058 0 011.565-.345c.512.074 1 .26 1.433.543 1.412.828 2.19 2.54 3.698 3.2.599.206 1.21.376 1.829.508a2.276 2.276 0 011.493 1.077c.534 1.128-.538 2.479-.172 3.673.325 1.057 1.33 1.479 1.88 2.439.226.421.308.904.233 1.376a6.606 6.606 0 01-.63 2.307 16.914 16.914 0 01-1.326 2.032s-6.98 3.81-7.05 3.845z" fill="#79BB49"/><path d="M90.932 184.069a.165.165 0 01-.068-.018.172.172 0 01-.091-.105.177.177 0 01-.008-.07c.462-7.077-2.688-14.986-5.08-17.318a.177.177 0 010-.249.182.182 0 01.254 0c2.423 2.383 5.639 10.419 5.166 17.597a.178.178 0 01-.173.163z" fill="#fff"/><path d="M90.053 175.666h-.055a23.78 23.78 0 00-5.121-.955.175.175 0 01-.158-.119.176.176 0 01-.01-.069.17.17 0 01.118-.161.168.168 0 01.07-.006c1.77.132 3.519.458 5.217.97a.182.182 0 01.112.229.166.166 0 01-.172.111z" fill="#fff"/><path d="M158.496 171.054l-2.733-1.58s-.671-5.862-.224-10.399c.625-6.375 4.745-14.051 9.652-12.248 4.908 1.804-2.255 8.296-3.85 13.716-1.595 5.421-2.845 10.511-2.845 10.511z" fill="#79BB49"/><path opacity=".15" d="M158.496 171.054l-2.733-1.58s-.671-5.862-.224-10.399c.625-6.375 4.745-14.051 9.652-12.248 4.908 1.804-2.255 8.296-3.85 13.716-1.595 5.421-2.845 10.511-2.845 10.511z" fill="#000"/><path d="M157.058 170.388a.172.172 0 00.163-.172c-.483-14.168 6.573-21.296 6.645-21.367a.168.168 0 00-.054-.27.151.151 0 00-.063-.013.16.16 0 00-.117.049c-.071.072-7.229 7.3-6.746 21.611a.169.169 0 00.054.115.168.168 0 00.118.047z" fill="#fff"/><path d="M159.959 172.181l-1.946-1.122a21.437 21.437 0 011.636-8.905c1.717-4.252 5.974-7.783 8.128-7.041 2.154.741 2.088 2.26 1.047 3.855-1.042 1.596-7.407 5.39-8.865 13.213z" fill="#79BB49"/><path d="M158.932 171.755a.164.164 0 00.152-.104.154.154 0 00.011-.064c-.036-8.956 8.372-15.011 8.458-15.072a.164.164 0 00.045-.046.147.147 0 00.023-.06.153.153 0 00-.001-.064.183.183 0 00-.071-.105.153.153 0 00-.061-.024.139.139 0 00-.064.002.146.146 0 00-.059.028c-.086.06-8.636 6.217-8.6 15.346a.16.16 0 00.167.163z" fill="#fff"/><path d="M188.412 88.082c8.494-.767 16.556-2.154 19.177-5.527-2.312-1.819-2.891-2.174-5.309-2.154-2.149 0-11.42 2.677-14.264 2.474-1.971-.986-8.017-5.664-10.237-7.264-.396-.28-3.418 3.24-1.615 4.81 2.54 2.205 6.746 5.395 9.144 6.752 1.052.604 1.885 1.02 3.104.909z" fill="#FFC1A7"/><path d="M198.145 53.65a.666.666 0 00-.422.04l-4.684 2.109a.547.547 0 01-.777-.356c-.183-.594-3.388-1.27-3.653-1.778l1.799-4.465 7.737 4.45z" fill="#455A64"/><path d="M190.418 49.215a.434.434 0 00-.406 0l-3.455-7.99a.718.718 0 00-.279-.92l-3.398-1.966a.702.702 0 00-.93.218l-3.891 5.842a1.285 1.285 0 01-1.016.508 9.45 9.45 0 00-1.357.061v-4.272l-2.596-1.524a.435.435 0 00-.426.04l-5.258 3.048a1.412 1.412 0 00-.625.98l-.508 5.853a1.921 1.921 0 01-.549 1.092 32.038 32.038 0 00-2.916 3.089 1.015 1.015 0 01-1.016.295l-3.373-1.179a.812.812 0 00-.945.35l-3.891 6.696a.813.813 0 00.168 1.016l2.707 2.332a1.02 1.02 0 01.265 1.041 31.615 31.615 0 00-1.22 4.064 1.947 1.947 0 01-.67 1.016l-4.806 3.383a1.416 1.416 0 00-.533 1.016v6.071a.422.422 0 00.188.391l6.096 3.515-2.22 4.476a.702.702 0 00.274.914l8.265 4.8a.712.712 0 00.93-.218l3.759-3.845a.448.448 0 00.203.356l7.707 4.45.208-6.035s-1.631-2.103-1.6-2.464l8.402-9.144a.822.822 0 00.95-.35l3.861-6.696a.824.824 0 00-.168-1.016l3.724-11.847a1.414 1.414 0 00.508-1.016l-.163-6.431zm-20.365 25.532c-2.261 1.3-4.12 1.58-5.477.95-1.59-.742 11.313-22.86 12.665-21.65 1.097.974 1.691 2.783 1.691 5.318 0 5.659-3.977 12.547-8.879 15.382z" fill="#263238"/><path d="M191.704 44.196l-1.047 2.113-3.358 3.876-3.957-2.29-5.542-3.227a.882.882 0 00.279-.269l3.886-5.842a.707.707 0 01.925-.223l3.393 1.96 5.146 2.967a.7.7 0 01.275.935zM155.189 68.534a1.71 1.71 0 01-.356.376l-4.806 3.383a1.29 1.29 0 00-.33.381l8.077 4.674 6.376-3.627-8.961-5.187zM158.079 52.364a.83.83 0 00-.63.387l-3.866 6.685a.75.75 0 00-.086.508l8.458 4.897 5.293-7.153-9.169-5.324z" fill="#455A64"/><path d="M180.848 43.657v1.926l-4.679 2.702-9.291-5.354c.107-.27.298-.5.543-.655l5.258-3.048a.555.555 0 01.259-.076.335.335 0 01.163.035l2.54 1.458.066.04 3.495 2.033 1.646.94z" fill="#455A64"/><path d="M198.333 60.117V54.02a.393.393 0 00-.595-.386l-4.699 2.133a.556.556 0 01-.782-.36 10.3 10.3 0 00-1.041-2.317 1.278 1.278 0 01-.071-1.133l3.119-6.289a.714.714 0 00-.28-.92l-3.383-1.95a.7.7 0 00-.93.218l-3.886 5.842a1.289 1.289 0 01-1.016.508 10.574 10.574 0 00-2.54.254.55.55 0 01-.701-.508l-.508-5.08a.387.387 0 00-.212-.367.393.393 0 00-.423.042l-5.258 3.048a1.43 1.43 0 00-.625.98l-.508 5.853a1.94 1.94 0 01-.543 1.092 31.182 31.182 0 00-2.921 3.089 1.013 1.013 0 01-1.016.294l-3.399-1.204a.812.812 0 00-.944.35l-3.866 6.696a.82.82 0 00.167 1.016l2.708 2.332a1.018 1.018 0 01.264 1.041 31.611 31.611 0 00-1.219 4.064 1.943 1.943 0 01-.671 1.017l-4.8 3.383a1.4 1.4 0 00-.539 1.016v6.07a.393.393 0 00.6.386l4.678-2.108a.555.555 0 01.778.36c.253.814.605 1.594 1.046 2.322a1.306 1.306 0 01.071 1.133l-3.119 6.29a.701.701 0 00.274.914l3.384 1.956a.715.715 0 00.934-.219l3.887-5.847a1.288 1.288 0 011.016-.508c.854.016 1.706-.07 2.54-.26a.553.553 0 01.701.509l.508 5.11a.394.394 0 00.211.364.392.392 0 00.419-.038l5.257-3.049a1.434 1.434 0 00.63-.98l.508-5.852c.063-.413.255-.796.549-1.092a31.428 31.428 0 002.921-3.089 1.013 1.013 0 011.016-.294l3.373 1.178a.822.822 0 00.95-.35l3.866-6.696a.832.832 0 00-.173-1.016l-2.707-2.332a1.011 1.011 0 01-.26-1.041 32.317 32.317 0 001.215-4.064c.11-.402.347-.759.675-1.016l4.801-3.378a1.413 1.413 0 00.569-1.021zm-20.534 19.09c-4.907 2.83-8.885.534-8.885-5.125 0-5.66 3.978-12.553 8.885-15.388 4.908-2.834 8.88-.533 8.88 5.131 0 5.664-3.998 12.548-8.88 15.382zM207.695 78.156h.345a8.74 8.74 0 008.738-8.738c0-1.106-.218-2.2-.642-3.222A8.411 8.411 0 00208.355 61h-.98a8.42 8.42 0 00-8.418 8.417 8.74 8.74 0 008.738 8.738z" fill="#37474F"/><path d="M221.203 83.073a5.08 5.08 0 01-5.08-5.08V66.761a5.08 5.08 0 015.08 5.08v11.232z" fill="#37474F"/><path d="M224.998 157.322c-.32.645-.173 1.458-.229 3.211a30.147 30.147 0 01-.203 3.464c-.061.412-.203.783-.3 1.184a1.428 1.428 0 01-.477.813.881.881 0 01-.793.208.823.823 0 01-.508-.437 6.199 6.199 0 01-.431-1.219c-.387 2.936-3.374 4.841-1.443 5.588 1.676.66 2.87.127 3.911-.32a3.464 3.464 0 001.347-1.118c.772-1.29.67-2.474.701-3.596.051-1.544.27-3.077.655-4.572.269-1.524-1.753-3.419-2.23-3.206z" fill="#263238"/><path d="M221.436 158.785l-2.403-6.04 3.998-1.524c.478.945 1.717 5.756 1.966 6.096.387.487.604 1.086.62 1.707a27.93 27.93 0 01-.747 5.949 2.676 2.676 0 01-1.615 1.915 1.93 1.93 0 01-1.016.218.502.502 0 01-.315-.127c-.168-.177 0-.579.03-.782.058-.327.095-.658.112-.991.03-.65.025-1.442 0-2.093a21.096 21.096 0 00-.63-4.328z" fill="#FFC1A7"/><path d="M203.484 160.614a.266.266 0 01.198.249c.051.335.102.95.203 1.524.18.8.228 1.623.143 2.439-.132.604-1.55 1.452-2.5 1.579a8.253 8.253 0 00-3.347 1.682 7.828 7.828 0 01-4.257 1.499c-1.565 0-2.794-.351-3.15-1.484-.147-.477.244-1.056 2.261-1.976 0 0 1.016-.508 1.6-.864 2.921-1.762 3.927-2.778 4.8-4.617l4.049-.031z" fill="#263238"/><path d="M198.323 162.148c.49-.77.767-1.657.802-2.57l.066-2.495h4.308v4.07c-.244 1.712-1.859 1.91-3.205 2.86-.671.467-3.297 2.489-5.08 2.814-1.433.259-1.971-.305-2.159-.711a28.726 28.726 0 005.268-3.968z" fill="#FFC1A7"/><path d="M217.424 134.655a16.722 16.722 0 014.379 6.188c1.325 3.378 2.961 14.935 2.961 14.935s-2.032 1.834-4.277 1.113c0 0-8.23-15.459-9.464-19.157-1.255-1.885-2.825-11.176-3.958-17.612l-.04.071-1.936 13.645c.5 1.6.864 3.24 1.087 4.902.32 3.348-2.499 19.558-2.499 19.558a6.262 6.262 0 01-4.572.122s-.95-20.32-1.25-24.344c-.508-6.776-.228-26.69 1.016-30.698l17.745.991c1.468 4.251 1.585 6.969 1.397 11.633-.224 4.81-.589 18.653-.589 18.653z" fill="#455A64"/><path d="M207.009 120.193l-1.016-6.305s-4.263-.884-6.198-2.702a11.031 11.031 0 005.044 3.353l1.133 4.851-.741 13.391 1.778-12.588z" fill="#37474F"/><path d="M211.104 80.802a7.565 7.565 0 012.982.64c1.356.757 1.473 2.119 1.494 3.734 0 1.773-.427 3.14-.966 6.055l-1.016 5.589s1.499 3.398 2.982 7.523c-6.964 3.886-15.661 1.844-17.78-.991-.086-.604.453-5.303.783-8.377-1.23-3.078-1.55-5.029-1.016-7.06.96-3.775 4.689-7.453 6.334-7.321l6.203.208z" fill="#79BB49"/><path opacity=".15" d="M212.216 106.04a16.782 16.782 0 004.369-1.672c-1.484-4.124-2.982-7.523-2.982-7.523l1.016-5.588c.508-2.743.929-4.115.965-5.74l-2.672.746s-11.481 6.157-11.527 6.193c-.045.035-1.132.625-2.255 1.23.142.41.3.837.482 1.3-.076.68-.157 1.447-.243 2.225a41.466 41.466 0 006.4-1.565c3.516-1.23 7.229-3.896 7.361-3.744.132.153-.477 4.572-.477 4.572l-1.605-.305s2.504 3.125 3.215 4.481c.711 1.356 1.402 4.176-2.047 5.39z" fill="#000"/><path d="M216.57 64.399l-.574 2.205a1.106 1.106 0 001.402-.772 1.197 1.197 0 00-.828-1.433z" fill="#37474F"/><path d="M218.109 65.42l-1.91 1.255a1.11 1.11 0 00.704.517 1.115 1.115 0 00.861-.152 1.205 1.205 0 00.345-1.62z" fill="#37474F"/><path d="M202.067 64.785c-.945.559-2.108 2.926-1.991 7.89.096 4.205 1.463 5.242 2.143 5.541.681.3 2.007.117 3.292-.096v2.54s-1.778 2.062-1.666 3.22c.112 1.159 2.565 1.428 4.221.3a10.795 10.795 0 002.728-2.855v-6.558s.833.945 2.251 0a2.416 2.416 0 001.063-1.706 2.433 2.433 0 00-.591-1.921 1.679 1.679 0 00-2.288.05 1.685 1.685 0 00-.435.707s-2.032.076-4.775-1.422a7.667 7.667 0 01-3.952-5.69z" fill="#FFC1A7"/><path d="M205.231 71.628a.535.535 0 00.508.574.546.546 0 00.526-.718.528.528 0 00-.275-.311.544.544 0 00-.206-.053.549.549 0 00-.553.508z" fill="#263238"/><path d="M204.632 75.184l-1.23.396a.637.637 0 00.306.389.625.625 0 00.492.048.677.677 0 00.432-.833z" fill="#F59F7B"/><path d="M200.908 69.992l1.067-.742a.625.625 0 00-.889-.183.681.681 0 00-.178.925zM201.168 71.232a.525.525 0 00.503.553.53.53 0 00.553-.502.535.535 0 00-.508-.575.548.548 0 00-.548.524z" fill="#263238"/><path d="M203.737 70.932l-.086 3.185-1.676-.523 1.762-2.662zM205.511 78.12c1.351-.178 4.135-.975 4.572-2.078a2.846 2.846 0 01-.976 1.407c-.833.712-3.591 1.524-3.591 1.524l-.005-.853z" fill="#F59F7B"/><path d="M199.135 96.57c13.041-4.922 17.298-7.223 17.12-12.227-.066-1.758-.945-2.576-2.169-2.9-1.687.07-2.952 2.23-5.08 4.81 0 0-7.686 3.932-10.506 5.395-3.327.107-10.363-.97-13.01-1.65-.467-.123-.757-.834-1.016-1.235-.726-1.077-1.473-1.26-2.372-2.063a5.614 5.614 0 01-.691-.757l-.198 2.175s-.792 0-2.54-1.326c-1.951-1.474-3.104-1.524-3.048 1.605.051 1.956 1.306 3.475 5.654 4.8 1.255.382 3.261.839 4.882 1.215 2.428.563 3.241.685 5.613 1.25 2.55.599 6.218 1.366 7.361.909z" fill="#FFC1A7"/><path d="M140.497 71.5a2.056 2.056 0 00-.878-1.162c-1.138-.727-1.591-1.463-2.444-2.373-.665-.711-1.239-.889-1.148-1.112a1.113 1.113 0 011.427-.508c.57.235 1.11.535 1.611.894a10.387 10.387 0 00-1.631-2.865c-1.585-1.982-1.646-3.185 1.59-3.185 2.032 0 3.688.767 5.172 5.247.44 1.702.78 3.43 1.016 5.172.665 3.865 1.32 8.849 1.122 11.551-.101 1.372-.579 2.18-1.239 3.673-.661 1.494-7.879 14.885-9.749 17.379-4.871-2.357-1.285-8.047-1.285-8.047s5.552-11.293 6.462-12.7c.219-.355.365-.75.432-1.163.142-.711-.138-7.986-.458-10.8z" fill="#B16668"/><path d="M129.51 96.906a6.012 6.012 0 003.281-1.742c1.946-1.778 4.161-5.736 4.161-5.736 1.763-.416 5.425.96 5.588 4.257l-7.056 12.634-5.974-9.413z" fill="#455A64"/><path d="M142.608 47.04l10.81-2.422c-.259-.148-2.464-1.433-4.618-2.672l-4.287-2.48a.507.507 0 00-.3-.086l-3.789-.218a.622.622 0 01-.452-.171.618.618 0 01-.189-.444c.107-1.217.107-2.44 0-3.658.009-.409.156-.802.417-1.117l6.066-.508c.254-.315 5.222-5.08 5.222-5.08h-.031l-8.935-5.197a.332.332 0 00-.173-.036l-7.173-4.155a.717.717 0 00-.437-.086l-4.42.441a1.232 1.232 0 00-.965.671l-2.398 6.431a2.127 2.127 0 01-.965.935c-.467.219-.94.468-1.412.737l-4.638-2.683c-.183-.122-.478-.045-.716.209l-4.857 5.125a1.296 1.296 0 00-.376 1.067l1.352 4.572c.061.386-.028.78-.249 1.103a36.59 36.59 0 00-2.231 3.876 1.744 1.744 0 01-1.051.782l-4.156 1.016a1.36 1.36 0 00-.939.787l-2.068 7.02a.453.453 0 00.158.509c.091.076 4.704 2.733 4.704 2.733 0 .64 0 1.27.081 1.885a1.792 1.792 0 01-.412 1.117l-4.236 5.126a1.15 1.15 0 00-.254 1.057l2.032 4.445c.028.06.072.11.127.147l8.925 5.161a.09.09 0 00.031-.04l.127.08 7.178 4.151c.122-.33 3.764-15.423 3.922-15.184l2.265 3.46c.018.031.043.059.071.08l4.313 2.505 4.659 2.698-3.368-10.516c2.961 1.042 9.743-11.75 7.635-13.172zm-26.152 7.026l16.414-17.322a8.64 8.64 0 01.675 3.601 9.64 9.64 0 011.118-.569c.035.381.051.788.051 1.21 0 5.669-3.973 12.552-8.88 15.387-.361.203-.717.386-1.052.543a9.687 9.687 0 01-.071-1.285c-3.5 2.047-6.827 1.58-8.255-1.565z" fill="#79BB49"/><path opacity=".15" d="M142.608 47.04l10.81-2.422c-.259-.148-2.464-1.433-4.618-2.672l-4.287-2.48a.507.507 0 00-.3-.086l-3.789-.218a.622.622 0 01-.452-.171.618.618 0 01-.189-.444c.107-1.217.107-2.44 0-3.658.009-.409.156-.802.417-1.117l6.066-.508c.254-.315 5.222-5.08 5.222-5.08h-.031l-8.935-5.197a.332.332 0 00-.173-.036l-7.173-4.155a.717.717 0 00-.437-.086l-4.42.441a1.232 1.232 0 00-.965.671l-2.398 6.431a2.127 2.127 0 01-.965.935c-.467.219-.94.468-1.412.737l-4.638-2.683c-.183-.122-.478-.045-.716.209l-4.857 5.125a1.296 1.296 0 00-.376 1.067l1.352 4.572c.061.386-.028.78-.249 1.103a36.59 36.59 0 00-2.231 3.876 1.744 1.744 0 01-1.051.782l-4.156 1.016a1.36 1.36 0 00-.939.787l-2.068 7.02a.453.453 0 00.158.509c.091.076 4.704 2.733 4.704 2.733 0 .64 0 1.27.081 1.885a1.792 1.792 0 01-.412 1.117l-4.236 5.126a1.15 1.15 0 00-.254 1.057l2.032 4.445c.028.06.072.11.127.147l8.925 5.161a.09.09 0 00.031-.04l.127.08 7.178 4.151c.122-.33 3.764-15.423 3.922-15.184l2.265 3.46c.018.031.043.059.071.08l4.313 2.505 4.659 2.698-3.368-10.516c2.961 1.042 9.743-11.75 7.635-13.172zm-26.152 7.026l16.414-17.322a8.64 8.64 0 01.675 3.601 9.64 9.64 0 011.118-.569c.035.381.051.788.051 1.21 0 5.669-3.973 12.552-8.88 15.387-.361.203-.717.386-1.052.543a9.687 9.687 0 01-.071-1.285c-3.5 2.047-6.827 1.58-8.255-1.565z" fill="#000"/><path opacity=".15" d="M145.216 44.597l-2.59-5.319-2.236-.127a.616.616 0 01-.64-.614c.056-.666.082-1.32.082-1.956l-6.228.838-.356.417c.213.819.316 1.663.305 2.51.36-.214.733-.404 1.117-.57.036.381.051.788.051 1.21 0 5.669-3.972 12.552-8.88 15.387-.36.203-.716.386-1.051.543a9.518 9.518 0 01-.071-1.285 8.858 8.858 0 01-3.186 1.179l-.081.233 4.572 8.418h.041c.252-1.177.581-2.336.985-3.47l2.266 3.46c.018.031.042.059.071.081l4.313 2.504 4.658 2.698-3.368-10.516c2.977 1.016 9.759-11.765 7.651-13.208l2.088-.467.487-1.946zM121.442 64.978s-3.556 4.212-6.263 7.691l.548.315a.09.09 0 00.031-.04l.127.081 7.178 4.15c.071-.193 1.371-5.542 2.459-9.84l-4.08-2.357zM109.423 56.586a1.976 1.976 0 01-.27.462l-4.236 5.126a1.15 1.15 0 00-.254 1.057l2.032 4.445c.028.06.072.11.127.147l2.601 1.524 4.572 1.59 5.892-8.3-10.464-6.05z" fill="#000"/><path opacity=".05" d="M116.454 54.066l.772-.818c-3.688-.878-8.768-2.072-8.768-2.072l-.468 2.032 1.494.863c0 .64 0 1.27.081 1.885.006.227-.043.452-.142.655l10.465 6.025s2.987-5.263 2.839-5.512c-.03-.055-.152-.248-.32-.508-2.58.717-4.846-.101-5.953-2.55z" fill="#000"/><path opacity=".15" d="M122.57 47.61l-10.201-5.888c-.17.117-.359.204-.558.259l-4.156 1.016a1.36 1.36 0 00-.94.787l-1.524 5.131 9.744 4.105 5.776-3.43 1.859-1.98zM125.227 42.545l2.738-5.126-1.849-6.67-10.338-1.66-1.412 1.488c-.14.137-.246.305-.311.49s-.087.382-.065.576l1.351 4.572c.042.2.031.406-.03.6l9.916 5.73zM126.491 26.858l11.176 6.457 3.048-11.298c-2.494-1.438-5.476-3.17-5.588-3.221a.717.717 0 00-.437-.086l-4.419.441a1.228 1.228 0 00-.965.671l-2.398 6.431a1.725 1.725 0 01-.417.605z" fill="#000"/><path d="M115.737 72.995l-.431-4.136-10.668-6.151a.817.817 0 000 .508l2.032 4.444a.3.3 0 00.127.148l8.94 5.186zM117.083 49.367l-10.221-5.872a.838.838 0 00-.147.27l-2.068 7.035a.455.455 0 00.158.508l.076.046 4.607 2.667 4.283 2.479 3.312-7.133zM114.025 31.186l8.936 5.13 5.898-5.912-8.92-5.162a.602.602 0 00-.717.214l-4.856 5.126c-.159.172-.275.38-.341.604zM135.173 18.796a.684.684 0 00-.437-.081l-4.419.436a1.268 1.268 0 00-.737.351l11.643 6.71 2.972-1.716-.086-.539s-8.789-5.07-8.936-5.161z" fill="#79BB49"/><path opacity=".3" d="M115.737 72.995l-.431-4.136-10.668-6.151a.817.817 0 000 .508l2.032 4.444a.3.3 0 00.127.148l8.94 5.186zM117.083 49.367l-10.221-5.872a.838.838 0 00-.147.27l-2.068 7.035a.455.455 0 00.158.508l.076.046 4.607 2.667 4.283 2.479 3.312-7.133z" fill="#fff"/><path opacity=".4" d="M114.025 31.186l8.936 5.13 5.898-5.912-8.92-5.162a.602.602 0 00-.717.214l-4.856 5.126c-.159.172-.275.38-.341.604zM135.173 18.796a.684.684 0 00-.437-.081l-4.419.436a1.268 1.268 0 00-.737.351l11.643 6.71 2.972-1.716-.086-.539s-8.789-5.07-8.936-5.161z" fill="#fff"/><path d="M153.415 44.618a.62.62 0 00-.274-.071l-3.79-.214a.61.61 0 01-.628-.386.601.601 0 01-.042-.259c.051-.6.081-1.199.086-1.773a17.44 17.44 0 00-.081-1.884c.01-.41.154-.804.411-1.123l4.237-5.126a1.157 1.157 0 00.259-1.052l-2.032-4.45a.32.32 0 00-.122-.137h-.03a.62.62 0 00-.645.203l-4.521 4.13a.807.807 0 01-.991.163 7.09 7.09 0 00-1.93-1.123.73.73 0 01-.458-.792l1.407-6.34a.39.39 0 00-.193-.447.729.729 0 00-.421-.076l-4.42.442a1.208 1.208 0 00-.965.675l-2.398 6.427c-.207.41-.547.737-.965.93-.954.455-1.869.987-2.738 1.59-.371.248-.787.269-.95 0l-2.261-3.455c-.162-.244-.508-.193-.818.112l-4.856 5.13a1.287 1.287 0 00-.376 1.062l1.351 4.572c.06.385-.027.779-.243 1.103a36.62 36.62 0 00-2.236 3.876 1.793 1.793 0 01-1.051.787l-4.156 1.016a1.372 1.372 0 00-.939.777l-2.093 7.041a.499.499 0 00.095.445.502.502 0 00.413.19l3.794.213a.627.627 0 01.59.38c.033.075.05.157.05.24a19.548 19.548 0 000 3.653c-.003.41-.148.807-.411 1.122l-4.232 5.131a1.149 1.149 0 00-.259 1.052l2.032 4.445a.275.275 0 00.122.137c.049.026.103.04.158.04a.794.794 0 00.508-.233l4.516-4.13a.796.796 0 01.985-.168 7.105 7.105 0 001.936 1.123.715.715 0 01.452.792l-1.392 6.33a.393.393 0 00.183.437c.126.067.27.094.411.076l4.425-.437a1.233 1.233 0 00.965-.675l2.403-6.426c.206-.413.547-.742.965-.935.462-.219.935-.473 1.402-.742.468-.27.889-.543 1.336-.843.366-.254.788-.27.945-.026l2.266 3.46a.4.4 0 00.107.102c.182.111.467.03.706-.219l4.856-5.126a1.282 1.282 0 00.371-1.067l-1.351-4.572c-.057-.386.034-.78.254-1.102a37.592 37.592 0 002.23-3.881 1.751 1.751 0 011.056-.782l4.151-1.016a1.369 1.369 0 00.94-.783l2.093-7.035a.478.478 0 00-.199-.498zm-22.164 17.195l-.248.067-.173.035c-.132.026-.264.05-.396.066-.133.015-.305.036-.453.046H129.539a4.433 4.433 0 01-4.165-2.8 7.63 7.63 0 01-.61-2.32 9.684 9.684 0 01-.071-1.286c0-4.008 2.088-8.976 5.487-12.568a15.397 15.397 0 013.347-2.718c.36-.213.733-.404 1.118-.569a7.056 7.056 0 013.134-.66h.356a.63.63 0 01.167 0 4.443 4.443 0 013.48 2.748c1.875 4.15-.274 11.39-4.805 16.17-1.885 2.062-3.882 3.322-5.736 3.79h.01z" fill="#79BB49"/><path d="M117.437 180.976l3.859.11.189-6.601-3.859-.11-.189 6.601z" fill="#B16668"/><path d="M121.346 179.182v-.549c.36.168 1.127 3.465 2.616 4.907 1.183 1.143 2.809 2.469 3.195 3.719.386 1.25-2.367 1.93-3.5 1.697-1.316-.27-3.556-1.265-4.125-2.144-.569-.879-.782-2.159-1.234-2.804-.452-.645-1.524-1.382-1.733-2.119a4.688 4.688 0 01.275-2.032c.198-.675.416-1.422.645-1.351v.422a3.08 3.08 0 001.91.706c.574.051 1.946-.02 1.951-.452z" fill="#263238"/><path d="M128.249 176.342l3.851.244.391-6.98-4.044-.249-.198 6.985z" fill="#B16668"/><path d="M132.176 175.397c.198 0 .356.3.782.792a8.54 8.54 0 002.22 1.697c1.428.762 4.202 1.956 5.456 2.566.783.381.722 1.336-.117 1.859-.838.523-2.829.858-5.191.259-1.291-.33-2.942-1.575-4.014-1.524-1.071.051-3.048-.041-3.835-.605-.787-.563-.427-1.717-.173-2.707.275-1.082.625-2.769.986-2.682v.37c.447.717 2.829 1.072 3.866.585l.02-.61z" fill="#263238"/><path d="M117.394 125.029c-.107 3.683-.066 25.12-.066 25.12-.122 1.057-1.194 2.911-1.382 6.726-.274 5.532 1.422 20.793 1.422 20.793a5.092 5.092 0 004.288.208s2.342-20.554 3.19-26.01c.737-4.765 2.134-17.729 2.134-17.729l1.371 15.667a21.961 21.961 0 00-.655 6.096c.107 2.54.371 18.257.371 18.257a5.29 5.29 0 004.445.468s3.358-22.296 3.47-24.618c.127-2.652-.158-29.743-.158-29.743l-18.43 4.765z" fill="#79BB49"/><path opacity=".3" d="M117.394 125.029c-.107 3.683-.066 25.12-.066 25.12-.122 1.057-1.194 2.911-1.382 6.726-.274 5.532 1.422 20.793 1.422 20.793a5.092 5.092 0 004.288.208s2.342-20.554 3.19-26.01c.737-4.765 2.134-17.729 2.134-17.729l1.371 15.667a21.961 21.961 0 00-.655 6.096c.107 2.54.371 18.257.371 18.257a5.29 5.29 0 004.445.468s3.358-22.296 3.47-24.618c.127-2.652-.158-29.743-.158-29.743l-18.43 4.765z" fill="#000"/><path opacity=".35" d="M127 134.137a14.217 14.217 0 005.461-2.926s-1.092 1.91-4.227 3.633v13.639L127 134.137z" fill="#000"/><path d="M115.519 90.729c-.366-.234-2.225.457-3.46 1.864-1.234 1.407-1.524 3.526-1.244 4.003.279.478 4.826-1.016 4.826-1.016l-.122-4.851z" fill="#37474F"/><path d="M119.888 99.06a3.554 3.554 0 00-1.859 1.935c-.3.772-1.215 2.032-1.215 3.49l.651 7.407-.285 13.249a17.872 17.872 0 0018.822-1.463s-.508-17.084-.508-20.092v-.411a6.77 6.77 0 00-5.334-6.218c-1.047-.239-6.767.95-6.767.95l-3.505 1.153z" fill="#FAFAFA"/><path d="M107.776 89.504c.874 2.617 8.479 15.489 10.348 17.984 4.872-2.357 1.286-8.047 1.286-8.047s-6.188-11.837-6.863-13.355c-.422-.935-.412-6.808-.366-9.602a8.256 8.256 0 01.259-2.235c.223-.838.549-1.381.599-2.265a6.681 6.681 0 00-.508-2.129c-.391-1.016-.807-2.311-.564-3.424.055-.175.088-.355.097-.538a1.525 1.525 0 00-.508-.925 16.795 16.795 0 00-1.306-1.26 3.444 3.444 0 00-.899-.604 1.263 1.263 0 00-1.051 0c-.29.175-.516.438-.645.752a6.202 6.202 0 00-.569 2.895c.021.65.089 1.296.203 1.936.096.594-.046 4.612-.061 6.06-.041 3.922-.376 8.093-.173 10.795a14.37 14.37 0 00.721 3.962z" fill="#B16668"/><path d="M120.766 98.816l-5.247-8.087s0 4.943-4.705 5.867l6.3 11.1c.645 1.397 2.738.371 3.556-2.54 1.087-4.064.096-6.34.096-6.34z" fill="#455A64"/><path d="M129.814 89.677a5.304 5.304 0 100-10.608 5.304 5.304 0 000 10.608zM120.645 88.143s.858 4.034 1.203 4.699c.232.408.609.713 1.057.853l-.061-2.84-2.199-2.712zM121.727 82.357a2.001 2.001 0 00-1.651.58c-.706.725-.31 2.986.569 5.206l1.62.183-.538-5.969z" fill="#263238"/><path d="M122.748 88.33c-.32.194-.788-.43-1.184-.853-.396-.421-1.707-.99-2.362.386-.655 1.377.579 3.247 1.605 3.556 1.773.554 2.032-.579 2.032-.579l.132 7.168c2.205 2.825 8.321 2.611 5.771-.34v-2.54c.791.126 1.593.167 2.393.122 1.3-.203 2.123-1.23 2.54-2.642.635-2.266.874-4.094.335-8.555-.589-4.886-6.274-4.937-9.342-3.002-3.068 1.936-1.92 7.28-1.92 7.28z" fill="#B16668"/><path d="M122.753 88.9c-.168 0-.788-1.016-1.189-1.397-.564-.508.163-5.12.163-5.12a2.18 2.18 0 01.538-2.332c.767-.844 1.6-1.377 3.81-1.494a43.3 43.3 0 014.531.213c2.185.148 2.988-.39 4.242-.741.96-.27 1.072 3.195-1.356 4.338 0 0-.787.508-2.865.762-1.916.145-3.842.11-5.751-.107-.604-.08-.731.508-1.056 2.093-.285 1.377-.524 3.75-1.067 3.785z" fill="#263238"/><path d="M121.727 82.718l-1.961-1.052a1.074 1.074 0 01.632-.572 1.084 1.084 0 01.851.064 1.169 1.169 0 01.478 1.56z" fill="#263238"/><path d="M128.742 95.133s-2.906-.59-3.927-1.127a3.381 3.381 0 01-1.407-1.392c.155.595.428 1.152.803 1.64.742.95 4.531 1.651 4.531 1.651v-.772z" fill="#9A4A4D"/><path d="M128.6 87.6a.583.583 0 11-1.166-.042.583.583 0 011.166.041zM127.986 85.4l-1.25.686a.753.753 0 01.29-1.016.693.693 0 01.96.33z" fill="#263238"/><path d="M128.483 91.628l1.331.508a.69.69 0 01-.629.48.697.697 0 01-.275-.043.744.744 0 01-.427-.945z" fill="#9A4A4D"/><path d="M133.634 85.882l-1.138-.873a.693.693 0 01.991-.153.757.757 0 01.147 1.026zM133.284 87.437a.595.595 0 01-.585.604.605.605 0 01-.584-.61.586.586 0 01.998-.412c.109.11.171.258.171.413v.005z" fill="#263238"/><path d="M130.312 86.883l.193 3.505 1.828-.625-2.021-2.88z" fill="#9A4A4D"/><path d="M107.274 71.628c-.422-1.392-1.016-2.17-1.585-3.343-.843-1.823-.122-3.048.056-2.662.381.844 1.702 2.698 2.093 2.698s.508 2.032.508 2.032l-1.072 1.275z" fill="#B16668"/><path d="M46.197 116.037c.127-3.754 1.87-5.669 3.637-7.996 3.252-4.262 6.442-8.56 6.442-8.56s8.575-17.825 9.317-19.466c.879-1.95 4.907.229 4.14 1.524 0 0-.864 1.803-1.524 3.516-2.5 6.299-4.786 12.435-7.392 18.582L50.5 116.693l-4.303-.656z" fill="#FFA8A7"/><path d="M100.92 53.848a.625.625 0 00-.422.035l-4.679 2.109a.548.548 0 01-.777-.356c-.183-.59-3.388-1.27-3.652-1.778l1.803-4.465 7.727 4.455z" fill="#455A64"/><path d="M93.193 49.388a.437.437 0 00-.406 0l-3.455-7.991a.701.701 0 00-.28-.914l-3.383-1.956a.7.7 0 00-.93.218l-3.885 5.842a1.291 1.291 0 01-1.016.508c-.453-.01-.906.011-1.357.061V40.87l-2.596-1.524a.437.437 0 00-.426.04L70.2 42.433a1.423 1.423 0 00-.605.996l-.508 5.847c-.06.413-.25.796-.543 1.092a31.352 31.352 0 00-2.921 3.094 1.015 1.015 0 01-1.016.29l-3.373-1.18a.828.828 0 00-.945.351l-3.866 6.696a.818.818 0 00.168 1.016l2.707 2.337a1.016 1.016 0 01.264 1.016 31.544 31.544 0 00-1.219 4.064c-.109.401-.344.757-.67 1.016l-4.842 3.398a1.406 1.406 0 00-.538 1.016v6.07a.421.421 0 00.188.392l6.096 3.515-2.22 4.476a.701.701 0 00.274.914l8.275 4.796a.711.711 0 00.93-.219l3.764-3.845a.44.44 0 00.198.36l7.712 4.445.203-6.035s-1.63-2.103-1.595-2.463l8.397-9.144a.823.823 0 00.95-.351l3.866-6.69a.838.838 0 00-.173-1.016l3.724-11.847a1.416 1.416 0 00.508-1.016l-.198-6.436zM72.827 74.92c-2.255 1.3-4.12 1.58-5.476.95-1.59-.737 11.313-22.86 12.67-21.651 1.092.975 1.686 2.789 1.686 5.319 0 5.664-3.983 12.552-8.88 15.382z" fill="#263238"/><path d="M94.489 44.348l-1.047 2.114-3.358 3.876-3.957-2.286-5.558-3.21a.832.832 0 00.28-.27l3.891-5.842a.706.706 0 01.92-.224l3.393 1.961 5.151 2.967a.706.706 0 01.285.914zM57.963 68.707a1.494 1.494 0 01-.356.376l-4.775 3.383a1.218 1.218 0 00-.33.381l8.072 4.674 6.376-3.627-8.987-5.187zM60.854 52.537a.833.833 0 00-.63.386l-3.866 6.696a.762.762 0 00-.086.508l8.463 4.897 5.288-7.158-9.17-5.329z" fill="#455A64"/><path d="M83.607 43.836v1.92l-4.679 2.702-9.276-5.354c.11-.27.3-.498.544-.655l5.258-3.048a.554.554 0 01.264-.077.315.315 0 01.157.036l2.54 1.458.066.04 3.495 2.033 1.631.945z" fill="#455A64"/><path d="M101.092 60.295v-6.096a.392.392 0 00-.387-.45.389.389 0 00-.212.063l-4.679 2.114a.559.559 0 01-.782-.36 10.227 10.227 0 00-1.042-2.323 1.29 1.29 0 01-.07-1.132l3.118-6.29a.706.706 0 00-.274-.914l-3.388-1.955a.7.7 0 00-.92.228l-3.886 5.842a1.286 1.286 0 01-1.016.508 10.597 10.597 0 00-2.54.254.553.553 0 01-.701-.508l-.508-5.08a.392.392 0 00-.635-.325l-5.253 3.048a1.438 1.438 0 00-.63.986l-.508 5.846a1.986 1.986 0 01-.548 1.093 31.97 31.97 0 00-2.926 3.068 1.016 1.016 0 01-1.017.29l-3.378-1.179a.828.828 0 00-.945.35L64.1 64.07a.818.818 0 00.167 1.016l2.708 2.337a1.016 1.016 0 01.264 1.041 31.489 31.489 0 00-1.214 4.064 1.95 1.95 0 01-.676 1.016l-4.8 3.383a1.424 1.424 0 00-.539 1.016v6.071a.39.39 0 00.6.386l4.678-2.108a.558.558 0 01.783.36c.25.815.6 1.594 1.041 2.322a1.29 1.29 0 01.071 1.133l-3.119 6.29a.706.706 0 00.274.913l3.389 1.956a.711.711 0 00.93-.218l3.886-5.847a1.3 1.3 0 011.015-.508c.854.016 1.707-.07 2.54-.26a.559.559 0 01.701.509l.508 5.105a.391.391 0 00.635.325l5.253-3.048a1.418 1.418 0 00.63-.98l.508-5.847c.06-.413.25-.796.544-1.093a31.352 31.352 0 002.92-3.093 1.016 1.016 0 011.017-.29l3.378 1.179a.823.823 0 00.945-.356l3.891-6.675a.828.828 0 00-.168-1.016l-2.707-2.332a1.017 1.017 0 01-.264-1.016 31.52 31.52 0 001.214-4.064c.11-.402.347-.758.675-1.016l4.801-3.378a1.429 1.429 0 00.513-1.052zM80.533 79.38c-4.907 2.835-8.88.539-8.88-5.126 0-5.664 3.973-12.552 8.88-15.382 4.908-2.83 8.88-.538 8.88 5.126 0 5.664-3.952 12.553-8.86 15.382h-.02z" fill="#37474F"/><path d="M63.155 193.802l-.35-5.044-4.247-.3.193 4.318c-.097 1.016-.773 1.417-.895 2.002-.121.584 3.48 6.035 5.314 7.137 1.834 1.102 4.42-.813 4.623-1.453.28-1.016-2.703-1.016-2.804-1.077a1.294 1.294 0 01-.193-.107 51.176 51.176 0 01-1.641-5.476z" fill="#FFA8A7"/><path d="M58.471 193.65c.595.401 1.133 1.524 2.032 3.012.9 1.489 2.032 3.612 3.556 3.973 1.397.335 3.185-.717 2.139-.96-.366-.087-1.143-.173-1.245-.229a.606.606 0 01-.167-.163s.777.132 1.99.214a1.974 1.974 0 011.804 1.163c.229.462-.08 1.753-3.048 2.256-2.148.36-3.652.345-4.612-1.098-1.164-1.752-3.094-3.556-3.897-4.511-.99-1.219.178-3.19 1.448-3.657z" fill="#263238"/><path d="M35.124 189.769l2.438-5.441-3.673-1.91-2.073 4.282c-.645.869-1.59.585-2.031 1.047-.442.462-.158 7.361.894 9.352.61 1.158 2.001 1.524 3.175 1.565.843 0 .508-1.28-.092-2.032a.803.803 0 01-.213-.508c.02-1.407 1.575-6.355 1.575-6.355z" fill="#FFA8A7"/><path d="M30.988 187.061a24.041 24.041 0 011.092 4.166c.402 2.001.89 4.689 1.235 5.334.345.645.28-.061.27-.452 0 .223.456.701.578.863.475.533.915 1.096 1.316 1.687.208.366.569 1.016.355 1.392-.213.376-.756.437-1.112.467-.356.031-1.93.33-4.333-1.138a4.588 4.588 0 01-.925-.929c-.91-1.331-.736-2.54-.889-4.064-.208-2.032-.869-2.54-1.214-3.912a4.848 4.848 0 01-.056-1.666c.366-1.392 2.26-2.022 3.683-1.748z" fill="#263238"/><path d="M28.56 194.396c.152 1.499 0 2.723.89 4.064.26.353.57.666.919.93 2.402 1.468 3.942 1.168 4.333 1.138.155-.014.308-.043.457-.086-2.804-.097-3.597-2.632-3.937-4.176-.34-1.544-1.016-5.939-1.778-7.011-.762-1.071-2.154-.426-2.154-.426a4.85 4.85 0 00.056 1.666c.345 1.366 1.006 1.88 1.214 3.901z" fill="#37474F"/><path d="M59.523 137.16s-8.637 22.327-9.358 24.709a19.355 19.355 0 01-2.697 5.771c-.925 1.397-11.344 19.883-11.344 19.883-2.845-.858-3.51-2.692-3.51-2.692s3.312-14.869 4.475-17.16a15.583 15.583 0 014.181-4.796l2.845-18.034c.305-2.982-1.296-8.59 3.52-12.852l-.076 1.27 11.964 3.901z" fill="#455A64"/><path d="M55.306 135.636c-1.783 3.15-3.49 5.928-3.698 9.362-.432 7.255 3.556 14.936 4.43 20.234 0 0-1.367 3.617-1.21 6.431.127 2.205 3.658 19.304 3.658 19.304s2.54 1.209 4.572-.035c0 0 1.28-24.892 1.138-34.453-.142-9.56-1.412-23.002-1.412-23.002l-7.478 2.159z" fill="#455A64"/><path d="M62.484 133.472l-14.823-1.473c-.869 1.803-3.135 6.228-2.322 8.966.986 3.317 3.048 5.507 8.778 6.604" fill="#455A64"/><path d="M52.908 154.432l-2.032-8.28s-3.642-.981-5.384-2.896a9.144 9.144 0 003.962 4.029c.274.279 2.794 8.945 2.794 8.945l.66-1.798z" fill="#37474F"/><path d="M59.376 110.627l-.615 5.375-5.293.61.762-7.128 5.146 1.143z" fill="#FFA8A7"/><path d="M46.334 117.521c.092.457.32 1.473.747 3.002.777 2.814 2.113 6.64 2.616 7.981.03.056.046.107.066.147l-2.093 3.429s1.408 1.732 5.588 2.947c4.181 1.214 9.226-1.276 9.226-1.276l1.722-9.86c.574-1.468 1.62-3.449 2.769-4.14.574-.34 8.209-5.827 10.16-7 1.57-.95 2.184-1.631 2.448-2.378.264-.746 2.982-11.973 3.419-13.208.437-1.234.843-1.595 1.814-2.626.97-1.031 1.305-1.27 1.6-2.2.294-.93-.076-1.153-.224-1.615-.208-.635.026-1.082-.117-1.565-.172-.6-.543-.757-.635-1.016-.142-.427 0-.66-.249-1.432a2.032 2.032 0 00-.934-1.113l-.158 1.773c-.508 2.174-2.804 2.952-3.109 2.8-.304-.153-.752-1.398-1.417-1.941-.665-.544-1.585-.478-1.245.182.188.381.63 1.809.854 2.439.223.63.899 1.956.752 2.967-.193 1.35-4.963 13.594-4.963 13.594a89.432 89.432 0 01-8.525 4.536 36.474 36.474 0 01-5.36 2.19c-.37-.066-1.9-.087-2.615-.214-.198-.04-.412-.076-.63-.112-2.8-.508-7.031-1.3-8.18-1.524l-.294-.055a3.078 3.078 0 00-.807.025 2.815 2.815 0 00-1.733 1.473 5.589 5.589 0 00-.492 3.79z" fill="#FFA8A7"/><path d="M61.052 114.143c-.371-.066-1.9-.087-2.616-.214l-.63-.111c-2.444-.432-5.283-.95-7.493-1.382a7.108 7.108 0 00-3.958 6.975c.199 2.875 2.19 7.35 2.667 8.636a25.172 25.172 0 00-4.399 8.036s1.524 3.83 9.007 4.572c7.645.757 9.764-2.768 9.764-2.768l-.376-7.046c.335-1.789 1.016-4.831 1.178-6.94-4.2-1.707-3.144-9.758-3.144-9.758z" fill="#79BB49"/><path opacity=".15" d="M48.448 126.589s1.555 2.326 5.182 3.18c-1.94-.097-3.622-.427-4.608-1.738l-.574-1.442z" fill="#000"/><path d="M58.994 97.587c1.286.559 3.678.157 4.517 6.132.66 4.704-.188 6.314-.793 6.974-.401.448-3.023.859-4.211.575-1.489-.356-4.755-1.707-6.396-4.039-1.935-2.738-2.54-6.523-.64-8.153 2.692-2.292 6.441-1.961 7.523-1.489z" fill="#FFA8A7"/><path d="M63.424 103.49s1.407 1.849 1.255 2.067a3.076 3.076 0 01-.95.508l-.305-2.575z" fill="#F28F8F"/><path d="M62.164 95.641c-1.823-1.62-5.588-2.296-8.87-.198-.604.158-1.229.356-1.864.59a5.387 5.387 0 00-1.747 1.087c.05-.225.029-.46-.061-.671a1.158 1.158 0 00-1.524-.61l.59 1.392a1.154 1.154 0 00-1.778.625l1.721.508a8.59 8.59 0 00-1.366 4.491c-.036.356-.051.711-.051 1.072v7.737a5.515 5.515 0 004.379 5.4l7.777 1.651-.172-10.866a3.374 3.374 0 01-1.184-.102 2.245 2.245 0 01-1.112-.66c-1.016-1.118-.681-3.074.32-3.343a1.53 1.53 0 011.6.447l.33.508.234 1.087.086.412a1.155 1.155 0 00.892-.918 1.148 1.148 0 00-.11-.733l.132-.188c4.217-2.134 3.663-7.041 1.778-8.718z" fill="#37474F"/></svg>