<svg width="76" height="76" viewBox="0 0 76 76" fill="none" xmlns="http://www.w3.org/2000/svg">
<path d="M38.3849 8L69.7697 30.8024M38.3849 8L7 30.8024M38.3849 8V41M69.7697 30.8024L57.7818 67.6976M69.7697 30.8024L38.3849 41M57.7818 67.6976H18.988M57.7818 67.6976L38.3849 41M18.988 67.6976L7 30.8024M18.988 67.6976L38.3849 41M7 30.8024L38.3849 41M38.5001 17.5L51.0001 36.5L50.5001 58L30.5001 51.5L19.5001 34.5L38.5001 17.5Z" stroke="#AEE883" stroke-width="2"/>
<circle cx="49.5" cy="56.5" r="3.5" fill="#79BB49" stroke="white" stroke-width="2"/>
<circle cx="51.5" cy="36.5" r="3.5" fill="#79BB49" stroke="white" stroke-width="2"/>
<circle cx="38.5" cy="19.5" r="3.5" fill="#79BB49" stroke="white" stroke-width="2"/>
<circle cx="20.5" cy="35.5" r="3.5" fill="#79BB49" stroke="white" stroke-width="2"/>
<circle cx="30.5" cy="51.5" r="3.5" fill="#79BB49" stroke="white" stroke-width="2"/>
</svg>
