<svg xmlns="http://www.w3.org/2000/svg" xmlns:xlink="http://www.w3.org/1999/xlink" width="480" height="480" fill="none" xmlns:v="https://vecta.io/nano"><style><![CDATA[.B{fill:#79bb49}.C{fill:#fff}.D{fill:#000}.E{fill-rule:evenodd}.F{opacity:.2}.G{fill:#455a64}.H{opacity:.4}.I{opacity:.1}.J{fill:#263238}.K{fill:#37474f}]]></style><path d="M239.5 466.822c120.931 0 218.965-54.486 218.965-121.698S360.431 223.427 239.5 223.427 20.535 277.913 20.535 345.124 118.569 466.822 239.5 466.822z" fill="#f5f5f5"/><path d="M259.176 421.208h-39.362a1.92 1.92 0 0 1-.904-.162c-.284-.127-.531-.321-.722-.565a1.89 1.89 0 0 1-.373-.836c-.053-.304-.031-.617.065-.912l.798-3.157a3.42 3.42 0 0 1 1.19-1.745 3.45 3.45 0 0 1 1.992-.719h35.27c.722.025 1.418.278 1.987.72a3.42 3.42 0 0 1 1.185 1.744l.808 3.157a1.88 1.88 0 0 1 .064.912 1.89 1.89 0 0 1-.372.836 1.91 1.91 0 0 1-.722.565c-.284.126-.594.182-.904.162zm-124.145-42.803l-19.666 11.335a2.45 2.45 0 0 1-1.099.26c-.382 0-.759-.089-1.1-.26l-58.077-33.332a.66.66 0 0 1-.336-1.023c.084-.113.202-.197.337-.24l19.676-11.334c.341-.171.718-.26 1.1-.26s.759.089 1.1.26l58.087 33.331a.68.68 0 0 1 .318.252c.077.114.118.249.116.387a.67.67 0 0 1-.455.624zm293.3-33.484l-57.084 32.822a2.15 2.15 0 0 1-1.934 0l-47.937-27.496c-.542-.316-.542-.805 0-1.11l57.085-32.823c.3-.15.631-.229.967-.229a2.16 2.16 0 0 1 .966.229l47.937 27.497c.115.041.214.117.283.216s.108.217.108.339-.038.239-.108.338-.168.175-.283.217zm-272.304 24.461l13.425-7.709a.52.52 0 0 0 .419-.509.52.52 0 0 0-.419-.509l-73.988-42.518c-.266-.13-.558-.198-.854-.198a1.94 1.94 0 0 0-.854.198l-13.424 7.719c-.481.265-.481.713 0 1.019l73.977 42.507a1.89 1.89 0 0 0 .86.207c.299 0 .593-.071.859-.207z" fill="#e0e0e0"/><path d="M311.032 132.892c6.322 15.723 7.164 33.102 2.392 49.357s-14.884 30.449-28.717 40.31-30.589 14.82-47.588 14.084-33.259-7.123-46.181-18.142-21.756-26.031-25.093-42.637a75.38 75.38 0 0 1 6.686-48.964c7.669-15.118 20.21-27.239 35.617-34.425s32.791-9.023 49.371-5.216a76.17 76.17 0 0 1 32.389 16.274c9.318 7.946 16.566 18.02 21.124 29.359z" class="G"/><path d="M231.314 96.424c-3.478.061-7.94 1.283-4.706 3.249s5.29 2.159 5.32 4.705-1.647 5.234-.828 7.047 2.179 3.921 3.509 3.31 4.942-4.634 7.009-4.451 9.106.499 10.13-1.792 2.046-2.139 3.745-4.685 1.596-5.937-.461-5.957-2.333.866-5.771.611-5.034-2.505-8.38-1.915-6.998-.163-9.567-.122zm-12.923.906c-3.939 2.098-12.278 5.265-16.095 4.196-1.913-.54-4.184-1.293-6.609-1.741-14.828 10.735-25.272 26.43-29.417 44.208.917 1.902 2.072 3.682 3.438 5.296 3.008 3.513 6.139 3.961 9.935 4.694s2.619 2.872 4.492 5.092 2.68 3.544 4.819 4.746-.757 3.452-1.596 5.907-1.085 3.829.675 8.798 6.856 9.023 8.37 10.948-1.023 4.165-.399 8.147.45 14.757 4.338 20.775 6.221 5.326 5.904 1.263-1.627-7.903.727-10.958 7.162-2.24 8.779-7.821 2.67-5.306 5.269-7.2 1.432-3.524 3.847-7.831 3.121-8.372-.45-10.184-5.924-1.589-8.994-5.785c-3.302-4.361-7.484-7.986-12.278-10.642-4.42-2.383-11.44.53-14.243-.285s-4.584-6.11-4.4-8.147-1.903-2.587-3.919-2.088-3.141-.774-3.694-3.462 3.643-6.111 7.05-6.335 5.229 1.314 5.904 5.683a8.49 8.49 0 0 0 2.178 4.738c1.206 1.313 2.795 2.217 4.545 2.584 3.141.784 1.176-2.464-1.024-4.684s-2.384-4.247-.706-9.166 5.812-4.532 8.892-9.033 3.673-1.12 6.784-.672 2.65-1.222 3.796-4.074 5.116-.387 8.349-2.678-3.53-5.866-3.069-8.962 3.54-2.984 1.821-7.628.655-4.817 1.883-6.548-.952-3.249-4.902-1.151zm-4.604 11.325c-1.023 2.291-1.903 1.853-3.591 4.359a9.52 9.52 0 0 1-6.017 4.073c-1.698.204-4.492-2.8-4.635-4.664s2.548-2.414 5.597-2.801a17.11 17.11 0 0 0 8.431-3.88c2.19-1.67 1.248.632.215 2.913zm102.453 46.611v.214a5.38 5.38 0 0 0-1.811 1.179c-.518.512-.925 1.122-1.197 1.795-1.729 4.226-2.047 2.373-6.139 5.245s-2.507 5.092-2.292 7.994-4.482 6.11-6.805 7.129-3.356 7.577-2.588 10.764-3.07 4.481-5.423 7.383-3.684 7.771-5.219 10.103c-.737 1.17-1.799 2.101-3.058 2.682s-2.659.784-4.032.587c-2.784-.469-5.362-5.092-6.856-9.023a22.99 22.99 0 0 1-1.146-12.679c.87-4.318.563-3.778-.471-10.52a10.72 10.72 0 0 0-2.683-6.055 10.82 10.82 0 0 0-5.737-3.345c-2.62-.651-6.948.866-9.281-.488s-3.325-3.32-4.85-9.665 1.637-7.791 4.093-11.202a23.78 23.78 0 0 1 11.685-8.219 12.92 12.92 0 0 1 5.135-.375 12.88 12.88 0 0 1 4.872 1.659c2.67 1.323 3.929 4.297 5.832 4.501s3.53-.784 5.433-.418 3.182 1.294 5.034 1.019.676-2.434.41-3.605-1.944-.876-4.175-.897-2.783-.621-3.571-2.097-2.046-.174-3.141-.774-.87 2.108-.962 3.157-.911-.805-.911-.805-.921 1.436-1.32.774.522-2.24.389-3.87-2.486-1.242-3.96-2.495a5.64 5.64 0 0 0-2.66-1.111 5.66 5.66 0 0 0-2.865.347c-2.046.662-2.374.184-3.264 1.945s-5.259 2.954-6.64 2.719-.41-3.055.777-5.499 3.633-1.65 5.116-4.145-.563-2.851-1.964-3.248-1.842-1.742-.379-4.919 3.407-2.302 4.216-.835a4.91 4.91 0 0 0 1.922 1.711 4.94 4.94 0 0 0 2.529.509c1.872 0 1.432-1.293 1.391-4.074s1.218-4.175 3.704-5.214 6.641-2.719 8.186-4.206 4.41-.509 5.893 1.09 4.789 2.189 8.258 2.77a2.86 2.86 0 0 0 2.455-.805c10.499 12.158 16.828 27.33 18.07 43.312zm-14.233 37.253c-1.852-.316-1.688.295-2.773 1.741s-2.67 3.056-2.384 4.604.43 3.37 1.709 2.26.839-2.454 2.66-3.269 3.561-4.867.788-5.336z" class="B"/><path d="M260.23 93.939c-48.428-13.921-57.473 18.942-31.801 39.646s69.659 27.496 75.584 13.881-7.777-43.19-43.783-53.527z" style="mix-blend-mode:soft-light" class="C H"/><path d="M219.803 198.986c-37.643-30.735-36.466-90.413-3.478-109.701-1.392.469-2.784.957-4.165 1.507-11.634 4.635-21.938 12.06-29.994 21.614s-13.614 20.942-16.181 33.151a75.34 75.34 0 0 0 1.468 36.827 75.6 75.6 0 0 0 18.769 31.77 76.12 76.12 0 0 0 31.621 19.181c11.967 3.702 24.668 4.404 36.973 2.042s23.833-7.714 33.559-15.58 17.347-18.003 22.186-29.508c-10.631 14.634-53.145 39.371-90.758 8.697z" style="mix-blend-mode:multiply" opacity=".05" class="D"/><g class="B"><path d="M416.595 90.141c-2.537-1.467-6.047-1.253-9.915.967-7.735 4.45-14.007 15.276-14.007 24.156 0 4.461 1.576 7.597 4.093 9.043l4.931 2.852c2.538 1.456 6.037 1.253 9.905-1.018 7.746-4.441 14.018-15.276 14.018-24.157 0-4.44-1.566-7.566-4.093-9.022"/><path d="M411.643 93.97c-7.735 4.45-14.008 15.276-14.008 24.166s6.273 12.496 14.008 8.045 14.028-15.275 14.018-24.156-6.283-12.495-14.018-8.055z"/><path d="M419.378 113.706v1.018a22.39 22.39 0 0 1-7.735 8.066c-3.008 1.731-5.74 1.915-7.735.815v-2.098c.105-2.181.731-4.306 1.827-6.198a13.74 13.74 0 0 1 4.476-4.678l2.046-1.172c1.811-1.018 3.561-1.171 4.932-.376s2.189 2.484 2.189 4.623z"/></g><path d="M416.595 90.141l4.963 2.862c-2.538-1.466-6.037-1.253-9.915.968-5.065 2.923-9.506 8.564-11.961 14.614l-4.973-2.872c2.466-6.05 6.907-11.691 11.971-14.604 3.868-2.22 7.378-2.434 9.915-.967z" class="C H"/><g class="D"><path d="M401.554 127.047l-4.747-2.74c-2.558-1.446-4.093-4.582-4.093-9.043l4.962 2.872c-.041 4.328 1.443 7.414 3.878 8.911z" class="F"/><path d="M394.709 105.712l4.973 2.872c-1.287 3.025-1.981 6.267-2.047 9.552l-4.962-2.872c.068-3.283.758-6.524 2.036-9.552z" class="I"/></g><path d="M409.883 108.991a2.73 2.73 0 0 1-1.351-.346c-.497-.331-.896-.79-1.153-1.328a3.3 3.3 0 0 1-.31-1.727 8.65 8.65 0 0 1 1.164-3.933c.698-1.2 1.674-2.215 2.847-2.962.47-.375 1.043-.599 1.644-.644a3 3 0 0 1 1.722.393c.521.301.938.751 1.198 1.292s.348 1.147.255 1.739a8.63 8.63 0 0 1-1.157 3.932c-.696 1.199-1.671 2.215-2.843 2.963-.606.379-1.301.593-2.016.621zm7.296.092c-1.372-.795-3.07-.652-4.932.376l-2.047 1.172a13.74 13.74 0 0 0-4.475 4.678c-1.096 1.892-1.723 4.017-1.828 6.198v2.118c1.996 1.1 4.728.917 7.736-.815a22.38 22.38 0 0 0 7.735-8.065v-1.019c.01-2.159-.808-3.839-2.189-4.643z" class="C"/><g class="B"><path d="M72.248 197.529c2.537-1.456 6.037-1.252 9.915 1.019 7.735 4.45 14.008 15.276 14.008 24.166 0 4.461-1.586 7.587-4.093 9.033l-4.942 2.852c-2.527 1.456-6.037 1.252-9.905-.968-7.735-4.45-14.008-15.276-14.008-24.166 0-4.44 1.565-7.567 4.093-9.023"/><path d="M77.19 201.369c7.735 4.45 14.018 15.276 14.018 24.156s-6.282 12.496-14.018 8.055-14.018-15.275-14.008-24.166 6.282-12.465 14.008-8.045z"/></g><path d="M72.248 197.529l-4.963 2.862c2.538-1.456 6.037-1.252 9.905 1.019 5.065 2.912 9.505 8.554 11.971 14.603l4.963-2.872c-2.456-6.039-6.896-11.691-11.961-14.603-3.878-2.261-7.398-2.465-9.915-1.009z" class="C H"/><g class="D"><path d="M87.289 234.446l4.748-2.75c2.548-1.446 4.093-4.572 4.093-9.033l-4.963 2.862c.031 4.338-1.463 7.414-3.878 8.921z" class="F"/><path d="M94.124 213.101l-4.963 2.871c1.285 3.026 1.98 6.268 2.046 9.553l4.962-2.862a25.77 25.77 0 0 0-2.046-9.562z" class="I"/></g><g class="B"><path d="M337.512 21.787c-2.527-1.466-6.037-1.253-9.905.967-7.745 4.45-14.017 15.276-14.017 24.156 0 4.471 1.586 7.597 4.092 9.043l4.942 2.852c2.538 1.456 6.037 1.253 9.905-.967 7.735-4.45 14.018-15.276 14.018-24.166 0-4.44-1.576-7.567-4.093-9.023"/><path d="M332.611 25.656c-7.735 4.45-14.007 15.276-14.007 24.156s6.231 12.496 14.007 8.055 14.018-15.276 14.018-24.166-6.323-12.496-14.018-8.045z"/></g><path d="M337.512 21.787l4.973 2.862c-2.538-1.456-6.047-1.253-9.915 1.018-5.065 2.913-9.505 8.554-11.971 14.604l-4.963-2.872c2.466-6.039 6.897-11.691 11.972-14.604 3.867-2.23 7.377-2.444 9.904-1.008z" class="C H"/><g class="D"><path d="M322.481 58.734l-4.757-2.75c-2.548-1.446-4.093-4.573-4.093-9.033l4.972 2.862c-.04 4.338 1.453 7.414 3.878 8.921z" class="F"/><path d="M315.636 37.388l4.963 2.872a25.95 25.95 0 0 0-2.047 9.553l-4.972-2.862a25.76 25.76 0 0 1 2.056-9.563z" class="I"/></g><g class="B"><path d="M297.198 262.625c-2.527-1.467-6.037-1.253-9.905.967-7.745 4.451-14.017 15.276-14.017 24.156 0 4.471 1.585 7.598 4.092 9.044l4.942 2.851c2.538 1.456 6.037 1.253 9.905-1.018 7.735-4.44 14.018-15.276 14.018-24.156 0-4.441-1.576-7.567-4.093-9.023"/><path d="M292.256 266.464c-7.735 4.44-14.008 15.276-14.008 24.156s6.273 12.496 14.008 8.046 14.018-15.276 14.018-24.157-6.283-12.495-14.018-8.045z"/></g><path d="M297.198 262.625l4.973 2.861c-2.538-1.456-6.047-1.252-9.915.968-5.065 2.923-9.505 8.565-11.971 14.614l-4.973-2.872c2.466-6.049 6.896-11.691 11.971-14.604 3.878-2.22 7.388-2.434 9.915-.967z" class="C H"/><g class="D"><path d="M282.167 299.531l-4.757-2.78c-2.548-1.446-4.093-4.573-4.093-9.043l4.972 2.872c-.04 4.379 1.453 7.454 3.878 8.951z" class="F"/><path d="M275.312 278.196l4.962 2.872c-1.282 3.027-1.976 6.268-2.046 9.552l-4.962-2.872c.066-3.284.76-6.526 2.046-9.552z" class="I"/></g><g class="B"><path d="M177.412 259.621c2.537-1.457 6.037-1.253 9.915 1.018 7.735 4.45 14.007 15.276 14.007 24.156 0 4.461-1.586 7.587-4.092 9.043l-4.943 2.852c-2.527 1.456-6.036 1.242-9.904-1.019-7.735-4.45-14.008-15.275-14.008-24.156 0-4.45 1.566-7.566 4.093-9.023"/><path d="M182.354 263.46c7.746 4.45 14.018 15.276 14.018 24.156s-6.282 12.506-14.018 8.055-14.017-15.275-14.007-24.156 6.282-12.444 14.007-8.055z"/></g><path d="M177.412 259.621l-4.962 2.871c2.537-1.466 6.037-1.252 9.904.968 5.065 2.912 9.506 8.565 11.972 14.604l4.962-2.862c-2.455-6.049-6.855-11.691-11.971-14.604-3.868-2.23-7.367-2.434-9.905-.977z" class="C H"/><g class="D"><path d="M192.433 296.537l4.748-2.739c2.547-1.457 4.092-4.583 4.092-9.044l-4.901 2.831c-.01 4.369-1.504 7.455-3.939 8.952z" class="F"/><path d="M199.288 275.202l-4.962 2.862c1.285 3.025 1.98 6.267 2.046 9.552l4.963-2.872a25.77 25.77 0 0 0-2.047-9.542z" class="I"/></g><path d="M177.944 270.711v13.514c0 1.018.399 1.752.901 1.66l9.403-1.803c.491-.102.286-1.018-.481-2.036l-8.441-11.325c-.768-1.008-1.382-1.018-1.382-.01z" class="C"/><g class="B"><path d="M63.857 83.073c2.538-1.466 6.037-1.253 9.915.967 7.735 4.45 14.008 15.276 14.008 24.157 0 4.47-1.576 7.597-4.093 9.043l-4.932 2.851c-2.537 1.457-6.037 1.253-9.915-1.018-7.735-4.44-14.008-15.276-14.008-24.156 0-4.44 1.566-7.567 4.093-9.023"/><path d="M68.81 86.963c7.735 4.45 14.008 15.276 14.008 24.156s-6.272 12.496-14.018 8.046-14.018-15.276-14.008-24.157 6.282-12.547 14.018-8.045z"/></g><path d="M63.858 83.073l-4.963 2.872c2.538-1.456 6.037-1.253 9.905 1.018 5.116 2.913 9.516 8.555 11.971 14.604l4.963-2.872c-2.456-6.1-6.876-11.732-11.992-14.655-3.847-2.169-7.347-2.434-9.884-.967z" class="C H"/><g class="D"><path d="M78.858 119.979l4.748-2.739c2.558-1.446 4.093-4.573 4.093-9.043l-4.963 2.871c.082 4.339-1.412 7.465-3.878 8.911z" class="F"/><path d="M85.734 98.644l-4.962 2.872c1.285 3.026 1.98 6.268 2.046 9.552l4.963-2.871a25.76 25.76 0 0 0-2.046-9.553z" class="I"/></g><g class="B"><path d="M410.241 203.406c-2.537-1.457-6.047-1.253-9.915 1.018-7.735 4.45-14.007 15.276-14.007 24.156 0 4.461 1.576 7.587 4.093 9.043l4.931 2.852c2.538 1.456 6.037 1.242 9.905-1.019 7.746-4.45 14.018-15.275 14.018-24.156 0-4.45-1.566-7.566-4.093-9.023"/><path d="M405.258 207.245c-7.735 4.45-14.007 15.276-14.007 24.156s6.272 12.506 14.007 8.056 14.028-15.276 14.018-24.157-6.252-12.495-14.018-8.055z"/></g><path d="M410.241 203.406l4.963 2.871c-2.538-1.466-6.037-1.252-9.915 1.019-5.065 2.912-9.506 8.565-11.961 14.604l-4.973-2.862c2.466-6.049 6.907-11.691 11.971-14.604 3.909-2.281 7.378-2.485 9.915-1.028z" class="C H"/><g class="D"><path d="M395.2 240.322l-4.747-2.739c-2.558-1.457-4.093-4.583-4.093-9.044l4.962 2.872c-.041 4.328 1.453 7.414 3.878 8.911z" class="F"/><path d="M388.355 218.987l4.973 2.862a25.76 25.76 0 0 0-2.047 9.552l-4.962-2.882a25.94 25.94 0 0 1 2.036-9.532z" class="I"/></g><use xlink:href="#B" class="B"/><use xlink:href="#B" class="D F"/><path d="M186.437 17.234c-.041-.706-.247-1.392-.602-2.004a4.54 4.54 0 0 0-1.444-1.52l-1.668-.957a4.53 4.53 0 0 0-4.093 0l-38.564 22.18a4.49 4.49 0 0 0-1.449 1.517 4.48 4.48 0 0 0-.598 2.006v19.848c.037.708.241 1.397.597 2.012s.852 1.136 1.45 1.522l1.667.957c.635.318 1.336.483 2.047.483a4.57 4.57 0 0 0 2.046-.483l8.186-4.725 2.926 5.092a.43.43 0 0 0 .175.175c.074.04.159.057.243.049s.164-.04.229-.092a.43.43 0 0 0 .141-.203l3.07-8.89 23.533-13.534c.594-.387 1.089-.908 1.444-1.52s.562-1.298.603-2.004l.061-19.909z" class="B"/><path d="M138.019 58.306c.037.708.241 1.397.597 2.012s.852 1.136 1.45 1.522l1.667.957c.577.285 1.207.448 1.85.476s1.286-.078 1.885-.313c-.962.356-1.698-.183-1.698-1.344V41.767c.02-.72.228-1.421.603-2.037l-5.75-3.31a4.06 4.06 0 0 0-.604 2.037v19.848z" class="D F"/><g class="C"><path d="M186.365 16.695c-.235-.866-1.023-1.141-1.974-.601l-38.575 22.191c-.614.353-1.123.863-1.473 1.477l-5.751-3.31c.346-.618.842-1.14 1.443-1.517l38.564-22.18c.636-.316 1.336-.481 2.047-.481a4.59 4.59 0 0 1 2.046.481l1.668.957c.523.333.972.769 1.317 1.283a4.46 4.46 0 0 1 .688 1.701z" class="F"/><path d="M155.045 42.083a6 6 0 0 0-1.933 2.026c-.475.818-.748 1.736-.799 2.679 0 1.731 1.218 2.434 2.732 1.568a6.01 6.01 0 0 0 1.925-2.029 5.99 5.99 0 0 0 .797-2.676c0-1.731-1.218-2.434-2.722-1.568zm10.058-5.795a6.04 6.04 0 0 0-1.93 2.028 6.01 6.01 0 0 0-.802 2.677c0 1.731 1.228 2.434 2.732 1.568a6.03 6.03 0 0 0 1.953-2.022 5.99 5.99 0 0 0 .82-2.683c0-1.731-1.269-2.434-2.773-1.568zm10.069-5.794c-.796.514-1.459 1.209-1.934 2.026a5.96 5.96 0 0 0-.798 2.679c0 1.731 1.217 2.434 2.732 1.568a6.03 6.03 0 0 0 1.925-2.029 5.99 5.99 0 0 0 .796-2.676c0-1.731-1.217-2.434-2.721-1.568z"/></g><path d="M344.5 130.968l17.712-10.184c.184-.136.334-.313.439-.516a1.48 1.48 0 0 0 .164-.655v-15.846c0-.448-.266-.652-.603-.459L344.5 113.492c-.186.132-.339.306-.446.508a1.46 1.46 0 0 0-.168.653v15.867c-.02.438.276.641.614.448z" class="B"/><path d="M343.866 130.509v-.315l7.326-12.079-7.223-3.981a.49.49 0 0 1 .051-.133l9.004 3.738c.184.081.43-.061.624-.367l8.994-14.054c.017-.003.034-.003.051 0L355.48 115.6l7.316 3.666v.306a1.63 1.63 0 0 1-.185.723l-7.5-4.074-1.023 1.813c-.43.713-1.023 1.018-1.422.815l-1.023-.591-7.49 12.669a.56.56 0 0 1-.287-.418z" class="C"/><g class="B"><path d="M143.319 195.798a11.5 11.5 0 0 1 1.474 1.854c.432.68.812 1.391 1.135 2.128.302.693.548 1.408.737 2.139a8.74 8.74 0 0 1 .297 1.894.63.63 0 0 1-.123.428c-.027.043-.071.073-.12.085s-.102.002-.146-.024l-2.363-1.365a1.18 1.18 0 0 1-.41-.366 3.87 3.87 0 0 1-.317-.561l-.174-.417c-.09-.23-.2-.451-.327-.662a4.79 4.79 0 0 0-.553-.723c-.226-.253-.492-.466-.788-.632-.211-.122-.434-.225-.665-.305-.179-.068-.373-.089-.563-.061-.082.011-.16.041-.229.087s-.127.106-.17.178a1.3 1.3 0 0 0-.153.713c-.001.307.058.611.174.896.148.335.344.647.583.926a10.34 10.34 0 0 0 1.023 1.141l1.668 1.568a16.24 16.24 0 0 1 1.729 1.895 10.18 10.18 0 0 1 1.238 2.036 10.42 10.42 0 0 1 .747 2.343 14.24 14.24 0 0 1 .246 2.749 8.36 8.36 0 0 1-.287 2.302c-.156.56-.435 1.078-.818 1.517a2.31 2.31 0 0 1-1.269.713 3.46 3.46 0 0 1-1.627-.102v2.271c.013.185-.038.368-.143.52-.017.028-.041.052-.068.071s-.059.032-.092.037-.067.005-.099-.003-.063-.024-.089-.044l-2.364-1.365c-.16-.109-.282-.266-.347-.448-.093-.219-.142-.455-.144-.693v-2.372a10.97 10.97 0 0 1-1.514-1.884c-.456-.694-.857-1.423-1.197-2.18-.323-.726-.58-1.479-.768-2.25-.169-.698-.265-1.411-.286-2.129a.69.69 0 0 1 .112-.428.21.21 0 0 1 .122-.081c.049-.011.1-.004.144.02l2.374 1.365c.153.087.288.201.399.336.107.163.203.333.287.509 0 .112.123.285.215.54.11.28.24.553.389.815.174.312.379.605.613.876.256.303.564.559.911.753.481.314 1.033.503 1.607.55.429 0 .644-.316.644-.957a2.08 2.08 0 0 0-.235-.937 6.15 6.15 0 0 0-.706-1.019c-.317-.356-.716-.763-1.208-1.222l-1.729-1.629c-1.181-1.095-2.11-2.433-2.721-3.921a13 13 0 0 1-.86-4.888c-.007-.686.072-1.37.235-2.037.135-.543.367-1.057.686-1.517a2.43 2.43 0 0 1 1.085-.876 2.71 2.71 0 0 1 1.452-.163v-2.363c-.012-.187.038-.373.144-.529.039-.053.097-.089.161-.1s.132.002.187.039l2.363 1.364a.95.95 0 0 1 .348.459c.092.215.141.447.143.682v2.454z"/><use xlink:href="#C"/></g><use xlink:href="#C" opacity=".04" class="D"/><g class="B"><path d="M255.053 36.818c0-5.795-3.837-8.29-8.565-5.57s-8.574 9.624-8.574 15.418v1.324c0 4.46 5.116 9.634 7.418 11.783a1.16 1.16 0 0 0 .995.286c.177-.033.344-.106.487-.214s.26-.248.34-.408c2.046-4.074 7.899-16.498 7.899-21.294v-1.324zm-8.565 9.166c-2.373 1.365-4.287.265-4.287-2.454.079-1.48.509-2.92 1.254-4.203s1.785-2.373 3.033-3.18c2.364-1.365 4.277-.265 4.277 2.454a9.38 9.38 0 0 1-1.243 4.218 9.43 9.43 0 0 1-3.034 3.196v-.031z"/><use xlink:href="#D"/></g><use xlink:href="#D" opacity=".15" class="D"/><path d="M256.813 400.565a.22.22 0 0 1-.118-.124c-.021-.056-.019-.117.005-.171 4.881-10.937 13.629-15.276 17.579-16.05.028-.007.059-.009.088-.004a.22.22 0 0 1 .083.032c.025.017.046.038.063.063s.027.053.032.082c.012.06.001.122-.032.173a.23.23 0 0 1-.142.102c-3.868.754-12.453 5.021-17.262 15.785-.024.054-.069.096-.125.117s-.117.019-.171-.005z" class="C"/><path d="M256.659 409.792a9.41 9.41 0 0 0 .266-3.249c-.266-1.154-.427-2.33-.481-3.513a3.81 3.81 0 0 1 .568-1.384c.279-.42.639-.78 1.059-1.06a9.89 9.89 0 0 0 2.364-1.62 10.77 10.77 0 0 0 1.023-2.739c.412-1.009 1.2-1.819 2.2-2.261 1.003-.431 2.135-.464 3.161-.091.922.429 1.784.974 2.569 1.619.818.634 1.818.99 2.854 1.018a22.43 22.43 0 0 1 3.408.163c1.913.306 4.236 1.324 4.573 3.442a2.5 2.5 0 0 1-.184 1.548v.061c-.767 1.283-2.558 1.294-3.786 1.782-.337.143-.89.316-1.023.673s.062.906.174 1.283c.614 2.128.737 4.888-2.23 5.326a9.45 9.45 0 0 1-3.295-.489c-.532-.174-1.098-.213-1.649-.113a3.37 3.37 0 0 0-1.503.683c-.404.533-.725 1.124-.951 1.752-.694 1.27-1.84 2.237-3.213 2.709-1.367.452-2.812.619-4.246.489-3.193-.245-2.2-3.992-1.658-6.029z" class="B"/><g class="C"><path d="M256.618 413.102c-.055-.019-.1-.058-.127-.109s-.032-.111-.016-.166c3.908-12.903 17.752-14.339 20.965-14.003.058.008.111.037.147.083s.053.103.048.161c-.003.028-.011.055-.024.08s-.032.046-.054.063-.048.029-.075.036-.055.009-.083.005c-3.141-.326-16.688 1.079-20.464 13.707a.21.21 0 0 1-.042.091c-.022.026-.049.047-.08.061a.22.22 0 0 1-.098.019c-.034-.002-.067-.012-.097-.028z"/><path d="M272.14 407.002c-.042-.011-.081-.032-.113-.062a11.44 11.44 0 0 0-4.315-2.501 11.48 11.48 0 0 0-4.975-.432c-.057 0-.112-.022-.152-.062s-.063-.095-.063-.151.023-.111.063-.152.095-.062.152-.062c1.736-.229 3.503-.074 5.172.454s3.202 1.416 4.487 2.601c.039.041.06.096.06.153a.22.22 0 0 1-.06.152c-.027.041-.069.069-.116.081a.2.2 0 0 1-.14-.019z"/></g><g class="B"><use xlink:href="#E"/><use xlink:href="#E"/></g><use xlink:href="#E" opacity=".023" class="D"/><path d="M220.059 405.718a.22.22 0 0 1-.128-.048c-.037-.03-.064-.07-.076-.115-2.364-9.033-8.186-18.493-13.517-22.007-.025-.016-.047-.038-.064-.062s-.028-.053-.034-.083-.005-.06.001-.089.018-.057.036-.082.036-.046.06-.062a.21.21 0 0 1 .08-.034c.029-.006.058-.006.087 0s.056.018.08.035c5.423 3.565 11.316 13.138 13.711 22.272.007.029.009.059.005.089s-.014.058-.029.083-.036.048-.06.066-.051.03-.08.037h-.072z" class="C"/><path d="M220.765 413.662a13.54 13.54 0 0 1-6.139 3.187c-3.96.927-5.873-.855-5.873-.855s1.299-3.86 3.499-5.092c-2.422.733-4.702 1.87-6.743 3.361 0 0-2.445.214-3.704-3.432 0 0 1.29-2.343 6.068-3.911-2.423-.256-4.873.044-7.162.876-.318.143-2.047-4.562-2.62-6.752s.328-2.23 2.047-2.821 7.602-1.314 8.758-.448 1.954 4.074 1.954 4.074a8 8 0 0 0 .359-4.308 10.38 10.38 0 0 1 4.686.193c.46.133 1.228 3.361.378 6.049 1.102-1.512 1.786-3.285 1.985-5.142a7.43 7.43 0 0 1 2.586 2.129c.688.897 1.162 1.938 1.384 3.044.451 2.159.901 6.772-1.463 9.848z" class="B"/><path d="M220.775 413.865c-.041.005-.083-.004-.119-.024s-.067-.05-.085-.088c-3.735-6.456-16.371-13.34-20.72-13.86a.23.23 0 0 1-.178-.069c-.022-.024-.039-.052-.05-.084s-.014-.064-.01-.096a.23.23 0 0 1 .032-.092c.017-.028.041-.052.068-.07s.059-.03.092-.034.066-.002.097.007c4.441.52 17.262 7.516 21.058 14.074a.23.23 0 0 1 .022.17c-.015.057-.053.106-.104.136a.17.17 0 0 1-.103.03z" class="C"/><path d="M324.917 347.518a2.93 2.93 0 0 0 .414 1.297 2.95 2.95 0 0 0 .957.974l38.554 22.149c.426.212.895.322 1.371.322s.945-.11 1.371-.322l52.746-30.307a2.58 2.58 0 0 0 1.005-.948 2.56 2.56 0 0 0 0-2.656 2.58 2.58 0 0 0-1.005-.948l-38.544-22.15a3.08 3.08 0 0 0-2.752 0l-52.746 30.307a2.95 2.95 0 0 0-.959.978c-.238.396-.38.843-.412 1.304z" class="K"/><path d="M366.213 369.301v2.963c-.477.008-.949-.104-1.371-.325l-38.554-22.15a2.58 2.58 0 0 1-.983-.912 2.57 2.57 0 0 1-.077-2.581 2.58 2.58 0 0 1 .927-.968c-.624.438-.573 1.09.133 1.497l38.554 22.15c.422.222.894.334 1.371.326z" class="J"/><path d="M323.627 345.287c-.384-.258-.701-.602-.925-1.006a2.91 2.91 0 0 1-.364-1.316v-45.776a3.05 3.05 0 0 1 .404-1.348 3.06 3.06 0 0 1 .967-1.025l52.746-30.307c.397-.249.855-.385 1.325-.394a2.58 2.58 0 0 1 2.306 1.326c.226.409.337.872.319 1.339v45.776a3.05 3.05 0 0 1-.404 1.348 3.06 3.06 0 0 1-.967 1.025l-52.746 30.307a2.94 2.94 0 0 1-1.324.343c-.463.009-.92-.091-1.337-.292z" class="G"/><path d="M326.134 345.318c-.399.217-.849.324-1.304.311a2.58 2.58 0 0 1-1.283-.385c-.386-.239-.702-.576-.914-.977a2.55 2.55 0 0 1-.295-1.302v-45.827c.018-.474.155-.937.399-1.344l2.579 1.476a2.78 2.78 0 0 0-.399 1.345v45.827c0 .815.532 1.192 1.217.876z" class="J"/><path d="M324.917 298.666v45.827c0 .866.614 1.222 1.371.784l52.746-30.307a3.06 3.06 0 0 0 .967-1.025c.238-.412.376-.874.404-1.348V266.78c0-.876-.614-1.222-1.371-.795l-52.746 30.308a3.06 3.06 0 0 0-.968 1.025 3.04 3.04 0 0 0-.403 1.348z" class="K"/><path d="M326.288 346.825l38.554 22.14a3.09 3.09 0 0 0 2.742 0l52.746-30.297c.164-.06.305-.168.405-.31a.84.84 0 0 0 0-.969.84.84 0 0 0-.405-.31l-38.544-22.15a3.08 3.08 0 0 0-2.752 0l-52.746 30.307c-.164.06-.306.168-.406.31a.84.84 0 0 0-.153.485c0 .173.053.342.153.485a.85.85 0 0 0 .406.309z" class="G"/><path d="M327.035 298.839l50.842-29.218c.461-.254.829 0 .829.479v39.625c-.015.286-.098.564-.242.812s-.345.458-.587.614l-50.842 29.217c-.461.255-.829 0-.829-.478v-39.626c.015-.286.098-.564.242-.812a1.81 1.81 0 0 1 .587-.613z" class="B"/><path d="M330.769 345.634l48.909-28.128a1.5 1.5 0 0 1 1.382 0l2.496 1.436c.085.027.158.08.21.151a.42.42 0 0 1 .08.246c0 .088-.028.174-.08.245a.41.41 0 0 1-.21.152l-48.898 28.128a1.54 1.54 0 0 1-1.372 0l-2.496-1.436a.42.42 0 0 1-.214-.146c-.054-.07-.085-.156-.087-.244s.024-.175.074-.247a.42.42 0 0 1 .206-.157z" class="K"/><path d="M337.216 349.34l48.96-28.148a1.48 1.48 0 0 1 .685-.168 1.49 1.49 0 0 1 .686.168l15.399 8.85c.378.214.378.57 0 .794l-48.848 28.108a1.51 1.51 0 0 1-1.371 0l-15.46-8.809c-.087-.022-.164-.07-.221-.138a.42.42 0 0 1-.097-.241c-.006-.088.017-.176.065-.251s.119-.132.202-.165z" class="J"/><path d="M381.101 333.871l1.534-.886c.062 0 .062-.102 0-.142l-1.77-1.019a.26.26 0 0 0-.123-.031c-.043 0-.085.011-.122.031l-1.535.876c-.062 0-.062.102 0 .143l1.77 1.018c.038.019.079.03.122.032s.084-.006.124-.022zm-3.07-3.503l-1.525.886c-.071 0-.061.092 0 .132l1.77 1.019a.31.31 0 0 0 .123.026c.043 0 .084-.009.123-.026l1.525-.886c.071 0 .061-.102 0-.133l-1.781-1.018c-.061-.029-.131-.032-.194-.01l-.041.01zm-4.942 2.841l-2.599 1.497c-.061 0-.061.102 0 .143l1.77 1.018c.038.021.08.031.123.031s.085-.01.123-.031l2.599-1.487c.061 0 .051-.101 0-.142l-1.781-1.019c-.061-.026-.13-.03-.194-.01h-.041zm2.711-1.558l-1.534.886c-.072 0-.062.102 0 .143l1.77 1.018c.037.021.08.031.122.031a.25.25 0 0 0 .123-.031l1.535-.876c.061 0 .061-.102 0-.142l-1.78-1.019c-.062-.026-.131-.03-.195-.01h-.041zm-6.016 3.463l-1.535.875c-.061 0-.061.102 0 .143l1.77 1.018c.039.018.081.027.123.027s.084-.009.123-.027l1.535-.886c.061 0 .061-.101 0-.142l-1.77-1.019c-.033-.012-.069-.017-.104-.016s-.07.011-.101.027h-.041zm-2.241 1.283l-1.535.886c-.061 0-.061.091 0 .132l1.77 1.019c.038.019.08.029.123.029s.085-.01.123-.029l1.535-.886c.061 0 .061-.092 0-.133l-1.77-1.018a.26.26 0 0 0-.103-.021c-.035 0-.07.007-.102.021h-.041zm7.019 4.145l1.535-.886c.061 0 .061-.102 0-.133l-1.77-1.018c-.038-.02-.08-.03-.123-.03s-.085.01-.123.03l-1.534.886c-.062 0-.062.092 0 .132l1.77 1.019a.3.3 0 0 0 .122.026c.043 0 .085-.009.123-.026zm-2.241 1.283l1.535-.876c.072 0 .062-.102 0-.143l-1.77-1.018c-.038-.017-.08-.026-.123-.026a.3.3 0 0 0-.122.026l-1.535.886c-.062 0-.062.102 0 .143l1.77 1.018c.037.017.078.025.119.023s.081-.013.116-.033h.01zm-2.24 1.293l1.534-.886c.072 0 .062-.102 0-.142l-1.77-1.019c-.038-.019-.08-.03-.122-.03s-.085.011-.123.03l-1.535.876c-.061 0-.061.102 0 .143l1.78 1.018a.29.29 0 0 0 .112.029c.039.002.077-.005.113-.019h.011zm-2.241 1.283l1.535-.875c.071 0 .061-.102 0-.143l-1.77-1.018c-.039-.018-.081-.027-.123-.027a.29.29 0 0 0-.123.027l-1.525.886c-.071 0-.061.101 0 .142l1.781 1.018c.034.013.071.019.108.017s.073-.011.107-.027h.01zm11.03-9.247l1.535-.875c.061 0 .061-.102 0-.143l-1.77-1.018c-.039-.018-.081-.027-.123-.027a.29.29 0 0 0-.123.027l-1.535.886c-.061 0-.061.101 0 .142l1.77 1.019c.038.017.078.025.119.023s.081-.013.117-.034h.01zm-2.046 4.074l3.417-1.966c.072 0 .061-.091 0-.132l-4.308-2.475a.3.3 0 0 0-.122-.026c-.043 0-.085.009-.123.026l-1.77 1.019c-.062 0-.062.102 0 .142l2.281 1.304c.072 0 .072.112 0 .142l-1.422.815c-.061 0-.061.102 0 .143l1.77 1.018a.25.25 0 0 0 .122.036c.043.002.085-.007.124-.026l.031-.02zm-11.471-1.538l-1.534.876c-.062 0-.062.102 0 .143l1.77 1.018a.26.26 0 0 0 .123.031c.043 0 .085-.011.122-.031l1.535-.876c.062 0 .062-.102 0-.142l-1.77-1.019c-.038-.02-.08-.031-.123-.031s-.085.011-.123.031zm-2.24 1.283l-1.535.876c-.062 0-.062.102 0 .143l1.77 1.018a.29.29 0 0 0 .123.027c.042 0 .084-.009.123-.027l1.534-.886c.062 0 .062-.102 0-.142l-1.77-1.019c-.04-.017-.085-.025-.129-.024s-.087.014-.127.034h.011zm-11.194 14.431c.038.02.08.03.123.03a.26.26 0 0 0 .122-.03l1.535-.886c.062 0 .062-.092 0-.133l-1.77-1.018c-.038-.02-.08-.03-.123-.03a.26.26 0 0 0-.122.03l-1.535.886c-.062 0-.062.092 0 .132l1.77 1.019zm-6.723-4.135l-1.534.886c-.072 0-.062.102 0 .133l1.77 1.018c.038.02.08.03.123.03s.084-.01.122-.03l1.535-.886c.062 0 .062-.092 0-.132l-1.78-1.019c-.038-.021-.08-.033-.123-.033s-.085.012-.123.033h.01zm3.602 3.055c.038.021.08.032.123.032s.085-.011.123-.032l1.534-.875c.062 0 .062-.102 0-.143l-1.77-1.018c-.038-.018-.08-.027-.122-.027s-.085.009-.123.027l-1.535.886c-.061 0-.061.101 0 .142l1.77 1.008zm7.081 1.895l1.524-.876c.072 0 .062-.102 0-.143l-1.78-1.018c-.039-.018-.081-.027-.123-.027s-.084.009-.123.027l-1.524.886c-.072 0-.062.102 0 .142l1.78 1.019a.27.27 0 0 0 .123.007.26.26 0 0 0 .112-.048l.011.031zm-2.487 1.283a.31.31 0 0 0 .123.026.31.31 0 0 0 .123-.026l1.524-.886c.072 0 .062-.102 0-.143l-1.78-1.018c-.038-.021-.08-.031-.123-.031s-.085.01-.123.031l-1.524.876c-.072 0-.061.101 0 .142l1.78 1.029zm-5.955-7.485l-1.535.875c-.071 0-.061.102 0 .143l1.771 1.018c.038.018.08.027.122.027s.085-.009.123-.027l1.525-.886c.071 0 .061-.101 0-.142l-1.781-1.019a.26.26 0 0 0-.115-.04c-.041-.003-.082.003-.12.02l.01.031zm11.184-6.457l-1.535.876c-.061 0-.061.102 0 .142l1.77 1.019a.31.31 0 0 0 .123.026.31.31 0 0 0 .123-.026l1.535-.886c.071 0 .061-.102 0-.143l-1.771-1.018c-.038-.019-.081-.028-.124-.026s-.084.014-.121.036zm-8.963 5.092l-1.525.886c-.072 0-.061.102 0 .143l1.78 1.018c.038.02.08.031.123.031s.085-.011.123-.031l1.525-.876c.071 0 .061-.102 0-.142l-1.781-1.019c-.038-.019-.079-.03-.121-.031a.29.29 0 0 0-.124.021zm11.204-6.436l-1.535.886c-.062 0-.062.102 0 .142l1.77 1.019c.038.02.08.031.123.031s.085-.011.123-.031l1.534-.876c.062 0 .062-.102 0-.143l-1.77-1.018c-.041-.013-.084-.017-.126-.011s-.083.019-.119.041v-.04zm-4.482 2.576l-1.535.886c-.061 0-.061.102 0 .133l1.781 1.018a.24.24 0 0 0 .117.03c.041 0 .082-.01.118-.03l1.535-.886c.071 0 .061-.092 0-.132l-1.77-1.019c-.042-.013-.085-.017-.128-.01a.27.27 0 0 0-.118.051v-.041zm-2.282 1.334l-1.524.876c-.072 0-.062.102 0 .143l1.78 1.018c.036.02.077.03.118.03a.24.24 0 0 0 .117-.03l1.535-.876c.072 0 .062-.102 0-.142l-1.77-1.019a.26.26 0 0 0-.256 0zm-2.241 1.284l-1.524.875c-.072 0-.061.102 0 .143l1.78 1.018c.039.018.081.027.123.027s.084-.009.123-.027l1.524-.886c.072 0 .062-.102 0-.142l-1.77-1.019a.3.3 0 0 0-.215.011h-.041zm11.46 1.568l1.525-.886c.072 0 .061-.102 0-.133l-1.78-1.018c-.038-.02-.08-.031-.123-.031s-.085.011-.123.031l-1.525.886c-.071 0-.061.092 0 .132l1.771 1.019c.043.029.095.045.148.045s.104-.016.148-.045h-.041zm19.666-19.451l-1.524.875c-.072 0-.062.102 0 .143l1.77 1.018a.25.25 0 0 0 .245 0l1.525-.875c.072 0 .061-.102 0-.143l-1.78-1.018c-.063-.026-.133-.026-.195 0h-.041zm-2.711 1.558l-1.525.876c-.071 0-.061.101 0 .142l1.77 1.019c.038.019.08.029.123.029s.085-.01.123-.029l1.524-.876c.072 0 .062-.102 0-.143l-1.78-1.018a.25.25 0 0 0-.194 0h-.041zm4.952-2.852l-1.525.886c-.071 0-.061.102 0 .133l1.781 1.018c.038.02.08.03.123.03s.084-.01.122-.03l1.525-.876c.072 0 .061-.102 0-.142l-1.78-1.019c-.073-.008-.145.01-.205.051l-.041-.051zm-11.593 11.905l1.535-.886c.061 0 .061-.102 0-.132l-1.77-1.019c-.038-.019-.08-.029-.123-.029s-.085.01-.123.029l-1.535.886c-.061 0-.061.092 0 .133l1.771 1.018c.043.024.093.037.143.037a.3.3 0 0 0 .143-.037h-.041zm14.079-13.188c-.038-.019-.08-.03-.122-.03s-.085.011-.123.03l-1.525.876c-.071 0-.061.102 0 .143l1.781 1.018a.3.3 0 0 0 .122.026c.043 0 .085-.009.123-.026l1.525-.886c.071 0 .061-.102 0-.143l-1.781-1.008zm-22.152 20.734l1.525-.875c.071 0 .061-.102 0-.143l-1.77-1.018c-.038-.021-.08-.032-.123-.032s-.085.011-.123.032l-1.525.876c-.071 0-.061.101 0 .142l1.781 1.018a.25.25 0 0 0 .138.041.25.25 0 0 0 .138-.041h-.041zm27.463-15.785l1.535-.875c.071 0 .061-.102 0-.143l-1.771-1.018a.26.26 0 0 0-.122-.03c-.043 0-.085.01-.123.03l-1.535.876c-.061 0-.061.101 0 .142l1.78 1.018c.041.028.089.043.139.043s.097-.015.138-.043h-.041zm-4.768-.162l1.534-.886c.062 0 .062-.092 0-.133l-1.77-1.018c-.038-.02-.08-.03-.122-.03s-.085.01-.123.03l-1.535.886c-.061 0-.061.091 0 .132l1.77 1.019a.27.27 0 0 0 .287 0h-.041zm1.995-3.331c-.038-.02-.08-.031-.123-.031s-.085.011-.123.031l-1.534.876c-.062 0-.062.102 0 .143l1.77 1.018c.037.021.08.031.122.031a.25.25 0 0 0 .123-.031l1.535-.876c.061 0 .061-.101 0-.142l-1.77-1.019zm.471-.264l4.297 2.464c.038.02.08.03.123.03s.085-.01.123-.03l1.534-.886c.072 0 .062-.092 0-.132l-4.297-2.475c-.039-.017-.08-.026-.123-.026a.31.31 0 0 0-.123.026l-1.534.886c-.031.031-.031.102.04.143h-.04zm-5.198 2.831l-1.535.886c-.061 0-.061.102 0 .142l1.77 1.019c.038.02.08.031.123.031s.085-.011.123-.031l1.534-.876c.062 0 .062-.102 0-.143l-1.77-1.018c-.065-.028-.137-.031-.204-.01h-.041zm-16.863 9.695l-1.534.876c-.062 0-.062.101 0 .142l1.77 1.019c.038.017.08.026.123.026a.3.3 0 0 0 .122-.026l1.535-.886c.062 0 .062-.102 0-.143l-1.77-1.018a.26.26 0 0 0-.103-.017c-.036.002-.07.011-.102.027h-.041zm21.887-7.485c.036.017.077.026.117.026s.081-.009.118-.026l1.535-.886c.071 0 .061-.102 0-.143l-1.77-1.018c-.038-.02-.08-.03-.123-.03s-.085.01-.123.03l-1.524.876c-.072 0-.062.101 0 .142l1.77 1.029zm-19.646 6.191l-1.535.886c-.061 0-.061.102 0 .143l1.771 1.018c.037.021.079.032.122.032s.085-.011.123-.032l1.535-.875c.061 0 .061-.102 0-.143l-1.77-1.018c-.065-.028-.138-.031-.205-.011h-.041zm-16.79 14.747c.037.02.079.031.122.031s.085-.011.123-.031l1.535-.876c.061 0 .061-.102 0-.143l-1.77-1.018c-.038-.021-.08-.031-.123-.031s-.085.01-.123.031l-1.535.876c-.061 0-.061.102 0 .142l1.771 1.019zm-3.367-3.157l-1.535.886c-.071 0-.061.091 0 .132l1.771 1.018a.26.26 0 0 0 .122.03c.043 0 .085-.01.123-.03l1.535-.886c.061 0 .061-.091 0-.132l-1.77-1.018a.26.26 0 0 0-.205 0h-.041zm5.853 1.874l1.535-.876c.061 0 .061-.102 0-.143l-1.77-1.018c-.039-.018-.081-.027-.123-.027a.29.29 0 0 0-.123.027l-1.535.886c-.071 0-.061.102 0 .142l1.77 1.019c.044.027.094.04.145.038s.101-.019.142-.048h-.041zm2.241-1.284l1.535-.886c.061 0 .061-.101 0-.142l-1.781-1.019c-.036-.019-.076-.029-.118-.029a.25.25 0 0 0-.117.029l-1.535.876c-.072 0-.061.102 0 .143l1.77 1.018c.043.026.092.04.142.042s.1-.009.145-.032h-.041zm2.241-1.293l1.524-.876c.072 0 .061-.102 0-.142l-1.78-1.019c-.037-.017-.077-.026-.118-.026s-.081.009-.118.026l-1.534.886c-.072 0-.062.102 0 .143l1.77 1.018c.045.028.097.042.15.04s.104-.019.146-.05h-.04zm-8.002-.591l-1.535.876c-.071 0-.061.102 0 .143l1.77 1.018c.038.021.08.031.123.031s.085-.01.123-.031l1.535-.876c.061 0 .061-.102 0-.142l-1.781-1.019c-.036-.019-.076-.03-.117-.03s-.082.011-.118.03zm2.241-1.293l-1.535.886c-.072 0-.061.102 0 .143l1.77 1.018c.038.02.08.03.123.03s.085-.01.123-.03l1.524-.876c.072 0 .062-.102 0-.142l-1.78-1.019a.28.28 0 0 0-.138-.037c-.049 0-.096.013-.138.037l.051-.01zm8.953-5.143l-1.535.876c-.061 0-.061.102 0 .143l1.78 1.018c.037.02.077.03.118.03s.082-.01.118-.03l1.535-.876c.071 0 .061-.102 0-.142l-1.771-1.019c-.044-.029-.096-.044-.15-.042s-.104.02-.146.052l.051-.01zm-2.292 1.344l-1.525.886c-.071 0-.061.092 0 .133l1.781 1.018a.28.28 0 0 0 .117.026c.041 0 .081-.009.118-.026l1.535-.886c.071 0 .061-.102 0-.132l-1.77-1.019a.27.27 0 0 0-.256 0zm4.482-2.576l-1.535.886c-.062 0-.062.102 0 .142l1.77 1.019c.038.017.08.026.123.026a.3.3 0 0 0 .122-.026l1.535-.876c.072 0 .062-.102 0-.143l-1.77-1.018a.31.31 0 0 0-.116-.058c-.042-.01-.087-.011-.129-.003v.051zm-8.964 5.153l-1.524.876c-.072 0-.062.102 0 .142l1.78 1.019a.31.31 0 0 0 .123.026.31.31 0 0 0 .123-.026l1.524-.886c.072 0 .062-.102 0-.143l-1.78-1.018c-.034-.027-.075-.045-.118-.052s-.087-.004-.128.011v.051zm2.241-1.293l-1.524.886c-.072 0-.062.101 0 .142l1.78 1.019c.038.02.08.031.123.031s.085-.011.122-.031l1.525-.876c.072 0 .061-.102 0-.143l-1.77-1.018a.3.3 0 0 0-.121-.061c-.044-.01-.09-.01-.135 0v.051zm-1.627 9.094l1.525-.886c.071 0 .061-.102 0-.133l-1.77-1.018c-.038-.02-.08-.03-.123-.03s-.085.01-.123.03l-1.524.876c-.072 0-.062.102 0 .142l1.78 1.019a.3.3 0 0 0 .235-.051v.051zm-13.148-1.324l-1.77-1.018c-.038-.021-.08-.032-.123-.032s-.085.011-.123.032l-1.534.875c-.072 0-.062.102 0 .143l1.77 1.018c.038.02.08.03.123.03s.084-.01.122-.03l1.535-.876c.072-.091.072-.152 0-.193v.051zm3.356 1.018l-1.77-1.018c-.038-.021-.08-.031-.123-.031s-.085.01-.122.031l-2.364 1.354c-.061 0-.061.102 0 .143l1.77 1.018c.038.021.08.032.123.032s.085-.011.123-.032l2.363-1.354c.072-.133.072-.194 0-.234v.091zm-6.078-2.943l-1.77-1.018c-.038-.018-.08-.027-.122-.027s-.085.009-.123.027l-1.893 1.018c-.062 0 0 .102 0 .133l1.78 1.018c.036.02.077.03.118.03s.081-.01.118-.03l1.892-1.08c.072-.071.072-.071 0-.163v.092zm1.443-.835a.31.31 0 0 0 .123.027.31.31 0 0 0 .123-.027l1.535-.886c.061 0 .061-.102 0-.143l-1.771-1.018a.26.26 0 0 0-.122-.031.26.26 0 0 0-.123.031l-1.535.876c-.061 0-.061.102 0 .142l1.77 1.029zm7.756 4.898l-1.77-1.018c-.038-.02-.08-.031-.123-.031s-.085.011-.123.031l-2.947 1.691c-.071 0-.061.101 0 .142l1.771 1.019c.038.019.08.029.122.029s.085-.01.123-.029l2.947-1.691c.072-.132.072-.193 0-.234v.091zm1.473 2.037l-1.78-1.018c-.037-.017-.077-.026-.118-.026s-.081.009-.117.026l-1.914 1.028c-.061 0-.061.102 0 .133l1.77 1.018c.038.02.08.03.123.03s.085-.01.123-.03l1.893-1.079c.092-.072.082-.072.02-.143v.061zm7.429-16.538c.038.017.08.026.123.026a.3.3 0 0 0 .122-.026l1.535-.886c.062 0 .062-.102 0-.133l-1.77-1.018c-.038-.02-.08-.03-.123-.03s-.085.01-.123.03l-1.534.876c-.062 0-.062.102 0 .142l1.77 1.019zm-4.482 2.576c.039.018.081.027.123.027s.084-.009.123-.027l1.535-.886c.061 0 .061-.102 0-.142l-1.771-1.019c-.037-.02-.079-.031-.122-.031s-.085.011-.123.031l-1.535.876c-.061 0-.061.102 0 .143l1.77 1.028zm-9.945 5.652c.037.021.08.031.122.031a.25.25 0 0 0 .123-.031l1.535-.876c.061 0 .061-.101 0-.142l-1.77-1.019c-.039-.017-.08-.026-.123-.026a.31.31 0 0 0-.123.026l-1.534.886c-.062 0-.062.102 0 .143l1.77 1.008zm12.176-6.996a.26.26 0 0 0 .123.031.26.26 0 0 0 .122-.031l1.535-.876c.062 0 .062-.102 0-.142l-1.77-1.019c-.039-.017-.08-.026-.123-.026a.31.31 0 0 0-.123.026l-1.534.886c-.062 0-.062.102 0 .143l1.77 1.008zm-4.482 2.576c.039.018.081.027.123.027s.084-.009.123-.027l1.535-.875c.061 0 .061-.102 0-.143l-1.771-1.018c-.038-.018-.08-.027-.122-.027s-.085.009-.123.027l-1.535.886c-.061 0-.061.101 0 .142l1.77 1.008zm.522 12.832c-.039-.017-.08-.026-.123-.026a.31.31 0 0 0-.123.026l-2.353 1.365c-.072 0-.061.091 0 .132l1.78 1.019c.038.019.08.029.123.029s.085-.01.123-.029l2.353-1.355c.062 0 .062-.102 0-.143l-1.78-1.018zm-3.735-10.988c.038.02.08.031.123.031s.085-.011.123-.031l1.535-.876c.061 0 .061-.102 0-.143l-1.77-1.018c-.038-.021-.08-.031-.123-.031s-.085.01-.123.031l-1.535.876c-.061 0-.061.102 0 .142l1.77 1.019zm-2.24 1.283a.3.3 0 0 0 .122.026c.043 0 .085-.009.123-.026l1.535-.886c.061 0 .061-.102 0-.133l-1.77-1.018c-.038-.02-.08-.03-.123-.03s-.085.01-.123.03l-1.535.886c-.061 0-.061.092 0 .132l1.771 1.019zm47.476-14.146c-.038-.02-.08-.031-.123-.031s-.085.011-.123.031l-3.775 2.17c-.062 0-.062.091 0 .132l1.78 1.018c.036.02.077.03.118.03a.24.24 0 0 0 .117-.03l3.776-2.169c.072 0 .061-.102 0-.142l-1.77-1.009zm-4.952 2.852c-.038-.02-.08-.03-.123-.03s-.085.01-.123.03l-1.535.886c-.061 0-.061.092 0 .132l1.781 1.019c.036.019.076.03.117.03s.082-.011.118-.03l1.535-.886c.071 0 .061-.092 0-.133l-1.77-1.018zm-30.348 16.701l1.534-.875c.072 0 .062-.102 0-.143l-1.77-1.018c-.038-.02-.08-.03-.123-.03s-.084.01-.122.03l-1.525.876c-.072 0-.061.101 0 .142l1.78 1.018c.037.02.077.03.118.03s.082-.01.118-.03h-.01zm25.876-14.125c-.038-.019-.08-.029-.122-.029s-.085.01-.123.029l-1.525.876c-.071 0-.061.102 0 .143l1.781 1.018c.038.018.08.027.122.027s.085-.009.123-.027l1.525-.886c.071 0 .061-.102 0-.142l-1.781-1.009zm11.675-6.7a.29.29 0 0 0-.123-.027c-.042 0-.084.009-.123.027l-1.534.886c-.062 0-.062.101 0 .142l1.77 1.018a.25.25 0 0 0 .245 0l1.535-.875c.061 0 .061-.102 0-.143l-1.77-1.028zm4.011-.275l-4.298-2.475c-.038-.018-.08-.027-.122-.027s-.085.009-.123.027l-1.535.876c-.072 0-.061.102 0 .142l4.298 2.475a.3.3 0 0 0 .122.026c.043 0 .085-.009.123-.026l1.535-.886c.072-.041.072-.102 0-.143v.011zm-24.055 11.782a.31.31 0 0 0-.123-.026c-.043 0-.085.009-.123.026l-1.883 1.09c-.061 0-.061.102 0 .143l1.77 1.018c.038.02.08.03.123.03s.085-.01.123-.03l1.883-1.08c.071 0 .061-.101 0-.142l-1.77-1.029zm5.658-3.259c-.038-.019-.08-.029-.123-.029s-.085.01-.123.029l-2.353 1.355c-.062 0-.062.102 0 .142l1.77 1.019c.038.019.08.03.123.03s.085-.011.123-.03l2.353-1.355c.072 0 .061-.101 0-.142l-1.77-1.019zm-10.846 6.233a.31.31 0 0 0-.123-.027.31.31 0 0 0-.123.027l-12.616 7.251c-.061 0-.061.102 0 .142l1.77 1.019c.038.02.08.031.123.031s.085-.011.123-.031l12.616-7.251c.072 0 .061-.102 0-.143l-1.77-1.018zm-13.302 7.658a.26.26 0 0 0-.122-.031.26.26 0 0 0-.123.031l-1.934 1.08c-.072 0-.061.102 0 .142l1.77 1.019c.038.02.08.031.123.031s.085-.011.123-.031l1.882-1.08c.062 0 .062-.102 0-.142l-1.719-1.019zm15.921-9.165a.25.25 0 0 0-.245 0l-1.893 1.079c-.062 0-.062.102 0 .143L374.9 346c.038.021.08.031.123.031s.085-.01.123-.031l1.892-1.079c.062 0 .062-.102 0-.143l-1.77-1.018zm-18.509 10.642c-.038-.02-.08-.03-.123-.03s-.085.01-.123.03l-1.893 1.09c-.061 0-.061.091 0 .132l1.77 1.018c.038.02.08.03.123.03s.085-.01.123-.03l1.893-1.089c.061 0 .061-.092 0-.133l-1.77-1.018zm23.697-13.626c-.038-.021-.08-.031-.123-.031s-.085.01-.123.031l-1.893 1.079c-.061 0-.061.102 0 .143l1.771 1.018c.038.018.08.027.122.027s.085-.009.123-.027l1.893-1.089c.061 0 .061-.102 0-.143l-1.77-1.008zm8.012-4.603c-.038-.021-.08-.031-.123-.031s-.085.01-.123.031l-1.525.876c-.071 0-.061.101 0 .142l1.781 1.019a.25.25 0 0 0 .117.029c.042 0 .082-.01.118-.029l1.535-.876c.072 0 .061-.102 0-.143l-1.78-1.018zm4.911-3.544l1.535-.886c.061 0 .061-.102 0-.143l-1.77-1.018c-.038-.021-.08-.031-.123-.031s-.085.01-.123.031l-1.535.876c-.061 0-.061.101 0 .142l1.77 1.019c.034.019.071.032.11.037s.078.003.115-.007l.021-.02zm-10.017-.072l1.535-.875c.061 0 .061-.102 0-.143l-1.771-1.018c-.037-.021-.079-.032-.122-.032s-.085.011-.123.032l-1.535.876c-.061 0-.061.101 0 .142l1.77 1.018c.034.021.071.033.11.037s.079-.002.115-.016l.021-.021zm-5.116 8.738l4.481-2.576c.062 0 .062-.092 0-.133l-1.77-1.018c-.038-.02-.08-.03-.123-.03s-.084.01-.122.03l-4.482 2.576c-.061 0-.061.102 0 .143l1.77 1.018c.039.026.085.041.132.043a.27.27 0 0 0 .134-.032l-.02-.021zm12.606-7.383a.3.3 0 0 0 .122.026c.043 0 .085-.009.123-.026l1.535-.876c.061 0 .061-.102 0-.142l-1.77-1.019a.31.31 0 0 0-.123-.026.31.31 0 0 0-.123.026l-1.535.886c-.061 0-.061.102 0 .143l1.771 1.008zm-2.282-1.456l1.524-.876c.072 0 .062-.102 0-.143l-1.77-1.018c-.038-.018-.08-.027-.123-.027s-.084.009-.122.027l-1.525.886c-.071 0-.061.102 0 .142l1.781 1.019c.038.024.081.037.126.039a.25.25 0 0 0 .129-.029l-.02-.02zm-12.545 10.122l1.535-.886c.062 0 .062-.101 0-.142l-1.77-1.019c-.038-.02-.08-.031-.123-.031s-.085.011-.122.031l-1.535.876c-.062 0-.062.102 0 .143l1.77 1.018c.038.019.079.03.122.032a.29.29 0 0 0 .123-.022zm9.895-5.835a.25.25 0 0 0 .123.031c.042 0 .085-.01.122-.031l1.535-.876c.062 0 .062-.102 0-.142l-1.77-1.019c-.038-.02-.08-.031-.123-.031s-.085.011-.123.031l-1.534.876c-.062 0-.062.102 0 .143l1.77 1.018zm-21.099 12.272l1.535-.886c.072 0 .062-.102 0-.143l-1.77-1.018c-.038-.02-.08-.03-.123-.03a.26.26 0 0 0-.122.03l-1.535.875c-.062 0-.062.102 0 .143l1.77 1.018c.035.025.076.041.118.048s.086.004.127-.007v-.03zm2.241-1.294l1.535-.876c.061 0 .061-.101 0-.142l-1.77-1.019a.31.31 0 0 0-.123-.026.31.31 0 0 0-.123.026l-1.534.887c-.062 0-.062.101 0 .142l1.77 1.018c.036.024.077.038.12.042s.086-.004.125-.021v-.031zm-4.481 2.577l1.534-.886c.072 0 .062-.092 0-.133l-1.77-1.018a.3.3 0 0 0-.122-.026c-.043 0-.085.009-.123.026l-1.535.886c-.061 0-.061.102 0 .132l1.78 1.019c.035.022.074.036.114.042a.28.28 0 0 0 .122-.012v-.03zm8.963-5.153l1.535-.876c.061 0 .061-.102 0-.143l-1.77-1.018c-.038-.021-.08-.031-.123-.031s-.085.01-.123.031l-1.535.876c-.061 0-.061.102 0 .142l1.77 1.019c.035.025.076.041.119.047s.087-.001.127-.017v-.03zm-2.241 1.293l1.535-.886c.061 0 .061-.102 0-.142l-1.77-1.019a.31.31 0 0 0-.123-.026.31.31 0 0 0-.123.026l-1.535.876c-.061 0-.061.102 0 .143l1.77 1.018a.3.3 0 0 0 .119.047c.042.007.086.005.127-.006v-.031zm4.482-2.576l1.534-.886c.062 0 .062-.092 0-.133l-1.77-1.018c-.038-.02-.08-.03-.122-.03s-.085.01-.123.03l-1.535.886c-.061 0-.061.102 0 .132l1.77 1.019c.035.024.076.04.119.045s.086 0 .127-.015v-.03zm10.232-19.044a.3.3 0 0 0 .122.026c.043 0 .085-.009.123-.026l1.525-.886c.071 0 .061-.102 0-.143l-.481-.265c-.036-.019-.077-.029-.118-.029a.25.25 0 0 0-.117.029l-1.535.886c-.072 0-.062.092 0 .133l.481.275zm-11.02 7.128a.24.24 0 0 0 .117.03.24.24 0 0 0 .118-.03l1.535-.886c.072 0 .061-.101 0-.132l-1.77-1.018c-.038-.02-.08-.03-.123-.03s-.085.01-.123.03l-1.535.886c-.061 0-.061.091 0 .132l1.781 1.018zm4.471-2.566c.039.018.081.027.123.027s.084-.009.123-.027l1.535-.876c.061 0 .061-.102 0-.142l-1.771-1.019a.3.3 0 0 0-.122-.026c-.043 0-.085.009-.123.026l-1.535.886c-.061 0-.061.102 0 .143l1.77 1.008zm-7.213 4.145c.037.02.079.031.122.031a.26.26 0 0 0 .123-.031l1.535-.876c.061 0 .061-.102 0-.142l-1.77-1.019a.31.31 0 0 0-.123-.026.31.31 0 0 0-.123.026l-1.535.886c-.061 0-.061.102 0 .143l1.771 1.008zm4.972-2.862c.038.021.08.032.123.032s.085-.011.123-.032l1.535-.876c.071 0 .061-.101 0-.142l-1.77-1.018c-.038-.02-.08-.03-.123-.03s-.085.01-.123.03l-1.535.875c-.061 0-.061.102 0 .143l1.77 1.018zm-9.454 5.428c.038.02.08.03.123.03s.085-.01.123-.03l1.534-.876c.062 0 .062-.101 0-.142l-1.77-1.018c-.038-.018-.08-.027-.123-.027s-.084.009-.122.027l-1.535.886c-.062 0-.062.101 0 .132l1.77 1.018zm2.241-1.283c.038.018.08.027.123.027s.084-.009.122-.027l1.535-.886c.062 0 .062-.102 0-.142l-1.77-1.019c-.038-.02-.08-.031-.123-.031s-.085.011-.123.031l-1.534.876c-.062 0-.062.102 0 .143l1.77 1.028zm11.521-7.363c.038.021.08.031.123.031s.085-.01.123-.031l1.534-.876c.062 0 .062-.101 0-.142l-.47-.275c-.038-.021-.08-.031-.123-.031s-.085.01-.123.031l-1.535.876c-.061 0-.061.101 0 .142l.471.275zm6.722-3.859c.038.019.08.029.123.029s.085-.01.123-.029l1.525-.876c.071 0 .061-.102 0-.143l-.481-.275c-.036-.019-.077-.03-.118-.03s-.082.011-.118.03l-1.534.876c-.072 0-.062.102 0 .143l.48.275zm3.725 2.138a.24.24 0 0 0 .118.03.24.24 0 0 0 .117-.03l1.535-.876c.072 0 .061-.102 0-.142l-1.77-1.019a.31.31 0 0 0-.123-.026.31.31 0 0 0-.123.026l-1.535.886c-.061 0-.061.102 0 .143l1.781 1.008zm5.597 5.652l1.535-.876c.061 0 .061-.101 0-.142l-1.771-1.019a.3.3 0 0 0-.122-.026c-.043 0-.085.009-.123.026l-1.535.886c-.061 0-.061.102 0 .143l1.77 1.018c.041.023.088.034.135.032s.092-.016.131-.042h-.02zm-13.803-5.224c.038.019.08.03.123.03s.084-.011.122-.03l1.535-.886c.062 0 .051-.092 0-.133l-.47-.275c-.038-.02-.08-.031-.123-.031s-.085.011-.123.031l-1.535.876c-.071 0-.061.102 0 .143l.471.275zm-18.244 11.202c.038.021.08.031.123.031s.085-.01.123-.031l1.575-.886c.062 0 .062-.102 0-.142l-1.77-1.019a.26.26 0 0 0-.122-.031.26.26 0 0 0-.123.031l-1.535.876c-.061 0-.061.102 0 .143l1.729 1.028z" class="G"/><path d="M373.539 350.725l15.133-8.686a1.8 1.8 0 0 1 .824-.199c.286 0 .569.068.824.199l8.676 4.98c.1.033.187.096.249.181a.5.5 0 0 1 0 .584c-.062.085-.149.149-.249.182l-15.225 8.717c-.256.126-.538.191-.824.191s-.567-.065-.823-.191l-8.585-4.939c-.136 0-.266-.054-.362-.149a.51.51 0 0 1-.15-.36c0-.135.054-.265.15-.36a.51.51 0 0 1 .362-.15z" class="J"/><path d="M256.199 343.892h-33.398a2.94 2.94 0 0 0-2.946 2.933v67.428a2.94 2.94 0 0 0 2.946 2.932h33.398a2.94 2.94 0 0 0 2.946-2.932v-67.428a2.94 2.94 0 0 0-2.946-2.933z" class="G"/><path d="M256.199 348.689h-33.183a1.93 1.93 0 0 0-1.934 1.924v60.421a1.93 1.93 0 0 0 1.934 1.925h33.183a1.93 1.93 0 0 0 1.933-1.925v-60.421a1.93 1.93 0 0 0-1.933-1.924z" class="B"/><path d="M236.973 345.063h5.771c.159-.003.313.056.43.165a.61.61 0 0 1 .194.416.6.6 0 0 1-.054.228.62.62 0 0 1-.137.191c-.058.054-.127.096-.201.123a.61.61 0 0 1-.232.038h-5.771c-.08.003-.159-.01-.233-.038a.59.59 0 0 1-.2-.123c-.058-.054-.105-.119-.138-.191a.58.58 0 0 1-.053-.228c.008-.159.077-.308.194-.416a.61.61 0 0 1 .43-.165zm9.894 0a.58.58 0 0 1 .225.042c.071.028.136.071.191.125a.58.58 0 0 1 .126.19.57.57 0 0 1 .041.224c0 .154-.061.301-.171.41a.58.58 0 0 1-.412.17c-.154-.002-.301-.064-.409-.173a.59.59 0 0 1-.174-.407.58.58 0 0 1 .583-.581zm2.343 1.161a.581.581 0 1 0 0-1.161.581.581 0 1 0 0 1.161zm-18.704 0a.581.581 0 1 0 0-1.161.581.581 0 1 0 0 1.161zm2.343-1.161c.155 0 .303.061.413.17a.58.58 0 0 1 .17.411c-.002.153-.064.299-.173.407a.59.59 0 0 1-.41.173c-.154 0-.303-.061-.412-.17a.58.58 0 0 1-.171-.41.57.57 0 0 1 .042-.224.55.55 0 0 1 .126-.19.56.56 0 0 1 .19-.125.58.58 0 0 1 .225-.042zm-119.09 11.915l-11.368-6.538a2.96 2.96 0 0 1-1.207-.98 2.94 2.94 0 0 1-.542-1.454v-1.568l11.787-6.619a2.5 2.5 0 0 0 .802-.838 2.49 2.49 0 0 0 .334-1.108v-13.941l19.839 11.406v13.941c-.019.391-.131.772-.327 1.112a2.49 2.49 0 0 1-.798.844l-10.027 5.743c-1.315.67-2.77 1.019-4.247 1.019a9.35 9.35 0 0 1-4.246-1.019z" class="J"/><path opacity=".3" d="M128.636 351.744v1.568l3.633-2.088c.33-.214.605-.502.803-.842s.311-.721.332-1.113v-13.931l-3.785-2.169-.246 2.912 2.66 1.517v10.897c-.021.391-.135.771-.333 1.109s-.472.624-.802.836l-2.262 1.304z" class="D"/><path d="M132.064 348.495a2.49 2.49 0 0 1-.334 1.112 2.51 2.51 0 0 1-.802.844l-8.656 4.959c-1.314.663-2.767 1.009-4.241 1.009s-2.927-.346-4.241-1.009l-11.399-6.538c-2.343-1.344-2.343-3.524 0-4.868l8.667-4.97c.328-.213.601-.5.797-.838a2.47 2.47 0 0 0 .328-1.107v-10.896l19.881 11.416v10.886z" class="G"/><path d="M108.745 340.358l2.313-1.324c.328-.213.601-.5.797-.838s.308-.717.328-1.107v-10.896l19.881 11.416v10.886a2.5 2.5 0 0 1-.334 1.113c-.197.339-.472.628-.802.843l-2.292 1.293-19.891-11.386zm-8.103 6.08v1.568a2.97 2.97 0 0 0 .543 1.457c.308.43.724.77 1.206.988l11.368 6.527c1.255.681 2.664 1.032 4.093 1.019v-1.558c-1.429.013-2.838-.338-4.093-1.019l-11.368-6.548a2.96 2.96 0 0 1-1.207-.98 2.94 2.94 0 0 1-.542-1.454z" class="K"/><path d="M81.549 253.979v60.614a3.13 3.13 0 0 0 .416 1.388c.245.425.586.786.996 1.056l77.65 44.534.133.061c.696.306 1.238-.071 1.238-.896v1.192a2.65 2.65 0 0 0 1.331-.296c.391-.269.714-.626.943-1.041s.358-.878.377-1.352v-60.604c-.028-.487-.17-.962-.415-1.384a3.12 3.12 0 0 0-.997-1.05l-77.6-44.534c-.422-.22-.889-.338-1.365-.347s-.947.092-1.377.296a3 3 0 0 0-.891.926c-.226.369-.369.783-.419 1.213a1.95 1.95 0 0 0-.02.224z" class="G"/><path d="M81.549 253.979v60.614c.028.489.171.964.416 1.388s.586.786.996 1.056l77.65 44.534.133.061c.696.306 1.238-.071 1.238-.896v-60.573c-.026-.489-.168-.965-.413-1.39a3.13 3.13 0 0 0-.999-1.055l-77.619-44.534c-.706-.407-1.289-.142-1.392.571a1.94 1.94 0 0 0-.01.224z" class="K"/><path d="M162.023 360.777v-4.124l2.65-1.528v4.124c-.018.474-.147.937-.376 1.352a3.07 3.07 0 0 1-.943 1.042 2.64 2.64 0 0 1-1.331.295 1.68 1.68 0 0 1-.317 0h-.317l-.246-.061h-.081l-.236-.102c.655.204 1.197-.173 1.197-.998z" class="J"/><path d="M81.549 310.479v4.134a3.14 3.14 0 0 0 .416 1.389c.245.424.586.786.996 1.056l77.65 44.534.133.061c.696.305 1.238-.072 1.238-.896v-4.125l-80.433-46.153z" class="G"/><path d="M161.614 298.788a2.83 2.83 0 0 1 .409 1.385v56.5l2.661-1.528v-56.51a2.84 2.84 0 0 0-.41-1.385l-2.66 1.538z" class="J"/><g class="B"><path d="M159.373 349.595v-48.557a1.86 1.86 0 0 0-.247-.834c-.148-.255-.354-.472-.602-.632l-73.476-42.141c-.46-.265-.839-.051-.839.489v48.557a1.86 1.86 0 0 0 .248.834c.148.255.354.472.602.632l73.476 42.131c.461.275.839.051.839-.479z"/><use xlink:href="#F"/></g><use xlink:href="#F" opacity=".5" class="D"/><use xlink:href="#G" class="B"/><use xlink:href="#G" opacity=".3" class="D"/><use xlink:href="#H" class="B"/><use xlink:href="#H" opacity=".7" class="D"/><g class="K"><path d="M109.973 366.775l-2.046 1.192s-.062.061-.062.071l1.852 1.11 2.18-1.293-1.924-1.08zm2.497 1.436l-2.047 1.202c-.006.011-.009.023-.009.035s.003.025.009.036l1.832 1.019 2.179-1.284-1.964-1.008zm-6.712-3.86l-2.047 1.202s-.051 0-.051.071l3.07 1.783 2.179-1.284-3.151-1.772zm-2.497-1.405l-2.046 1.202c-.006.011-.009.023-.009.035s.003.025.009.036l1.841 1.1 2.098-1.354-1.893-1.019zm-32.701-6.589l1.842 1.1 2.179-1.283-1.862-1.09-2.046 1.202c-.012-.003-.025-.004-.037-.002s-.024.007-.035.013-.02.016-.027.026-.012.022-.014.034zm30.204 5.123l-2.046 1.191s-.061.061-.061.082l1.852 1.099 2.179-1.283-1.924-1.089zm8.268 8.004l-1.883-1.09-2.046 1.202v.071l1.852 1.1 2.077-1.283zm-16.975-4.012l1.852 1.1 2.169-1.284-1.873-1.089-2.046 1.201s-.102.041-.102.072zm15.45 5.621l1.842 1.1 2.179-1.283-1.892-1.09-2.047 1.202c-.02 0-.039.007-.054.02s-.025.031-.028.051zm-17.947-7.057l1.842 1.1 2.179-1.284-1.893-1.089-2.046 1.191s-.082.061-.082.082zm-2.517-1.436l1.842 1.1 2.179-1.283-1.893-1.09-2.046 1.202c-.02-.001-.04.007-.055.02s-.025.031-.027.051zm10.018 5.744l3.95 2.311 5.003-2.912-2.158-1.233-2.64 1.528c-.061.017-.124.017-.185 0a.3.3 0 0 1-.173 0l-1.668-.957-2.046 1.191s-.082.051-.082.072zm-1.3-9.736l-2.046 1.201v.072l1.842 1.1 2.179-1.284-1.975-1.089zm-1.197 8.3l1.842 1.1 2.179-1.284-1.893-1.089-2.046 1.191c-.082.031-.082.061-.082.082zm-22.869-16.366l1.842 1.1 2.251-1.283-1.893-1.09-2.046 1.192c-.014-.013-.032-.021-.051-.024s-.038.001-.055.01-.03.023-.039.04a.09.09 0 0 0-.009.055zm4.093-3.422l-2.046 1.202c-.005.011-.008.023-.008.036s.003.024.008.035l1.832 1.019 2.179-1.283-1.965-1.009zm-6.221 5.418v.051l1.832 1.018 2.179-1.293-1.883-1.039-2.046 1.202c-.019 0-.037.005-.052.016s-.026.027-.03.045zm-4.011.947l1.852 1.1 2.169-1.283-1.893-1.09-2.046 1.192c-.02.005-.038.015-.052.029s-.025.033-.029.052zm12.708-4.929l-2.046 1.202v.071l1.852 1.1 2.169-1.283-1.975-1.09zm-10.211 6.365l1.852 1.1 2.169-1.283-1.883-1.09-2.046 1.202a.1.1 0 0 0-.057.021c-.016.013-.029.03-.035.05zm17.711-2.057l-2.046 1.202v.071l1.842 1.1 2.179-1.283-1.975-1.09zm2.507 1.436l-2.046 1.192a.09.09 0 0 0-.009.04c0 .014.003.028.009.041l1.842 1.1 2.179-1.283-1.975-1.09zm2.497 1.436l-2.046 1.191s-.061.062-.061.082l1.852 1.1 2.169-1.283-1.913-1.09zm-7.5-4.308l-2.046 1.192a.08.08 0 0 0-.011.04c0 .014.004.029.011.041l1.729 1.08 2.179-1.284-1.862-1.069zm9.996 5.744l-2.046 1.202c-.005.011-.007.023-.007.035s.002.025.007.036l1.842 1.1 2.179-1.284-1.975-1.089zm-12.493-7.18l-2.046 1.202v.071l1.852 1.1 2.169-1.283-1.975-1.09zm17.528 10.052l-2.046 1.201c-.009.023-.009.049 0 .072l1.852 1.1 2.169-1.284-1.974-1.089zm.562 3.595l-2.046 1.191c-.016.005-.03.015-.04.027a.1.1 0 0 0-.021.044v.082l1.842 1.018 2.169-1.283-1.903-1.079zm19.134 7.75l-2.046 1.191c-.051 0-.051.061-.051.071l1.841 1.1 2.18-1.283-1.924-1.079zm2.497 1.435l-2.047 1.192c-.008.023-.008.048 0 .071l1.842 1.1 2.179-1.283-1.974-1.08zm-24.138-10.621l-2.046 1.191c-.008.023-.008.048 0 .071l1.852 1.1 2.169-1.283-1.975-1.079zm26.645 12.057l-2.047 1.192c-.051 0-.061.061-.061.071l1.852 1.1 2.169-1.283-1.913-1.08z"/><path d="M99.23 366.337v.051l1.831 1.019 2.18-1.284-1.873-1.048-2.046 1.191s-.092.061-.092.071zm15.941 6.671l-2.046 1.191c-.062 0-.062.061-.062.082l1.842 1.1 2.179-1.284-1.913-1.089zm5.004 2.872l-2.047 1.191s-.061.061-.061.082l1.821 1.069 2.169-1.283-1.882-1.059zm-4.636-.163l1.842 1.1 2.18-1.284-1.893-1.089-2.047 1.201s-.082.041-.082.072zm2.2 4.42c-.006.023-.006.048 0 .071v.051l1.842 1.018 5.004-2.902-1.893-1.09-4.953 2.852zm-23.881-19.37l-2.046 1.191c-.005.012-.007.024-.007.036s.003.024.007.036l1.832 1.018 2.179-1.283-1.965-.998zm18.857 16.569l1.832 1.018 2.169-1.15-1.893-1.09-2.046 1.202c-.011-.001-.022 0-.033.003s-.02.01-.029.017zm2.497 1.436l1.852 1.1 2.169-1.284-1.893-1.089-2.046 1.191c-.072.031-.082.061-.082.082zm-33.847-25.195l-2.046 1.191s-.061.062-.061.082l1.852 1.1 2.179-1.283-1.924-1.09zm-5.004-2.852l-2.046 1.192c-.051 0-.061.061-.061.081l1.832 1.019 2.179-1.283-1.903-1.009zm-1.801 4.695l1.852 1.1 2.169-1.283-1.883-1.09-2.046 1.202c-.011-.001-.022-.001-.032.002s-.02.008-.029.014-.016.015-.021.025a.08.08 0 0 0-.01.03zm-2.496-1.446l1.852 1.11 2.169-1.303-1.883-1.019-2.046 1.202c-.014-.01-.031-.014-.048-.012s-.032.01-.044.022zm5.003 2.862l1.832 1.018 2.179-1.283-1.893-1.09-2.046 1.192-.072.163zm14.294 2.485l-2.046 1.201v.072.051l1.842 1.018 2.179-1.283-1.975-1.059zm-9.301.407l1.852 1.1 2.169-1.283-1.883-1.09-2.046 1.192s-.092.061-.092.081zm-2.496-1.436l1.842 1.1 2.179-1.283-1.893-1.09-2.046 1.202s-.082.041-.082.071zm6.794-1.843l-2.046 1.201s-.061.051-.061.072l1.852 1.1 2.169-1.284-1.913-1.089zm-7.5-4.308l-2.046 1.192s-.061.061-.061.081l1.852 1.1 2.169-1.283-1.913-1.09zm10.007 5.713l-2.046 1.202c-.016.005-.03.015-.041.027a.09.09 0 0 0-.021.044l1.852 1.1 2.169-1.283-1.913-1.09zm-5.004-2.841l-2.046 1.191c-.006.013-.009.027-.009.041s.003.028.009.041l1.831 1.018 2.179-1.283-1.965-1.008zm.696 6.151l1.852 1.1 2.179-1.283-1.893-1.09-2.046 1.191c-.022.002-.043.011-.06.026s-.028.034-.032.056zm30.409 8.483l-2.046 1.202s-.051 0-.051.071l1.842 1.1 2.179-1.283-1.924-1.09zm-39.802-22.873l-1.893-1.09-2.046 1.202c-.005.011-.008.023-.008.036a.08.08 0 0 0 .008.035l1.842 1.019 2.098-1.202zm-1.903 2.149l-2.814-1.619-2.046 1.201v.072l2.763 1.588 2.097-1.242zm5.72-3.9l-2.282-1.314-2.046 1.202c-.006.01-.01.023-.01.035s.003.025.01.036l2.241 1.324 2.087-1.283zm-11.9 6.843l-2.282-1.314-2.046 1.192s-.061.061-.061.081l2.241 1.324 2.149-1.283zm4.011-.947l-3.489-1.986-2.046 1.192a.1.1 0 0 0 0 .071l3.417 1.965 2.118-1.242zm7.459-3.646l1.842 1.1 2.179-1.283-1.893-1.09-2.046 1.192a.08.08 0 0 0-.082.081zm-16.586 4.909l-2.046 1.191s-.061 0-.061.072l2.773 1.629 2.149-1.293-2.814-1.599zm19.082-3.493l1.842 1.1 2.179-1.284-1.893-1.089-2.046 1.201c-.019.003-.037.012-.051.024s-.025.029-.031.048zm11.112 6.385v.051l1.842 1.018 2.169-1.283-1.903-1.079-2.046 1.191c-.02.009-.036.023-.047.041a.1.1 0 0 0-.014.061zm2.477 1.436l1.842 1.1 2.179-1.283-1.893-1.08-2.046 1.192s-.082.061-.082.071zm-5.004-2.872v.051l1.842 1.018 2.169-1.283-1.893-1.079-2.046 1.191c-.023.005-.043.018-.056.037s-.019.042-.016.065zm-3.612-2.057l1.842 1.018 2.179-1.283-1.893-1.089-2.046 1.201c-.02-.011-.044-.013-.066-.006s-.041.022-.051.042-.013.044-.006.066.022.04.042.051zm-2.476-1.436l1.852 1.1 2.169-1.283-1.883-1.09-2.046 1.202s-.092.04-.092.071zm28.148 30.603l-2.046 1.201c-.005.012-.007.024-.007.036s.002.024.007.036l1.831 1.018 2.18-1.283-1.965-1.008zm-13.015-7.486l-2.046 1.192s-.061.061-.061.081l1.842 1.1 2.18-1.283-1.914-1.09zm8.022 4.614l-2.046 1.191c-.016.008-.03.019-.041.034s-.018.03-.021.048l4.339 2.495 2.179-1.283-4.41-2.485zm-5.525-3.178l-2.047 1.192s-.061.061-.061.081l1.852 1.1 2.169-1.283-1.913-1.09zm2.496 1.487l-2.046 1.192c-.061 0-.061.061-.061.081l1.841 1.1 2.159-1.354-1.893-1.019zm-6.538-18.239v.051l1.832 1.018 2.179-1.283-1.893-1.08-2.046 1.192c-.023.005-.043.018-.056.037s-.019.042-.016.065zm21.774 23.708l-1.883-1.09-4.922 2.821c-.006.024-.006.048 0 .071l1.842 1.019 4.963-2.821zm-50.618-25.837l-2.046 1.192s-.061.061-.061.071l2.241 1.334 2.179-1.283-2.312-1.314zm2.886 1.65l-2.046 1.192s-.061.061-.061.081l14.202 8.147 2.179-1.293-14.274-8.127zm1.882.326l1.842 1.1 2.179-1.283-1.893-1.09-2.046 1.202a.1.1 0 0 0-.082.071zm-7.663-3.646l-2.046 1.192s-.061.051-.061.071l2.241 1.324 2.179-1.283-2.312-1.304zm20.627 11.854l-2.046 1.192c-.006.013-.009.027-.009.041s.003.027.009.04l2.231 1.283 2.179-1.283-2.364-1.273zm5.812 3.33l-2.046 1.202c-.005.011-.008.023-.008.036s.003.024.008.035l2.241 1.284 2.169-1.284-2.364-1.273zm-2.896-1.66l-2.046 1.202c-.005.011-.008.023-.008.036s.003.024.008.035l2.241 1.324 2.169-1.283-2.364-1.314zm5.792 3.331l-2.046 1.191s-.061.061-.061.071v.051l2.763 1.579 2.179-1.283-2.834-1.609zm15.286 1.537l1.832 1.019 2.179-1.283-1.893-1.09-2.046 1.202s-.072.122-.072.152zm-8.155 1.813l1.842 1.018 2.179-1.283-1.882-.957-2.047 1.192c-.016-.003-.033-.002-.05.003s-.03.015-.042.027zm-8.809-5.072l5.116 2.995 2.18-1.284-5.116-2.953-2.046 1.202a.07.07 0 0 0-.013-.024c-.006-.007-.013-.013-.021-.017s-.017-.007-.026-.008-.018 0-.027.003a.07.07 0 0 0-.024.013c-.007.006-.013.013-.017.021a.07.07 0 0 0-.008.026c-.001.009 0 .018.003.026zm14.335 8.239v.051l1.841 1.019 2.18-1.294-1.852-1.039-2.047 1.202c-.01-.011-.024-.019-.039-.021a.07.07 0 0 0-.045.006c-.014.007-.025.018-.032.032s-.009.029-.006.044zm2.506 1.436l1.832 1.019 2.179-1.294-1.893-1.079-2.046 1.191-.072.163zm-19.338-11.11l1.842 1.099 2.179-1.283-1.893-1.079-2.046 1.191c-.019.003-.037.012-.051.024s-.025.029-.031.048zm19.666 8.055l1.842 1.018 2.169-1.283-1.883-1.089-2.046 1.191c-.082.112-.082.143-.082.163zm-32.17-15.235l1.832 1.1 2.169-1.283-1.883-1.08-2.046 1.192c-.017.004-.033.013-.045.026s-.022.028-.026.045zm10.018 5.744l1.852 1.099 2.179-1.283-1.893-1.079-2.046 1.202s-.092.03-.092.061zm-12.514-7.18l1.842 1.018 2.169-1.283-1.883-1.079-2.046 1.191c-.017.001-.034.007-.049.016a.11.11 0 0 0-.035.038.1.1 0 0 0-.012.05c0 .017.005.034.014.049zm5.003 2.872l1.842 1.1 2.179-1.273-1.893-1.08-2.046 1.202a.07.07 0 0 0-.051.01c-.015.009-.026.024-.031.041zm2.497 1.436v.051l1.842 1.018 2.149-1.253-1.893-1.079-2.046 1.191c-.014.007-.026.017-.035.03s-.015.027-.016.042zm2.497 1.446l1.842 1.018 2.169-1.283-1.883-1.079-2.046 1.191c-.017.001-.034.007-.049.016s-.027.023-.035.038-.012.032-.012.05.005.034.014.049zm17.67-3.534l1.842 1.1 2.179-1.283-1.893-1.09-2.046 1.192c-.022 0-.043.008-.058.023s-.024.036-.024.058zm9.168 18.952l1.832 1.019 2.189-1.161-1.893-1.09-2.046 1.202s-.082 0-.082.03zm-4.175-16.08l1.852 1.1 2.169-1.283-1.882-1.09-2.047 1.191s-.092.062-.092.082zm5.556 3.188l1.842 1.099 2.179-1.283-1.892-1.089-2.047 1.201c-.02 0-.039.007-.054.02s-.025.032-.028.052zm-2.496-1.436l1.841 1.099 2.18-1.283-1.893-1.089-2.046 1.201c-.011-.001-.021 0-.031.002s-.019.008-.027.015-.014.015-.018.025-.006.019-.006.03zm-10.56-6.06l1.852 1.1 2.18-1.283-1.893-1.09-2.047 1.192s-.092.061-.092.081zm5.004 2.872l1.831 1.018 2.18-1.283-1.893-1.089-2.047 1.191s-.071.143-.071.163zm10.549 6.059l1.852 1.1 2.169-1.283-1.893-1.09-2.046 1.202c-.072.021-.082.051-.082.071zm11.245 5.632l1.852 1.1 1.136-.703-1.893-1.079-1.024.611s-.071.041-.071.071zm-4.154 2.383l1.852 1.1 2.179-1.283-1.893-1.08-2.046 1.192c-.082.03-.092.061-.092.071zm-3.336-6.691l1.832 1.019 1.135-.703-1.893-1.079-1.023.6c-.011-.003-.022-.004-.033-.003a.09.09 0 0 0-.032.009c-.01.005-.019.013-.026.021s-.013.019-.016.029-.005.022-.004.034.004.022.01.031.012.019.021.026.018.013.029.016zm2.497 1.436l1.831 1.019 1.136-.703-1.883-1.08-1.023.611c-.016.004-.03.012-.042.023s-.022.023-.028.038-.008.031-.007.047.007.032.016.045zm2.496 1.426l1.852 1.1 1.136-.703-1.893-1.079-1.023.611-.072.071z"/></g><g class="E"><path d="M248.89 383.3l-2.77-4.747h-5.541l2.771 4.747-2.771 4.748h5.541l2.77-4.748z" class="B"/><path d="M248.89 383.3l-2.77-4.747h-5.541l2.771 4.747-2.771 4.748h5.541l2.77-4.748z" class="C"/><path d="M230.291 383.3l2.771 4.748h5.54l2.77-4.748h-5.54l-2.77-4.747-2.771 4.747z" class="B"/><path d="M230.291 383.3l2.771 4.748h5.54l2.77-4.748h-5.54l-2.77-4.747-2.771 4.747z" class="C"/><path d="M236.82 372.112l-2.771 4.747 2.771 4.748 2.77-4.748h5.54l-2.77-4.747h-5.54z" class="B"/><path d="M236.82 372.112l-2.771 4.747 2.771 4.748 2.77-4.748h5.54l-2.77-4.747h-5.54z" class="C"/><use xlink:href="#I" class="B"/><use xlink:href="#I" class="C"/><use xlink:href="#J" class="B"/><use xlink:href="#J" class="C"/><use xlink:href="#K" class="B"/><use xlink:href="#K" class="C"/></g><path d="M414.246 224.132c.136-.35.221-.705.221-.98v-9.542c0-.275-.085-.533-.221-.726l-8.476 10.495 8.476.753z" class="C"/><path d="M406.523 233.988l7.191-8.904c.207-.256.395-.602.532-.952l-8.476-.753-8.476 10.494c.136.194.325.323.532.341l7.191.639c.414.037 1.092-.352 1.506-.865z" class="C"/><path d="M414.246 212.884c-.137-.193-.325-.322-.532-.341l-7.191-.639c-.414-.037-1.092.353-1.506.866l-7.191 8.903c-.414.513-.753 1.382-.753 1.932v9.543c0 .275.084.532.221.725l8.476-10.494 8.476-10.495z" class="C"/><g class="B"><path d="M405.77 230.053c-3.197 1.831-5.798.327-5.798-3.352s2.601-8.164 5.798-9.995c2.063-1.182 3.987-1.006 5.021.459l-2.509 3.108c-.518-.733-1.48-.821-2.512-.23-1.599.915-2.899 3.157-2.899 4.997s1.3 2.592 2.899 1.676c1.032-.591 1.994-1.782 2.512-3.108l2.509.234c-1.034 2.649-2.958 5.029-5.021 6.211zm5.798-10.374l-.644.369v-.741l-.645.369v.741l-.644.37v.741l.644-.369v.742l.645-.37v-.741l.644-.37v-.741zm2.416-1.388l-.644.369v-.742l-.645.37v.741l-.644.37v.741l.644-.369v.741l.645-.369v-.742l.644-.369v-.741z"/><use xlink:href="#L" class="E"/></g><use xlink:href="#L" class="C E"/><use xlink:href="#M" class="B E"/><use xlink:href="#M" class="C E"/><use xlink:href="#N" class="B E"/><use xlink:href="#N" class="C E"/><g class="B E"><use xlink:href="#O"/><use xlink:href="#O"/><path d="M331.624 221.14l8.03-4.605s-1.535-7.181 3.547-13.36c1.108-1.255 4.635-5.595 10.408-3.992.183-.28.356-.52.356-.52s-5.286-3.041-11.171 1.013c-2.967 2.006-6.606 7.194-8.741 12.513s-2.429 8.951-2.429 8.951zm16.73-23.997l.041-.808c-.092-.006-.346 0-.986.156l-.041.796c.336-.064.661-.11.986-.144z"/><path d="M347.388 200.183l-.04.76a6.25 6.25 0 0 1 1.006-.436l.041-.749c-.346.116-.681.262-1.007.425zm-3.76-1.493l.101-.058-.203-.597c-.315.18-.64.39-.976.629l.194.58.884-.554zm.488 4.025l.233.673.885-.917-.224-.644-.894.888zm-4.615-.431l-.457-.545-.793.958.468.551.782-.964zm2.084 4.069l.488.563a13.72 13.72 0 0 1 .599-1.175l-.457-.533-.63 1.145zm-1.474 4.612l.823.276a13.69 13.69 0 0 1 .214-1.491l-.732-.247-.305 1.462zm-4.452-3.004l-.721-.311-.752 1.308.782.323.691-1.32zm-3.069 6.989l-1.169.179-.508 1.695 1.169-.179.508-1.695zm7.369-.927a11.64 11.64 0 0 0 .122 1.404l1.219-.196-.244-1.381-1.097.173z"/></g><path d="M84.591 212.858l-15.327-8.82v17.639l15.327 8.82v-17.639z" class="C"/><path d="M79.56 223.743c.309.758.71 1.416 1.421 1.824.597.344.978.22.978-.254 0-.569-.392-.995-1.048-1.704l-.36-.385c-1.039-1.108-1.73-2.143-1.73-3.493 0-1.243.823-1.716 2.109-.976.916.527 1.574 1.273 2.049 2.506l-1.122.184c-.247-.652-.513-1.006-.927-1.244-.422-.243-.689-.089-.689.314 0 .497.268.852.886 1.516l.36.384c1.224 1.309 1.915 2.322 1.915 3.706 0 1.492-1.019 1.724-2.386.937-1.338-.77-2.202-2.001-2.625-3.206l1.171-.109zm-5.088-2.784c.226.592.432 1.101.927 1.386.473.273.772.231.772-.597v-5.636l1.44.828v5.659c0 1.716-.874 1.994-2.151 1.26-1.153-.664-1.821-1.735-2.161-2.757l1.172-.143z" class="B"/><path d="M56.127 96.031c0 4.226 5.637 10.885 12.59 14.872s12.59 3.795 12.59-.432-5.637-10.885-12.59-14.872-12.59-3.794-12.59.432z" fill="url(#A)"/><path d="M68.717 110.335c6.681 3.832 12.098 3.768 12.098-.144S75.398 100 68.717 96.168s-12.098-3.768-12.098.144 5.417 10.19 12.098 14.023z" class="C"/><path d="M62.967 100.82c.549.315.959.433 1.219.351s.434-.375.527-.874c.087-.465.054-.844-.098-1.126-.155-.287-.49-.58-.997-.87l-.878-.503-.487 2.612.714.409zm-2.872 1.917c-.041-.023-.08-.066-.105-.117s-.036-.105-.029-.147l1.29-6.924c.012-.067.069-.088.134-.051l2.78 1.592c.874.5 1.524 1.147 1.933 1.921s.538 1.611.377 2.472c-.065.351-.178.648-.334.881a1.55 1.55 0 0 1-.615.538c-.301.153-.642.194-1.013.121-.364-.072-.832-.27-1.391-.59l-1.126-.645-.322 1.725c-.012.067-.069.089-.134.051l-1.446-.828z" class="B"/><path d="M62.853 98.021l.765.438c.611.35.824.626.896.76.12.222.142.558.065.971-.086.464-.247.735-.476.808-.235.074-.617-.039-1.136-.336l-.548-.313.434-2.328zm1.313-1.088l-2.78-1.592c-.131-.075-.243-.032-.268.102l-1.29 6.924c-.016.084.005.191.057.294s.129.188.211.235l1.446.828c.131.075.243.032.268-.102l.3-1.61 1.013.58c.573.328 1.055.532 1.433.607.389.077.747.034 1.063-.126a1.62 1.62 0 0 0 .641-.562c.163-.244.281-.553.349-.919.169-.908.032-1.791-.409-2.624-.436-.826-1.121-1.51-2.036-2.034zm-2.078 3.541l.879.504c.583.334 1.017.455 1.302.365s.478-.403.578-.939c.096-.515.052-.941-.131-1.28s-.549-.666-1.098-.98l-.99-.567-.54 2.898zm2.078-3.226c.836.479 1.447 1.082 1.83 1.808a3.47 3.47 0 0 1 .346 2.321c-.063.338-.169.619-.32.843a1.48 1.48 0 0 1-.588.514 1.45 1.45 0 0 1-.962.115c-.353-.069-.802-.26-1.349-.573l-1.238-.709-.343 1.84-1.446-.827 1.29-6.924 2.78 1.592z" class="C"/><path d="M69.791 106.272c-.041-.023-.079-.066-.105-.117s-.037-.105-.029-.147l.571-3.063c.054-.292.041-.531-.038-.673-.048-.088-.192-.271-.62-.515l-1.034-.592-.717 3.851c-.013.067-.069.088-.134.051l-1.434-.821c-.041-.024-.079-.067-.105-.118s-.037-.105-.029-.147l1.29-6.923c.012-.067.069-.088.134-.051l1.434.821c.041.023.08.067.106.118s.036.105.029.147l-.311 1.671 1.112.637c.847.485 1.422.986 1.756 1.532.341.557.447 1.197.316 1.901l-.6 3.222c-.013.067-.069.088-.134.051l-1.457-.835z" class="B"/><path d="M68.975 97.671l-1.434-.821c-.131-.075-.243-.032-.268.102l-1.29 6.922c-.016.084.005.191.057.294s.129.189.211.235l1.434.821c.131.075.243.033.268-.101l.696-3.736.921.528c.426.244.516.4.519.407.026.047.06.215.004.516l-.571 3.063c-.015.084.006.191.057.294s.129.188.211.235l1.457.834c.131.075.243.032.268-.101l.6-3.222c.141-.756.02-1.453-.358-2.071-.361-.589-.966-1.122-1.849-1.627l-.947-.542.28-1.501c.015-.084-.006-.191-.057-.294a.57.57 0 0 0-.211-.235zm0 .315l-.343 1.84 1.278.731c.804.461 1.359.94 1.664 1.438s.397 1.076.275 1.731l-.6 3.222-1.457-.834.571-3.063c.065-.349.041-.625-.072-.83s-.353-.413-.72-.623l-1.146-.656-.739 3.966-1.434-.821 1.29-6.923 1.434.821z" class="C"/><path d="M74.252 107.314c.549.314.959.432 1.219.35s.434-.375.527-.873c.087-.466.054-.845-.098-1.126-.155-.287-.49-.58-.997-.87l-.878-.503-.487 2.613.714.409zm-2.872 1.917c-.041-.023-.079-.067-.105-.118s-.037-.105-.029-.147l1.29-6.923c.013-.067.069-.088.134-.051l2.78 1.592c.874.5 1.524 1.147 1.933 1.921s.538 1.61.377 2.472c-.066.351-.178.648-.334.882a1.55 1.55 0 0 1-.615.537c-.301.153-.642.194-1.013.121-.364-.072-.832-.27-1.391-.59l-1.126-.645-.321 1.726c-.013.067-.069.088-.134.051l-1.446-.828z" class="B"/><g class="C"><path d="M74.137 104.514l.765.439c.611.35.823.626.895.76.12.221.142.557.065.971-.086.463-.247.735-.476.807-.235.075-.617-.038-1.136-.335l-.548-.314.434-2.328zm1.313-1.088l-2.78-1.592c-.131-.075-.243-.032-.268.102l-1.29 6.923c-.016.084.006.192.057.294a.57.57 0 0 0 .211.236l1.446.827c.131.075.243.033.268-.101l.3-1.61 1.013.58c.573.328 1.055.532 1.433.606.389.077.747.035 1.064-.126a1.62 1.62 0 0 0 .641-.561c.164-.244.281-.554.349-.92.169-.907.032-1.79-.408-2.624-.436-.826-1.121-1.51-2.036-2.034zm-2.078 3.542l.879.503c.583.334 1.017.456 1.302.366s.478-.404.578-.939c.096-.515.052-.942-.131-1.281s-.549-.665-1.098-.98l-.991-.567-.54 2.898zm2.078-3.226c.836.479 1.447 1.081 1.83 1.808a3.47 3.47 0 0 1 .346 2.32c-.063.338-.169.619-.319.844s-.346.395-.588.513c-.289.147-.609.186-.962.116s-.802-.261-1.349-.574l-1.238-.709-.343 1.841-1.446-.828 1.29-6.923 2.78 1.592zm216.884 167.052c-.801.464-1.565.983-2.238 1.507-1.981 1.543-2.341 2.593-2.341 4.148v2.054l4.683-2.694v.684l-4.683 2.695-1.757 1.011c-1.361.783-2.552 2.41-2.925 4.415-.43 2.3-.449 3.592 0 5.477.333 1.404 1.128 2.083 2.488 1.3l1.61-.926v-2.462c0-1.779 1.337-4.118 2.925-5.031l4.677-2.692c1.302-.749 2.342-2.58 2.342-4.085v-5.131c0-1.461-1.071-1.942-2.342-1.454-.804.308-1.639.719-2.439 1.184zm-2.532 3.108c.483-.278.878-.043.878.525a1.95 1.95 0 0 1-.878 1.529c-.483.278-.879.048-.879-.518a1.96 1.96 0 0 1 .879-1.536zm7.896-.436v2.393c0 1.855-1.366 4.203-2.925 5.1l-4.677 2.691c-1.281.737-2.341 2.609-2.341 4.086v5.131c0 1.46 1.104 1.684 2.341 1.391 1.483-.351 2.904-1.079 4.677-2.691 1.179-1.071 2.341-2.531 2.341-4.086v-2.054l-4.676 2.692v-.685l4.676-2.691 2.342-1.347c1.361-.783 1.868-2.168 2.341-4.08a10.62 10.62 0 0 0 0-5.476c-.336-1.366-.979-2.169-2.341-1.385l-1.758 1.011zm-2.63 14.508c.485-.279.879-.048.879.518a1.96 1.96 0 0 1-.879 1.536c-.484.278-.879.044-.879-.524a1.95 1.95 0 0 1 .879-1.53zm42.531-243.518l-.077.044v-.05l.208-.12v.05l-.077.044v.249l-.054.031v-.249zm.414-.225l-.001.001-.076.28-.035.02-.076-.192-.001.001v.236l-.051.029v-.299l.075-.043.07.171.07-.252.075-.043v.299l-.05.029v-.236h0zm-7.324-1.905s-.537.67.382.263c1.114-.494 1.683-.843 2.91-1.817 0 0 .323.048.774-.009-2.752 2.944-6.227 3.504-4.066 1.563zm-.336-1.583s-.603.861.317.442c1.19-.543 2.13-1.072 3.755-2.369 0 0 .225.134.579.074-3.327 3.037-7.032 4.135-4.651 1.852zm2.834-4.645c.678.511-.178 1.814-.178 1.814s1.721-2.016.931-2.846c-.739-.773-1.305-1.043 1.76-4.859 0 0-4.811 4.156-2.513 5.891zm3.638 4.011s.398.149-.437.922c-1.588 1.469-6.61 4.526-8.005 4.628-.501.037.439-.854.735-1.098.309-.255.485-.342.485-.342-.558-.133-3.605 2.965-1.548 2.166 5.61-2.178 10.225-6.357 8.77-6.277z"/><path d="M330.947 38.56s-2.554 2.17-.904 1.475c.696-.293 2.085-1.117 3.378-1.986l2.119-1.541s-.373.399-.643.767c-2.593 2.28-7.604 4.797-6.162 3.161 1.22-1.383 2.212-1.876 2.212-1.876zm4.582.321c2.637-3.099 1.418-3.918.567-3.224l-.302.267s.078-.185.226-.33c1.683-1.652 2.978.302-.544 3.397 0 0 .041-.066.053-.11zm-1.589-10.974s1.46.846-1.385 5.077c-2.282 3.393-.521 3.566-.001 4.622-1.332-.621-2.31-1.28-1.654-2.794.963-2.222 3.629-4.565 3.04-6.905zm-2.734 17.748c2.531-1.269 6.418-3.797 6.51-5.232 0 0-.177.626-2.092 2.144-2.16 1.712-4.824 3.191-6.405 3.799 0 0 .324.123 1.987-.711zm-.414 5.522c-.239.377-.491.656-.718.786-.323.186-.497.063-.497-.296 0-.388.187-.779.937-1.211l.278-.16v.881h0zm.658.479v-2.657c0-.679-.335-.934-1.143-.468-.472.272-.885.644-1.221 1.009l.097.414c.264-.264.607-.566.943-.759.465-.268.666-.167.666.281v.336l-.233.134c-1.131.651-1.641 1.452-1.641 2.213 0 .657.336.837.969.472.407-.234.711-.603.995-1.05l.052.374.516-.297h0zm2.199-1.265l-.822.473-.989-3.147.718-.413.614 1.93.136.608c.31-1.171.53-2.305.64-3.338l.698-.402a25.21 25.21 0 0 1-.995 4.288zm3.152-2.672c-.239.377-.492.656-.718.787-.323.186-.498.063-.498-.296 0-.388.188-.779.938-1.211l.278-.16v.881zm.659.479v-2.657c0-.679-.336-.933-1.144-.468-.472.272-.885.644-1.221 1.009l.097.415c.264-.264.607-.566.943-.759.465-.268.666-.167.666.281v.336l-.233.134c-1.131.651-1.641 1.452-1.641 2.213 0 .657.336.837.969.472.407-.234.711-.603.995-1.051l.052.373.517-.297h0zm-9.265 5.962a4.07 4.07 0 0 1-.823 1.182l-.325-.255c.253-.295.469-.662.57-.945.087-.251.123-.529.123-1.147v-4.242l.7-.403v4.184c0 .826-.057 1.192-.245 1.625z"/></g><path opacity=".8" d="M408.641 130.933l-2.19 67.104m-49.264-70.923l36.127 79.107m-47.075 3.273l41.054 6.001m-79.37 59.467l77.181-43.1m-115.498 53.465H203.92m-54.191-72.014l24.085 44.736m-39.411-54.011l-37.222 9.821m21.348-81.289l-30.106 66.558m-15.327-75.833l2.189 69.832M83.496 89.47l52.549-37.098m-8.758 60.012l16.421-46.919m-29.011 52.92l-24.632-6.001m50.359 75.287l-7.116-49.1m-37.769 93.291l70.612 38.19m133.014-9.821l29.558-41.462m36.127-105.294h25.727M344.05 50.19l54.191 43.645M255.374 52.372l93.055 56.193m-91.96-63.831l54.191-3.273m-78.276 10.911l-97.434 66.013m96.339-73.651l-41.053-3.819M333.65 58.919l19.158 46.919m-.547 24.004l-7.664 62.194" stroke="#79bb49" stroke-width=".6" stroke-linecap="round"/><path d="M133.854 124.569l-.007-.54c-.01-.394-.031-.799-.095-1.221a6.51 6.51 0 0 0-.338-1.303c-.164-.444-.379-.886-.634-1.31s-.551-.825-.874-1.188c-.328-.37-.664-.678-1.025-.956s-.719-.505-1.079-.723l-.495-.293-.589-.34-4.346-2.501-1.801-1.037-.589-.337-.495-.277-.271-.145c-.27-.142-.541-.272-.808-.373s-.528-.174-.777-.206l-.248-.019c-.242-.006-.469.027-.674.099a1.47 1.47 0 0 0-.199.085c-.256.129-.471.325-.635.579s-.273.561-.338.915c-.064.348-.085.728-.095 1.111l-.007.532-.001.636v2.895 3.754l.001.637.007.54c.01.394.031.799.095 1.221a6.51 6.51 0 0 0 .338 1.303c.164.444.379.886.635 1.31s.55.825.873 1.188c.328.37.664.678 1.025.956.356.274.719.506 1.079.723l.495.293.589.34 6.147 3.538.589.337.495.277c.36.197.723.383 1.079.518s.697.217 1.025.225.618-.054.874-.184.47-.325.634-.579c.167-.259.273-.561.338-.915.064-.348.085-.728.095-1.112l.007-.531.001-.636v-6.649l-.001-.637z" class="B"/><path d="M130.446 128.64l.052-.174c.681-2.545-.982-6.973-3.797-10.419 1.233 2.518 1.779 5.022 1.294 6.659-.043.146-.095.28-.152.407a8.58 8.58 0 0 0-.247-.299s-2.8-3.479-5.834-8.53c-.08-.132 1.618 3.555 3.545 6.864-.908-1.073-3.438-4.518-5.04-7.023.197.468.431.944.688 1.421 1.338 2.603 3.082 5.869 5.172 8.808-1.468.128-3.543-.989-5.609-3.222-.511-.552-.991-1.141-1.436-1.751.875 2.015 2.221 4.094 3.86 5.797 1.955 2.032 3.899 3.087 5.347 3.087l-.001.001c.006-.001.015-.001.021-.001a3.41 3.41 0 0 0 .177-.006c.695.009 2.069.402 2.807 2.378.18.483.564-1.309-.847-3.997z" class="C"/><defs><radialGradient id="A" cx="0" cy="0" r="1" gradientUnits="userSpaceOnUse" gradientTransform="translate(63.6861 95.4037) rotate(29.8347) scale(19.058 16.5708)"><stop stop-color="#92cf5e"/><stop offset=".75" stop-color="#6da842"/><stop offset="1" stop-color="#61963a"/></radialGradient><path id="B" d="M157.112 63.265l-2.773-5.184 2.282-6.395v-3.921l-6.825 3.921v3.911l2.937 5.092a.42.42 0 0 0 .204.173l4.175 2.403z"/><path id="C" d="M252.413 30.758l-3.264-1.843c-1.545-1.018-3.704-1.018-6.139.377-4.738 2.719-8.565 9.624-8.565 15.418v1.314c0 5.795 7.828 12.098 7.828 12.098l3.203 1.802s-1.924-2.179-1.709-2.627c2.046-4.287 7.807-16.386 7.807-21.111v-1.324c.009-.956-.115-1.909-.369-2.831l.369.214.839-1.487zm-9.352 13.239c-2.364 1.354-4.287.255-4.287-2.465 1.279-.194 4.481-5.632 4.287-7.383 2.363-1.355 4.277-.255 4.277 2.464-.073 1.487-.498 2.936-1.242 4.228s-1.783 2.391-3.035 3.206v-.051z"/><path id="D" d="M255.503 402.256c.69-4.17 2.206-8.161 4.461-11.742 3.51-5.092 8.186-8.147 12.503-8.361s7.623 3.829 2.947 6.375-12.902 5.031-16.975 14.98l-2.936-1.252z"/><path id="E" d="M220.581 403.376c-.105-4.868-1.518-9.618-4.093-13.758-3.448-5.632-7.94-9.38-11.654-8.147-3.469 1.13-2.63 5.804 2.671 10.845 3.714 3.534 7.489 8.035 9.27 13.239l3.069 6.661.737-8.84z"/><path id="F" d="M56.777 353.312a.74.74 0 0 1 .136-.378c.08-.112.188-.199.314-.253l18.233-10.469a2.39 2.39 0 0 1 2.169 0l55.631 32.018c.125.053.233.139.312.248s.127.239.138.373v1.904a.73.73 0 0 1-.136.379.75.75 0 0 1-.314.253l-18.223 10.469a2.39 2.39 0 0 1-2.169 0l-55.642-31.967a.74.74 0 0 1-.45-.622v-1.955z"/><path id="G" d="M115.038 385.911l18.223-10.429c.131-.044.245-.129.326-.241s.124-.247.124-.385-.043-.273-.124-.385-.195-.197-.326-.241L77.63 342.212a2.39 2.39 0 0 0-2.169 0l-18.233 10.469a.66.66 0 0 0-.45.626.66.66 0 0 0 .45.626l55.642 31.968a2.44 2.44 0 0 0 1.083.261c.377.001.749-.085 1.086-.251z"/><path id="H" d="M114.025 386.165v1.945a2.23 2.23 0 0 0 1.023-.254l18.213-10.469a.74.74 0 0 0 .45-.621v-1.915c-.012.135-.061.265-.14.376a.77.77 0 0 1-.31.255l-18.213 10.429a2.23 2.23 0 0 1-1.023.254z"/><path id="I" d="M128.731 312.103l-2.4-6.126-4.798-2.757 2.399 6.126-2.399 3.369 4.798 2.757 2.4-3.369z"/><path id="J" d="M112.623 302.848l2.399 6.126 4.799 2.757 2.399-3.369-4.798-2.757-2.4-6.126-2.399 3.369z"/><path id="K" d="M118.277 294.908l-2.399 3.369 2.399 6.126 2.399-3.369 4.798 2.757-2.399-6.126-4.798-2.757z"/><path id="L" d="M363.043 301.829l-2.399-3.369-4.798 2.758 2.399 3.368-2.399 6.127 4.798-2.758 2.399-6.126z"/><path id="M" d="M346.936 311.085l2.399 3.369 4.798-2.757 2.399-6.126-4.798 2.757-2.399-3.369-2.399 6.126z"/><path id="N" d="M352.59 296.648l-2.399 6.126 2.399 3.369 2.399-6.127 4.798-2.757-2.399-3.369-4.798 2.758z"/><path id="O" d="M331.624 221.14l8.03-4.605s-1.535-7.181 3.547-13.36c1.108-1.256 4.635-5.595 10.408-3.992.183-.281.356-.52.356-.52s-5.286-3.041-11.171 1.012c-2.957 2.001-6.596 7.188-8.73 12.508s-2.44 8.957-2.44 8.957z"/></defs></svg>