<svg xmlns="http://www.w3.org/2000/svg" xmlns:xlink="http://www.w3.org/1999/xlink" width="480" height="480" fill="none" xmlns:v="https://vecta.io/nano"><g clip-path="url(#A)"><path d="M236 444c117.637 0 213-51.726 213-115.533s-95.363-115.533-213-115.533S23 264.66 23 328.467 118.363 444 236 444z" fill="#f5f5f5"/><use xlink:href="#B" fill="#79bb49"/><use xlink:href="#B" opacity=".2" fill="#365421"/><path d="M148.452 390.25l-.169-.097c-2.421-1.536-3.897-4.839-3.897-9.497l.097-105.504-24.205-13.948 20.901-12.183.193-.109 2.965-1.717 3.341-2.323.133-.085.133-.097c.181-.121.327-.254.484-.375l.194-.133.581-.435.556-.436c.154-.145.311-.278.472-.399l.182-.145.169-.145c.315-.242.617-.508.908-.763l.46-.423.169-.181a26.73 26.73 0 0 0 1.658-1.658l.194-.181c.218-.234.423-.464.617-.69a2.48 2.48 0 0 0 .278-.351c.098-.092.187-.193.267-.302v-.085l.072-.109.133-.145.642-.81c.169-.242.351-.496.508-.75l.133-.158v-.072c.23-.327.436-.654.642-.98s.351-.569.52-.859l.061-.109c.133-.266.278-.508.411-.774l.206-.375c.169-.327.327-.654.472-.992l.266-.617a4.13 4.13 0 0 0 .266-.629c.089-.171.162-.349.218-.533.061-.169.145-.363.206-.532.157-.423.29-.859.435-1.307.109-.35.23-.725.327-1.1v-.158c.121-.399.206-.81.291-1.209v-.134c0-.314.145-.641.205-.979.085-.46.182-.992.242-1.488v-.255-.338c.007-.044.007-.089 0-.133-.005-.113-.005-.226 0-.339l.158-1.742v-.266-.666c0-.871.024-1.754.072-2.649v-.218-.75-.653-.883a1.26 1.26 0 0 0 0-.23 1.47 1.47 0 0 0 0-.23v-.327c0-.447-.06-.883-.096-1.282v-.073c0-.387-.085-.75-.121-1.1-.219-1.635-.555-3.253-1.005-4.84-.278-.967-.581-1.85-.847-2.685-.707-1.896-1.202-3.863-1.477-5.868 0-.399-.096-.81-.133-1.209s0-.932-.084-1.428v-.218c-.012-.116-.012-.234 0-.35a4.05 4.05 0 0 1 0-.763c0-5.577 3.388-12.097 7.588-14.517.416-.245.864-.432 1.331-.556.3-.082.609-.131.92-.146a3.62 3.62 0 0 1 .895 0 2.46 2.46 0 0 1 .424.097c.422.126.829.3 1.21.52l24.628 14.022c.143.08.28.169.412.266 1.428 1.089 2.227 3.157 2.227 5.843 0 .363 0 .738-.073 1.319v.157a46.48 46.48 0 0 1-1.67 10.319l-.605 2.625c-.085.303-.145.617-.206.92-.218.919-.411 1.875-.569 2.903-.06.327-.109.678-.157 1.017l16.943-9.594 24.205 13.949v27.752c0 7.791-.593 12.993-1.804 15.896-.847 2.008-2.142 3.267-5.131 4.984a15.54 15.54 0 0 1-7.794 2.311c-.871 0-1.694.157-2.529.266l-.981.17a15.03 15.03 0 0 0-.944.205c-.58.133-1.21.327-1.791.521l-.484.181c-.913.354-1.806.757-2.674 1.21-.111.044-.217.101-.315.169h-.085l-.145.073c-.327.145-.702.326-1.089.544a28.51 28.51 0 0 0-8.92 8.783 40.38 40.38 0 0 0-3.182 5.662c-.865 1.863-1.601 3.783-2.203 5.746l1.331-1.415a48.35 48.35 0 0 1 4.018-4.017c1.182-1.022 2.458-1.929 3.812-2.71 1.937-1.113 3.486-2.008 4.636-1.294l23.986 14.287.279.206c.066.063.127.132.181.206.044.029.078.071.097.121a1.35 1.35 0 0 1 .182.254v.06a2.63 2.63 0 0 1 .193.363c.617 1.307 1.029 3.629 1.21 7.525v1.355 4.101 27.74l-79.027 45.608c-1.285.789-2.735 1.269-4.236 1.404a8.11 8.11 0 0 1-1.428 0c-.158-.008-.313-.041-.46-.097-.57-.166-1.112-.415-1.61-.738z" fill="#79bb49"/><g fill="#365421"><path opacity=".1" d="M209.072 287.855l23.963 14.287c-1.138-.725-2.699.194-4.635 1.307-1.353.776-2.626 1.684-3.8 2.71a44.66 44.66 0 0 0-4.03 4.004 47.36 47.36 0 0 1-9.477 8.396c-.472.339-1.028.69-1.549.992-8.774 5.069-15.914-.327-15.914-12.025.044-3.483.602-6.94 1.658-10.259l1.307-1.391a48.2 48.2 0 0 1 4.018-4.017c1.177-1.022 2.45-1.929 3.8-2.71 1.948-1.113 3.522-2.008 4.659-1.294zm-14.934-69.38l17.028-9.606 24.205 13.961-20.804 12.001-6.257 3.266h-.073-.06l-.448.194-.23.084-1.041.424-.581.205-.157.061-.98.315-.678.181c-.351.097-.678.157-1.004.218h-.109l-.448.072c-.401.055-.805.088-1.21.097h-.388c-.471-.006-.941-.054-1.403-.145l-.242-.061c-.357-.097-.705-.222-1.041-.375a.99.99 0 0 1-.279-.145c-.303-.174-.594-.368-.871-.58h-.061l-.205-.182a6.41 6.41 0 0 1-.847-.956l-.121-.145c-.654-1.006-1.136-2.114-1.428-3.278l-.061-.206c-.157-.617-.266-1.21-.375-1.875v-.327l-.242-2.286-.097-2.855c-.034-2.695.136-5.388.508-8.057zm-49.655 56.678l-24.205-13.949 20.901-12.182.181-.109h.073l2.965-1.718 3.352-2.323.121-.084.133-.097c.182-.121.327-.254.484-.375l.182-.133.593-.436.557-.435a5.13 5.13 0 0 1 .472-.4l.181-.145.17-.145.907-.762.46-.423.17-.182 1.658-1.657.193-.182.618-.689c.103-.109.196-.226.278-.351.097-.097.169-.206.254-.303l.073-.084.084-.097.121-.157.642-.811.52-.738.121-.169v-.073l.642-.98.52-.859v-.121l.424-.762c.079-.121.152-.246.217-.375l.46-.992.267-.617.278-.617a4.54 4.54 0 0 0 .206-.544c.06-.194.145-.363.205-.533l.436-1.306.327-1.101v-.157l.29-1.21v-.121l.194-.992.242-1.488v-.254-.339c.007-.044.007-.089 0-.133v-.351l.157-1.73v-.266-.665l.073-2.65v-.217-.75-.654-.895-.218a1.47 1.47 0 0 0 0-.23v-.326c0-.448-.061-.883-.097-1.283v-.084l-.109-1.089a34.55 34.55 0 0 0-1.004-4.839l-.847-2.686a27.47 27.47 0 0 1-1.477-5.867c0-.399-.097-.811-.133-1.21s0-.919-.073-1.427v-.218-.363c-.023-.254-.023-.509 0-.762 0-5.577 3.389-12.098 7.588-14.518a5.33 5.33 0 0 1 1.332-.556 4.21 4.21 0 0 1 .92-.145c.296-.049.599-.049.895 0a2.37 2.37 0 0 1 .424.097 5.58 5.58 0 0 1 1.21.52l24.543 14.033a3.84 3.84 0 0 0-1.682-.508 5.27 5.27 0 0 0-1.283.109c-.704.158-1.378.427-1.997.798-.739.44-1.425.964-2.045 1.561-1.692 1.667-3.037 3.653-3.957 5.843-.218.472-.388.956-.569 1.452a19.1 19.1 0 0 0-.569 2.117 16.12 16.12 0 0 0-.411 3.508v1.113.121c.049 1.962.33 3.911.835 5.807.072.315.169.617.254.92l.581 1.814c.278.835.581 1.706.859 2.686.097.339.181.677.266 1.016l.266 1.089c.269 1.262.467 2.538.593 3.823v.06a6.23 6.23 0 0 0 0 .641v.654.169.169.448a2.58 2.58 0 0 1 0 .448v.447.666.738.108 1.343c0 .448 0 .884-.06 1.331v.653.267c0 .568-.085 1.149-.157 1.73 0 .278-.073.544-.109.834v.23l-.254 1.512-.218.98v.121c0 .23-.097.46-.17.702s-.121.46-.181.665 0 .194-.061.291-.181.544-.254.822a22.62 22.62 0 0 1-.436 1.295l-.411 1.076c-.133.351-.351.835-.533 1.21l-.496 1.016c-.097.182-.193.387-.302.569l-.303.569-.073.121c-.075.15-.16.295-.254.435l-.084.145a1.67 1.67 0 0 1-.182.266c-.206.339-.411.666-.629.992v.073l-.121.169a3.39 3.39 0 0 1-.267.363c-.077.126-.162.247-.254.363l-.23.303c-.127.18-.265.354-.411.52l-.121.157-.133.182-.279.326-.084.097c0 .073-.121.157-.194.23l-.315.351c-.084.109-.193.217-.302.338l-.182.182a21.4 21.4 0 0 1-1.67 1.657l-.169.182-.472.423c-.279.266-.581.52-.896.774l-.169.133-.085.085-.085.073-.472.387-1.21.871-.181.145-.485.363-.266.181-3.352 2.323-2.965 1.718-.097.073-.194.096-20.682 11.929z"/></g><g fill="#79bb49"><use xlink:href="#C"/><path d="M217.943 324.39l.073-23.324-.363.375 3.11-3.23.182-.17.314-.302.218-.121c2.035-1.96 4.294-3.673 6.729-5.105l.266-.133h.061l.181-.109 1.731-.895c.157-.085.327-.146.484-.218l.169-.085 1.211-.46c.218-.096.423-.145.617-.217h.097l1.004-.242.714-.121c.298-.024.598-.024.896 0a6.39 6.39 0 0 1 .678 0c.265.022.528.067.786.133h.109l.496.121c.253.088.496.202.726.338.26.127.507.277.739.448a6.24 6.24 0 0 1 .786.665 5.3 5.3 0 0 1 .388.46l.084.121.073.085.351.496a5.89 5.89 0 0 1 .411.726l.327.665.363.895c.121.315.158.46.23.702l.303 1.04.145.605v.097l.254 1.21v.351.145c.266 1.706.46 3.629.593 5.891v.097l.133 5.396v28.647l-25.669-14.977zm-13.627-15.739l-25.33-14.662c-1.682-.896-2.662-3.242-2.662-6.352a19.34 19.34 0 0 1 3.34-10.319l.484-.677-.387.568 25.753 14.868c-.067.084-.128.173-.181.266-2.082 3.044-3.241 6.622-3.341 10.308 0 2.915.896 4.996 2.324 6z"/></g><g fill="#a1cf80"><use xlink:href="#C"/><path d="M217.943 324.39l.206-24.53-.363.375 3.11-3.23.182-.17.315-.302.217-.121c2.035-1.96 4.294-3.673 6.729-5.105l.266-.133h.061l.181-.109 1.731-.896c.157-.084.327-.145.484-.217l.17-.085 1.21-.46c.218-.096.423-.145.617-.217h.097l1.004-.242.714-.121c.299-.024.598-.024.896 0a6.39 6.39 0 0 1 .678 0c.265.022.528.067.786.133h.109l.496.121a4.07 4.07 0 0 1 .727.338 4.82 4.82 0 0 1 .738.448 6.32 6.32 0 0 1 .787.665 5.32 5.32 0 0 1 .387.46l.085.121.072.085c.126.159.243.325.351.496.154.232.292.474.412.726.121.23.41.467.507.696l.363.896c.121.314.157.459.23.701l.302 1.041.145.605v.096l.255 1.21v.351.145c.266 1.706.46 3.629.593 5.892v.097 6.601 28.648l-25.85-15.009zm-13.336-15.599l-25.621-14.802c-1.682-.895-2.662-3.242-2.662-6.352a19.34 19.34 0 0 1 3.34-10.319l.484-.677-.387.568 25.753 14.868c-.067.084-.128.173-.181.266-2.082 3.044-3.241 6.622-3.341 10.308 0 2.915 1.187 5.135 2.615 6.14z"/></g><path d="M204.454 308.627l-.169-.097c-1.428-1.004-2.324-3.085-2.324-5.952.099-3.685 1.259-7.264 3.34-10.307.054-.093.115-.138.182-.221l-25.674-14.804c.121-.182.266-.376.387-.569.327-.423.666-.823 1.017-1.21.164-.19.338-.372.52-.544a4.99 4.99 0 0 1 .581-.545 9.16 9.16 0 0 1 1.634-1.209 6.72 6.72 0 0 1 .666-.339l.29-.121h.073c1.07-.57 2.203-1.013 3.376-1.319l.412-.097a23.4 23.4 0 0 1 3.219-.423c3.812-.132 7.522-1.263 10.759-3.278l.847-.521c.254-.145.484-.302.726-.471s.375-.23.557-.351h.072l.896-.654.847-.665.158-.121.133-.121.096-.085.364-.314c.108-.097.242-.194.351-.303s.435-.387.653-.604l.303-.303.133-.145.532-.557a17.42 17.42 0 0 0 .642-.713l.084-.097.351-.411c.158-.218.351-.436.509-.666l25.777 14.88.46-.629v-.084c.107-.117.205-.243.291-.375.411-.63.799-1.21 1.15-1.851l.108-.194a39.72 39.72 0 0 0 1.09-2.165l.217-.557.061-.109c.182-.447.411-.98.605-1.536.097-.254.194-.532.278-.787v-.181c.158-.423.291-.859.424-1.307s.194-.713.303-1.088.193-.811.278-1.21l.266-1.21c.085-.423.145-.75.206-1.149v-.17c.073-.362.121-.738.181-1.125l.097-.677v-.254c.254-1.924.424-3.956.533-6.158v-.23l.133-5.952v-28.345l-25.669-15.025 10.529-6.049 5.434-3.133 4.841-2.807 1.888-1.064c.496-.242.944-.509 1.404-.726 1.606-.881 3.302-1.586 5.058-2.105l.533-.133c.546-.131 1.11-.172 1.67-.121.315 0 .484.278.726.423l25.972 14.759a2.25 2.25 0 0 1 .63.622 2.23 2.23 0 0 1 .338.818c0 .205.109.447.157.702s.073.544.109.858v.484 1.101 1.283c0 1.149 0 2.189-.145 3.181v.738c0 .242 0 .472-.085.714s0 .46-.109.702-.06.459-.097.689l-.242 1.343c-.084.46-.193.883-.278 1.319-.012.031-.012.065 0 .097a38.01 38.01 0 0 0 3.304-14.784c0-.714 0-1.427-.073-2.032-.121-3.88-.865-7.716-2.202-11.36-1.15-3.019-1.712-6.23-1.658-9.46 0-5.977 0-9.267 12.683-16.562l20.707-11.856 25.753 14.868v105.323c0 8.771-5.349 18.993-11.92 22.792l-79.028 45.608v-28.623l-.133-5.396v-.096c-.133-2.238-.327-4.186-.593-5.892v-.145-.351c-.073-.435-.17-.847-.254-1.21v-.097l-.146-.604c-.096-.363-.181-.702-.302-1.041s-.145-.472-.23-.701-.23-.617-.363-.896-.206-.435-.327-.665a6.1 6.1 0 0 0-.411-.726 6.16 6.16 0 0 0-.351-.496l-.073-.085-.085-.121a5.13 5.13 0 0 0-.387-.459c-.243-.243-.507-.466-.787-.666a4.74 4.74 0 0 0-.738-.447 4.03 4.03 0 0 0-.726-.339l-.496-.121h-.109c-.258-.066-.521-.11-.787-.133a6.39 6.39 0 0 0-.678 0 5.57 5.57 0 0 0-.895 0c-.23 0-.46.072-.714.121s-.654.157-1.005.242h-.096c-.194.072-.4.121-.618.218-.411.133-.823.314-1.21.459l-.169.085c-.158.073-.327.133-.484.218-.581.278-1.15.568-1.731.895l-.182.109h-.06l-.266.133c-2.467 1.461-4.75 3.212-6.802 5.214l-.157.145-.315.303-.181.169c-1.065 1.04-2.046 2.081-3.111 3.23-2.074 2.428-4.468 4.565-7.116 6.351-.314.218-.593.424-.859.569-.708.437-1.579.613-2.403.726-.508.097-1.03.097-1.537 0a4.02 4.02 0 0 1-1.344-.484z" fill="#c3e0ad"/><g fill="#86c25b"><path d="M243.697 218.015l-25.669-15.025 10.529-6.049 5.434-3.133 4.841-2.807 1.888-1.065 1.404-.726c1.606-.88 3.302-1.585 5.058-2.105l.533-.133a5.21 5.21 0 0 1 1.67-.121c.315 0 .484.279.726.424l25.657 14.771a1.05 1.05 0 0 0-.29-.109c-.124-.062-.262-.091-.4-.084-.401-.061-.809-.061-1.21 0-.341.041-.677.114-1.005.217a37.66 37.66 0 0 0-8.35 3.908l-4.841 2.807-5.446 3.145-10.529 6.085zm33.209 28.708c-2.421-2.42-3.631-6.496-3.631-11.42-.012-.707.016-1.414.085-2.117v-.085c0-1.21.121-2.335.254-3.629 0-.363.084-.714.133-1.077.085-.75.194-1.488.315-2.178l.338-1.899c.073-.327.134-.641.194-.944l.944-4.125c.23-.907.436-1.778.629-2.649 2.069-4.626 3.185-9.621 3.28-14.687 0-.714 0-1.415-.085-2.02a36.29 36.29 0 0 0-2.19-11.384c-1.145-3.017-1.708-6.223-1.658-9.448 0-5.965 0-9.255 12.683-16.574l20.707-11.844 25.754 14.868-20.792 12.001c-12.683 7.259-12.683 10.61-12.683 16.574-.064 3.231.499 6.444 1.658 9.46 1.325 3.652 2.064 7.49 2.19 11.372 0 .605.085 1.307.073 2.008 0 11.699-7.128 25.345-15.927 30.402-4.768 2.77-9.234 2.54-12.271-.605zm-71.392 45.403l-25.753-14.869.387-.568 1.016-1.21.521-.544a4.83 4.83 0 0 1 .581-.545c.498-.462 1.046-.868 1.634-1.21a6.59 6.59 0 0 1 .665-.338l.291-.109h.072c1.07-.57 2.204-1.013 3.377-1.319l.411-.097c1.062-.215 2.138-.357 3.22-.423 3.811-.132 7.521-1.263 10.758-3.278l.848-.521c.254-.145.484-.302.726-.471a5.36 5.36 0 0 0 .544-.363h.073l.896-.654.859-.665.145-.121.133-.121.109-.085.351-.314c.109-.097.242-.194.351-.303s.436-.387.653-.605l.303-.302c.042-.051.091-.095.145-.133l.521-.569a17.4 17.4 0 0 0 .641-.713l.085-.097.351-.412c.157-.217.49-.822.648-1.052l25.79 14.88c-.17.242-.6.98-.781 1.222s-.23.254-.339.387l-.097.097c-.387.448-.775.871-1.21 1.27l-.242.242c-.061.073-.133.133-.182.206l-.666.605-.701.605-.097.096-.303.23c-.557.472-1.137.908-1.73 1.331 0 0-.073 0-.134.085a24.09 24.09 0 0 1-2.105 1.342l-.751.388-.883.447c-1.969 1.024-4.09 1.722-6.281 2.069l-1.114.145h-.556l-1.029.097a17.09 17.09 0 0 0-4.514.774c-.448.145-.92.327-1.44.545a15.98 15.98 0 0 0-1.053.508l-.303.121c-.229.098-.451.211-.665.338-.592.354-1.15.759-1.671 1.21-.186.156-.364.321-.532.496-.182.169-.363.363-.533.557a6.31 6.31 0 0 0-.629.726c-.134.153-.26.315-.375.483-.206.23-.339.363-.436.509z"/></g><g fill="#79bb49"><path d="M284.215 236.633l-25.814-14.904c-.121-.061-.238-.13-.351-.206-1.44-1.088-2.106-3.351-2.106-6.048-.027-.435-.027-.872 0-1.307v-.157c.184-3.491.748-6.951 1.683-10.32.411-1.73.847-3.629 1.21-5.577l5.591-3.23.218-.121.133-.072 4.405-2.359.121-.061a32.77 32.77 0 0 1 4.285-1.766h.169l.569-.182c.225-.073.456-.129.69-.169h.133a9.05 9.05 0 0 1 .823-.193l.726-.097h.847.641c.289.005.577.037.86.097h.109l.411.072a7.37 7.37 0 0 1 .98.339l.291.121a6.16 6.16 0 0 1 2.166 1.923 1.74 1.74 0 0 1 .133.218c.265.381.492.786.678 1.21 0 .085.085.181.121.254v.085c.182.447.339.931.496 1.439l.097.387a13.87 13.87 0 0 1 .363 1.803l.061.278c.235 1.72.344 3.455.326 5.19a60.88 60.88 0 0 1-2.178 15.582c-.925 3.374-1.485 6.838-1.67 10.331v.146c0 .556-.061.955-.061 1.318 0 2.698.787 4.767 2.215 5.855l.629.121z"/><use xlink:href="#D"/><use xlink:href="#E"/></g><g fill="#365421"><use xlink:href="#D" opacity=".2"/><use xlink:href="#E" opacity=".2"/><path opacity=".2" d="M284.215 236.634l-25.814-14.905a3.42 3.42 0 0 1-.351-.205c-1.44-1.089-2.106-3.352-2.106-6.049-.027-.435-.027-.872 0-1.307v-.157c.184-3.491.748-6.951 1.683-10.319.411-1.73.411-4.926.774-6.874l7.396-3.682.218-.121.133-.073 4.406-2.359.121-.06c1.384-.69 2.816-1.28 4.284-1.767h.169l.569-.181c.226-.073.456-.13.69-.169h.133c.266-.073.545-.146.823-.194l.726-.097h.847.642c.288.005 1.012 1.334 1.295 1.394h.109l.411.072a7.37 7.37 0 0 1 .98.339l.291.121c.865.46 1.607 1.119 2.166 1.924a1.73 1.73 0 0 1 .133.217c.265.381.492.786.678 1.21 0 .085.085.182.121.254v.085c.181.447.339.931.496 1.439l.097.388a13.99 13.99 0 0 1 .363 1.802l.061.278c.235 1.72.344 3.455.326 5.19-.049 5.267-.781 10.504-2.178 15.582-.925 3.374-1.485 6.838-1.67 10.332v.145c0 .556-.061.955-.061 1.318 0 2.698-1.018 5.219.41 6.308l.629.121z"/></g><path opacity=".3" d="M243.685 85.666l-25.754-14.868 79.125-45.753.847-.448c.257-.133.524-.247.799-.339l.799-.254a4.35 4.35 0 0 1 .762-.181 6.94 6.94 0 0 1 .98-.109c1.328-.059 2.642.291 3.764 1.004l25.124 14.517c-.219-.115-.45-.204-.689-.266-.055-.015-.107-.035-.158-.06a3.43 3.43 0 0 0-.677-.157h-.23a1.76 1.76 0 0 0-.448 0h-.436c-.036-.006-.073-.006-.109 0a3.63 3.63 0 0 0-.629 0l-.484.073a5.01 5.01 0 0 0-.968.218l-.484.145-.944.375-1.114.581-79.076 45.524z" fill="#fff"/><g fill="#79bb49"><path d="M283.542 236.755l-.194-.109-.411-.267c-1.428-1.088-2.215-3.157-2.215-5.855l.061-1.318v-.146c.185-3.493.745-6.957 1.67-10.331a60.88 60.88 0 0 0 2.178-15.582c.018-1.736-.091-3.47-.326-5.19l-.061-.278a14.04 14.04 0 0 0-.363-1.803l-.097-.387c-.157-.508-.315-.992-.496-1.439v-.085c0-.073-.073-.169-.121-.254-.186-.424-.413-.829-.678-1.21a1.74 1.74 0 0 0-.133-.218c-.559-.804-1.332-1.127-2.197-1.586l-.291-.121a7.18 7.18 0 0 0-.98-.339l-.411-.073h-.109c-.283-.059-.571-.092-.859-.097h-.642-.847l-.726.097c-.279 0-.557.121-.823.194h-.133a4.79 4.79 0 0 0-.69.169l-.634.266h-.17c-1.468.487-2.003.74-3.387 1.43l-.121.06-4.34 2.275-.133.072-.218.121-5.591 3.23-15.397 8.896v-9.473-18.267c-.083-4.076.18-8.151.787-12.183.884-4.948 2.277-6.439 6.174-8.677 2.348-1.456 5.044-2.254 7.806-2.311.908 0 1.779-.169 2.639-.29l.702-.121c.399-.073.786-.158 1.21-.266a16.41 16.41 0 0 0 1.585-.46l.678-.242c.886-.352 1.751-.756 2.59-1.21.035.011.073.011.109 0 .52-.212 1.025-.458 1.513-.738 4.768-2.77 9.246-8.154 12.283-14.819a38.51 38.51 0 0 0 3.631-15.619c0-11.686-7.152-17.094-15.927-12.013a12.91 12.91 0 0 0-1.561 1.004 48.27 48.27 0 0 0-9.464 8.372l-2.42 2.577a27.38 27.38 0 0 1-4.188 3.436l-.544.338-.63.375c-.726.412-1.379.799-1.996 1.077l-.593.242a2.16 2.16 0 0 1-.557.157 1.59 1.59 0 0 1-.52.085 1.73 1.73 0 0 1-.92-.23c-1.537-.859-2.348-4.524-2.348-14.227V85.666l-25.754-14.868 79.125-45.753c.29-.157.557-.315.847-.448.257-.133.524-.247.799-.339l.799-.254a4.35 4.35 0 0 1 .762-.181 6.94 6.94 0 0 1 .98-.109 6.48 6.48 0 0 1 3.764 1.004l25.415 14.65a6.5 6.5 0 0 1 2.021 1.73c.188.244.362.498.52.762.115.176.22.357.315.544.194.387.375.786.545 1.21.06.218.145.435.205.665.456 1.572.672 3.203.642 4.839v105.323l-20.804 12.001-.375.242-.254.145h-.061l-4.127 2.552c-1.645 1.08-3.225 2.255-4.732 3.521l-.109.085-.242.205-1.077.968-.085.097a7.86 7.86 0 0 0-.459.435c-.146.145-.642.629-.944.956s-.412.423-.593.641-.593.653-.872.992l-.569.714-.798 1.065-.436.641-.097.169-.109.169c-.205.303-.423.617-.617.944s-.266.472-.387.714l-.097.193a29.08 29.08 0 0 0-1.065 2.118l-.073.181a15.2 15.2 0 0 0-.399.919l-.339.956-.097.242-.363 1.113c-.121.399-.23.799-.339 1.21s-.205.822-.302 1.21-.17.81-.242 1.209a30.92 30.92 0 0 0-.218 1.331v.073c0 .375-.121.75-.157 1.125l-.146 1.476v.29c0 .278 0 .557-.06.835v2.081.157.448c-.089 4.456.649 8.89 2.178 13.077 1.014 2.713 1.578 5.574 1.67 8.469v.133c0 .387.061.786.073 1.113 0 5.577-4.279 12.097-8.466 14.517a6.37 6.37 0 0 1-2.505.883c-.181.018-.364.018-.545 0h-.085c-.112.018-.226.018-.338 0-.1.018-.203.018-.303 0l-.242-.061-.29-.084c-.078-.014-.152-.043-.218-.085-.146.018-.293-.007-.424-.072zm-80.351-9.098l-25.669-15.049c-1.005-.593-1.319-2.25-1.319-5.831.004-2.951.357-5.891 1.053-8.759-.774 1.782-1.429 3.612-1.961 5.48 2.42-8.892 8.072-17.348 14.523-21.098 4.248-2.42 8.241-2.553 11.255-.278s4.671 6.617 4.671 12.303c0 .544 0 1.077-.06 1.561v.266.399c0 1.21-.145 2.419-.279 3.69a5.12 5.12 0 0 1-.072.605v.181l-.351 2.528-.279 1.476c-.084.484-.193.98-.29 1.464l-.883 3.847a43.67 43.67 0 0 0-1.658 11.36c-.013 3.605.242 5.263 1.319 5.855zm-58.805 36.56l-25.778-14.856.097-105.505a28.74 28.74 0 0 1 2.941-12.097l25.729 14.844a29.06 29.06 0 0 0-3.013 12.279l.024 105.335z"/></g><path d="M203.191 227.657l-25.669-15.049c-1.005-.593-1.319-2.251-1.319-5.831.004-2.951.357-5.891 1.053-8.759 2.904-6.739 7.277-13.337 12.421-16.301 4.248-2.419 9.247-2.274 12.261 0s4.623 6.618 4.623 12.304c0 .544 0 1.076-.061 1.56v.266.4c0 1.209-.145 2.419-.278 3.689a4.92 4.92 0 0 1-.073.605v.182l-.351 2.528-.278 1.476c-.085.484-.193.98-.29 1.464l-.884 3.847c-1.05 3.697-1.607 7.517-1.658 11.36-.012 3.605-.574 5.666.503 6.259z" fill="#a1cf80"/><path d="M144.442 264.225l-25.834-14.865.097-105.503a30.05 30.05 0 0 1 2.996-12.372l25.786 14.853c-1.893 3.822-2.977 8.288-3.069 12.552l.024 105.335z" fill="#86c25b"/><path d="M144.386 264.217V158.87c.092-4.265 1.12-8.457 3.013-12.279l-25.729-14.844c.072-.158.133-.303.206-.448a6.3 6.3 0 0 1 .363-.702c.169-.326.338-.641.52-.955s.436-.762.678-1.113l.133-.254c.032-.052.069-.1.109-.145.206-.339.448-.69.69-1.029l.217-.302c.124-.192.261-.374.412-.545a5.85 5.85 0 0 1 .424-.532l.121-.157a10.92 10.92 0 0 1 .689-.811l.291-.302c.062-.078.131-.151.206-.218l.133-.157.254-.23.448-.436c.038-.042.083-.079.133-.108.133-.121.254-.255.375-.351l.133-.109h.061l.326-.242c.121-.109.254-.194.375-.29l.364-.291c.143-.109.293-.21.447-.302.264-.204.543-.386.835-.545l78.944-45.439 25.753 14.868v23.179l.375-.387c2.076-2.432 4.474-4.569 7.129-6.352h.096a8.73 8.73 0 0 1 .775-.52 4.6 4.6 0 0 1 2.448-.814c.877-.032 1.745.188 2.502.633l25.669 14.819a1.97 1.97 0 0 1 .387.254l.218.17c.893.833 1.502 1.924 1.743 3.121a11.18 11.18 0 0 1 .181.956c.071.537.103 1.079.097 1.621a18.65 18.65 0 0 1-2.215 8.408c-1.197 2.47-3.052 4.563-5.361 6.048-.31.179-.629.341-.956.484h-.061a15.92 15.92 0 0 1-7.019 1.827 21.79 21.79 0 0 0-10.759 3.303c-1.428.815-2.784 1.75-4.054 2.794l-.145.109c-.593.496-1.211 1.004-1.671 1.512l-.072.085c-1.183 1.168-2.248 2.449-3.183 3.823a53.87 53.87 0 0 0-1.21 1.899l-.182.327v.097c-.315.556-.605 1.21-.883 1.742v.085c-.066.133-.123.27-.17.411-.278.617-.532 1.21-.774 1.923l-.121.315c-.279.774-.533 1.573-.739 2.323l-.06.254a33.58 33.58 0 0 0-.496 2.056c0 .194-.097.412-.133.617v.17l-.279 1.56c0 .303-.109.629-.145.944s-.145.98-.206 1.488v.242c0 .242-.06.496-.072.762 0 .508-.109 1.04-.146 1.561v.278c0 .193 0 .387-.06.581v.181l-.278 8.468v27.825l-7.262 4.222-6.862 3.956-6.644 3.835c-4.611 2.674-7.83 4.029-9.791 4.174-.153.012-.306.012-.46 0a2.42 2.42 0 0 1-1.077-.266c-1.028-.593-1.331-2.25-1.331-5.856.051-3.843.608-7.662 1.658-11.359l.884-3.847.29-1.464c.085-.496.182-.98.278-1.476a77.44 77.44 0 0 0 .351-2.529v-.181c.036-.2.061-.402.073-.605a53.82 53.82 0 0 0 .278-3.69v-.399-.302c0-.484.073-1.017.061-1.561 0-5.674-1.646-10.041-4.66-12.315s-7.007-2.19-11.255.278c-5.143 2.964-9.681 8.88-12.61 15.618a36.19 36.19 0 0 0-1.549 4.089 29.27 29.27 0 0 0-.412 1.391l-.423 1.658c-.039.092-.063.19-.073.29a25.37 25.37 0 0 0-.315 1.609c-.208 1.149-.357 2.308-.447 3.472a7.22 7.22 0 0 0 0 1.04v1.21c0 .714 0 1.464.084 2.045.118 3.875.857 7.706 2.191 11.347a26.43 26.43 0 0 1 1.488 6.049v.242.073.096c-.006.085-.006.17 0 .254.061.896.109 1.779.109 2.698 0 5.964 0 9.255-12.671 16.574l-20.997 12.062z" fill="#c3e0ad"/><path d="M248.768 106.087l25.669 14.82a4.84 4.84 0 0 0-4.974.399c-.218.121-.496.315-.775.508l-.084.085h-.061c-2.657 1.78-5.055 3.917-7.128 6.351-3.084 3.581-6.715 6.652-10.759 9.098l-.508.278-.194.097-.145.072c-.388.206-.763.424-1.114.593l-.677.291-.23.084-.134.073-.847.314c-.252.099-.511.18-.774.242h-.097l-.859.206c-.291.073-.557.085-.835.133h-.799-.75c-.242 0-.472-.085-.702-.121-.232-.044-.458-.109-.678-.193-.214-.073-.421-.167-.617-.279h-.109c-.179-.087-.353-.184-.521-.29a3.77 3.77 0 0 1-.46-.387l-.096-.073-.097-.097c-.133-.108-.279-.242-.412-.375-.154-.182-.3-.371-.435-.568l-.073-.109a10.73 10.73 0 0 1-.726-1.21l-.073-.157a5.16 5.16 0 0 1-.278-.569c-.085-.205-.182-.459-.266-.701v-.17-.145c-.073-.218-.158-.411-.23-.653s-.17-.653-.254-.992-.158-.581-.206-.883-.145-.726-.206-1.113l-.157-.944c-.049-.314-.097-.81-.145-1.21l-.109-1.004c-.037-.339-.085-.883-.109-1.355v-.81-.363c0-.424 0-.871-.073-1.331v-.181l-.085-4.84V113.6c.109-.133.242-.254.351-.375a35.07 35.07 0 0 1 7.129-6.351h.06l.097-.073a6.91 6.91 0 0 1 .762-.508c.705-.467 1.524-.732 2.368-.769s1.683.159 2.425.563z" fill="#86c25b"/><path d="M147.411 146.603l-25.753-14.868.218-.436a6.3 6.3 0 0 1 .363-.702l.52-.955.678-1.113a2.71 2.71 0 0 1 .242-.4l.69-1.028.217-.302c.124-.192.261-.374.412-.545.168-.24.35-.47.545-.689l.689-.811.291-.302a1.7 1.7 0 0 1 .206-.218l.387-.387.448-.436c.038-.042.083-.079.133-.109.157-.165.327-.319.508-.459h.061l.326-.242a8.62 8.62 0 0 1 .739-.581c.143-.109.293-.21.447-.302.264-.204.543-.386.835-.545l78.931-45.451 25.754 14.868-34.697 20.022-44.343 25.611-.992.617c-.327.218-.605.435-.884.677-.163.108-.317.229-.46.363a12.82 12.82 0 0 0-.859.774l-1.004 1.005a24.67 24.67 0 0 0-2.021 2.516l-.714 1.04c-.709 1.088-1.347 2.219-1.913 3.388z" fill="#a1cf80"/></g><defs><clipPath id="A"><path fill="#fff" transform="translate(23 23)" d="M0 0h426v421H0z"/></clipPath><path id="B" d="M148.283 390.154l-23.987-13.84c-2.493-1.476-3.885-5.178-3.885-9.945l-.097-105.165 24.205 13.949-.097 105.504c-.036 4.645 1.464 7.96 3.861 9.497z"/><path id="C" d="M236.811 275.261l-25.766-14.868.569-.786.06-.073.279-.399 1.21-1.851.109-.193 1.089-2.154.23-.556v-.121l.605-1.537.278-.786v-.157l.412-1.319.303-1.089.302-1.209c.109-.4.169-.799.242-1.21l.218-1.137v-.182l.194-1.137.096-.665v-.242l.557-6.17v-.242l.133-5.94V202.99l25.669 15.025v28.26l-.133 5.952v.23l-.532 6.158v.254c0 .23-.061.448-.097.678l-.182 1.125v.169l-.206 1.149-.266 1.21-.278 1.21-.303 1.089-.423 1.306v.182l-.279.786-.605 1.536-.06.109-.218.557-1.089 2.165-.109.194-1.15 1.851a2.84 2.84 0 0 1-.29.375v.084l-.569.617z"/><path id="D" d="M243.685 206.885l-25.657-15.013V164.12a72.03 72.03 0 0 1 .775-12.17c.895-4.948 2.251-6.448 6.148-8.698a15.61 15.61 0 0 1 7.818-2.311c.907-.073 1.767-.157 2.638-.29l.69-.121 1.21-.254c.496-.146 1.029-.291 1.585-.484.231-.067.457-.148.678-.242.887-.324 1.752-.704 2.59-1.138l.109-.06c.523-.211 1.028-.462 1.513-.75 4.768-2.746 9.246-8.154 12.271-14.808.206-.435.376-.871.557-1.294l-.641.641c.823-.81 1.621-1.682 2.42-2.577 2.774-3.193 5.956-6.008 9.464-8.371a12.6 12.6 0 0 1 1.561-1.004c8.774-5.081 15.927.326 15.927 12.013-.101 5.403-1.338 10.724-3.631 15.618-3.037 6.666-7.515 12.097-12.284 14.819a12.5 12.5 0 0 1-1.512.738c-.036.011-.074.011-.109 0-.839.454-1.704.858-2.59 1.21l-.678.242a16.13 16.13 0 0 1-1.585.46c-.424.109-.811.193-1.211.266l-.701.121c-.86.121-1.731.23-2.639.29-2.762.057-5.458.856-7.806 2.311-3.897 2.238-5.264 3.738-6.148 8.686a72.02 72.02 0 0 0-.798 12.195v18.267l.036 9.46z"/><path id="E" d="M246.045 127.633l-25.778-14.904c-1.513-.919-2.203-4.742-2.203-14.348l-.109-27.583 25.754 14.868v27.728c0 9.679.811 13.368 2.348 14.227l-.012.012z"/></defs></svg>