<svg xmlns="http://www.w3.org/2000/svg" xmlns:xlink="http://www.w3.org/1999/xlink" width="480" height="480" fill="none" xmlns:v="https://vecta.io/nano"><style><![CDATA[.B{fill:#79bb49}.C{fill:#fff}.D{fill:#000}.E{opacity:.3}.F{fill:#e0e0e0}.G{fill:#fafafa}.H{fill:#f5f5f5}.I{fill:#455a64}.J{fill:#37474f}.K{opacity:.55}.L{opacity:.09}.M{fill:#263238}]]></style><path d="M239.343 460.719c115.617 0 209.343-52.497 209.343-117.256S354.96 226.207 239.343 226.207 30 278.704 30 343.463s93.726 117.256 209.343 117.256z" class="H"/><path d="M116.214 216.651c.553-1.303 1.971-2.248 4.115-2.508a14.94 14.94 0 0 1 6.907 1.177c2.178.934 4.103 2.373 5.619 4.199 1.3 1.726 1.613 3.41 1.083 4.713l-35.675 93.526c-.682 1.976-2.696 3.399-5.847 3.79-5.998.727-13.804-2.607-17.431-7.45-1.906-2.541-2.263-4.996-1.332-6.853l42.56-90.594z" class="I"/><path d="M132.855 219.518c2.599 3.465 1.224 6.701-3.064 7.222-2.35.156-4.704-.246-6.871-1.172s-4.085-2.352-5.601-4.16c-2.599-3.464-1.224-6.701 3.064-7.222 2.35-.157 4.705.244 6.872 1.17s4.086 2.353 5.6 4.162z" class="J"/><use xlink:href="#B" class="B"/><g class="D"><use xlink:href="#B" opacity=".2"/><path opacity=".2" d="M125.926 203.543l.801.467.119.076.152.087.173.087c.508.303 1.032.578 1.57.825a20.18 20.18 0 0 0 1.992.88c.598.26 1.208.488 1.83.684.315.114.637.208.963.283.352.133.714.239 1.083.314l1.083.272a5.2 5.2 0 0 0 .79.163h.271l5.164-12.163a2.88 2.88 0 0 0 .069-1.51c-.113-.501-.357-.962-.707-1.336-.315-.406-.678-.77-1.083-1.086-3.224.991-6.56 1.564-9.928 1.705l-4.342 10.252z"/><path opacity=".15" d="M125.536 226.425l-37.558 94.96c1.463.246 2.953.293 4.428.141 3.151-.391 5.164-1.814 5.847-3.79l35.598-93.483c-.552 1.314-1.97 2.238-4.114 2.498a12.41 12.41 0 0 1-4.201-.326z"/></g><path d="M242.878 77.058c0-.782-.065-1.553-.13-2.324l-.162-2.259c0-.51-.098-1.01-.163-1.509l-.53-3.823-.304-1.694-.335-1.575-1.083-4.148-.617-1.879a1.5 1.5 0 0 1-.087-.293l-.682-1.781-.833-1.987-.672-1.401a7.05 7.05 0 0 0-.498-.999l-.638-1.206c-.045-.09-.095-.178-.152-.261l-.606-1.086c-.206-.391-.293-.445-.423-.662-.983-1.537-2.091-2.989-3.313-4.344l-.606-.695-.52-.543-.671-.673c-.624-.641-1.289-1.239-1.992-1.792l-1.018-.804-1.082-.771c-.563-.402-1.137-.782-1.711-1.086l-.455-.282-.097-.076-10.719-6.331-.151-.087c-5.215-2.921-11.102-4.419-17.074-4.344-8.9 0-18.947 2.921-29.601 9.079-36.573 21.166-66.228 72.632-66.228 114.986 0 21.122 7.373 35.989 19.272 42.951h.119l10.74 6.309.119.076.152.087c.065 0 .119.065.173.087.508.303 1.032.579 1.57.826a22.05 22.05 0 0 0 2.003.879c.591.263 1.199.488 1.819.673.313.123.635.221.963.294.352.134.714.239 1.083.315a12.33 12.33 0 0 0 1.083.271c.26.07.524.124.79.163.466.098.953.196 1.44.25a.88.88 0 0 0 .336.065c.563.087 1.147.174 1.71.228 9.864 1.086 21.329-1.748 33.564-8.851 36.584-21.177 66.239-72.707 66.239-115.05.032-.912.01-1.911-.022-2.921zm-120.676 99.911a65.2 65.2 0 0 1-2.231-17.376c0-40.182 29.233-91.017 63.933-111.086 5.067-3.007 10.535-5.275 16.24-6.733 2.73-.691 5.532-1.055 8.348-1.086a26.07 26.07 0 0 1 4.233.326h.119c7.092 8.417 8.131 21.905 8.131 29.105 0 40.182-29.232 91.017-63.878 111.076-8.814 5.104-17.323 7.808-24.567 7.808-1.509.009-3.013-.184-4.471-.576a31.73 31.73 0 0 1-5.857-11.414v-.043z" class="J"/><path opacity=".25" d="M233.404 77.242c0 21.318-8.26 45.666-21.199 66.822a104.47 104.47 0 0 1-1.873 2.986l-1.656 2.541c-1.224 1.814-2.447 3.595-3.735 5.343a91.62 91.62 0 0 1-1.852 2.476l-2.068 2.672a129.61 129.61 0 0 1-4.114 4.92c-.92 1.086-1.862 2.117-2.804 3.127-7.168 7.91-15.465 14.709-24.62 20.178-1.657.967-3.249 1.835-4.916 2.628a49.11 49.11 0 0 1-16.857 5.083 27.53 27.53 0 0 1-2.783.141h-1.407c-.882-.034-1.761-.125-2.631-.272-.422-.065-.845-.13-1.245-.228s-.812-.174-1.213-.293c-4.103-1.049-7.75-3.417-10.383-6.744a16.75 16.75 0 0 0 4.461.565c7.275 0 15.753-2.683 24.577-7.787 34.646-20.058 63.878-70.948 63.878-111.086 0-7.211-1.082-20.634-8.141-29.105h-.109c9.041 1.455 14.173 7.602 17.074 14.737.819 2.019 1.478 4.1 1.971 6.223 0 .12.054.228.076.347.097.38.194.771.259 1.162s.152.749.217 1.086a2.05 2.05 0 0 1 0 .293l.216 1.195c.228 1.488.412 2.932.531 4.344 0 .413.076.793.097 1.173s0 .586.065.869v.358c0 .315 0 .619.054.923.006.083.006.167 0 .25v1.086c.13.652.13 1.303.13 1.987z" class="D"/><path d="M128.936 199.275l-9.939-5.864c-11.91-6.983-19.272-21.839-19.272-42.929 0-18.886 5.901-39.596 15.666-58.644l11.325 6.516c-9.744 19.005-16.24 39.487-16.24 58.383-.022 20.699 6.994 35.36 18.46 42.538z" class="M"/><path d="M223.639 37.147l-.098-.076-10.719-6.32-.151-.098c-5.214-2.923-11.102-4.421-17.074-4.344-8.9 0-18.947 2.921-29.601 9.079-20.268 11.74-38.403 32.808-50.54 56.472l11.271 6.646-.249.467c12.18-23.392 30.229-44.526 50.28-57.243 18.146-11.468 35.372-11.631 47.4-4.344l-.519-.239z" class="I"/><path opacity=".1" d="M227.645 73.832c0 40.182-29.233 91.017-63.933 111.086-5.065 3.012-10.534 5.28-16.24 6.733a35.58 35.58 0 0 1-8.348 1.086 23.75 23.75 0 0 1-8.477-1.455c-4.331-3.627-6.908-8.862-8.467-14.248a65.17 65.17 0 0 1-2.23-17.376c0-40.182 29.232-91.017 63.932-111.086a61.83 61.83 0 0 1 16.241-6.733 35.62 35.62 0 0 1 8.347-1.086c2.89-.037 5.762.452 8.478 1.444 4.33 3.616 6.907 8.873 8.466 14.248 1.523 5.668 2.273 11.517 2.231 17.387z" class="B"/><path d="M139.146 192.759c2.815-.03 5.617-.395 8.347-1.086 5.707-1.453 11.176-3.721 16.241-6.733 34.646-20.069 63.932-70.948 63.932-111.086.042-5.866-.709-11.711-2.23-17.376-1.559-5.365-4.147-10.61-8.434-14.227l-.412-.141a18.23 18.23 0 0 0-1.158-.38l-.682-.185c-.39-.109-.801-.185-1.202-.271l-.715-.141h-.075.075c7.103 8.417 8.142 21.894 8.142 29.105 0 40.182-29.232 91.029-63.878 111.087-8.824 5.104-17.323 7.787-24.577 7.787a16.83 16.83 0 0 1-4.461-.565l.065.087c.792.953 1.665 1.836 2.609 2.639 2.692 1 5.542 1.504 8.413 1.487z" class="C E"/><path d="M306.778 92.989l-48.926 28.334c-2.621 1.509-4.743-.098-4.743-3.606V75.146c0-3.508 2.166-7.602 4.743-9.101l48.926-28.323c2.62-1.52 4.742.087 4.742 3.595v42.582c-.021 3.519-2.122 7.569-4.742 9.09z" class="G"/><path d="M255.968 122.409c-.517.004-1.026-.131-1.473-.391-1.212-.695-1.905-2.259-1.905-4.344V75.146c0-3.671 2.252-7.949 5.002-9.546l48.926-28.334c.524-.367 1.137-.584 1.774-.628a3.51 3.51 0 0 1 1.843.378c1.212.706 1.905 2.27 1.905 4.344v42.582c0 3.66-2.241 7.95-5.002 9.546l-48.916 28.28a4.32 4.32 0 0 1-2.154.641zm52.694-84.708c-.576.019-1.136.191-1.624.499l-48.916 28.301c-2.479 1.434-4.493 5.311-4.493 8.688v42.572c0 1.65.509 2.888 1.386 3.399a2.54 2.54 0 0 0 2.577-.25l48.926-28.334c2.469-1.434 4.483-5.3 4.483-8.634V41.317c0-1.651-.509-2.889-1.386-3.399a1.88 1.88 0 0 0-.953-.239v.022z" class="F"/><path d="M296.049 61.083l-9.983 36.012 19.965-11.566-9.982-24.446z" class="B"/><path d="M296.049 61.083l-9.983 36.012 19.965-11.566-9.982-24.446z" class="C E"/><g class="B"><path d="M282.32 58.606l-9.993 46.438 19.976-11.566-9.983-34.871z"/><path d="M268.7 82.628l-9.982 30.3 19.965-11.555-9.983-18.745z"/></g><path d="M268.7 82.628l-9.982 30.3 19.965-11.555-9.983-18.745z" class="D E"/><use xlink:href="#C" class="B"/><use xlink:href="#C" class="D E"/><g class="B"><path d="M260.612 77.861l-1.569.912c-.184.109-.325 0-.325-.25v-2.563a.79.79 0 0 1 .088-.353.78.78 0 0 1 .237-.276l1.569-.945c.185-.098.325 0 .325.25v2.574c.004.127-.024.253-.081.367a.76.76 0 0 1-.244.285z"/><use xlink:href="#D"/></g><use xlink:href="#D" class="C E"/><path d="M175.546 235.949c.092-.043.173-.108.235-.189a.65.65 0 0 0 .122-.278 25.44 25.44 0 0 0 .52-2.682 21.97 21.97 0 0 0 .227-2.574c0-.217-.108-.336-.26-.282l-1.775.543c-.017-1.201-.207-2.394-.563-3.54l1.515-2.172c.064-.084.108-.182.129-.285a.69.69 0 0 0-.01-.313 7.74 7.74 0 0 0-2.035-2.932c-.108-.087-.282 0-.411.185l-1.505 2.172a4.52 4.52 0 0 0-2.447-.782l.368-2.585c0-.228-.054-.38-.195-.38-.603.047-1.199.164-1.776.348a10.58 10.58 0 0 0-1.84.76c-.086.062-.158.142-.212.233a.77.77 0 0 0-.102.299l-.368 2.585c-1.062.676-2.03 1.491-2.88 2.421l-.996-1.444c-.087-.12-.26-.087-.401.076-1.172 1.392-2.202 2.898-3.075 4.496-.046.089-.071.187-.071.288a.63.63 0 0 0 .071.288l.996 1.433a24.83 24.83 0 0 0-1.635 4.214l-1.775.543a.66.66 0 0 0-.238.19c-.064.081-.109.176-.13.277l-.52 2.682a24.57 24.57 0 0 0-.217 2.585c0 .206.109.326.26.282l1.776-.543a12.25 12.25 0 0 0 .563 3.519l-1.516 2.172c-.063.084-.106.181-.127.285a.7.7 0 0 0 .008.312c.437 1.126 1.134 2.131 2.036 2.932.108.087.281 0 .411-.174l1.505-2.172a4.6 4.6 0 0 0 2.436.782l-.357 2.585c0 .217.054.38.195.369a7.84 7.84 0 0 0 1.775-.336 10.79 10.79 0 0 0 1.841-.771c.087-.061.161-.14.215-.232s.088-.194.099-.301l.368-2.584c1.061-.673 2.03-1.484 2.88-2.411l.996 1.433c.086.131.26.098.4-.065 1.172-1.393 2.199-2.904 3.064-4.507a.59.59 0 0 0 .074-.287.59.59 0 0 0-.074-.288l-.996-1.434c.671-1.348 1.218-2.755 1.635-4.203l1.787-.543zm-9.127 6.603c-4.634 3.617-7.817-.966-5.349-7.721a11.51 11.51 0 0 1 3.432-5.039c4.634-3.627 7.817.966 5.349 7.721-.672 1.959-1.857 3.7-3.432 5.039zm22.649-6.049c.035-.041.061-.09.076-.142s.018-.108.011-.162a11.63 11.63 0 0 0-.217-1.542c-.1-.461-.241-.911-.422-1.346 0-.076-.119-.076-.195 0l-1.201 1.086c-.27-.556-.676-1.035-1.181-1.391l.628-1.791v-.272c-.664-.352-1.417-.503-2.165-.434-.076 0-.162.097-.206.217l-.628 1.792c-.686.123-1.341.382-1.927.76l-.314-1.423c-.003-.018-.011-.035-.023-.049a.11.11 0 0 0-.045-.032c-.017-.006-.036-.009-.055-.006s-.035.011-.05.022a12.71 12.71 0 0 0-1.245 1.01c-.422.396-.819.817-1.191 1.26a.39.39 0 0 0-.084.147c-.016.054-.021.111-.014.168l.314 1.422a15.08 15.08 0 0 0-1.548 2.466l-1.082-.207c-.065 0-.163 0-.206.163a19.01 19.01 0 0 0-1.278 3.649c0 .12 0 .217.076.228l1.083.217c-.189.9-.28 1.818-.271 2.737l-1.191 1.086c-.044.039-.078.088-.101.143a.39.39 0 0 0-.029.172c.032.519.104 1.035.217 1.542.1.461.241.912.422 1.347 0 .076.119.076.195 0l1.202-1.086c.263.56.671 1.04 1.18 1.39l-.628 1.803v.26c.665.352 1.417.503 2.165.435.076 0 .163-.098.206-.217l.617-1.782c.689-.132 1.346-.393 1.938-.771l.314 1.423c-.001.021.005.041.016.058a.1.1 0 0 0 .047.037c.019.008.04.009.06.003a.1.1 0 0 0 .05-.033c.439-.306.855-.644 1.245-1.01.422-.392.819-.809 1.191-1.249a.47.47 0 0 0 .098-.325l-.314-1.412a15.65 15.65 0 0 0 1.548-2.476l1.083.217c.065 0 .162-.065.205-.174.543-1.172.971-2.394 1.278-3.649 0-.119 0-.217-.076-.228l-1.083-.217c.19-.9.28-1.817.271-2.737l1.234-1.097zm-5.413 7.689c-2.479 3.454-5.543 2.759-5.338-1.281.115-1.601.67-3.138 1.603-4.442 2.49-3.443 5.543-2.748 5.348 1.292a8.54 8.54 0 0 1-1.613 4.431zm8.9-31.798c.044-.039.078-.088.101-.142a.41.41 0 0 0 .029-.173 10.15 10.15 0 0 0-.217-1.542 7.85 7.85 0 0 0-.422-1.347c0-.076-.119-.076-.195 0l-1.202 1.086a3.77 3.77 0 0 0-1.169-1.401l.617-1.781v-.271a3.87 3.87 0 0 0-2.165-.434c-.076 0-.163.097-.206.217l-.617 1.781c-.689.132-1.346.394-1.938.771l-.314-1.423c-.004-.018-.012-.035-.024-.049s-.027-.026-.045-.032a.1.1 0 0 0-.054-.006c-.019.003-.036.011-.05.022-.436.31-.852.647-1.246 1.01a16.53 16.53 0 0 0-1.191 1.249c-.036.045-.063.097-.078.154s-.017.114-.008.172l.314 1.422a14.38 14.38 0 0 0-1.559 2.466l-1.083-.218c-.065 0-.151.066-.206.174a19.73 19.73 0 0 0-1.299 3.638c0 .12 0 .217.076.228l1.083.218c-.19.899-.28 1.817-.271 2.736l-1.191 1.086c-.044.039-.078.088-.101.143a.39.39 0 0 0-.029.172c.032.519.104 1.035.217 1.542.1.461.241.912.422 1.347 0 .076.119.076.195 0l1.202-1.086c.27.555.676 1.033 1.18 1.39l-.628 1.803v.26c.664.352 1.417.503 2.165.435.076 0 .162-.098.206-.217l.628-1.781c.684-.138 1.337-.399 1.927-.772l.314 1.423c.003.018.011.036.023.05a.12.12 0 0 0 .045.032c.018.006.036.008.055.005s.036-.01.05-.022a10.23 10.23 0 0 0 1.245-1.01c.422-.392.819-.809 1.191-1.249.039-.044.067-.096.084-.152a.42.42 0 0 0 .014-.173l-.314-1.412a15.65 15.65 0 0 0 1.548-2.476l1.083.217c.065 0 .162-.065.216-.174.539-1.172.963-2.394 1.267-3.649 0-.119 0-.217-.076-.228l-1.083-.217c.19-.9.28-1.817.271-2.737l1.213-1.075zm-5.414 7.689c-2.49 3.453-5.543 2.758-5.348-1.281a8.61 8.61 0 0 1 1.613-4.442c2.479-3.443 5.543-2.759 5.338 1.292a8.71 8.71 0 0 1-1.592 4.431h-.011z" fill="#e6e6e6"/><g class="F"><path d="M70.395 90.513c-.184.098-.336 0-.336-.326V48.214a.89.89 0 0 1 .336-.717c.184-.109.336 0 .336.326v41.974c.001.137-.028.273-.086.397a.91.91 0 0 1-.249.32z"/><path d="M114.017 65.253L66.378 92.826c-.184.109-.325 0-.325-.326a.88.88 0 0 1 .325-.706l47.639-27.573c.184-.109.324 0 .324.315.005.136-.022.272-.079.396a.89.89 0 0 1-.245.32z"/></g><path d="M78.613 51.287l-5.847 3.388v29.474l5.847-3.388V51.287z" class="H"/><path d="M86.917 66.925l-5.846 3.388v9.025l5.846-3.388v-9.025z" fill="#ebebeb"/><path d="M95.221 34.66l-5.847 3.388v36.479l5.847-3.388V34.66z" class="H"/><path d="M103.525 44.423l-5.846 3.388v21.905l5.846-3.388V44.423z" class="F"/><path d="M111.83 48.105l-5.847 3.388v13.412l5.847-3.377V48.105z" class="H"/><path d="M241.579 152.176v13.336l-8.034 12.934c-2.847-3.671-2.014-12.826 2.436-20.058a17.7 17.7 0 0 1 5.598-6.212z" class="F"/><path d="M252.557 163.937c-1.602 8.102-7.178 15.638-12.667 16.985-.939.289-1.939.317-2.893.08a5.41 5.41 0 0 1-2.521-1.427l8.131-13.184 9.95-2.454z" fill="#f0f0f0"/><path d="M252.763 162.536l-9.571 2.346 5.413-14.173c3.346 1.293 5.002 5.832 4.158 11.827z" class="F"/><path d="M247.555 150.601l-4.85 12.836v-11.945a6.81 6.81 0 0 1 4.85-.891z" fill="#f0f0f0"/><path d="M312.148 418.016c-10.448 0-20.885-2.302-28.832-6.907s-12.104-10.556-12.104-17.007 4.331-12.478 12.104-16.995c15.894-9.21 41.76-9.21 57.664 0 7.796 4.517 12.094 10.555 12.094 16.995s-4.331 12.489-12.094 17.007c-7.957 4.605-18.395 6.907-28.832 6.907zm0-46.774c-10.253 0-20.506 2.259-28.312 6.777-7.46 4.344-11.574 10.034-11.574 16.083s4.114 11.773 11.574 16.095c15.612 9.035 41.001 9.035 56.614 0 7.459-4.344 11.574-10.035 11.574-16.095s-4.115-11.761-11.574-16.083c-7.796-4.518-18.059-6.777-28.302-6.777z" class="B"/><path d="M313.22 385.556v6.82l-6.713-18.256v-6.809l6.713 18.245z" class="M"/><path d="M313.231 385.556v6.82l27.695-9.643v-6.81l-27.695 9.633z" class="J"/><path d="M306.507 367.257l6.724 18.299 27.695-9.633c-7.6-6.657-20.766-9.98-34.419-8.666z" class="I"/><g class="B"><path d="M277.578 386.827c-.005.068-.005.137 0 .206v-.206z"/><use xlink:href="#E"/></g><use xlink:href="#E" opacity=".4" class="D"/><use xlink:href="#F" class="B"/><use xlink:href="#F" opacity=".6" class="C"/><path d="M288.838 379.029l20.636 11.946v-6.809l-20.636-11.946v6.809z" class="B"/><path opacity=".1" d="M288.838 379.029l20.636 11.946v-6.809l-20.636-11.946v6.809z" class="D"/><use xlink:href="#G" class="B"/><use xlink:href="#G" class="D E"/><use xlink:href="#H" class="B"/><use xlink:href="#H" opacity=".75" class="C"/><path d="M288.838 372.22l20.636 11.946-6.074-16.562a42.22 42.22 0 0 0-14.562 4.616zm21.632 21.937v-6.809l-4.114 19.406v6.81l4.114-19.407z" class="B"/><path d="M310.47 394.157v-6.809l-4.114 19.406v6.81l4.114-19.407z" class="D K"/><path d="M336.79 357.027l-4.493 2.606 4.493 2.607 4.493-2.607-4.493-2.606z" class="B"/><path d="M336.79 357.027l-4.493 2.606 4.493 2.607 4.493-2.607-4.493-2.606z" class="D E"/><path d="M341.283 359.633v2.607l-4.493 2.606v-2.606l4.493-2.607z" class="B"/><path opacity=".4" d="M341.283 359.633v2.607l-4.493 2.606v-2.606l4.493-2.607z" class="D"/><path d="M336.79 362.24v2.606l-4.493-2.606v-2.607l4.493 2.607z" class="B"/><path d="M336.79 362.24v2.606l-4.493-2.606v-2.607l4.493 2.607z" class="D K"/><path d="M343.654 355.007l16.652-9.644a3.88 3.88 0 0 1 1.736-.448c.605-.011 1.205.12 1.75.383.932.543.888 1.444-.108 2.02l-16.652 9.644a3.85 3.85 0 0 1-1.735.452c-.606.011-1.206-.122-1.751-.387-.942-.532-.888-1.445.108-2.02z" class="F"/><path d="M346.913 362.902l-4.493 2.595 4.493 2.607 4.504-2.607-4.504-2.595z" class="B"/><path opacity=".88" d="M346.913 362.902l-4.493 2.595 4.493 2.607 4.504-2.607-4.504-2.595z" class="C"/><path d="M351.417 365.498v2.606l-4.504 2.606v-2.606l4.504-2.606z" class="B"/><path opacity=".75" d="M351.417 365.498v2.606l-4.504 2.606v-2.606l4.504-2.606z" class="C"/><path d="M346.913 368.104v2.606l-4.493-2.606v-2.606l4.493 2.606z" class="B"/><path opacity=".6" d="M346.913 368.104v2.606l-4.493-2.606v-2.606l4.493 2.606z" class="C"/><path d="M353.778 360.882l16.651-9.654c.538-.284 1.134-.437 1.741-.449a3.89 3.89 0 0 1 1.756.383c.932.543.877 1.445-.119 2.02l-16.651 9.655a3.83 3.83 0 0 1-1.737.446c-.606.01-1.205-.125-1.75-.392-.931-.532-.888-1.444.109-2.009z" class="F"/><path d="M357.047 368.755l-4.493 2.607 4.493 2.606 4.493-2.606-4.493-2.607z" class="B"/><path d="M357.047 368.755l-4.493 2.607 4.493 2.606 4.493-2.606-4.493-2.607z" class="C E"/><g class="B"><path d="M361.541 371.362v2.606l-4.494 2.607v-2.607l4.494-2.606z"/><path d="M357.047 373.968v2.607l-4.493-2.607v-2.606l4.493 2.606z"/></g><path opacity=".1" d="M357.047 373.968v2.607l-4.493-2.607v-2.606l4.493 2.606z" class="D"/><path d="M363.912 366.746l16.651-9.654c.536-.283 1.13-.437 1.736-.448a3.86 3.86 0 0 1 1.751.383c.931.543.877 1.444-.109 2.02l-16.662 9.643c-.536.284-1.131.437-1.737.447s-1.205-.125-1.749-.393c-.932-.521-.877-1.422.119-1.998z" class="F"/><path d="M367.17 374.62l-4.493 2.606 4.493 2.606 4.494-2.606-4.494-2.606z" class="I"/><path d="M371.664 377.226v2.606l-4.493 2.607v-2.607l4.493-2.606z" class="J"/><path d="M367.171 379.832v2.607l-4.494-2.607v-2.606l4.494 2.606z" class="M"/><path d="M374.035 372.611l16.652-9.655c.535-.284 1.13-.437 1.736-.446s1.205.125 1.75.392c.931.532.888 1.433-.109 2.009l-16.651 9.654c-.536.284-1.13.437-1.736.448a3.85 3.85 0 0 1-1.75-.382c-.932-.511-.888-1.445.108-2.02z" class="F"/><g class="B"><path d="M293.753 344.701c-.087 0-.173-.022-.249-.066l-32.069-18.57a.53.53 0 0 1-.18-.185c-.043-.076-.067-.162-.069-.25a.49.49 0 0 1 .068-.245c.043-.074.106-.136.181-.178l40.06-23.219c.074-.043.158-.065.243-.065s.17.022.244.065l32.08 18.571a.48.48 0 0 1 .238.434c.002.086-.019.17-.061.245s-.103.136-.177.179l-40.06 23.218a.49.49 0 0 1-.249.066zm-31.084-19.071l31.084 18.006 39.107-22.643-31.106-18.006-39.085 22.643z" class="L"/><path d="M293.753 339.564V195.745l-24.057-13.933V325.63l24.057 13.934z"/></g><path opacity=".2" d="M293.753 339.564V195.745l-24.057-13.933V325.63l24.057 13.934z" class="D"/><g class="B"><path d="M293.753 339.564l32.07-18.571.01-143.818-32.08 18.57v143.819z"/><path d="M325.833 177.175l-24.057-13.933-32.08 18.57 24.057 13.934 32.08-18.571z"/></g><g class="C"><path opacity=".25" d="M325.833 177.175l-24.057-13.933-32.08 18.57 24.057 13.934 32.08-18.571z"/><path d="M325.833 177.175l-32.404 17.919-10.524-5.897-13.209-7.385 12.992 7.797 10.643 6.364c-.26 3.628-.325 128.875-.281 132.492a97.82 97.82 0 0 0 .714 11.099 97.82 97.82 0 0 0 .704-11.099l-.26-132.144 31.625-19.146z" class="E"/></g><g class="B"><path d="M233.61 379.55a.53.53 0 0 1-.249-.065l-32.069-18.571c-.075-.045-.136-.109-.18-.185a.53.53 0 0 1-.069-.249c0-.087.024-.171.068-.246a.49.49 0 0 1 .181-.178l40.059-23.218c.076-.043.162-.066.249-.066s.173.023.249.066l32.07 18.57c.076.042.141.104.185.18s.068.161.068.249a.49.49 0 0 1-.253.429l-40.06 23.219c-.076.043-.162.065-.249.065zm-31.084-19.07l31.084 17.984 39.107-22.643-31.084-18.006-39.107 22.665z" class="L"/><path d="M233.61 374.392v-102.16l-24.057-13.933v102.159l24.057 13.934z"/></g><path opacity=".1" d="M233.61 374.392v-102.16l-24.057-13.933v102.159l24.057 13.934z" class="C"/><path d="M233.61 374.392l32.08-18.582V253.662l-32.08 18.57v102.16z" class="B"/><path d="M233.61 374.392l32.08-18.582V253.662l-32.08 18.57v102.16z" class="C E"/><use xlink:href="#I" class="B"/><g class="C"><use xlink:href="#I" class="K"/><path d="M234.032 272.819l31.658-19.157-32.405 17.919-10.513-5.897-13.219-7.385 12.992 7.786 10.654 6.375c-.109 3.758-.228 31.168-.26 34.926v44.004l.206 11.501.498 11.501c.249-3.834.4-7.667.498-11.501l.205-11.501v-44.004l-.314-34.567z" class="E"/></g><g class="B"><path d="M173.478 414.356c-.088.001-.173-.022-.249-.065l-32.08-18.57c-.074-.047-.134-.111-.176-.187a.52.52 0 0 1-.063-.248c-.001-.085.02-.17.062-.244a.47.47 0 0 1 .177-.179l40.059-23.219c.074-.043.158-.065.244-.065s.169.022.243.065l32.08 18.571c.075.044.137.108.178.184a.5.5 0 0 1 .061.25.48.48 0 0 1-.239.424l-40.059 23.218c-.072.043-.154.065-.238.065zm-31.095-19.07l31.095 18.006 39.106-22.643-31.094-18.006-39.107 22.643z" class="L"/><path d="M173.478 409.219l-.011-69.655-24.057-13.934.01 69.656 24.058 13.933z"/></g><path opacity=".45" d="M173.478 409.219l-.011-69.655-24.057-13.934.01 69.656 24.058 13.933z" class="D"/><path d="M173.478 409.219l32.069-18.581.011-69.645-32.091 18.571.011 69.655z" class="B"/><path d="M173.478 409.219l32.069-18.581.011-69.645-32.091 18.571.011 69.655z" class="D E"/><path d="M205.558 320.993L181.5 307.06l-32.09 18.571 24.057 13.933 32.091-18.571z" class="B"/><path opacity=".15" d="M205.558 320.993L181.5 307.06l-32.09 18.571 24.057 13.933 32.091-18.571z" class="D"/><path d="M205.558 320.993l-32.405 17.908-10.524-5.886-13.219-7.385 12.992 7.787 10.643 6.375c-.249 2.172-.314 60.381-.271 62.586a36.64 36.64 0 0 0 .715 6.841c.442-2.254.678-4.544.703-6.841l-.238-62.25 31.604-19.135z" class="C E"/><g class="B"><path d="M353.886 309.873c-.084-.002-.166-.024-.238-.065l-32.08-18.571a.51.51 0 0 1-.182-.184c-.043-.077-.067-.163-.067-.25s.023-.171.067-.246.106-.136.182-.178l40.059-23.218c.076-.043.162-.066.249-.066s.173.023.249.066l32.069 18.57c.077.042.141.104.186.18s.068.161.068.249-.023.174-.068.249-.109.138-.186.18l-40.059 23.219c-.076.043-.162.065-.249.065zm-31.084-19.07l31.084 18.005 39.107-22.653-31.084-18.006-39.107 22.654z" class="L"/><path d="M353.886 304.736V95.475l-24.057-13.933.01 209.26 24.047 13.934z"/></g><path d="M353.886 304.736V95.475l-24.057-13.933.01 209.26 24.047 13.934z" class="C E"/><path d="M353.886 304.736l32.08-18.571V76.905l-32.08 18.571v209.261z" class="B"/><path d="M353.886 304.736l32.08-18.571V76.905l-32.08 18.571v209.261z" class="C K"/><use xlink:href="#I" x="120.276" y="-176.757" class="B"/><g class="C"><use xlink:href="#I" x="120.276" y="-176.757" opacity=".75"/><path d="M354.308 96.105l31.658-19.168-32.405 17.919-10.513-5.897-13.219-7.385 12.992 7.797 10.664 6.364-.27 12.771V278.77c0 4.333.086 8.688.216 13.032l.498 13.032c.238-4.344.39-8.688.487-13.032l.217-13.032V108.507l-.325-12.402z" class="E"/></g><path d="M299.178 120.476l-26.948 15.605a5.68 5.68 0 0 0-1.813 1.919 5.7 5.7 0 0 0-.753 2.534v21.926c0 1.64 1.147 2.302 2.566 1.488l9.928-5.767 2.663 4.616c.116.208.29.377.501.488s.449.157.685.134a1.22 1.22 0 0 0 .647-.264c.186-.149.324-.349.398-.575l3.129-9.036 8.997-5.202c.748-.487 1.371-1.143 1.819-1.917a5.71 5.71 0 0 0 .758-2.535v-21.927c0-1.639-1.159-2.302-2.577-1.487z" class="G"/><g class="F"><path d="M271.082 164.882a1.83 1.83 0 0 1-.953-.261c-.362-.227-.654-.55-.845-.933s-.273-.812-.237-1.239v-21.915c.048-.993.331-1.96.826-2.821a6.24 6.24 0 0 1 2.021-2.131l26.991-15.584a2.38 2.38 0 0 1 1.172-.417c.42-.032.842.048 1.221.232a2.37 2.37 0 0 1 1.083 2.172v21.905c-.048.994-.332 1.963-.829 2.824s-1.193 1.591-2.029 2.128l-8.803 5.093-3.053 8.84c-.115.33-.322.621-.596.836a1.82 1.82 0 0 1-.952.381c-.346.028-.692-.041-1-.201s-.566-.402-.743-.701l-2.361-4.116-9.43 5.43a2.96 2.96 0 0 1-1.483.478zm29.233-44.178a1.86 1.86 0 0 0-.856.271l-26.937 15.606a5.15 5.15 0 0 0-1.604 1.708 5.17 5.17 0 0 0-.681 2.245v21.926a1.32 1.32 0 0 0 .085.641c.081.203.212.382.381.521a1.28 1.28 0 0 0 .64.075c.216-.031.42-.116.594-.248l10.437-6.049 2.945 5.115c.062.109.155.198.266.256a.65.65 0 0 0 .362.069.66.66 0 0 0 .563-.445l3.194-9.253 9.181-5.299a5.13 5.13 0 0 0 1.599-1.71 5.15 5.15 0 0 0 .675-2.243v-21.926c.028-.217.001-.437-.078-.64a1.29 1.29 0 0 0-.377-.522c-.118-.068-.253-.102-.389-.098zm-24.632 34.773a.49.49 0 0 1-.25-.066.5.5 0 0 1-.183-.183.52.52 0 0 1-.062-.183.5.5 0 0 1 .013-.193.48.48 0 0 1 .087-.172c.04-.051.09-.094.146-.126l20.041-11.609c.056-.042.121-.072.189-.087s.139-.016.208-.002.134.043.191.084.104.094.14.154a.52.52 0 0 1 .065.199.5.5 0 0 1-.022.207c-.022.067-.057.129-.104.181a.5.5 0 0 1-.169.122l-20.051 11.609a.49.49 0 0 1-.239.065z"/><path d="M275.683 150.829a.49.49 0 0 1-.25-.066c-.076-.044-.139-.107-.183-.184a.51.51 0 0 1-.062-.182.5.5 0 0 1 .013-.193c.017-.063.047-.121.087-.173a.5.5 0 0 1 .146-.125l20.041-11.609a.51.51 0 0 1 .682.184c.063.115.079.249.045.375s-.117.233-.229.299l-20.051 11.609a.5.5 0 0 1-.239.065z"/><path d="M275.683 146.192a.49.49 0 0 1-.25-.066.5.5 0 0 1-.183-.183.52.52 0 0 1-.062-.183.5.5 0 0 1 .013-.193.48.48 0 0 1 .087-.172.49.49 0 0 1 .146-.126l20.041-11.609c.056-.042.121-.072.189-.087s.139-.016.208-.002.134.043.191.084.104.093.14.154a.52.52 0 0 1 .065.199c.007.069 0 .14-.022.207s-.057.129-.104.181a.51.51 0 0 1-.169.122l-20.051 11.609a.49.49 0 0 1-.239.065z"/></g><path d="M275.683 141.544a.51.51 0 0 1-.247-.063c-.076-.042-.14-.102-.186-.176a.51.51 0 0 1-.05-.38.52.52 0 0 1 .087-.176.5.5 0 0 1 .147-.128l20.041-11.609c.115-.064.251-.081.378-.046a.51.51 0 0 1 .304.23c.063.114.079.249.045.375s-.117.233-.229.299l-20.051 11.609a.5.5 0 0 1-.239.065z" class="B"/><path d="M239.067 196.952l-26.948 15.606a5.65 5.65 0 0 0-1.816 1.917 5.69 5.69 0 0 0-.75 2.535v21.916c0 1.639 1.148 2.313 2.566 1.487l9.928-5.755 2.663 4.615a1.24 1.24 0 0 0 .504.477c.21.108.446.153.681.13s.458-.113.643-.259.325-.342.403-.565l3.129-9.046 8.997-5.202c.747-.487 1.369-1.144 1.815-1.918s.703-1.642.751-2.535v-21.926c0-1.64-1.148-2.303-2.566-1.477z" class="G"/><path d="M210.971 241.347a1.92 1.92 0 0 1-.953-.25c-.359-.23-.649-.553-.84-.936s-.274-.809-.242-1.236V217.01c.048-.995.331-1.963.826-2.826s1.188-1.596 2.021-2.137l26.948-15.606c.339-.249.743-.393 1.162-.416a2.16 2.16 0 0 1 1.2.287 2.17 2.17 0 0 1 .849.899c.19.376.267.799.221 1.218v21.926c-.046.994-.33 1.963-.828 2.825s-1.193 1.591-2.03 2.127l-8.802 5.093-3.053 8.84a1.81 1.81 0 0 1-.594.84c-.275.216-.607.347-.955.377-.346.036-.696-.03-1.005-.19a1.79 1.79 0 0 1-.738-.712l-2.36-4.116-9.43 5.43a2.86 2.86 0 0 1-1.397.478zm28.377-43.896l-26.937 15.606c-.66.436-1.21 1.02-1.607 1.706a5.13 5.13 0 0 0-.677 2.247v21.915a1.01 1.01 0 0 0 .022.669c.083.213.236.392.433.507a1 1 0 0 0 .655.125c.226-.034.434-.144.589-.312l10.438-6.049 2.944 5.115c.059.112.151.203.263.262s.24.08.365.063a.62.62 0 0 0 .352-.134c.1-.079.174-.188.211-.311l3.249-9.242 9.181-5.31a5.12 5.12 0 0 0 2.273-3.953v-21.926c.028-.217 0-.437-.079-.64a1.31 1.31 0 0 0-.375-.522c-.206-.08-.429-.105-.647-.073a1.28 1.28 0 0 0-.598.257h-.055z" class="F"/><path d="M215.573 231.942c-.088.001-.174-.022-.25-.066a.49.49 0 0 1-.184-.184.51.51 0 0 1-.062-.182.5.5 0 0 1 .1-.365.48.48 0 0 1 .147-.126l20.04-11.609c.056-.042.121-.072.189-.087s.14-.016.208-.002.134.043.191.084a.49.49 0 0 1 .14.154.52.52 0 0 1 .065.199c.007.069 0 .14-.022.207s-.057.129-.104.181a.51.51 0 0 1-.169.122l-20.051 11.587a.5.5 0 0 1-.238.087z" class="B"/><g class="F"><path d="M215.573 227.305a.51.51 0 0 1-.25-.066.5.5 0 0 1-.184-.184.51.51 0 0 1-.062-.182.5.5 0 0 1 .013-.193c.018-.063.047-.122.087-.173a.49.49 0 0 1 .147-.125l20.04-11.609c.056-.042.121-.072.189-.087s.14-.016.208-.002.134.043.191.084a.49.49 0 0 1 .14.154c.035.061.057.128.065.198s0 .141-.022.208a.51.51 0 0 1-.273.303l-20.051 11.609a.5.5 0 0 1-.238.065z"/><path d="M215.573 222.657c-.088 0-.174-.022-.25-.066a.49.49 0 0 1-.184-.184.51.51 0 0 1-.062-.182.5.5 0 0 1 .013-.193c.018-.063.047-.121.087-.173a.49.49 0 0 1 .147-.125l20.04-11.598a.49.49 0 0 1 .185-.063.47.47 0 0 1 .194.013.48.48 0 0 1 .175.087c.052.04.096.09.128.147.063.114.079.249.045.375a.5.5 0 0 1-.229.299l-20.051 11.609c-.074.038-.156.056-.238.054z"/><path d="M215.573 218.02a.5.5 0 0 1-.25-.067.49.49 0 0 1-.184-.183.51.51 0 0 1-.062-.183c-.008-.064-.004-.13.013-.192s.047-.122.087-.173a.48.48 0 0 1 .147-.125l20.04-11.609c.056-.042.121-.072.189-.087s.14-.016.208-.002.134.042.191.083.105.094.14.155.057.128.065.198 0 .141-.022.208a.5.5 0 0 1-.104.18c-.047.053-.105.094-.169.122l-20.051 11.61a.5.5 0 0 1-.238.065z"/></g><path d="M178.945 264.273l-26.948 15.605c-.747.487-1.369 1.144-1.815 1.918s-.703 1.642-.751 2.535v21.915c0 1.64 1.148 2.314 2.566 1.488l9.928-5.756 2.664 4.616c.121.203.297.368.507.475a1.24 1.24 0 0 0 1.327-.129c.186-.145.327-.341.407-.563l3.118-9.047 8.997-5.202a5.65 5.65 0 0 0 1.816-1.917c.446-.774.703-1.643.75-2.535V265.75c0-1.64-1.147-2.303-2.566-1.477z" class="G"/><path d="M150.85 308.668a1.96 1.96 0 0 1-.953-.25 2.36 2.36 0 0 1-.84-.936 2.37 2.37 0 0 1-.243-1.236v-21.915c.048-.996.332-1.966.829-2.829a6.25 6.25 0 0 1 2.029-2.134l26.938-15.606a2.16 2.16 0 0 1 1.162-.417c.419-.022.836.078 1.2.288a2.16 2.16 0 0 1 .848.899 2.18 2.18 0 0 1 .222 1.217v21.927c-.047.993-.329 1.961-.825 2.822a6.22 6.22 0 0 1-2.023 2.13l-8.813 5.093-3.053 8.84a1.81 1.81 0 0 1-.592.813c-.27.21-.593.339-.933.372a1.8 1.8 0 0 1-.987-.185c-.305-.154-.56-.392-.736-.685l-2.371-4.116-9.43 5.43a2.85 2.85 0 0 1-1.429.478zm28.388-43.896l-26.894 15.606c-.659.436-1.208 1.021-1.602 1.707a5.11 5.11 0 0 0-.672 2.246v21.915c-.028.218-.001.44.078.645s.209.386.377.528c.207.074.428.095.645.063s.423-.117.6-.248l10.426-6.049 2.945 5.115a.66.66 0 0 0 .27.253.65.65 0 0 0 .363.068c.125-.013.244-.061.343-.139s.173-.182.215-.301l3.194-9.242 9.127-5.354a5.12 5.12 0 0 0 1.604-1.708c.397-.685.63-1.454.68-2.245v-21.883c.026-.217-.003-.437-.084-.64a1.3 1.3 0 0 0-.381-.522c-.204-.079-.425-.104-.642-.072a1.24 1.24 0 0 0-.592.257zm-23.787 34.491c-.112.006-.222-.026-.313-.092a.49.49 0 0 1-.185-.268c-.029-.108-.02-.223.025-.326s.124-.186.224-.237l20.051-11.609a.49.49 0 0 1 .546.039.5.5 0 0 1 .186.328c.008.064.004.13-.013.192s-.047.121-.086.172a.48.48 0 0 1-.146.127l-20.04 11.598a.52.52 0 0 1-.249.076zm0-4.637a.51.51 0 0 1-.25-.066c-.076-.044-.139-.107-.183-.184a.5.5 0 0 1-.045-.374c.035-.126.117-.233.229-.299l20.051-11.609a.51.51 0 0 1 .181-.065.49.49 0 0 1 .364.095.51.51 0 0 1 .127.143c.063.116.08.252.045.38a.51.51 0 0 1-.23.305l-20.04 11.609a.53.53 0 0 1-.249.065z" class="F"/><path d="M155.451 289.978c-.112.006-.222-.026-.313-.092a.49.49 0 0 1-.16-.594c.045-.103.124-.186.224-.237l20.051-11.588a.49.49 0 0 1 .182-.061c.065-.008.13-.003.192.014a.49.49 0 0 1 .298.232.49.49 0 0 1 .06.182.5.5 0 0 1-.013.193c-.018.062-.047.121-.086.172a.49.49 0 0 1-.146.126l-20.04 11.588a.54.54 0 0 1-.249.065z" class="B"/><path d="M155.451 285.341a.5.5 0 0 1-.25-.067c-.076-.043-.139-.107-.183-.183a.5.5 0 0 1-.045-.374c.035-.126.117-.233.229-.299l20.051-11.61a.5.5 0 0 1 .672.174c.063.116.08.252.045.38s-.116.236-.23.304l-20.04 11.61a.53.53 0 0 1-.249.065z" class="F"/><path d="M359.343 20.195l-26.948 15.606a5.66 5.66 0 0 0-1.816 1.918c-.446.774-.703 1.642-.75 2.535v21.926c0 1.64 1.147 2.302 2.566 1.477l9.928-5.756 2.663 4.616c.118.207.293.376.505.486a1.23 1.23 0 0 0 1.334-.129 1.23 1.23 0 0 0 .402-.573l3.119-9.046 8.997-5.202c.747-.487 1.369-1.144 1.815-1.918a5.69 5.69 0 0 0 .751-2.535V21.683c0-1.596-1.148-2.313-2.566-1.488z" class="G"/><path d="M331.247 64.612c-.334-.001-.662-.087-.953-.25-.36-.229-.651-.553-.842-.935a2.37 2.37 0 0 1-.241-1.237V40.253c.045-.997.329-1.968.826-2.831a6.21 6.21 0 0 1 2.033-2.132l26.937-15.606c.339-.249.743-.394 1.162-.417a2.16 2.16 0 0 1 1.2.288 2.17 2.17 0 0 1 .849.899c.19.376.267.799.221 1.218v21.926c-.048.995-.331 1.963-.827 2.826s-1.187 1.595-2.02 2.137l-8.813 5.082-3.01 8.797c-.111.331-.315.622-.588.838a1.78 1.78 0 0 1-.95.378 1.76 1.76 0 0 1-1.008-.186c-.31-.16-.566-.409-.735-.716l-2.371-4.105-9.43 5.43c-.423.306-.921.49-1.44.532zm28.388-43.896L332.687 36.3a5.12 5.12 0 0 0-1.6 1.709c-.394.686-.625 1.454-.674 2.244v21.926c-.064.218-.053.451.031.662a1.01 1.01 0 0 0 .434.5c.197.113.425.156.65.123s.43-.142.585-.308l10.426-6.049 2.945 5.115a.62.62 0 0 0 .263.262c.112.058.24.081.365.064a.63.63 0 0 0 .563-.434l3.194-9.253 9.181-5.31c.653-.441 1.196-1.027 1.587-1.713a5.15 5.15 0 0 0 .665-2.24V21.683a1.01 1.01 0 0 0-.022-.668c-.083-.214-.236-.393-.433-.508s-.429-.159-.655-.125a1.01 1.01 0 0 0-.59.313l.033.022z" class="F"/><path d="M344.25 50.494c.001-.657.151-1.305.438-1.896a4.33 4.33 0 0 1 1.218-1.514c.877-.499 1.581.239 1.581 1.531.018.662-.115 1.319-.389 1.921s-.681 1.134-1.192 1.554c-.931.575-1.656-.206-1.656-1.596zm.195-16.789l2.934-1.672-.585 12.576-1.764 1.021-.585-11.924z" class="B"/><defs ><path id="B" d="M133.732 189.502a9.04 9.04 0 0 1 4.18.714 9.05 9.05 0 0 1 3.399 2.544c.351.373.595.834.707 1.335a2.88 2.88 0 0 1-.068 1.51l-11.542 27.15c-.242.452-.601.831-1.039 1.096s-.939.408-1.451.413a9.02 9.02 0 0 1-4.181-.713 9.05 9.05 0 0 1-3.398-2.545c-.35-.376-.594-.839-.706-1.341s-.089-1.025.068-1.515L131.242 191c.246-.448.605-.824 1.043-1.087s.937-.405 1.447-.411z"/><path id="C" d="M260.612 72.909l-1.569.912c-.184.098-.325 0-.325-.25v-2.574a.77.77 0 0 1 .088-.349c.057-.108.138-.2.237-.27l1.569-.912c.185-.109.325 0 .325.25v2.563a.79.79 0 0 1-.088.353.78.78 0 0 1-.237.276z"/><path id="D" d="M260.612 82.813l-1.569.912c-.184.109-.325 0-.325-.239v-2.585a.75.75 0 0 1 .086-.35c.056-.108.138-.2.239-.269l1.569-.912c.185-.109.325 0 .325.239v2.574c.002.124-.026.246-.083.356a.75.75 0 0 1-.242.274z"/><path id="E" d="M310.47 394.157l-4.114 19.407c-16.793-1.64-28.919-10.165-28.778-19.896v-6.646c0 9.654 12.105 18.082 28.789 19.722l2.826-13.336 1.277.749z"/><path id="F" d="M309.507 406.972v6.82a53.53 53.53 0 0 0 20.397-2.748c7.915-2.758 13.502-7.135 15.732-12.315a12.24 12.24 0 0 0 1.083-4.768v-7.037s-1.917-.152-4.158-2.552l-5.186 1.803-23.711 8.21-4.157 12.587z"/><path id="G" d="M277.827 384.567c-2.263 10.654 10.437 20.406 28.529 22.187l4.114-19.406-23.873-13.825c-4.991 3.128-7.86 6.755-8.77 11.044z"/><path id="H" d="M309.626 406.407l-.119.564a53.31 53.31 0 0 0 20.397-2.801c7.915-2.759 13.501-7.125 15.732-12.316 2.111-4.887.996-9.947-3.118-14.356l-5.186 1.802-23.668 8.265-4.038 18.842z"/><path id="I" d="M265.69 253.662l-24.057-13.933-32.08 18.57 24.057 13.933 32.08-18.57z"/></defs></svg>