<svg xmlns="http://www.w3.org/2000/svg" xmlns:xlink="http://www.w3.org/1999/xlink" width="480" height="480" fill="none" xmlns:v="https://vecta.io/nano"><style><![CDATA[.B{fill:#79bb49}.C{fill:#e0e0e0}.D{fill:#fff}.E{fill:#f5f5f5}.F{fill:#000}.G{fill:#ebebeb}]]></style><path d="M92.231 375.221c81.596 42.682 213.898 42.682 295.494 0s81.596-111.887 0-154.579-213.86-42.683-295.494 0-81.558 111.896 0 154.579z" class="E"/><path d="M69.486 305.222l-26.524-15.329v-56.967l26.524 15.339v56.957z" class="C"/><path d="M69.486 248.265l37.897-21.906v56.957l-37.897 21.906v-56.957z" class="G"/><path d="M107.383 226.359l-37.897 21.906-26.524-15.339 37.896-21.906 26.524 15.339z" class="E"/><path d="M73.283 250.451l30.312-17.525.699.402v21.103l-30.32 17.525-.7-.401.009-21.104z" class="C"/><path d="M73.974 250.862l30.32-17.534v21.103l-30.32 17.525v-21.094z" class="E"/><path d="M85.859 247.565l5.159-2.98c.662-.393 1.203-.215 1.203.392a2.42 2.42 0 0 1-1.203 1.794l-5.159 2.98c-.672.392-1.213.215-1.213-.393.048-.373.183-.729.394-1.041a2.4 2.4 0 0 1 .819-.752zM72.584 277.15l30.311-17.525v21.103l.7.402-30.321 17.525-.69-.402V277.15z" class="C"/><path d="M73.274 277.552l30.321-17.525v21.103l-30.321 17.525v-21.103z" class="E"/><path d="M85.16 274.264l5.206-2.971c.672-.392 1.213-.215 1.213.392a2.41 2.41 0 0 1-1.213 1.794l-5.159 2.98c-.672.392-1.213.215-1.213-.392a2.41 2.41 0 0 1 .371-1.039 2.4 2.4 0 0 1 .795-.764zm-15.674-29.287l-26.524-15.339v-56.957l26.524 15.33v56.966z" class="C"/><path d="M69.486 188.011l37.897-21.907v56.967l-37.897 21.906v-56.966z" class="G"/><path d="M107.383 166.104l-37.897 21.907-26.524-15.33 37.896-21.907 26.524 15.33z" class="E"/><g class="C"><path d="M73.274 190.206l30.321-17.525.699.402v21.103l-30.32 17.525-.7-.411v-21.094z"/><path d="M85.859 187.31l5.15-2.98c.672-.383 1.213-.206 1.213.402a2.43 2.43 0 0 1-.396 1.039 2.41 2.41 0 0 1-.817.754l-5.15 2.98c-.672.383-1.213.215-1.213-.392a2.44 2.44 0 0 1 .395-1.044c.21-.313.49-.573.818-.759zm-13.275 29.595l30.311-17.525v21.094l.7.401-30.321 17.526-.69-.402v-21.094z"/></g><path d="M73.274 217.307l30.321-17.526v21.094L73.274 238.4v-21.093z" class="E"/><g class="C"><path d="M85.16 214.009l5.206-2.98c.662-.383 1.213-.206 1.213.402a2.47 2.47 0 0 1-.399 1.037c-.21.311-.488.569-.814.756l-5.206 2.952c-.672.383-1.213.206-1.213-.392.053-.369.19-.721.4-1.029a2.44 2.44 0 0 1 .812-.746zm-11.886-23.803l30.321-17.525v21.094L73.274 211.3v-21.094z"/><path d="M118.755 183.106l-16.597-9.594v18.59l16.597 9.585v-18.581z"/></g><path d="M84.647 214.308v-26.297l6.503-3.774 1.073 1.588 18.948-10.958v24.102l-26.523 15.339z" class="G"/><path d="M84.647 214.308l1.894-23.009 26.524-15.33-1.894 23-26.523 15.339z" class="E"/><path d="M88.434 200.632l-14.461-8.361v18.59l14.461 8.351v-18.58z" class="G"/><path d="M88.434 198.969l30.321-17.526v21.094l-30.321 17.526v-21.094z" class="E"/><path d="M100.32 195.671l5.15-2.98c.672-.383 1.213-.206 1.213.402a2.44 2.44 0 0 1-.397 1.039c-.21.311-.49.569-.816.754l-5.15 2.98c-.672.383-1.213.206-1.213-.392a2.44 2.44 0 0 1 .395-1.044c.21-.313.49-.573.818-.759zm-11.886 3.298l-1.008-.579v21.093l1.008.579v-21.093z" class="C"/><path d="M87.427 198.39l30.311-17.535 1.017.589-30.321 17.525-1.008-.579z" class="G"/><path d="M382.845 270.714l-26.533-15.34v-56.957l26.533 15.33v56.967z" class="C"/><path d="M382.845 213.747l37.897-21.906v56.966l-37.897 21.907v-56.967z" class="G"/><path d="M420.742 191.841l-37.897 21.906-26.533-15.33 37.906-21.915 26.524 15.339z" class="E"/><path d="M386.633 215.943l30.321-17.526.7.402-.009 21.094-30.312 17.525-.7-.402v-21.093z" class="C"/><path d="M387.333 216.344l30.321-17.525-.009 21.094-30.312 17.525v-21.094z" class="E"/><path d="M399.219 213.047l5.15-2.98c.671-.383 1.213-.206 1.213.392-.05.374-.185.732-.395 1.044s-.491.573-.818.759l-5.15 2.98c-.672.383-1.213.206-1.213-.392.049-.374.184-.732.395-1.045s.49-.572.818-.758zm-13.285 29.595l30.32-17.535v21.103l.7.402-30.321 17.525-.699-.402v-21.093z" class="C"/><path d="M386.633 243.043l30.321-17.525v21.094l-30.321 17.525v-21.094z" class="E"/><path d="M398.519 239.746l5.159-2.98c.663-.383 1.204-.206 1.204.392-.05.373-.184.729-.393 1.042a2.45 2.45 0 0 1-.811.761l-5.159 2.98c-.672.383-1.213.205-1.213-.402a2.44 2.44 0 0 1 .397-1.039c.21-.311.49-.569.816-.754z" class="C"/><use xlink:href="#B" class="B"/><use xlink:href="#B" opacity=".2" class="F"/><path d="M132.05 314.321c-.107.001-.21-.035-.293-.101s-.141-.159-.164-.263c-3.266-15.293-11.644-23.747-16.355-27.428-.098-.075-.161-.187-.177-.309s.018-.247.093-.344a.47.47 0 0 1 .314-.178c.124-.016.249.018.348.093 4.805 3.737 13.36 12.388 16.691 27.97a.46.46 0 0 1 .005.181c-.011.06-.033.118-.066.169s-.076.096-.127.13-.107.059-.167.071l-.102.009z" class="D"/><path d="M130.128 335.751l-3.797 2.196c-.405-1.109-1.088-2.094-1.984-2.861a6.87 6.87 0 0 0-3.129-1.521c-4.151-.934-8.462-.775-11.373-4.381s.635-7.529 0-10.182-1.044-3.42-6.25-6.073-7.259-7.053-3.34-10.033 10.262-.794 14.106 1.869c3.415 2.335 6.661 2.952 10.477 3.428s10.029 2.597 9.078 11.472a70.06 70.06 0 0 1-3.788 16.086z" class="B"/><g class="D"><path d="M115.555 324.093c-.099-.001-.196-.033-.276-.092s-.14-.141-.172-.235c-.035-.119-.023-.247.035-.357a.48.48 0 0 1 .273-.232c.336-.102 8.397-2.662 11.821.084a.47.47 0 0 1 .145.307c.008.117-.028.232-.1.324s-.177.152-.293.171a.47.47 0 0 1-.331-.073c-3.022-2.429-10.878.056-10.962.084l-.14.019z"/><path d="M130.548 335.042a.46.46 0 0 1-.308-.118.45.45 0 0 1-.149-.294c-2.081-19.673-25.75-29.006-25.983-29.099-.058-.022-.111-.055-.156-.097s-.081-.094-.106-.15-.039-.118-.041-.179.01-.124.032-.181c.046-.114.134-.205.245-.255a.47.47 0 0 1 .352-.016c.252.102 24.444 9.631 26.58 29.893a.47.47 0 0 1-.099.342c-.077.096-.189.158-.311.172l-.056-.018z"/></g><use xlink:href="#C" class="B"/><use xlink:href="#C" opacity=".2" class="F"/><path d="M360.259 310.986a.45.45 0 0 1-.177-.046.46.46 0 0 1-.145-.11c-.041-.046-.072-.1-.092-.158a.46.46 0 0 1-.025-.181c.933-16.703-4.515-31.612-14.283-38.927-.099-.074-.165-.185-.182-.308s.014-.247.088-.346.186-.161.308-.178a.47.47 0 0 1 .345.085c10.011 7.473 15.627 22.719 14.648 39.73-.007.123-.062.237-.153.319s-.21.125-.332.12z" class="D"/><path d="M373.339 333.575c-.532-3.84 1.67-9.594 6.904-10.958s7.566-4.372 5.681-7.66-1.446-6.306 3.303-7.67 8.91-3.737 6.176-8.763c-1.987-3.634-2.426-5.988 2.444-13.144 4.04-5.941.738-9.425-4.319-8.772s-8.182 6.689-11.345 7.698-3.89-4.372-8.061-1.962-3.918 8.585-4.049 12.892-.41 5.278-4.179 4.755-7.464.093-7.38 9.22c.066 7.829 4.236 17.526 4.236 17.526l10.589 6.838z" class="B"/><g class="D"><path d="M366.724 327.736h-.046c-.125-.014-.239-.077-.318-.175s-.115-.223-.102-.348c2.631-23.532 22.801-43.383 28.063-47.41.099-.075.224-.108.347-.092s.235.082.311.181.108.224.092.348-.082.235-.181.311c-5.197 3.97-25.106 23.56-27.699 46.765-.014.115-.069.221-.155.298a.47.47 0 0 1-.312.122z"/><path d="M375.923 302.579c-.094-.001-.187-.03-.265-.083a.47.47 0 0 1-.173-.216c-.04-.118-.034-.247.019-.36a.49.49 0 0 1 .26-.248c7.52-2.802 16.047-1.476 16.411-1.419.121.02.229.088.3.187a.47.47 0 0 1 .083.345.49.49 0 0 1-.189.301c-.099.073-.221.105-.343.091-.084 0-8.649-1.345-15.935 1.374-.054.018-.111.027-.168.028zm-6.698 14.143a.48.48 0 0 1-.346-.159 27.56 27.56 0 0 1-6.148-12.77c-.009-.061-.006-.123.008-.182a.47.47 0 0 1 .078-.166c.036-.049.082-.091.134-.123a.48.48 0 0 1 .172-.061c.061-.01.123-.007.182.008a.47.47 0 0 1 .165.077.48.48 0 0 1 .123.135.46.46 0 0 1 .062.172c.892 4.535 2.932 8.765 5.924 12.284.058.069.096.153.109.243a.48.48 0 0 1-.21.464c-.076.049-.163.077-.253.078z"/></g><use xlink:href="#D" class="B"/><use xlink:href="#D" opacity=".7" class="F"/><path d="M130.128 335.761l7.576-131.449 147.798-85.44-7.576 131.449-147.798 85.44z" class="C"/><path d="M130.128 335.761l11.363-129.254 147.798-85.449-11.363 129.263-147.798 85.44z" class="B"/><path opacity=".7" d="M130.128 335.761l11.363-129.254 147.798-85.449-11.363 129.263-147.798 85.44z" class="F"/><use xlink:href="#E" class="B"/><use xlink:href="#E" opacity=".5" class="F"/><path d="M152.864 348.914l7.575-131.458 147.798-85.44-7.575 131.449-147.798 85.449z" class="C"/><path d="M152.864 348.914l11.363-129.263 147.798-85.449-11.363 129.262-147.798 85.45z" class="B"/><path opacity=".5" d="M152.864 348.914l11.363-129.263 147.798-85.449-11.363 129.262-147.798 85.45z" class="F"/><path d="M277.889 394.922c-26.534-15.339-51.145-32.014-62.378-51.576l34.146-19.739 28.232 71.315z" class="C"/><use xlink:href="#F" class="B"/><use xlink:href="#F" opacity=".2" class="F"/><path d="M221.967 262.4c-.373 0-.429-.43-.429-.682V138.406a3.11 3.11 0 0 1 1.381-2.392l106.674-61.656a.99.99 0 0 1 .485-.149c.373 0 .429.43.429.682v123.312c-.029.479-.169.946-.409 1.362s-.572.772-.972 1.038l-106.673 61.656a1.03 1.03 0 0 1-.486.141z" class="D"/><use xlink:href="#G" class="B"/><use xlink:href="#G" opacity=".7" class="D"/><path d="M232.445 143.086l37.896-21.907v43.814l-37.896 21.906v-43.813z" class="B"/><g class="D"><path opacity=".8" d="M232.445 143.086l37.896-21.907v43.814l-37.896 21.906v-43.813z"/><path d="M264.659 132.1v13.172l-1.194.663v-4.026c0-2.223-1.8-2.98-4.04-1.691l-16.056 9.295c-2.229 1.289-4.039 4.139-4.039 6.362v4.026l-1.185.71v-13.144l26.514-15.367z"/><path d="M257.364 165.637c-1.941 1.121-3.518-.056-3.518-2.644v-21.084l-4.879 2.653v21.253c0 2.578-1.577 5.605-3.517 6.698l-3.527 2.036v1.401l18.949-10.957v-1.392l-3.508 2.036z"/></g><path d="M277.889 119.022c0 1.214 1.091 1.56 2.425.794l36.87-21.346a4.87 4.87 0 0 0 2.426-3.597c0-1.205-1.091-1.56-2.426-.785l-36.842 21.3c-.665.37-1.233.892-1.66 1.523a4.86 4.86 0 0 0-.793 2.111zm0 13.078c0 1.214 1.091 1.569 2.425.794l36.842-21.299c.655-.371 1.214-.889 1.635-1.513a4.87 4.87 0 0 0 .791-2.084c0-1.205-1.091-1.56-2.426-.785l-36.842 21.3c-.653.37-1.212.887-1.632 1.509a4.86 4.86 0 0 0-.793 2.078zm0 13.172c0 1.214 1.091 1.569 2.425.794l36.842-21.299c.653-.371 1.212-.887 1.633-1.509a4.88 4.88 0 0 0 .793-2.079c0-1.214-1.091-1.569-2.426-.794l-36.842 21.3c-.653.37-1.212.887-1.632 1.509a4.86 4.86 0 0 0-.793 2.078zm0 13.144c0 1.214 1.091 1.569 2.425.794l36.842-21.299c.653-.371 1.212-.887 1.633-1.509a4.88 4.88 0 0 0 .793-2.079c0-1.214-1.091-1.569-2.426-.794l-36.842 21.3c-.653.37-1.212.886-1.632 1.509a4.86 4.86 0 0 0-.793 2.078zm-45.444 39.441c0 1.214 1.082 1.569 2.425.794l82.314-47.643a4.86 4.86 0 0 0 1.635-1.508c.421-.623.692-1.334.791-2.079 0-1.215-1.091-1.561-2.426-.794L234.87 194.27c-.654.368-1.214.884-1.635 1.507s-.692 1.335-.79 2.08zm0 13.144c0 1.214 1.082 1.569 2.425.794l82.314-47.587c.655-.371 1.214-.889 1.635-1.513a4.87 4.87 0 0 0 .791-2.084c0-1.205-1.091-1.56-2.426-.784l-82.314 47.587c-.654.368-1.214.884-1.635 1.507s-.692 1.335-.79 2.08zm0 13.153c0 1.205 1.082 1.56 2.425.785l82.314-47.587c.655-.372 1.214-.889 1.635-1.513s.692-1.338.791-2.084c0-1.205-1.091-1.56-2.426-.785l-82.314 47.588c-.655.369-1.216.887-1.637 1.511s-.691 1.338-.788 2.085z" fill="#455a64"/><g class="B"><path d="M179.388 364.244l26.523-116.109 147.798-85.45-26.523 116.119-147.798 85.44z"/><path d="M215.549 257.224v86.122l34.109-19.72v-86.113l-34.109 19.711z"/></g><path opacity=".2" d="M215.549 257.224v86.122l34.109-19.72v-86.113l-34.109 19.711z" class="F"/><path d="M277.954 394.362c-2.902-2.167-30.871-23.569-45.09-54.183-15.132-32.546-15.113-70.512-15.113-84.795v-.449l101.393-58.61c0 14.414 0 52.436 15.197 85.094 13.892 29.894 40.789 51.025 45.053 54.258l-101.44 58.685z" class="D"/><use xlink:href="#H" class="B"/><use xlink:href="#H" opacity=".7" class="D"/><g fill="#455a64"><path d="M308.032 215.382l-32.355 18.684a4.6 4.6 0 0 0-1.609 1.482 4.61 4.61 0 0 0-.742 2.058c.047 1.187 1.176 1.523 2.51.748L308.2 219.67a4.59 4.59 0 0 0 1.594-1.463 4.61 4.61 0 0 0 .748-2.031c-.056-1.233-1.166-1.569-2.51-.794zm.691 12.752l-32.355 18.683c-.64.345-1.182.846-1.577 1.457a4.32 4.32 0 0 0-.681 2.037c.103 1.149 1.278 1.458 2.612.682l32.365-18.683a4.27 4.27 0 0 0 1.565-1.453c.39-.61.619-1.309.664-2.032-.093-1.158-1.25-1.439-2.593-.691zm1.296 12.396l-32.364 18.684c-1.334.775-2.304 2.317-2.145 3.428s1.38 1.402 2.724.626l32.364-18.683c1.334-.776 2.286-2.308 2.118-3.419s-1.362-1.411-2.697-.636zm1.941 12.023l-32.364 18.684c-1.334.775-2.258 2.289-2.034 3.372s1.493 1.327 2.799.551l32.355-18.683c1.343-.775 2.239-2.28 2.015-3.363s-1.39-1.336-2.771-.561z"/><path d="M314.591 264.175l-32.364 18.683c-1.334.775-2.202 2.251-1.866 3.288s1.614 1.271 2.948.496l32.364-18.684c1.343-.775 2.183-2.242 1.866-3.288s-1.614-1.271-2.948-.495zm3.414 11.2l-78.871 45.598c-1.334.775-2.146 2.214-1.782 3.213s1.754 1.187 3.088.411L319.312 279c1.343-.775 2.117-2.205 1.754-3.214s-1.773-1.186-3.061-.411zm4.152 10.697l-78.862 45.597c-1.344.775-2.081 2.177-1.633 3.13s1.866 1.102 3.228.327l78.872-45.598c1.343-.775 2.062-2.176 1.614-3.129s-1.875-1.093-3.219-.327zm5.178 10.192l-78.872 45.597c-1.343.775-2.005 2.139-1.474 3.045s2.053 1 3.396.225l78.816-45.598c1.334-.766 1.978-2.12 1.446-3.027s-2.006-1.018-3.312-.242zm6.036 9.64l-78.862 45.588c-1.344.776-1.941 2.112-1.334 2.962s2.202.934 3.545.149l78.862-45.597c1.344-.776 1.922-2.093 1.316-2.952s-2.183-.925-3.527-.15zm6.885 9.165l-78.871 45.588c-1.334.775-1.866 2.074-1.194 2.886s2.323.85 3.666.075l78.872-45.616c1.334-.775 1.866-2.055 1.175-2.868s-2.304-.869-3.648-.065zm7.604 8.725l-78.844 45.588c-1.343.775-1.866 2.046-1.082 2.802s2.444.776 3.778 0l78.872-45.597c1.344-.775 1.81-2.027 1.064-2.802s-2.426-.757-3.788.009zm8.396 8.342l-78.871 45.588c-1.334.775-1.773 2.018-.933 2.756s2.556.71 3.9-.065l78.806-45.598c1.334-.775 1.754-1.99.933-2.737s-2.528-.719-3.835.056z"/></g><use xlink:href="#I" class="B"/><use xlink:href="#I" opacity=".8" class="D"/><use xlink:href="#J" class="B"/><use xlink:href="#J" opacity=".6" class="D"/><use xlink:href="#K" class="B"/><use xlink:href="#K" opacity=".6" class="D"/><defs ><path id="B" d="M130.482 330.249s.103-14.816-9.227-25.923c-8.256-9.837-12.65-16.078-10.047-18.955s8.2-3.568 15.748 4.391 8.135 30.006 7.09 34.994l-3.564 5.493z"/><path id="C" d="M362.6 322.832c.103-.327 4.105-20.954 0-35.583-3.731-13.415-8.601-18.366-15.542-19.459s-9.955 3.914-6.27 10.696 12.558 15.778 14.731 30.931l1.642 11.658 5.439 1.757z"/><path id="D" d="M130.128 191.168v144.593l147.798-85.44-.009-131.449-109.893 63.534-3.797-10.958-34.099 19.72z"/><path id="E" d="M152.864 204.312v144.602l147.798-85.449V132.016L190.76 195.55l-3.787-10.958-34.109 19.72z"/><path id="F" d="M179.388 219.651v144.593l147.798-85.44V147.355l-109.902 63.534-3.788-10.958-34.108 19.72z"/><path id="G" d="M330.022 74.639a1.01 1.01 0 0 1 0 .206v123.312c-.031.398-.15.783-.348 1.129s-.472.643-.8.87l-106.673 61.656-.187.084a.59.59 0 0 1 0-.205V138.378a2.69 2.69 0 0 1 .35-1.124 2.68 2.68 0 0 1 .798-.866l106.673-61.656c.059-.041.126-.07.196-.084l-.009-.009zm.065-.925a1.45 1.45 0 0 0-.718.215l-106.674 61.656a3.58 3.58 0 0 0-1.139 1.209c-.28.487-.443 1.032-.475 1.593v123.312c0 .729.364 1.149.933 1.149.254-.007.502-.081.719-.215l106.673-61.656a3.56 3.56 0 0 0 1.144-1.207 3.57 3.57 0 0 0 .47-1.595V74.863c0-.729-.364-1.158-.933-1.149z"/><path id="H" d="M318.677 197.166c0 15.021.289 52.314 15.245 84.487 13.425 28.866 38.95 49.624 44.632 54.005l-100.572 58.143c-3.928-2.961-30.843-24.008-44.688-53.78-15.114-32.454-15.114-70.344-15.114-84.609v-.178l100.46-58.078.037.01zm.896-1.626l-102.326 59.162c0 13.443-.28 52.501 15.16 85.711 15.198 32.593 45.482 54.509 45.482 54.509l102.354-59.171s-30.321-21.916-45.472-54.509c-15.45-33.21-15.161-72.268-15.161-85.711l-.037.009z"/><path id="I" d="M263.95 240.876l-37.206 21.486c.411 13.499 1.95 32.967 7.585 52.576l37.216-21.486c-5.645-19.609-7.184-39.086-7.595-52.576z"/><path id="J" d="M241.914 259.392a6.17 6.17 0 0 0-.397-2.559 6.15 6.15 0 0 0-1.413-2.168l-13.36 7.716c.112 3.568.299 7.557.625 11.855a8.75 8.75 0 0 0 5.047-.934c5.253-2.411 9.498-8.66 9.498-13.91z"/><path id="K" d="M268.382 280.56c-2.482-3.129-7.529-12.798-9.684-17.011a.93.93 0 0 0-.381-.394c-.163-.091-.35-.13-.536-.113s-.362.09-.506.208-.25.278-.303.457a102.61 102.61 0 0 0-4.03 24.523c-3.108-2.47-5.779-5.445-7.903-8.8a.83.83 0 0 0-.362-.293.84.84 0 0 0-.463-.051c-.155.028-.3.099-.417.207a.83.83 0 0 0-.241.398c-4.068 15.685-2.024 31.118-2.024 31.118l30.013-17.357c-1.251-4.335-2.286-8.651-3.163-12.892z"/></defs></svg>