<svg width="454" height="400" viewBox="0 0 454 400" fill="none" xmlns="http://www.w3.org/2000/svg"><path d="M241 400c117.637 0 213-55.069 213-123s-95.363-123-213-123S28 209.069 28 277s95.363 123 213 123z" fill="#F5F5F5"/><path d="M208.8 204.519l124.52 71.88a4.416 4.416 0 004 0l90.48-52.24a1.222 1.222 0 000-2.32l-124.48-71.84a4.412 4.412 0 00-4 0l-90.52 52.19a1.23 1.23 0 000 2.33zM94.826 296.541l75.39 43.51a4.476 4.476 0 004 0l105.61-61a1.231 1.231 0 000-2.33l-75.37-43.51a4.467 4.467 0 00-4 0l-105.61 61a1.226 1.226 0 00-.846 1.157 1.228 1.228 0 00.826 1.173zM199.086 345.468l48.9 28.23a4.416 4.416 0 004 0l92.09-53.16a1.225 1.225 0 00.835-1.165 1.23 1.23 0 00-.835-1.165l-48.86-28.22a4.466 4.466 0 00-4 0l-92.09 53.17a1.223 1.223 0 00-.847 1.141 1.22 1.22 0 00.807 1.169zM30.34 268.979l-29.11-16.81c-1.64-.94-1.64-2.48 0-3.43l176.88-102.13a6.54 6.54 0 015.94 0l29.11 16.8c1.64 1 1.64 2.49 0 3.44L36.28 268.979a6.615 6.615 0 01-5.94 0z" fill="#E0E0E0"/><path d="M135 239.028l25-14.47c2.58-1.49 3.87-3.44 3.87-5.39v-3.48l-26-14.64a5.5 5.5 0 01-2.49-4.31v-30.84l-43.7 25.25v30.85a5.478 5.478 0 002.49 4.31l22.08 12.73c5.18 2.97 13.54 2.97 18.75-.01z" fill="#263238"/><path opacity=".3" d="M102.19 227.45v3.45l-8-4.62a5.496 5.496 0 01-2.48-4.31v-30.82l8.32-4.81c.17 2.12.36 4.3.53 6.43l-5.83 3.38v24.1a5.469 5.469 0 002.48 4.31l4.98 2.89z" fill="#000"/><path d="M94.71 220.248a5.537 5.537 0 002.49 4.32l19.07 11c5.16 3 13.52 3 18.68 0l25-14.46c5.16-3 5.16-7.81 0-10.79l-19.07-11a5.5 5.5 0 01-2.49-4.32v-24.1l-43.71 25.25.03 24.1z" fill="#455A64"/><path d="M146 202.248l-5.07-2.92a5.512 5.512 0 01-2.49-4.32v-24.11l-43.71 25.25v24.1a5.536 5.536 0 002.49 4.32l5 2.88 43.78-25.2zM163.85 215.689v3.48c0 2-1.3 3.9-3.87 5.39l-25 14.46a18.698 18.698 0 01-8.91 2.22v-3.47c3.108.015 6.17-.745 8.91-2.21l25-14.47c2.57-1.49 3.87-3.44 3.87-5.4z" fill="#37474F"/><path d="M210.28 6.019v136.73a6.88 6.88 0 01-3.1 5.39l-4.57 2.63-1.66 1-4.82 2.78-2.13 1.22-79.1 45.66-3.66 2.11-22.78 13.16-3.67 2.12-10.72 6.19-3.45 2-3.4 2-3.31 1.89-4.84 2.79-4.65 2.68-31.8 18.38-.29.14h-.08c-1.55.68-2.75-.15-2.75-2v2.59a5.94 5.94 0 01-2.92-.67 6.678 6.678 0 01-2.91-5.28v-136.69a6.876 6.876 0 013.1-5.39L201.33.899a5.818 5.818 0 018.92 4.63c.019.163.029.326.03.49z" fill="#455A64"/><path d="M210.28 6.018V142.75a6.887 6.887 0 01-3.1 5.39l-4.57 2.629-1.66 1-4.82 2.78-2.13 1.22-79.1 45.66-3.66 2.11-22.78 13.16-3.67 2.121-10.72 6.189-3.45 2-3.4 2-3.31 1.89-4.84 2.791-4.65 2.679-31.8 18.381-.29.139h-.08c-1.55.68-2.75-.15-2.75-2v-136.69a6.85 6.85 0 013.12-5.38L207.18 4.228c1.56-.91 2.84-.33 3.07 1.26.02.176.03.353.03.53z" fill="#37474F"/><path d="M19.5 252.9v-9.1l-5.83-3.37v9.13a6.685 6.685 0 002.91 5.28 5.95 5.95 0 002.92.67 5.78 5.78 0 00.72-.05c.232-.019.462-.052.69-.1h.06c.183-.036.363-.083.54-.14l.17-.05c.18-.07.36-.14.54-.23-1.52.65-2.72-.18-2.72-2.04z" fill="#263238"/><path d="M210.28 133.59v9.16a6.88 6.88 0 01-3.1 5.39l-4.57 2.63-1.66 1-4.82 2.78-2.13 1.22-79.1 45.66-3.66 2.11-22.78 13.16-3.67 2.12-10.72 6.19-3.45 2-3.4 2-3.31 1.89-4.84 2.79-4.65 2.68-31.8 18.38-.29.14h-.08c-1.55.68-2.75-.15-2.75-2v-9.09l190.78-110.21z" fill="#455A64"/><path d="M20.42 113.13a6.519 6.519 0 00-.92 3.07v127.6l-5.84-3.38V112.84a6.447 6.447 0 01.92-3.08l5.84 3.37z" fill="#263238"/><path d="M113.78 200.19a1.935 1.935 0 01-1-.27 2.502 2.502 0 01-1.11-2.32 6.906 6.906 0 013.17-5.49 2.262 2.262 0 013.488.779c.196.418.26.886.182 1.341a6.919 6.919 0 01-3.17 5.49c-.47.29-1.008.452-1.56.47zm1.55-7.22a6.006 6.006 0 00-2.67 4.63 1.297 1.297 0 00.611 1.448 1.296 1.296 0 001.559-.198 5.997 5.997 0 002.67-4.62 1.298 1.298 0 00-1.42-1.625 1.3 1.3 0 00-.75.365z" fill="#FAFAFA"/><path d="M25.34 228.179v-110a4.112 4.112 0 011.87-3.28l175.36-101.27c1-.6 1.87-.12 1.87 1.08v110a4.136 4.136 0 01-1.87 3.24L27.21 229.259c-1.03.64-1.87.11-1.87-1.08z" fill="#79BB49"/><path d="M34.58 115.898l158.54-91.54c1.11-.65 2-.13 2 1.16v100a4.466 4.466 0 01-2 3.49l-158.54 91.54c-1.11.64-2 .12-2-1.16v-100a4.453 4.453 0 012-3.49z" fill="#FAFAFA"/><path d="M168.67 139.778a.5.5 0 01-.5-.5v-65.88a.503.503 0 01.5-.5.5.5 0 01.5.5v65.88a.5.5 0 01-.5.5z" fill="#E0E0E0"/><path d="M174.47 68.71l14.87-8.58c1.11-.64 2-.12 2 1.16v17.18a4.48 4.48 0 01-2 3.49l-14.88 8.58c-1.11.65-2 .12-2-1.16V72.2a4.452 4.452 0 012.01-3.49z" fill="#79BB49"/><path opacity=".75" d="M174.47 68.71l14.87-8.58c1.11-.64 2-.12 2 1.16v17.18a4.48 4.48 0 01-2 3.49l-14.88 8.58c-1.11.65-2 .12-2-1.16V72.2a4.452 4.452 0 012.01-3.49z" fill="#fff"/><path opacity=".8" d="M188 71.898a.804.804 0 00-.655-.168.813.813 0 00-.555.388l-2.66 4.61 2.17 3-7.07-6.49a.772.772 0 00-.684-.207.785.785 0 00-.566.437l-5.5 11.3v4.52c0 1.28.9 1.81 2 1.16l14.88-8.58a4.473 4.473 0 002-3.49v-3.68l-3.36-2.8z" fill="#79BB49"/><path d="M185 66.329a4.165 4.165 0 00-1.89 3.27c0 1.21.85 1.69 1.89 1.09a4.192 4.192 0 001.89-3.27c-.02-1.21-.89-1.7-1.89-1.09z" fill="#fff"/><path d="M173.46 94.34l16.89-9.75c.55-.32 1-.09 1 .51a2.176 2.176 0 01-1 1.67l-16.89 9.75c-.56.32-1 .09-1-.51a2.152 2.152 0 011-1.67zM173.46 97.668l16.89-9.77c.55-.32 1-.09 1 .51a2.176 2.176 0 01-1 1.67l-16.89 9.82c-.56.32-1 .09-1-.51a2.154 2.154 0 011-1.72zM173.46 101.01l16.89-9.75c.55-.32 1-.1 1 .51a2.176 2.176 0 01-1 1.67l-16.89 9.75c-.56.32-1 .09-1-.51a2.15 2.15 0 011-1.67z" fill="#E0E0E0"/><path d="M174.47 106.078l14.87-8.58c1.11-.64 2-.12 2 1.16v17.18a4.481 4.481 0 01-2 3.49l-14.88 8.57c-1.11.65-2 .12-2-1.16v-17.17a4.462 4.462 0 012.01-3.49z" fill="#79BB49"/><path opacity=".75" d="M174.47 106.078l14.87-8.58c1.11-.64 2-.12 2 1.16v17.18a4.481 4.481 0 01-2 3.49l-14.88 8.57c-1.11.65-2 .12-2-1.16v-17.17a4.462 4.462 0 012.01-3.49z" fill="#fff"/><path opacity=".8" d="M188 109.308a.813.813 0 00-1.21.22l-2.66 4.61 2.17 3-7.07-6.49a.776.776 0 00-.678-.185.771.771 0 00-.552.435l-5.5 11.29v4.52c0 1.28.9 1.81 2 1.16l14.88-8.58a4.486 4.486 0 002-3.49v-3.68l-3.38-2.81z" fill="#79BB49"/><path d="M185 103.698a4.17 4.17 0 00-1.89 3.27c0 1.21.85 1.69 1.89 1.09a4.192 4.192 0 001.89-3.27c-.02-1.21-.89-1.7-1.89-1.09z" fill="#fff"/><path d="M173.46 131.709l16.89-9.75c.55-.32 1-.09 1 .51a2.174 2.174 0 01-1 1.67l-16.89 9.76c-.56.32-1 .09-1-.51a2.147 2.147 0 011-1.68zM173.46 135.039l16.89-9.75c.55-.32 1-.09 1 .51a2.174 2.174 0 01-1 1.67l-16.89 9.76c-.56.32-1 .09-1-.51a2.147 2.147 0 011-1.68z" fill="#E0E0E0"/><path d="M68.61 144.149l90.48-52.25c1.12-.64 2-.12 2 1.17v47.73a4.434 4.434 0 01-2 3.49l-90.48 52.25c-1.12.64-2 .12-2-1.16v-47.74a4.465 4.465 0 012-3.49z" fill="#79BB49"/><path opacity=".75" d="M68.61 144.149l90.48-52.25c1.12-.64 2-.12 2 1.17v47.73a4.434 4.434 0 01-2 3.49l-90.48 52.25c-1.12.64-2 .12-2-1.16v-47.74a4.465 4.465 0 012-3.49z" fill="#fff"/><path d="M127.08 120.02a10.844 10.844 0 00-4.9 8.48c0 3.13 2.2 4.39 4.9 2.83a10.814 10.814 0 004.92-8.43c0-3.18-2.21-4.45-4.92-2.88z" fill="#fff"/><path opacity=".8" d="M68.61 196.538l90.48-52.24a4.446 4.446 0 002-3.49v-2.52l-16.82-12.59a2.543 2.543 0 00-1.908-.48 2.541 2.541 0 00-1.682 1.02l-15.59 21.26 6.95 8.05-28.12-20.19a2.551 2.551 0 00-3.65.72l-33.68 53.89v5.41c0 1.28.9 1.8 2.02 1.16z" fill="#79BB49"/><path d="M195.131 24.77v7.85l-162.57 93.86v-7.85a3.24 3.24 0 011.44-2.54L193.67 23.9c.81-.45 1.46-.07 1.46.87z" fill="#455A64"/><path d="M195.131 32.62v9.55l-162.57 93.859v-9.55l3-1.75c.81-.47 1.08-1.18 1.47-2.55l1-3.55a3.714 3.714 0 011.47-2.55l35-20.23c.82-.46 1.45-.52 2.07.51l1.26 2.28c.46.79.69 1.26 1.5.79l115.8-66.81z" fill="#E6E6E6"/><path d="M189.43 29.329c.87-.5 1.57-.09 1.57.9a3.462 3.462 0 01-1.57 2.72c-.86.5-1.56.09-1.56-.91a3.46 3.46 0 011.56-2.71zM183.79 32.578c.87-.5 1.57-.09 1.57.91a3.457 3.457 0 01-1.57 2.71c-.86.5-1.57.1-1.57-.9a3.496 3.496 0 011.57-2.72zM178.15 35.828c.87-.49 1.57-.09 1.57.91a3.444 3.444 0 01-1.57 2.71c-.87.5-1.57.1-1.57-.9a3.464 3.464 0 011.57-2.72z" fill="#fff"/><path opacity=".5" d="M39.3 127.169l-2.3 1.33.87-1.69a.417.417 0 000-.42c-.07-.08-.18 0-.26.13l-1.23 2.38a.357.357 0 000 .09.482.482 0 000 .12.338.338 0 000 .11l1.25 1a.089.089 0 00.12 0 .308.308 0 00.14-.17c.07-.16.06-.34 0-.4l-.87-.67 2.3-1.33a.51.51 0 00.19-.4c-.02-.06-.11-.14-.21-.08zM48.79 119.408c0-.14-.13-.12-.2 0l-.31.78c-.54-.06-1.19.46-1.63 1.4-.57 1.21-.57 2.64 0 3.18a.807.807 0 001 .07 2.875 2.875 0 001-1.26.401.401 0 000-.4c-.07-.07-.19 0-.26.15-.43.9-1.12 1.3-1.55.89a2.31 2.31 0 010-2.38c.3-.64.74-1 1.12-1.05l-.24.58c-.06.16 0 .3.09.23l.94-.61a.288.288 0 00.11-.26l-.07-1.32zM73.57 100.209l.84-1.78a.53.53 0 000-.55c-.1-.1-.26 0-.36.21l-.84 1.81-.84-.81c-.1-.1-.26 0-.36.21a.53.53 0 000 .55l.84.81-.85 1.75a.53.53 0 000 .55.141.141 0 00.09.033.141.141 0 00.09-.033.465.465 0 00.18-.22l.84-1.78.84.81a.141.141 0 00.09.033.141.141 0 00.09-.033.429.429 0 00.18-.21.552.552 0 000-.56l-.83-.79z" fill="#455A64"/><path d="M51.85 121.599v-3a3.23 3.23 0 011.47-2.54l132.081-76.16c.81-.47 1.47-.09 1.47.85v3a3.272 3.272 0 01-.433 1.445 3.272 3.272 0 01-1.037 1.095l-132.08 76.16c-.81.45-1.47.09-1.47-.85z" fill="#FAFAFA"/><path d="M183.4 46.579a.566.566 0 01-.18 0 .528.528 0 01-.29-.57l.14-1.14-.51-.37a.502.502 0 01-.21-.42.8.8 0 01.29-.61l.86-.67.39-1.27a.627.627 0 01.54-.49.45.45 0 01.45.27l.28.59.62-.24a.458.458 0 01.53.12.659.659 0 010 .73l-.62 1.17.14 1.06a.798.798 0 01-.22.63.55.55 0 01-.44.17l-.64-.08-.72.92a.576.576 0 01-.41.2zm-.24-2.6l.46.34a.533.533 0 01.2.51v.38l.18-.31a.55.55 0 01.5-.23l.57.07-.12-1a.728.728 0 01.09-.45l.39-.74-.26.1a.47.47 0 01-.6-.24l-.12-.26-.25.83a.793.793 0 01-.26.38l-.78.62z" fill="#E0E0E0"/><g opacity=".5" fill="#455A64"><path opacity=".5" d="M188.73 39.549a.48.48 0 01-.24-.89l3.88-2.24a.48.48 0 01.65.17.493.493 0 01.045.366.493.493 0 01-.225.294l-3.84 2.23a.439.439 0 01-.27.07zM188.73 41.788a.48.48 0 01-.24-.89l3.88-2.24a.477.477 0 01.524.036.475.475 0 01-.054.784l-3.84 2.24a.439.439 0 01-.27.07zM188.73 44.03a.48.48 0 01-.24-.89l3.88-2.24a.467.467 0 01.362-.057.464.464 0 01.288.226.481.481 0 01-.18.65L189 43.96a.547.547 0 01-.27.07z"/></g><path d="M42 136.369l12.41-7.17c.46-.26.83-.05.83.48v1.08a1.84 1.84 0 01-.83 1.44L42 139.369c-.46.26-.83.05-.83-.48v-1.08a1.87 1.87 0 01.83-1.44z" fill="#E0E0E0"/><path d="M38.59 139.309v1.08a1.81 1.81 0 01-.83 1.43l-.93.54c-.46.27-.83 0-.83-.48v-1.08a1.82 1.82 0 01.83-1.43l.93-.54c.46-.27.83-.05.83.48z" fill="#79BB49"/><path d="M42 142.338l12.41-7.17c.46-.27.83-.05.83.48v1.08a1.81 1.81 0 01-.83 1.43L42 145.328c-.46.27-.83 0-.83-.47v-1.08a1.85 1.85 0 01.83-1.44z" fill="#E0E0E0"/><path d="M38.59 145.269v1.08a1.828 1.828 0 01-.83 1.44l-.93.54c-.46.26-.83 0-.83-.48v-1.08a1.842 1.842 0 01.83-1.44l.93-.53c.46-.27.83-.06.83.47z" fill="#79BB49"/><path d="M42 148.309l12.41-7.17c.46-.27.83-.05.83.47v1.08a1.827 1.827 0 01-.83 1.44L42 151.299c-.46.27-.83 0-.83-.48v-1.08a1.838 1.838 0 01.83-1.43z" fill="#E0E0E0"/><path d="M38.59 151.24v1.08a1.842 1.842 0 01-.83 1.44l-.93.54c-.46.26-.83 0-.83-.48v-1.08a1.838 1.838 0 01.83-1.44l.93-.54c.46-.26.83-.05.83.48z" fill="#79BB49"/><path d="M42 154.18l12.41-7.17c.46-.26.83-.05.83.48v1.08a1.81 1.81 0 01-.83 1.43L42 157.18c-.46.26-.83.05-.83-.48v-1.08a1.874 1.874 0 01.83-1.44z" fill="#E0E0E0"/><path d="M38.59 157.109v1.08a1.828 1.828 0 01-.83 1.44l-.93.54c-.46.26-.83 0-.83-.48v-1.08a1.81 1.81 0 01.83-1.43l.93-.54c.46-.27.83-.05.83.47z" fill="#79BB49"/><path d="M42 159.809l12.41-7.17c.46-.26.83-.05.83.48v1.08a1.84 1.84 0 01-.83 1.44L42 162.809c-.46.26-.83.05-.83-.48v-1.08a1.874 1.874 0 01.83-1.44z" fill="#E0E0E0"/><path d="M38.59 162.748v1.08a1.806 1.806 0 01-.83 1.43l-.93.54c-.46.27-.83 0-.83-.48v-1.08a1.823 1.823 0 01.83-1.43l.93-.54c.46-.27.83-.05.83.48z" fill="#79BB49"/><path d="M59 203.01a.5.5 0 01-.5-.5V123.6a.501.501 0 111 0v78.91a.5.5 0 01-.5.5z" fill="#E0E0E0"/><path d="M71.17 128.268a10.146 10.146 0 00-4.58 7.94c0 2.92 2 4.11 4.58 2.65a10.151 10.151 0 004.59-7.94c-.01-2.93-2.06-4.11-4.59-2.65z" fill="#79BB49"/><path d="M70.64 132.899a.837.837 0 01-.41-.1 1.002 1.002 0 01-.44-.92 2.63 2.63 0 011.21-2.06.904.904 0 011.011-.075.904.904 0 01.36.39c.08.163.106.346.08.525a2.644 2.644 0 01-1.2 2.09 1.26 1.26 0 01-.61.15zM73 133.24a1.577 1.577 0 00-1.61.12l-.67.38a4.515 4.515 0 00-2.06 3.58v.47a2.557 2.557 0 002.53-.27 7.349 7.349 0 002.51-2.62v-.11a1.647 1.647 0 00-.7-1.55z" fill="#fff"/><path d="M79 127.139c0 1.2.91 1.66 2 1l18.65-10.77a4.32 4.32 0 002-3.35c0-1.21-.9-1.66-2-1L81 123.789a4.329 4.329 0 00-2 3.35z" fill="#455A64"/><path d="M79 132.7c0 .62.47.86 1 .53l9.7-5.6a2.269 2.269 0 001-1.74c0-.63-.47-.87-1-.53l-9.7 5.6a2.225 2.225 0 00-1 1.74z" fill="#E0E0E0"/><path d="M58.55 121.008v11.49l136.58-78.86v-11.47l-136.58 78.84z" fill="#79BB49"/><path opacity=".3" d="M58.55 121.008v11.49l136.58-78.86v-11.47l-136.58 78.84z" fill="#000"/><path d="M68.6 118.899l71.59-41.33c1.11-.64 2-.18 2 1a4.31 4.31 0 01-2 3.35l-71.58 41.35c-1.12.64-2 .18-2-1a4.323 4.323 0 011.99-3.37z" fill="#FAFAFA"/><path d="M99.446 287.331l67.4 38.86a3.465 3.465 0 003.14 0l102.45-59.14a1.002 1.002 0 000-1.81l-67.4-38.87a3.51 3.51 0 00-3.14 0l-102.45 59.15a.998.998 0 000 1.81zm95.33-53.41a2.173 2.173 0 012.26.25l62.73 36.2a.816.816 0 01.552.775.816.816 0 01-.552.775l-81.47 47a3 3 0 01-2.7 0l-62.73-36.2a.82.82 0 010-1.55l81.91-47.25z" fill="#455A64"/><path d="M138.606 307.07a6.346 6.346 0 01-3.11-.75 2.489 2.489 0 01-1.44-2.09 2.471 2.471 0 011.44-2.08 6.757 6.757 0 016.22 0 2.471 2.471 0 011.44 2.08 2.491 2.491 0 01-1.44 2.09 6.35 6.35 0 01-3.11.75zm0-4.67a5.36 5.36 0 00-2.61.61c-.6.35-.94.78-.94 1.22 0 .44.34.87.94 1.22a5.836 5.836 0 005.22 0c.61-.35.94-.78.94-1.22 0-.44-.33-.87-.94-1.22a5.34 5.34 0 00-2.61-.61z" fill="#E6E6E6"/><path d="M272.615 265.361a3.497 3.497 0 011.39 2.6v3.93a3.48 3.48 0 01-1.57 2.73l-102.45 59.14a3.004 3.004 0 01-1.15.35h-.42v-7.54c.21.015.42.015.63 0 .33-.05.648-.158.94-.32l102.45-59.15c.78-.52.86-1.24.18-1.74z" fill="#37474F"/><path d="M194.776 233.921a2.183 2.183 0 012.26.25l62.73 36.2a.822.822 0 01.4 1.251.822.822 0 01-.4.299l-81.47 47a3.004 3.004 0 01-2.7 0l-62.73-36.2a.817.817 0 01-.4-1.251.817.817 0 01.4-.299l81.91-47.25z" fill="#79BB49"/><path d="M194.776 233.921a2.183 2.183 0 012.26.25l62.73 36.2a.822.822 0 01.4 1.251.822.822 0 01-.4.299l-81.47 47a3.004 3.004 0 01-2.7 0l-62.73-36.2a.817.817 0 01-.4-1.251.817.817 0 01.4-.299l81.91-47.25z" fill="#FAFAFA"/><path d="M191.736 242.79l-63.77 36.82c-2.22 1.29-2.22 3.37 0 4.65l44.87 25.91a8.875 8.875 0 008.06 0l63.77-36.82c2.22-1.28 2.22-3.37 0-4.65l-44.87-25.91a8.942 8.942 0 00-8.06 0z" fill="#79BB49"/><path d="M180.265 296.842a9.26 9.26 0 01-4.5-1.09l-22.19-12.81a3.377 3.377 0 01-1.55-5.032c.381-.559.921-.99 1.55-1.238l37.31-21.54a9.828 9.828 0 019 0l22.19 12.81a3.372 3.372 0 012.134 3.135 3.377 3.377 0 01-2.134 3.135l-37.31 21.54a9.25 9.25 0 01-4.5 1.09zm15.12-40.93a7.42 7.42 0 00-3.57.83l-37.3 21.54c-.77.44-1.21 1-1.21 1.52s.44 1.08 1.21 1.52l22.18 12.81a8.006 8.006 0 007.13 0l37.31-21.54c.76-.44 1.2-1 1.2-1.52s-.44-1.08-1.2-1.52l-22.19-12.81a7.356 7.356 0 00-3.56-.83z" fill="#FAFAFA"/><path d="M174.715 276.601l11.09 6.41a2.68 2.68 0 003.4-.71l8.57-11.54c.77-1 .38-1.62-.87-1.31l-21.95 5.43c-1.24.31-1.35 1.08-.24 1.72z" fill="#FAFAFA"/><path d="M99.216 285.66c-.65.5-.58 1.22.21 1.67l67.399 38.86c.483.259 1.023.39 1.57.38v7.56a3.108 3.108 0 01-1.57-.38l-67.4-38.85a3.49 3.49 0 01-1.57-2.72v-3.94a3.499 3.499 0 011.36-2.58zM234.985 248.631a1.057 1.057 0 00.95 0 .29.29 0 000-.55 1.057 1.057 0 00-.95 0 .28.28 0 00-.143.106.29.29 0 00.143.444zM236.505 252.951a2.142 2.142 0 001.91 0 .572.572 0 00.396-.55.583.583 0 00-.396-.55 2.084 2.084 0 00-1.91 0 .586.586 0 00-.396.55.581.581 0 00.396.55zM235.216 251.031c.35-.2.33-.54 0-.76l-6.27-3.61a1.447 1.447 0 00-1.31 0c-.35.21-.33.541 0 .761l6.27 3.62a1.475 1.475 0 001.31-.011z" fill="#263238"/><path d="M202.356 335.741c-.69.53-.61 1.29.22 1.76l45.53 26.291a3.646 3.646 0 003.31 0l87-50.241c.84-.48.91-1.25.19-1.78a3.715 3.715 0 011.46 2.741v2.19a3.608 3.608 0 01-1.65 2.87l-87 50.239a3.656 3.656 0 01-3.32 0l-45.53-26.29a3.643 3.643 0 01-1.65-2.87v-2.18a3.705 3.705 0 011.44-2.73z" fill="#79BB49"/><path opacity=".5" d="M202.356 335.741c-.69.53-.61 1.29.22 1.76l45.53 26.291a3.646 3.646 0 003.31 0l87-50.241c.84-.48.91-1.25.19-1.78a3.715 3.715 0 011.46 2.741v2.19a3.608 3.608 0 01-1.65 2.87l-87 50.239a3.656 3.656 0 01-3.32 0l-45.53-26.29a3.643 3.643 0 01-1.65-2.87v-2.18a3.705 3.705 0 011.44-2.73z" fill="#000"/><path d="M202.576 337.471l45.53 26.29a3.638 3.638 0 003.31 0l87-50.24a1.003 1.003 0 00.688-.95 1 1 0 00-.688-.95l-45.53-26.3a3.692 3.692 0 00-3.32 0l-87 50.23c-.9.57-.91 1.43.01 1.92zm80-45.35a2.283 2.283 0 012.38.27l41.4 23.9a.868.868 0 01.42 1.322.868.868 0 01-.42.318l-67.74 39.14a3.128 3.128 0 01-2.84 0l-41.39-23.9a.872.872 0 01-.42-1.322.872.872 0 01.42-.318l68.19-39.41z" fill="#79BB49"/><path opacity=".3" d="M202.576 337.471l45.53 26.29a3.638 3.638 0 003.31 0l87-50.24a1.003 1.003 0 00.688-.95 1 1 0 00-.688-.95l-45.53-26.3a3.692 3.692 0 00-3.32 0l-87 50.23c-.9.57-.91 1.43.01 1.92zm80-45.35a2.283 2.283 0 012.38.27l41.4 23.9a.868.868 0 01.42 1.322.868.868 0 01-.42.318l-67.74 39.14a3.128 3.128 0 01-2.84 0l-41.39-23.9a.872.872 0 01-.42-1.322.872.872 0 01.42-.318l68.19-39.41z" fill="#000"/><path d="M338.626 311.771a3.718 3.718 0 011.46 2.741v2.19a3.643 3.643 0 01-1.65 2.87l-87 50.239a3.56 3.56 0 01-1.66.4v-6a3.27 3.27 0 001.66-.4l87-50.239c.84-.5.91-1.271.19-1.801z" fill="#79BB49"/><path opacity=".6" d="M338.626 311.771a3.718 3.718 0 011.46 2.741v2.19a3.643 3.643 0 01-1.65 2.87l-87 50.239a3.56 3.56 0 01-1.66.4v-6a3.27 3.27 0 001.66-.4l87-50.239c.84-.5.91-1.271.19-1.801z" fill="#000"/><path d="M311.296 301.081a.675.675 0 01-.45-.64.678.678 0 01.45-.64 2.485 2.485 0 012.22 0 .675.675 0 01.472.64.67.67 0 01-.472.64 2.422 2.422 0 01-2.22 0z" fill="#000"/><path d="M229.646 350.292a5.933 5.933 0 01-2.87-.7 2.31 2.31 0 01-1.33-1.94 2.293 2.293 0 011.33-1.94 6.226 6.226 0 015.73 0c.377.172.699.444.933.786.235.341.372.74.397 1.154a2.301 2.301 0 01-1.33 1.94 5.856 5.856 0 01-2.86.7zm0-4.27a4.848 4.848 0 00-2.37.55 1.392 1.392 0 00-.83 1.08 1.367 1.367 0 00.83 1.07 5.332 5.332 0 004.73 0 1.365 1.365 0 00.83-1.07 1.393 1.393 0 00-.83-1.08 4.83 4.83 0 00-2.36-.55z" fill="#E6E6E6"/><path d="M312.396 305.332l-8.57-4.94c-.51-.3-.54-.76-.06-1a1.994 1.994 0 011.8 0l8.57 4.95c.51.3.53.76.05 1a2.005 2.005 0 01-1.79-.01z" fill="#000"/><path d="M282.586 292.151a2.279 2.279 0 012.38.27l41.4 23.9a.872.872 0 01.42 1.322.872.872 0 01-.42.318l-67.75 39.11a3.127 3.127 0 01-2.84 0l-41.39-23.9a.872.872 0 01-.42-1.322.872.872 0 01.42-.318l68.2-39.38z" fill="#FAFAFA"/><path d="M281.816 295.581l.44-.25a.336.336 0 01.34 0h.05c.1.05.1.14 0 .2l-.44.25a.34.34 0 01-.34 0c-.15-.05-.15-.14-.05-.2zM282.596 296.04l.77-.44a.338.338 0 01.34 0h.05a.1.1 0 01.05.154.1.1 0 01-.05.036l-.76.44a.36.36 0 01-.35 0h-.05c-.09-.05-.09-.14 0-.19zM283.386 296.47l1.08-.62a.36.36 0 01.35 0c.09.06.09.15 0 .2l-1.09.63a.398.398 0 01-.34 0h-.05c-.04-.04-.04-.13.05-.21zM284.216 296.952l1.87-1.08a.336.336 0 01.34 0h.05c.1.06.1.15 0 .2l-1.87 1.08a.365.365 0 01-.35 0c-.18-.06-.18-.15-.04-.2zM286.216 298.251l.27-.16-.88-.51c-.05 0-.05-.05 0-.07l.09-.06h2.21l.12.08h.06c.004.01.007.02.007.03a.073.073 0 01-.007.03l-1 .55.2.11s.05 0 .05.06v.05h-.07a.122.122 0 01-.08 0h-.1l-.19-.11-.28.15h-.18l-.15-.08s-.07-.05-.07-.07zm.6-.31l.69-.4h-1.33l.64.4zM287.386 298.761c0-.19.1-.36.38-.52.268-.159.579-.232.89-.21.336.016.663.115.95.29.113.064.22.138.32.22.075.06.136.135.18.22h-.26a1.007 1.007 0 00-.36-.32 1.449 1.449 0 00-.65-.19 1.165 1.165 0 00-.65.16c-.22.13-.32.25-.3.38.02.13.12.25.33.36.071.05.148.09.23.12a.682.682 0 00.22.07l.44-.25-.37-.21s-.05 0-.05-.06v-.05h.06a.153.153 0 01.09 0h.1l.58.34a.097.097 0 01.038.028.1.1 0 01.022.042l-.05.06-.63.36h-.13a2.56 2.56 0 01-.84-.32c-.35-.16-.51-.34-.54-.52zM302.266 305.821l-1 .6a.08.08 0 00-.057.023.08.08 0 00-.023.057.08.08 0 00.08.08l1 .61a.336.336 0 00.28 0l1-.61c.08 0 .08-.11 0-.16l-1-.6a.278.278 0 00-.28 0z" fill="#455A64"/><path d="M303.676 306.232a.286.286 0 00.164-.255.273.273 0 00-.045-.152.277.277 0 00-.119-.103.758.758 0 00-.72 0l-.36.21.09.15.36-.21a.626.626 0 01.54 0c.05 0 .09.07.09.11 0 .04 0 .07-.09.1l-.36.21.09.15.36-.21zM322.666 317.181a.342.342 0 00-.2-.29l-2.64-1.52a.89.89 0 00-.81 0l-1 .55a.357.357 0 00-.19.29.42.42 0 000 .15.579.579 0 00.16.14l2.64 1.53a.895.895 0 00.81 0l1-.56a.33.33 0 00.23-.29zm-4.61-1s0-.08.1-.12l1-.55a.685.685 0 01.62 0l2.64 1.52a.146.146 0 01.08.08c0 .05 0 .09-.1.13l-1 .55a.682.682 0 01-.62 0l-2.64-1.52c-.05.03-.08-.01-.08-.06v-.03z" fill="#455A64"/><path d="M318.376 316.262l.86-.5a.524.524 0 01.46 0l2.38 1.37-.87.5a.537.537 0 01-.46 0l-2.37-1.37zM322.596 317.551c.1.06 0 .2-.18.31l-.18.1a.665.665 0 01-.54.11l-.19-.1.91-.52.18.1zM277.606 308.832a1.637 1.637 0 00.89 1.07 4.29 4.29 0 004.39-.2 6.003 6.003 0 01-2.62-.65c-1.46-.85-1.84-1.81-.5-2.59a5.186 5.186 0 014.8.35c1.67 1 2.13 2.34 0 3.59a6.902 6.902 0 01-6.9.1 2.87 2.87 0 01-1.56-1.74l1.5.07zm6.08.36c1-.74.84-1.38 0-1.86a2.556 2.556 0 00-2.49 0c-.76.44-.65.95.21 1.45a4.332 4.332 0 002.28.41zM288.506 310.97c.56.33.66.77.21 1a1.995 1.995 0 01-1.79-.12c-.56-.33-.67-.78-.22-1a2 2 0 011.8.12zm-3.46 2c.57.32.67.76.21 1a2 2 0 01-1.78-.12c-.57-.33-.68-.78-.23-1a1.941 1.941 0 011.8.12zM289.216 313.31a6.076 6.076 0 016.21-.23c1.78 1 1.77 2.34-.4 3.59a6.206 6.206 0 01-6.27.26c-1.77-1.02-1.71-2.37.46-3.62zm4.33 2.5c1.82-1 1.81-1.72 1-2.2-.81-.48-2-.5-3.82.55-1.82 1.05-1.85 1.77-1 2.25.85.48 2.01.45 3.83-.6h-.01zM296.136 317.3a6.079 6.079 0 016.21-.23c1.78 1 1.77 2.34-.39 3.59a6.221 6.221 0 01-6.28.26c-1.78-1.02-1.72-2.37.46-3.62zm4.33 2.5c1.82-1.05 1.81-1.72 1-2.2-.81-.48-2-.5-3.82.55-1.82 1.05-1.85 1.77-1 2.25.85.48 2 .45 3.82-.6z" fill="#455A64"/><path d="M260.806 310.87l34.77 20.07c.74.43.74 1.12 0 1.54l-8.88 5.131a2.925 2.925 0 01-2.67 0l-34.81-20.071a.816.816 0 01-.39-1.239.818.818 0 01.39-.301l8.89-5.13a2.909 2.909 0 012.7 0z" fill="#79BB49"/><path d="M273.216 320.681l9 5.19c.41.23.42.61 0 .83a1.577 1.577 0 01-1.45 0l-8.97-5.23c-.4-.24-.42-.61 0-.84a1.584 1.584 0 011.42.05zM270.446 322.27l18.23 10.52c.41.24.42.61 0 .83a1.594 1.594 0 01-1.44 0l-18.23-10.52c-.41-.23-.42-.61 0-.83a1.59 1.59 0 011.44 0zM267.686 323.872l18.23 10.52c.4.23.42.61 0 .83a1.59 1.59 0 01-1.45 0l-18.22-10.51c-.41-.24-.43-.61 0-.84a1.632 1.632 0 011.44 0z" fill="#FAFAFA"/><path d="M264.886 315.621c1.15.67 1.28.75 1.71 1 .25.14.471.327.65.55a.7.7 0 010 .94 2.384 2.384 0 01-.65.55c-.43.27-.56.35-1.71 1s-1.29.74-1.76 1c-.302.162-.62.289-.95.38-.264.07-.537.104-.81.1a3.154 3.154 0 01-.82-.1 4.377 4.377 0 01-.94-.38c-.48-.25-.62-.32-1.77-1-1.15-.68-1.28-.74-1.71-1a2.384 2.384 0 01-.65-.55.727.727 0 010-.94c.179-.223.4-.41.65-.55.43-.27.57-.35 1.71-1 1.14-.65 1.29-.73 1.77-1 .296-.167.612-.294.94-.38.268-.069.544-.102.82-.1.273-.003.546.03.81.1.331.087.65.215.95.38.47.25.61.32 1.76 1zm.78-.44c-1.17-.68-1.32-.76-1.8-1a6.017 6.017 0 00-1.24-.49 5.046 5.046 0 00-1.26-.15 4.91 4.91 0 00-1.26.15 5.759 5.759 0 00-1.24.49c-.48.25-.63.33-1.8 1-1.17.67-1.31.76-1.75 1a3.065 3.065 0 00-.84.71 1.18 1.18 0 00-.27.73c.003.265.099.519.27.72.234.289.519.533.84.72.44.28.58.37 1.75 1s1.32.76 1.8 1c.393.211.809.376 1.24.49.412.105.835.155 1.26.15.425.004.848-.046 1.26-.15a5.96 5.96 0 001.24-.49c.48-.25.63-.34 1.8-1 1.17-.66 1.31-.76 1.74-1 .326-.184.614-.429.85-.72.169-.202.261-.457.26-.72 0-.266-.092-.523-.26-.73a3.01 3.01 0 00-.85-.71c-.43-.28-.58-.37-1.74-1z" fill="#fff"/><path d="M263.576 316.381a4.901 4.901 0 00-4.42 0 1.346 1.346 0 00-.906 1.275 1.345 1.345 0 00.906 1.275 4.854 4.854 0 004.42 0 1.344 1.344 0 00.907-1.275 1.352 1.352 0 00-.907-1.275zm-3.64 2.09a.873.873 0 01-.609-.83.868.868 0 01.609-.83 3.198 3.198 0 012.86 0 .878.878 0 010 1.66 3.195 3.195 0 01-2.86 0zM266.466 317.96a1.168 1.168 0 01-1 0 .322.322 0 010-.6 1.173 1.173 0 011 0c.29.17.29.43 0 .6z" fill="#fff"/><path d="M243.536 321.051l34.77 20.08a.822.822 0 01.39 1.24.816.816 0 01-.39.3l-8.89 5.13a2.996 2.996 0 01-2.66 0l-34.77-20.08a.797.797 0 01-.566-.765.801.801 0 01.566-.765l8.89-5.14a3.007 3.007 0 012.66 0z" fill="#79BB49"/><path d="M255.936 330.87l8.95 5.18c.41.24.43.61 0 .84a1.603 1.603 0 01-1.45 0l-8.95-5.19c-.41-.23-.42-.61 0-.83a1.565 1.565 0 011.45 0zM253.216 332.471l18.23 10.52c.4.23.42.61 0 .83a1.577 1.577 0 01-1.45 0l-18.22-10.51c-.41-.24-.43-.61 0-.84a1.645 1.645 0 011.44 0zM250.416 334.061l18.22 10.511c.41.24.42.61 0 .84a1.62 1.62 0 01-1.44 0l-18.2-10.541c-.41-.23-.42-.609 0-.829a1.57 1.57 0 011.42.019z" fill="#FAFAFA"/><path d="M239.096 329.53l1.32.76 3.81-2.19.91.53 1.38-.68-1-.59.73-.42c.3-.17.47-.21.72-.06l.71.41 1.32-.77-.91-.52a2.667 2.667 0 00-2.87 0l-1 .59-.68-.39-1.29.74.68.4-3.83 2.19z" fill="#fff"/><path d="M410.31 227.789a6.694 6.694 0 01-3.12 5.17l-67.78 39.14a6.885 6.885 0 01-6.22 0l-119.36-68.91a5.854 5.854 0 01-2.274-8.188 5.852 5.852 0 012.274-2.152l67.78-39.14a6.908 6.908 0 016.23 0l119.35 68.91a6.675 6.675 0 013.12 5.17z" fill="#79BB49"/><path opacity=".5" d="M210.721 198a6.688 6.688 0 003.11 5.17l119.36 68.93a6.41 6.41 0 003.11.74v-6.74a6.313 6.313 0 01-3.11-.75l-119.36-68.9c-1.51-.87-1.69-2.22-.56-3.2a6.649 6.649 0 00-2.55 4.75z" fill="#000"/><path opacity=".3" d="M407.19 226.209l-67.78 39.14a6.819 6.819 0 01-6.22 0l-119.36-68.91c-1.72-1-1.72-2.6 0-3.59l67.78-39.14a6.908 6.908 0 016.23 0l119.35 68.91c1.72.99 1.72 2.6 0 3.59z" fill="#000"/><path opacity=".6" d="M336.301 266.099v6.74a6.277 6.277 0 003.11-.74l67.78-39.1a5.83 5.83 0 00.32-10.14c1.4 1 1.29 2.47-.32 3.39l-67.78 39.15a6.374 6.374 0 01-3.11.7z" fill="#000"/><path d="M413.23 222.729c1.61-.93 1.52-2.5 1.52-4.49v-93.62a6.848 6.848 0 00-3.11-5.39l-119.35-68.91a6.637 6.637 0 00-6-.11c-1.61.93-1.52 2.5-1.52 4.48v93.63a6.89 6.89 0 003.11 5.39l119.35 68.91a6.696 6.696 0 006 .11z" fill="#79BB49"/><path opacity=".3" d="M284.72 54.69c0-2 1.4-2.78 3.12-1.8l119.36 68.919a6.276 6.276 0 012.19 2.32l4.45-2.58a6.346 6.346 0 00-2.2-2.33l-119.35-68.9a6.665 6.665 0 00-6-.12c-1.65.94-1.57 2.51-1.57 4.49z" fill="#000"/><path opacity=".5" d="M410.31 127.199v93.62c0 2-1.4 2.79-3.12 1.8l-119.35-68.91a6.876 6.876 0 01-3.11-5.39v-93.63c0-2 1.39-2.79 3.11-1.79l119.35 68.91a6.874 6.874 0 013.12 5.39z" fill="#000"/><path opacity=".7" d="M407.561 222.809a6.724 6.724 0 005.67-.08c1.61-.93 1.52-2.5 1.52-4.49v-93.62a6.273 6.273 0 00-.91-3.07l-4.45 2.58a6.42 6.42 0 01.92 3.07v93.62c0 1.84-1.2 2.67-2.75 1.99z" fill="#000"/><path d="M405.52 125.399l-115.07-66.4c-1-.6-1.87-.12-1.87 1.08v81.72a4.13 4.13 0 001.87 3.24l115.07 66.42c1 .59 1.87.11 1.87-1.08v-81.75a4.11 4.11 0 00-1.87-3.23z" fill="#FAFAFA"/><path d="M294.47 66.18l107 61.8a4.156 4.156 0 011.58 3.34V203c0 1.35-.71 2-1.58 1.52l-107-61.79a4.204 4.204 0 01-1.58-3.35V67.7c-.01-1.34.7-2.02 1.58-1.52z" fill="#79BB49"/><path d="M297.521 93.859v5a3.576 3.576 0 001.61 2.8l98.87 57.08c.89.51 1.62.09 1.62-.93v-5a3.565 3.565 0 00-1.62-2.81l-98.83-57.06c-.93-.53-1.65-.11-1.65.92z" fill="#FAFAFA"/><path d="M299 103.81l9.58 5.54a3.444 3.444 0 011.3 2.75v14.77c0 1.1-.58 1.66-1.3 1.25l-9.58-5.54a3.48 3.48 0 01-.963-1.226 3.474 3.474 0 01-.327-1.524v-14.77c.02-1.06.6-1.66 1.29-1.25z" fill="#79BB49"/><path opacity=".75" d="M299 103.81l9.58 5.54a3.444 3.444 0 011.3 2.75v14.77c0 1.1-.58 1.66-1.3 1.25l-9.58-5.54a3.48 3.48 0 01-.963-1.226 3.474 3.474 0 01-.327-1.524v-14.77c.02-1.06.6-1.66 1.29-1.25z" fill="#fff"/><path d="M307.73 118.319c-.24-.61-.62-1-.78-.87l-1.59 1.55 1.28 4.64-4.56-11.73c-.25-.65-.66-1.09-.81-.88l-3.54 4.97v3.88a3.461 3.461 0 001.29 2.75l9.59 5.54c.72.41 1.3-.15 1.3-1.25v-3.16l-2.18-5.44z" fill="#455A64"/><path d="M305.8 110.89c-.67-.39-1.21.14-1.21 1.18a3.232 3.232 0 001.21 2.58c.68.38 1.22-.14 1.22-1.18a3.195 3.195 0 00-1.22-2.58zM299.001 124.319l9.58 5.53a3.434 3.434 0 011.3 2.75v14.77c0 1.1-.58 1.66-1.3 1.25l-9.58-5.54a3.429 3.429 0 01-1.29-2.75v-14.76c.02-1.11.6-1.67 1.29-1.25z" fill="#79BB49"/><path opacity=".75" d="M299.001 124.319l9.58 5.53a3.434 3.434 0 011.3 2.75v14.77c0 1.1-.58 1.66-1.3 1.25l-9.58-5.54a3.429 3.429 0 01-1.29-2.75v-14.76c.02-1.11.6-1.67 1.29-1.25z" fill="#fff"/><path d="M307.73 138.82c-.24-.6-.62-1-.78-.87l-1.59 1.54 1.28 4.63-4.56-11.72c-.25-.66-.66-1.1-.81-.89l-3.54 4.94v3.88a3.435 3.435 0 001.29 2.75l9.59 5.54c.72.41 1.3-.15 1.3-1.25v-3.16l-2.18-5.39z" fill="#455A64"/><path d="M305.8 131.399c-.67-.39-1.21.13-1.21 1.17a3.232 3.232 0 001.21 2.58c.68.39 1.22-.14 1.22-1.17a3.177 3.177 0 00-1.22-2.58z" fill="#79BB49"/><path d="M313.66 113.679l84.94 49a2.209 2.209 0 011 1.71c0 .62-.45.86-1 .54l-84.94-49a2.203 2.203 0 01-1-1.71c-.01-.62.44-.86 1-.54zM313.66 118.06l84.94 49a2.194 2.194 0 011 1.7c0 .62-.45.87-1 .54l-84.94-49a2.175 2.175 0 01-1-1.7c-.01-.6.44-.86 1-.54zM313.66 122.428l84.94 49.001a2.219 2.219 0 011 1.71c0 .62-.45.86-1 .54l-84.94-49.001a2.172 2.172 0 01-1-1.699c-.01-.63.44-.871 1-.551zM313.66 126.81l84.94 49a2.185 2.185 0 011 1.7c0 .62-.45.87-1 .55l-84.94-49a2.219 2.219 0 01-1-1.71c-.01-.62.44-.86 1-.54zM313.66 134.069l84.94 49c.288.188.528.441.702.737.173.297.275.63.298.973 0 .62-.45.86-1 .54l-84.94-49a2.166 2.166 0 01-1-1.7c-.01-.62.44-.87 1-.55zM313.66 138.448l84.94 49c.288.186.529.436.703.731.173.296.275.627.297.969 0 .63-.45.87-1 .55l-84.94-49a2.216 2.216 0 01-1-1.71c-.01-.62.44-.86 1-.54zM313.66 142.83l84.94 49a2.185 2.185 0 011 1.7c0 .62-.45.86-1 .54l-84.94-49a2.184 2.184 0 01-1-1.7c-.01-.62.44-.87 1-.54zM313.66 147.198l84.94 49a2.212 2.212 0 011 1.71c0 .62-.45.86-1 .54l-84.94-49a2.19 2.19 0 01-1-1.71c-.01-.62.44-.86 1-.54z" fill="#FAFAFA"/><path d="M403.08 130.54v8.22l-110.2-63.63v-8.21c0-1 .52-1.47 1.15-1.11l107.9 62.29a3.06 3.06 0 011.15 2.44z" fill="#455A64"/><path d="M403.08 138.759v10l-110.2-63.62v-10l2.37 1.36c.64.37.85-.09 1.15-1.11l.81-2.64c.25-.95.51-1.48 1.15-1.1l27.51 15.88c.64.37 1.14 1 1.62 2.71l1 3.71c.36 1.33.54 2.06 1.18 2.42l73.41 42.39z" fill="#E6E6E6"/><path d="M398.61 129.278a3.256 3.256 0 011.23 2.61c0 1-.55 1.57-1.23 1.18a3.235 3.235 0 01-1.23-2.6c0-1.05.55-1.58 1.23-1.19zM394.181 126.72a3.244 3.244 0 011.23 2.61c0 1-.55 1.57-1.23 1.18a3.247 3.247 0 01-1.23-2.6c.05-1.05.55-1.58 1.23-1.19zM389.75 124.159a3.253 3.253 0 011.23 2.61c0 1-.55 1.57-1.23 1.18a3.244 3.244 0 01-1.23-2.61c0-1.04.55-1.57 1.23-1.18z" fill="#fff"/><path opacity=".5" d="M298.17 83l-1.81-1 .69-.84a.516.516 0 000-.41c-.06-.16-.15-.22-.21-.15l-1 1.2v.06c0 .06 0 0 0 0a.405.405 0 000 .11.565.565 0 000 .13.339.339 0 000 .09l1 2.33a.28.28 0 00.1.13.08.08 0 00.055.021.08.08 0 00.055-.022.59.59 0 000-.43l-.69-1.64 1.81 1c.08.05.15 0 .15-.21a.464.464 0 00-.15-.37zM299.681 83.849l1.81 1-.69-1.63a.58.58 0 010-.43c0-.1.15-.05.21.09l1 2.33v.09a.706.706 0 010 .13.405.405 0 010 .11c.004.02.004.04 0 .06l-1 1.19a.085.085 0 01-.023.015.072.072 0 01-.054 0 .297.297 0 01-.133-.176.541.541 0 010-.42l.69-.84-1.81-1a.5.5 0 01-.14-.39c0-.08.06-.18.14-.13zM305.62 84.9c0-.16-.1-.27-.15-.18l-.25.48c-.42-.63-.94-.77-1.28-.26a4.235 4.235 0 000 3.33c.138.464.422.87.81 1.16a.557.557 0 00.664-.036.562.562 0 00.146-.184.507.507 0 000-.42c-.05-.15-.14-.2-.2-.12-.34.49-.88.18-1.22-.7a3.225 3.225 0 010-2.49c.24-.35.58-.29.88.09l-.18.36c0 .09 0 .3.07.33l.74.35c.05 0 .09 0 .08-.15l-.11-1.56zM325.08 91l.66-1a.816.816 0 000-.58c-.08-.21-.21-.28-.29-.17l-.66 1-.66-1.74c-.07-.2-.2-.28-.28-.16a.723.723 0 000 .58l.66 1.73-.66 1a.723.723 0 000 .58c.025.079.074.148.14.2a.1.1 0 00.14 0l.66-1 .66 1.73c.025.079.074.148.14.2.009.01.021.018.034.024a.1.1 0 00.116-.025.806.806 0 000-.58l-.66-1.79z" fill="#455A64"/><path d="M308 90.418v-3.11c0-1 .52-1.47 1.16-1.11l86.26 49.85a3.004 3.004 0 011.15 2.44v3.11c0 1-.51 1.48-1.15 1.11l-86.26-49.84a3.075 3.075 0 01-.866-1.09 3.073 3.073 0 01-.294-1.36z" fill="#FAFAFA"/><path d="M395.421 141.849a.501.501 0 01-.42-.25l-.5-.76-.58.21-.241-.15a.763.763 0 01-.259-.67l.12-1.13-.5-1.17a.712.712 0 01.069-.74l.16-.18.301.06.389.12.22-.65a.469.469 0 01.167-.247.467.467 0 01.284-.093.584.584 0 01.5.5l.31 1.27.649.55a.739.739 0 01.24.52.567.567 0 01-.129.45l-.431.5.111 1.24a.528.528 0 01-.321.59.303.303 0 01-.139.03zm-.811-1.82a.503.503 0 01.41.24v-.27a.632.632 0 01.121-.46l.419-.49-.63-.55a.797.797 0 01-.22-.39l-.12-.47a.469.469 0 01-.57.31l-.15-.05.351.81c.053.13.074.271.059.41l-.1 1 .28-.1a.406.406 0 01.15-.02v.03z" fill="#E0E0E0"/><g opacity=".5" fill="#455A64"><path opacity=".5" d="M398.05 139.239a2.298 2.298 0 01-.32-.69c-.1-.38 0-.6.14-.5l3 1.76c.259.228.437.533.51.87.1.38 0 .6-.14.5l-3-1.76a.756.756 0 01-.19-.18zM398.05 141.579a2.194 2.194 0 01-.32-.69c-.1-.38 0-.6.14-.5l3 1.76c.256.23.434.534.51.87.1.38 0 .6-.14.5l-3-1.76a.756.756 0 01-.19-.18zM398.05 143.92a2.142 2.142 0 01-.32-.68c-.1-.38 0-.61.14-.5l3 1.75c.256.234.434.542.51.88.1.37 0 .6-.14.49l-3-1.75a.816.816 0 01-.19-.19z"/></g><path opacity=".3" d="M398.581 222.799l-110.79-64a3.41 3.41 0 00-3.11 0l-1.85 1a1.005 1.005 0 00-.412 1.431c.1.159.243.287.412.369l110.81 64a3.403 3.403 0 003.11 0l1.83-1a1.003 1.003 0 00.411-1.431 1.003 1.003 0 00-.411-.369z" fill="#000"/><path opacity=".3" d="M279.12 164l110.78 64c.86.5 1 1.23.27 1.64l-28.83 16.65a3.214 3.214 0 01-2.85-.15l-110.63-63.93c-.86-.5-1-1.23-.28-1.65l28.7-16.71a3.12 3.12 0 012.84.15z" fill="#263238"/><path d="M343.37 219.42l3.47 2a.545.545 0 00.5 0l3.32-1.91c.13-.08.12-.21 0-.29l-3.47-2a.555.555 0 00-.5 0l-3.32 1.91c-.16.08-.14.21 0 .29zm12-2.92l-3.46-2a.539.539 0 00-.51 0l-3.32 1.91c-.13.08-.11.21 0 .3l3.47 2a.607.607 0 00.51 0l3.31-1.92c.16-.08.15-.21 0-.29zm-11.2-6.5l-5.87-3.39a.563.563 0 00-.51 0l-3.31 1.92c-.14.07-.12.2 0 .29l5.87 3.39a.585.585 0 00.5 0l3.32-1.92c.16-.05.15-.18 0-.29zm6.14 3.54l-3.47-2a.563.563 0 00-.51 0l-3.33 1.93c-.13.07-.11.2 0 .29l3.47 2a.566.566 0 00.51 0l3.31-1.92c.18-.05.16-.18.02-.27v-.03zm-13.61-7.85l-3.47-2a.563.563 0 00-.51 0l-3.31 1.91c-.14.08-.12.21 0 .29l3.46 2a.542.542 0 00.51 0l3.32-1.91c.16-.05.14-.18 0-.26v-.03zm-5.07-2.93l-3.47-2a.539.539 0 00-.51 0l-3.31 1.91c-.14.08-.12.21 0 .3l3.46 2a.607.607 0 00.51 0l3.32-1.92c.16-.05.14-.18 0-.26v-.03zm-13.54 7.51l3.47 2a.545.545 0 00.5 0l3.32-1.92c.13-.07.11-.2 0-.29l-3.47-2a.563.563 0 00-.51 0l-3.34 1.94c-.13.08-.12.21.03.3v-.03zm-5.09-2.9l3.47 2a.522.522 0 00.5 0l3.32-1.91c.13-.08.12-.21 0-.3l-3.47-2a.582.582 0 00-.5 0l-3.32 1.92c-.14.08-.13.21 0 .29zm-5-2.93l3.47 2a.545.545 0 00.5 0l3.32-1.91c.13-.08.12-.21 0-.29l-3.47-2a.555.555 0 00-.5 0l-3.32 1.91c-.21.08-.2.21 0 .29zm-5.07-2.92l3.47 2a.585.585 0 00.5 0l3.32-1.92c.13-.07.12-.2 0-.29l-3.47-2a.517.517 0 00-.5 0l-3.32 1.92c-.21.07-.2.2-.05.29h.05zm35.42 15l3.47 2a.585.585 0 00.5 0l3.32-1.92c.13-.08.12-.21 0-.29l-3.46-2a.539.539 0 00-.51 0l-3.32 1.91c-.21.06-.19.19-.05.28l.05.02zm-15.14-3.27l7.73 4.46a.542.542 0 00.51 0l8.06-4.65c.13-.08.11-.21 0-.29l-4-2.31a.517.517 0 00-.5 0l-4.27 2.46a.517.517 0 01-.5 0L327 211a.539.539 0 00-.51 0l-3.31 1.91c-.18.09-.18.23-.02.32l.05.02zm3.4-13.37l-3.47-2a.563.563 0 00-.51 0l-3.31 1.92c-.13.07-.12.2 0 .29l3.46 2a.566.566 0 00.51 0l3.32-1.92c.11-.09.09-.17-.05-.31l.05.02zm-5.07-2.93l-3.47-2a.607.607 0 00-.51 0l-3.31 1.92c-.13.08-.12.21 0 .29l3.47 2a.522.522 0 00.5 0l3.32-1.91c.11-.1.09-.25-.05-.32l.05.02zm-54.13-16.19c-.13.07-.12.2 0 .29l3.47 2a.545.545 0 00.5 0l3.32-1.92c.13-.07.12-.2 0-.29l-3.47-2a.555.555 0 00-.5 0l-3.32 1.92zm13.57-7.22l-3.47-2a.517.517 0 00-.5 0l-3.32 1.91c-.13.08-.12.21 0 .3l3.47 2a.585.585 0 00.5 0l3.32-1.92c.11-.1.1-.23-.05-.31l.05.02zm-10.16 3.71c-.13.08-.12.21 0 .29l3.46 2a.542.542 0 00.51 0l3.32-1.92c.13-.07.11-.2 0-.29l-3.47-2a.607.607 0 00-.51 0l-3.31 1.92zm-5.45 8.08l3.47 2a.585.585 0 00.5 0l3.32-1.92c.13-.08.12-.21 0-.29l-3.47-2a.517.517 0 00-.5 0l-3.4 1.88c-.13.09-.12.22.03.31l.05.02zm-5.1-3.22c-.13.07-.12.2 0 .29l3.47 2a.545.545 0 00.5 0l3.32-1.92c.13-.07.12-.2 0-.29l-3.47-2a.555.555 0 00-.5 0l-3.32 1.92zm25.73-5.66l-3.47-2a.555.555 0 00-.5 0l-3.32 1.91c-.13.08-.12.21 0 .29l3.47 2a.545.545 0 00.5 0l3.32-1.91c.16-.08.15-.21 0-.29zm25.35 14.63l-3.47-2a.517.517 0 00-.5 0l-3.32 1.92c-.13.07-.12.2 0 .29l3.47 2a.545.545 0 00.5 0l3.32-1.92c.16-.07.15-.2 0-.29zm-20.28-11.71l-3.47-2a.555.555 0 00-.5 0l-3.32 1.92c-.13.07-.12.2 0 .29l3.47 2a.545.545 0 00.5 0l3.32-1.92c.16-.07.15-.2 0-.29zM316.42 194l-3.42-2a.555.555 0 00-.5 0l-3.32 1.91c-.13.08-.12.21 0 .29l3.47 2a.545.545 0 00.5 0l3.32-1.91c.11-.07.1-.2-.05-.29zm-10.14-5.86l-3.47-2a.582.582 0 00-.5 0l-3.31 1.91c-.13.08-.12.21 0 .29l3.47 2a.522.522 0 00.5 0l3.32-1.92c.15-.05.14-.18-.01-.27v-.01zm-5.07-2.92l-3.47-2a.555.555 0 00-.5 0l-3.32 1.91c-.13.08-.12.21 0 .29l3.47 2a.545.545 0 00.5 0l3.32-1.91c.16-.07.15-.2 0-.28v-.01zm-5.07-2.93l-3.47-2a.517.517 0 00-.5 0l-3.32 1.92c-.13.07-.12.2 0 .29l3.47 2a.585.585 0 00.5 0l3.32-1.92c.16-.07.15-.2 0-.28v-.01zm-3.4 13.36l3.47 2a.545.545 0 00.5 0l3.32-1.91c.13-.08.12-.21 0-.29l-3.47-2a.555.555 0 00-.5 0l-3.32 1.91c-.16.09-.15.22 0 .3v-.01zM366.58 223l-3.47-2a.517.517 0 00-.5 0l-3.32 1.92c-.13.07-.12.2 0 .29l3.47 2a.585.585 0 00.5 0l3.32-1.92c.16-.11.15-.24 0-.29zm-6.14-3.54l-3.46-2a.563.563 0 00-.51 0l-3.32 1.91c-.13.08-.11.21 0 .29l3.47 2a.566.566 0 00.51 0l3.31-1.91c.16-.11.15-.24 0-.32v.03zm11.21 6.47l-3.47-2a.555.555 0 00-.5 0l-3.32 1.91c-.13.08-.12.21 0 .29l3.47 2a.545.545 0 00.5 0l3.32-1.91c.16-.11.15-.22 0-.32v.03zm-45.09-16.18l3.47 2a.545.545 0 00.5 0l3.32-1.92c.13-.07.12-.2 0-.29l-3.47-2a.555.555 0 00-.5 0l-3.32 1.92c-.16.04-.14.17 0 .26v.03zm50.19 19.39c.13-.07.12-.2 0-.29l-3.47-2a.582.582 0 00-.5 0l-3.32 1.92c-.13.07-.12.2 0 .29l3.47 2a.522.522 0 00.5 0l3.32-1.92zm-78.94-30.52l3.47 2a.522.522 0 00.5 0l3.32-1.92c.13-.07.12-.2 0-.29l-3.47-2a.582.582 0 00-.5 0l-3.32 1.92c-.16.04-.15.18 0 .26v.03zM360 234.48l3.47 2a.545.545 0 00.5 0l3.32-1.91c.13-.08.12-.21 0-.29l-3.47-2a.555.555 0 00-.5 0l-3.32 1.91c-.18.08-.17.21 0 .29zm-.33-5.66l3.47 2a.522.522 0 00.5 0l3.32-1.92c.13-.07.12-.2 0-.29l-3.47-2a.582.582 0 00-.5 0l-3.32 1.92c-.18.07-.17.2-.02.29h.02zm12.36 3c.13-.07.12-.21 0-.29l-3.47-2a.517.517 0 00-.5 0l-3.32 1.92c-.13.07-.12.2 0 .29l3.47 2a.585.585 0 00.5 0l3.32-1.92zm1.07.62l-8.1 4.68c-.13.08-.12.21 0 .29l3.47 2a.522.522 0 00.5 0l8.06-4.65c.13-.08.12-.21 0-.29l-3.47-2a.555.555 0 00-.48 0l.02-.03zm-11.24-6.76l-3.47-2a.555.555 0 00-.5 0l-3.32 1.91c-.13.08-.12.21 0 .29l3.47 2a.545.545 0 00.5 0l3.32-1.91c.14-.05.14-.18-.02-.26l.02-.03zm-38.16-22l-3.46-2a.563.563 0 00-.51 0l-3.32 1.91c-.13.08-.11.21 0 .29l3.47 2a.566.566 0 00.51 0l3.31-1.91c.15-.08.13-.21-.02-.29h.02zm31.2 27.59c-.13.07-.12.2 0 .29l3.47 2a.585.585 0 00.5 0l3.32-1.92c.13-.07.12-.2 0-.29l-3.47-2a.517.517 0 00-.5 0l-3.32 1.92zm-26.15-24.67l-3.46-2a.607.607 0 00-.51 0l-3.32 1.92c-.13.08-.11.21 0 .29l3.47 2a.542.542 0 00.51 0l3.31-1.92c.16-.07.15-.2 0-.29zm-56.32-22.94c-.13.08-.12.21 0 .3l3.47 2a.585.585 0 00.5 0l3.32-1.92c.13-.08.12-.21 0-.29l-3.47-2a.517.517 0 00-.5 0l-3.32 1.91zm10.7-3.4l-3.47-2a.563.563 0 00-.51 0l-3.31 1.92c-.13.07-.12.2 0 .29l3.46 2a.566.566 0 00.51 0l3.32-1.92c.16-.07.14-.2 0-.29zm-5.6 6.62l3.47 2a.522.522 0 00.5 0l3.32-1.91c.13-.08.12-.21 0-.29l-3.47-2a.555.555 0 00-.5 0l-3.32 1.91c-.16.08-.15.21 0 .29zm5.07 2.93l3.47 2a.545.545 0 00.5 0l3.32-1.92c.13-.07.12-.2 0-.29l-3.47-2a.555.555 0 00-.5 0l-3.32 1.92c-.16.07-.15.2 0 .29zm5.07 2.93l3.47 2a.585.585 0 00.5 0l3.32-1.92c.13-.08.12-.21 0-.29l-3.47-2a.517.517 0 00-.5 0l-3.32 1.92c-.16.07-.15.2 0 .29zm.53-9.55l-3.47-2a.539.539 0 00-.51 0l-3.31 1.91c-.14.08-.12.21 0 .3l3.46 2a.566.566 0 00.51 0l3.32-1.91c.16-.09.14-.22 0-.3zm5.07 2.92l-3.47-2a.563.563 0 00-.51 0L286 186c-.14.08-.12.21 0 .29l3.46 2a.542.542 0 00.51 0l3.32-1.91c.14-.05.12-.18-.02-.27zm20.27 11.71l-3.46-2a.563.563 0 00-.51 0l-3.32 1.92c-.13.07-.11.2 0 .29l3.47 2a.542.542 0 00.51 0l3.31-1.92c.17-.11.15-.2 0-.29zm-5.06-2.92l-3.47-2a.563.563 0 00-.51 0l-3.32 1.91c-.13.08-.11.21 0 .29l3.47 2a.566.566 0 00.51 0l3.32-1.91c.16-.08.14-.19 0-.29zm10.13 5.85l-3.46-2a.539.539 0 00-.51 0l-3.32 1.92c-.13.07-.11.2 0 .29l3.47 2a.607.607 0 00.51 0l3.31-1.92c.17-.04.15-.21 0-.29zM298.34 189l-3.47-2a.563.563 0 00-.51 0l-3.31 1.92c-.14.07-.12.2 0 .29l3.47 2a.566.566 0 00.51 0l3.32-1.92c.15-.03.13-.16-.01-.29zm5.07 2.93l-3.47-2a.539.539 0 00-.51 0l-3.32 1.91c-.13.08-.11.21 0 .3l3.47 2a.607.607 0 00.51 0l3.32-1.92c.16-.04.14-.17 0-.22v-.07zm-33-3.74l3.47 2a.545.545 0 00.5 0l3.32-1.91c.13-.08.12-.21 0-.29l-3.47-2a.555.555 0 00-.5 0l-3.32 1.91c-.18.1-.17.25-.02.33l.02-.04zm2.18-15.43l3.32-1.92c.13-.07.12-.2 0-.29l-3.47-2a.555.555 0 00-.5 0l-3.32 1.92c-.13.07-.12.2 0 .29l3.47 2a.546.546 0 00.48.04l.02-.04zm-2.87 3.81l3.28-1.87c.13-.08.12-.21 0-.29l-5.34-3.08a.517.517 0 00-.5 0l-3.32 1.91c-.13.08-.12.21 0 .3l5.34 3.08a.553.553 0 00.52-.01l.02-.04zm9.43-6.67l3.31-1.92c.14-.07.12-.2 0-.29l-4.26-2.46a.539.539 0 00-.51 0l-3.32 1.92c-.13.07-.11.2 0 .29l4.27 2.46a.573.573 0 00.49.04l.02-.04zm3.27 1.89c-.13.07-.12.2 0 .29l3.47 2a.545.545 0 00.5 0l3.32-1.92c.13-.07.12-.2 0-.29l-3.47-2a.555.555 0 00-.5 0l-3.32 1.92zm-16.11 8.29l3.32-1.91c.13-.08.12-.21 0-.3l-6.67-3.85a.555.555 0 00-.5 0l-3.37 1.98c-.13.08-.12.21 0 .29l6.67 3.85a.522.522 0 00.53-.02l.02-.04zm-7.14 1.35l3.32-1.91c.13-.08.12-.21 0-.29l-4.27-2.47a.582.582 0 00-.5 0l-3.32 1.92c-.13.07-.12.2 0 .29l4.27 2.46a.522.522 0 00.48.04l.02-.04zm60.94 12.12c-.13.08-.12.21 0 .29l3.47 2a.522.522 0 00.5 0l3.32-1.91c.13-.08.12-.21 0-.3l-3.46-2a.607.607 0 00-.51 0l-3.32 1.92zM310 187.74c-.13.07-.11.2 0 .29l3.47 2a.566.566 0 00.51 0l3.31-1.92c.14-.07.12-.2 0-.29l-3.46-2a.563.563 0 00-.51 0l-3.32 1.92zm-22.48-13c-.13.07-.12.2 0 .29l3.47 2a.585.585 0 00.5 0l3.32-1.92c.13-.08.12-.21 0-.29l-3.47-2a.517.517 0 00-.5 0l-3.32 1.92zM315 190.66c-.13.08-.11.21 0 .29l3.47 2a.566.566 0 00.51 0l3.31-1.91c.13-.08.12-.21 0-.29l-3.46-2a.539.539 0 00-.51 0l-3.32 1.91zm-10.14-5.85c-.13.08-.11.21 0 .29l3.47 2a.542.542 0 00.51 0l3.31-1.92c.14-.07.12-.2 0-.29l-3.46-2a.607.607 0 00-.51 0l-3.32 1.92zm-46.08-1.9c.13-.08.11-.21 0-.29l-5.34-3.08a.517.517 0 00-.5 0l-3.32 1.92c-.13.07-.12.2 0 .29l5.33 3.08a.566.566 0 00.51 0l3.32-1.92zm38.81-2.3c-.13.08-.12.21 0 .29l3.47 2a.522.522 0 00.5 0l3.32-1.92c.13-.07.12-.2 0-.29l-3.47-2a.582.582 0 00-.5 0l-3.32 1.92zm-5.07-2.93c-.13.08-.12.21 0 .29l3.47 2a.545.545 0 00.5 0l3.32-1.91c.13-.08.12-.21 0-.29l-3.47-2a.555.555 0 00-.5 0l-3.32 1.91zm60.18 59.46c.13-.08.11-.21 0-.3l-8.54-4.93a.555.555 0 00-.5 0l-3.32 1.91c-.13.08-.12.21 0 .29l8.56 4.89a.522.522 0 00.5 0l3.3-1.86zm-11.21-6.48c.13-.07.12-.2 0-.29l-3.47-2a.582.582 0 00-.5 0l-3.32 1.92c-.13.08-.12.21 0 .29l3.47 2a.522.522 0 00.5 0l3.32-1.92zm-66.05-39.5l3.46 2a.542.542 0 00.51 0l3.32-1.92c.13-.07.11-.2 0-.29l-3.47-2a.582.582 0 00-.5 0l-3.32 1.92c-.14.07-.13.2.02.29h-.02zm55.91 33.65c.13-.07.12-.2 0-.29l-3.47-2a.517.517 0 00-.5 0l-3.32 1.92c-.13.07-.12.2 0 .29l3.47 2a.585.585 0 00.5 0l3.32-1.92zm26.42 15.25c.13-.07.11-.2 0-.29l-3.47-2a.542.542 0 00-.5 0l-3.32 1.92c-.13.07-.12.2 0 .29l3.46 2a.566.566 0 00.51 0l3.32-1.92zm1.75 4.84l8.06-4.65c.13-.07.12-.2 0-.29l-3.47-2a.555.555 0 00-.5 0l-8.06 4.65c-.14.08-.12.21 0 .3l3.46 2a.572.572 0 00.53-.01h-.02zm-47.11-31c.13-.07.11-.2 0-.29l-4.27-2.46a.539.539 0 00-.51 0l-3.32 1.85c-.14.07-.12.2 0 .29l4.26 2.46a.566.566 0 00.51 0l3.33-1.85zm12.8 7.4c.14-.08.12-.21 0-.29l-5.33-3.08a.539.539 0 00-.51 0l-3.31 1.91c-.14.08-.12.21 0 .3l5.33 3.08a.566.566 0 00.51 0l3.31-1.92zm-24.52-14.2c.13-.08.11-.21 0-.3l-28.55-16.48a.607.607 0 00-.51 0l-3.32 1.92c-.13.08-.11.21 0 .29L296.86 209a.542.542 0 00.51 0l3.32-1.9zm-30.15-17.41c.13-.08.11-.21 0-.29l-4.27-2.47a.607.607 0 00-.51 0l-3.32 1.92c-.13.08-.11.21 0 .29l4.27 2.47a.566.566 0 00.51 0l3.32-1.92zm36 20.79c.13-.07.11-.2 0-.29l-4.27-2.46a.563.563 0 00-.51 0l-3.31 1.92c-.14.07-.12.2 0 .29l4.26 2.46a.542.542 0 00.51 0l3.32-1.92zm-41.87-24.18c.13-.08.11-.21 0-.29l-4.27-2.47a.563.563 0 00-.51 0l-3.32 1.91c-.13.08-.11.21 0 .29l4.27 2.47a.566.566 0 00.51 0l3.32-1.91zm53.63 31c.13-.07.12-.2 0-.29l-4.3-2.5a.539.539 0 00-.51 0l-3.31 1.92c-.14.07-.12.2 0 .29l4.26 2.46a.566.566 0 00.51 0l3.35-1.88zm18.14 10.48c.13-.08.12-.21 0-.29l-3.47-2a.555.555 0 00-.5 0l-3.32 1.91c-.13.08-.12.21 0 .29l3.47 2a.545.545 0 00.5 0l3.32-1.91zm13.73 6.55l3.47 2a.545.545 0 00.5 0l3.32-1.91c.13-.08.12-.21 0-.29l-3.47-2a.555.555 0 00-.5 0l-3.35 1.87c-.14.08-.14.21.03.29v.04zm-1.73-11.94l3.47 2a.522.522 0 00.5 0l3.32-1.92c.13-.07.12-.2 0-.29l-3.47-2a.555.555 0 00-.5 0l-3.32 1.92c-.16.03-.15.16 0 .25v.04zM316 214.58l10.14 5.85a.607.607 0 00.51 0l3.32-1.92c.13-.07.11-.21 0-.29l-10.14-5.85a.539.539 0 00-.51 0l-3.32 1.91c-.15.08-.13.21 0 .3zm29.06 16.5c-.13.07-.12.2 0 .29l3.47 2a.585.585 0 00.5 0l3.32-1.92c.13-.07.12-.2 0-.29l-3.47-2a.517.517 0 00-.5 0l-3.32 1.92zm4.77-2.45l3.47 2a.522.522 0 00.5 0l3.32-1.92c.13-.07.12-.2 0-.29l-3.47-2a.582.582 0 00-.5 0l-3.32 1.92c-.15.07-.14.21.01.29h-.01zm-38.9-17l3.47 2a.566.566 0 00.51 0l3.32-1.92c.13-.07.11-.2 0-.29l-3.47-2a.563.563 0 00-.51 0l-3.32 1.92c-.15.09-.13.22.01.31l-.01-.02zm22.92 13c-.13.07-.12.2 0 .29l3.47 2a.585.585 0 00.5 0l3.32-1.92c.13-.07.12-.2 0-.29l-3.47-2a.517.517 0 00-.5 0l-3.32 1.92zM285.6 197l3.46 2a.566.566 0 00.51 0l3.32-1.91c.13-.08.11-.21 0-.29l-3.47-2a.563.563 0 00-.51 0l-3.31 1.91c-.17.09-.15.22 0 .29zm5.07 2.93l3.46 2a.542.542 0 00.51 0L298 200c.13-.07.11-.2 0-.29l-3.47-2a.607.607 0 00-.51 0l-3.31 1.92c-.21.1-.19.23-.04.31v-.01zm-10.14-5.85l3.46 2a.607.607 0 00.51 0l3.32-1.92c.13-.07.11-.21 0-.29l-3.47-2a.539.539 0 00-.51 0l-3.31 1.92c-.16.08-.15.21 0 .3v-.01zm20.27 11.7l3.47 2a.566.566 0 00.51 0l3.32-1.91c.13-.08.11-.21 0-.29l-3.47-2a.563.563 0 00-.51 0l-3.32 1.91c-.16.09-.14.22 0 .3v-.01zm-5.06-2.92l3.46 2a.566.566 0 00.51 0L303 203c.13-.07.11-.2 0-.29l-3.47-2a.563.563 0 00-.51 0l-3.31 1.92c-.14.02-.12.15.03.24v-.01zm10.13 5.85l3.47 2a.542.542 0 00.51 0l3.32-1.91c.13-.08.11-.21 0-.3l-3.47-2a.607.607 0 00-.51 0l-3.32 1.92c-.16.09-.14.22 0 .3v-.01zm70.53 16c-.13.08-.12.21 0 .3l3.47 2a.545.545 0 00.5 0l.89-.51c.13-.07.11-.2 0-.29l-3.47-2a.607.607 0 00-.51 0l-.88.5zm-27.63-14.54c-.13.07-.12.2 0 .29l3.47 2a.585.585 0 00.5 0l3.32-1.92c.13-.07.12-.2 0-.29l-3.47-2a.517.517 0 00-.5 0l-3.32 1.92zm10.14 5.83c-.13.08-.12.21 0 .29l3.46 2a.542.542 0 00.51 0l3.32-1.92c.13-.07.11-.2 0-.29l-3.47-2a.582.582 0 00-.5 0l-3.32 1.92zm-16.33-9.43c-.13.08-.12.21 0 .29l3.47 2a.545.545 0 00.5 0l3.35-1.86c.13-.08.12-.21 0-.29l-3.47-2a.555.555 0 00-.5 0l-3.35 1.86zm11.26 6.5c-.13.08-.12.21 0 .29l3.47 2a.545.545 0 00.5 0l3.32-1.91c.13-.08.12-.21 0-.29l-3.47-2a.555.555 0 00-.5 0l-3.32 1.91zm-21.4-12.35c-.13.07-.12.2 0 .29l3.47 2a.545.545 0 00.5 0l3.32-1.92c.13-.07.12-.2 0-.29l-3.47-2a.555.555 0 00-.5 0l-3.32 1.92zm5.07 2.93c-.13.07-.12.2 0 .29l3.47 2a.585.585 0 00.5 0l3.32-1.92c.13-.08.12-.21 0-.29l-3.47-2a.517.517 0 00-.5 0l-3.32 1.92zm28.75 15.19c-.13.08-.12.21 0 .29l3.47 2a.522.522 0 00.5 0l.89-.51c.13-.07.11-.2 0-.29l-3.47-2a.539.539 0 00-.51 0l-.88.51zm15.21 8.78c-.13.08-.12.21 0 .29l3.47 2a.522.522 0 00.5 0l.89-.51c.13-.07.11-.2 0-.29l-3.47-2a.563.563 0 00-.51 0l-.88.51zm-7 4c-.13.07-.12.2 0 .29l3.47 2a.585.585 0 00.5 0l3.32-1.92c.13-.07.12-.21 0-.29l-3.47-2a.517.517 0 00-.5 0l-3.32 1.92zm-19.26 5.57l3.47 2a.522.522 0 00.5 0l3.32-1.92c.13-.07.12-.2 0-.29L359 235a.582.582 0 00-.5 0l-3.32 1.92c-.1.08-.09.22.06.3l-.03-.03zm16.09-15.45c-.13.07-.12.2 0 .29l3.47 2a.545.545 0 00.5 0l.89-.51c.13-.08.11-.21 0-.29l-3.47-2a.563.563 0 00-.51 0l-.88.51zm-44-24c-.13.08-.12.21 0 .29l3.47 2a.522.522 0 00.5 0l3.32-1.91c.13-.08.12-.21 0-.29l-3.47-2a.555.555 0 00-.5 0l-3.32 1.91z" fill="#263238"/><path opacity=".4" d="M316.36 226.259l-.72.41-18.89 10.9-33.59-19.39-.7-.4 19.6-11.32 34.3 19.8z" fill="#000"/><path d="M315.64 226.67l-18.89 10.9-33.59-19.39 18.9-10.91 33.58 19.4z" fill="#79BB49"/><path opacity=".45" d="M315.64 226.67l-18.89 10.9-33.59-19.39 18.9-10.91 33.58 19.4z" fill="#000"/></svg>