<svg width="157" height="135" viewBox="0 0 157 135" fill="none" xmlns="http://www.w3.org/2000/svg"><path d="M22.556 122.673c30.069 15.71 78.826 15.71 108.895 0 30.069-15.71 30.072-41.18 0-56.89s-78.826-15.71-108.899 0c-30.072 15.71-30.068 41.18.004 56.89z" fill="#F5F5F5"/><path d="M28.784 87.14l-15.352 8.864a2.215 2.215 0 000 3.92l28.636 16.538a2.645 2.645 0 002.362 0l15.352-8.864a2.218 2.218 0 001.183-1.96 2.214 2.214 0 00-1.184-1.96L31.146 87.14a2.607 2.607 0 00-2.362 0z" fill="#79BB49"/><path d="M28.784 87.14l-15.352 8.864a2.215 2.215 0 000 3.92l28.636 16.538a2.645 2.645 0 002.362 0l15.352-8.864a2.218 2.218 0 001.183-1.96 2.214 2.214 0 00-1.184-1.96L31.146 87.14a2.607 2.607 0 00-2.362 0z" fill="#79BB49"/><path d="M28.784 87.14l-15.352 8.864a2.215 2.215 0 000 3.92l28.636 16.538a2.645 2.645 0 002.362 0l15.352-8.864a2.218 2.218 0 001.183-1.96 2.214 2.214 0 00-1.184-1.96L31.146 87.14a2.607 2.607 0 00-2.362 0z" fill="#79BB49"/><path opacity=".1" d="M28.784 87.14l-15.352 8.864a2.215 2.215 0 000 3.92l28.636 16.538a2.645 2.645 0 002.362 0l15.352-8.864a2.218 2.218 0 001.183-1.96 2.214 2.214 0 00-1.184-1.96L31.146 87.14a2.607 2.607 0 00-2.362 0z" fill="#000"/><path d="M43.249 94.123L31.146 87.14a2.606 2.606 0 00-2.362 0l-15.352 8.864a2.215 2.215 0 000 3.92l28.636 16.538c.364.19.77.287 1.18.279V94.123z" fill="#79BB49"/><path d="M42.073 113.894l-28.64-16.537c-.653-.373-.653-.98 0-1.362l15.35-8.855a2.607 2.607 0 012.363 0l28.635 16.538c.652.372.652.98 0 1.362l-15.352 8.854a2.595 2.595 0 01-2.356 0z" fill="#79BB49"/><path d="M42.073 113.894l-28.64-16.537c-.653-.373-.653-.98 0-1.362l15.35-8.855a2.607 2.607 0 012.363 0l28.635 16.538c.652.372.652.98 0 1.362l-15.352 8.854a2.595 2.595 0 01-2.356 0z" fill="#79BB49"/><path d="M42.073 113.894l-28.64-16.537c-.653-.373-.653-.98 0-1.362l15.35-8.855a2.607 2.607 0 012.363 0l28.635 16.538c.652.372.652.98 0 1.362l-15.352 8.854a2.595 2.595 0 01-2.356 0z" fill="#79BB49"/><path opacity=".2" d="M42.073 113.894l-28.64-16.537c-.653-.373-.653-.98 0-1.362l15.35-8.855a2.607 2.607 0 012.363 0l28.635 16.538c.652.372.652.98 0 1.362l-15.352 8.854a2.595 2.595 0 01-2.356 0z" fill="#fff"/><path d="M17.151 97.685l14.558-8.403a1.03 1.03 0 01.94 0l23.413 13.538a.29.29 0 01.139.439.29.29 0 01-.139.105l-14.553 8.404a1.036 1.036 0 01-.946 0L17.151 98.254a.29.29 0 010-.569z" fill="#fff"/><path d="M51.157 108.901a1.658 1.658 0 01-1.519 0c-.421-.24-.421-.632 0-.877a1.684 1.684 0 011.52 0c.42.245.42.637 0 .877z" fill="#79BB49"/><path opacity=".1" d="M51.157 108.901a1.658 1.658 0 01-1.519 0c-.421-.24-.421-.632 0-.877a1.684 1.684 0 011.52 0c.42.245.42.637 0 .877z" fill="#000"/><path d="M22.306 92.247a.407.407 0 01-.382 0 .117.117 0 010-.22.407.407 0 01.383 0 .118.118 0 01.055.177.118.118 0 01-.055.043zM21.694 94a.863.863 0 01-.774 0 .236.236 0 010-.445.862.862 0 01.774 0 .235.235 0 010 .446zM22.238 93.22c-.142-.083-.138-.22 0-.308l2.538-1.47a.608.608 0 01.529 0c.142.083.132.22 0 .308l-2.533 1.47a.593.593 0 01-.534 0z" fill="#79BB49"/><path d="M22.306 92.04a.117.117 0 010 .22.407.407 0 01-.382 0M21.694 94a.863.863 0 01-.774 0 .236.236 0 010-.445.862.862 0 01.774 0 .235.235 0 010 .446zM22.238 93.22c-.142-.083-.138-.22 0-.308l2.538-1.47a.608.608 0 01.529 0c.142.083.132.22 0 .308l-2.533 1.47a.593.593 0 01-.534 0z" fill="#79BB49"/><path d="M22.306 92.04a.117.117 0 010 .22.407.407 0 01-.382 0M21.694 94a.863.863 0 01-.774 0 .236.236 0 010-.445.862.862 0 01.774 0 .235.235 0 010 .446zM22.238 93.22c-.142-.083-.138-.22 0-.308l2.538-1.47a.608.608 0 01.529 0c.142.083.132.22 0 .308l-2.533 1.47a.593.593 0 01-.534 0z" fill="#79BB49"/><path opacity=".1" d="M22.306 92.247a.407.407 0 01-.382 0 .117.117 0 010-.22.407.407 0 01.383 0 .118.118 0 01.055.177.118.118 0 01-.055.043z" fill="#000"/><path opacity=".1" d="M22.306 92.04a.117.117 0 010 .22.407.407 0 01-.382 0M21.694 94a.863.863 0 01-.774 0 .236.236 0 010-.445.862.862 0 01.774 0 .235.235 0 010 .446zM22.238 93.22c-.142-.083-.138-.22 0-.308l2.538-1.47a.608.608 0 01.529 0c.142.083.132.22 0 .308l-2.533 1.47a.593.593 0 01-.534 0z" fill="#000"/><path d="M130.787 83.295l24.211 13.975a2.22 2.22 0 011.183 1.96 2.218 2.218 0 01-1.183 1.96l-37.5 21.653a2.605 2.605 0 01-2.362 0L90.93 108.864a2.213 2.213 0 01-.864-3.105c.208-.346.507-.628.864-.815l37.52-21.649a2.595 2.595 0 012.337 0z" fill="#79BB49"/><path d="M130.787 83.295l24.211 13.975a2.22 2.22 0 011.183 1.96 2.218 2.218 0 01-1.183 1.96l-37.5 21.653a2.605 2.605 0 01-2.362 0L90.93 108.864a2.213 2.213 0 01-.864-3.105c.208-.346.507-.628.864-.815l37.52-21.649a2.595 2.595 0 012.337 0z" fill="#79BB49"/><path opacity=".2" d="M130.787 83.295l24.211 13.975a2.22 2.22 0 011.183 1.96 2.218 2.218 0 01-1.183 1.96l-37.5 21.653a2.605 2.605 0 01-2.362 0L90.93 108.864a2.213 2.213 0 01-.864-3.105c.208-.346.507-.628.864-.815l37.52-21.649a2.595 2.595 0 012.337 0z" fill="#000"/><path d="M107.463 95.397l20.987-12.103a2.594 2.594 0 012.356 0l24.211 13.975a2.22 2.22 0 011.184 1.96 2.21 2.21 0 01-1.184 1.96l-37.499 21.653c-.364.191-.77.287-1.181.28v-4.714l-8.874-23.01z" fill="#79BB49"/><path d="M117.498 120.285l37.5-21.653c.651-.373.651-.98 0-1.363l-24.211-13.975a2.598 2.598 0 00-2.357 0l-37.5 21.654c-.652.372-.652.98 0 1.362l24.206 13.975a2.62 2.62 0 002.362 0z" fill="#79BB49"/><path opacity=".1" d="M117.498 120.285l37.5-21.653c.651-.373.651-.98 0-1.363l-24.211-13.975a2.598 2.598 0 00-2.357 0l-37.5 21.654c-.652.372-.652.98 0 1.362l24.206 13.975a2.62 2.62 0 002.362 0z" fill="#000"/><path d="M151.279 98.96l-23.412-13.52a1.069 1.069 0 00-.946 0L94.65 104.06a.29.29 0 000 .544l23.412 13.519a1.064 1.064 0 00.946 0l32.271-18.62a.289.289 0 000-.543z" fill="#FAFAFA"/><path d="M104.057 112.719a1.658 1.658 0 001.519 0 .457.457 0 00.32-.438.459.459 0 00-.32-.439 1.657 1.657 0 00-1.519 0 .457.457 0 00-.32.439.458.458 0 00.32.438z" fill="#79BB49"/><path opacity=".3" d="M104.057 112.719a1.658 1.658 0 001.519 0 .457.457 0 00.32-.438.459.459 0 00-.32-.439 1.657 1.657 0 00-1.519 0 .457.457 0 00-.32.439.458.458 0 00.32.438z" fill="#000"/><path d="M141.572 91.061a.417.417 0 00.387 0 .123.123 0 00.056-.043.123.123 0 00.021-.067.123.123 0 00-.021-.067.122.122 0 00-.056-.043.417.417 0 00-.387 0 .117.117 0 000 .22zM142.17 92.825a.852.852 0 00.769 0 .23.23 0 00.116-.086.234.234 0 00-.116-.36.85.85 0 00-.769 0 .235.235 0 000 .446zM141.646 92.042c.142-.083.132-.22 0-.309l-2.538-1.47a.58.58 0 00-.53 0c-.142.079-.137.216 0 .304l2.539 1.47a.576.576 0 00.529.005z" fill="#79BB49"/><g opacity=".3" fill="#000"><path opacity=".3" d="M141.573 91.063a.413.413 0 00.387 0 .122.122 0 00.056-.043.123.123 0 00.021-.067.123.123 0 00-.021-.067.123.123 0 00-.056-.043.418.418 0 00-.387 0 .118.118 0 00-.056.177c.014.02.033.035.056.043zM142.17 92.827a.853.853 0 00.769 0 .23.23 0 00.116-.086.234.234 0 00-.116-.36.85.85 0 00-.769 0 .234.234 0 00-.116.36c.029.04.069.07.116.086zM141.646 92.042c.142-.083.132-.22 0-.309l-2.538-1.47a.58.58 0 00-.53 0c-.142.079-.137.216 0 .304l2.539 1.47a.576.576 0 00.529.005z"/></g><path d="M74.256 65.998l5.081-2.94a2.729 2.729 0 001.22-2.68l-1.871-9.732 2.214-1.279 11.064 8.953c.148.779 3.622 7.56 2.558 11.318-.94 3.313-6.37 3.67-6.987 4.018l-13.28-5.11v-2.548z" fill="#79BB49"/><path d="M87.535 73.667l5.077-2.94a2.724 2.724 0 001.225-2.68l-1.872-9.727 2.21-1.279 2.141 11.128a4.112 4.112 0 01-1.847 4.042l-6.934 4.004v-2.548z" fill="#79BB49"/><path opacity=".3" d="M87.535 73.667l5.077-2.94a2.724 2.724 0 001.225-2.68l-1.872-9.727 2.21-1.279 2.141 11.128a4.112 4.112 0 01-1.847 4.042l-6.934 4.004v-2.548z" fill="#000"/><path d="M74.256 65.998l13.279 7.668v2.558l-13.28-7.668v-2.558z" fill="#79BB49"/><path opacity=".4" d="M74.256 65.998l13.279 7.668v2.558l-13.28-7.668v-2.558z" fill="#fff"/><path d="M62.07 1.44a2.529 2.529 0 00-1.108 2.004v40.738a2.617 2.617 0 001.18 2.044l50.78 29.316a2.214 2.214 0 003.395-1.96V32.844a2.606 2.606 0 00-1.181-2.044L64.358 1.485a2.529 2.529 0 00-2.289-.044z" fill="#79BB49"/><path d="M112.922 75.541a2.214 2.214 0 003.396-1.96V32.844a2.44 2.44 0 00-.343-1.161l-39.514 22.81 36.461 21.05z" fill="#79BB49"/><path opacity=".2" d="M113.039 75.455a2.218 2.218 0 003.106-.81c.194-.352.29-.75.275-1.15l-.22-40.744c-.018-.41-.14-.81-.353-1.161l-39.39 23.03 36.582 20.835z" fill="#000"/><path d="M60.962 44.183V3.444c0-.754.53-1.058 1.18-.686l50.78 29.322a2.609 2.609 0 011.18 2.043v40.739c0 .755-.529 1.058-1.18.681l-50.78-29.317a2.616 2.616 0 01-1.18-2.043z" fill="#79BB49"/><path opacity=".4" d="M60.962 44.183V3.444c0-.754.53-1.058 1.18-.686l50.78 29.322a2.609 2.609 0 011.18 2.043v40.739c0 .755-.529 1.058-1.18.681l-50.78-29.317a2.616 2.616 0 01-1.18-2.043z" fill="#fff"/><path d="M63.015 4.54l49.039 28.313a2.077 2.077 0 01.941 1.636v36.167c0 .603-.421.848-.941.55L63.015 42.892a2.088 2.088 0 01-.946-1.637V5.085c0-.603.422-.848.946-.544z" fill="#fff"/><path d="M55.356 64.11L44.43 70.416a2.215 2.215 0 000 3.92l35.28 20.37a2.607 2.607 0 002.362 0L92.998 88.4a2.22 2.22 0 000-3.92l-35.28-20.37a2.596 2.596 0 00-2.362 0z" fill="#37474F"/><path d="M80.89 94.98c.412.008.82-.09 1.181-.285L93 88.39a2.22 2.22 0 000-3.92l-1.137-.656H80.89V94.98z" fill="#263238"/><path d="M93.003 84.49l-35.28-20.37a2.607 2.607 0 00-2.362 0l-10.927 6.312c-.652.372-.652.98 0 1.362l35.28 20.37a2.626 2.626 0 002.357 0l10.927-6.312c.661-.372.661-.985.005-1.362z" fill="#455A64"/><path d="M87.971 83.481a.216.216 0 01-.181 0l-1.083-.627c-.044 0-.04-.074 0-.103l.358-.206a.201.201 0 01.181 0l1.083.627c.044.025.04.074 0 .103l-.358.206zM86.388 82.569a.215.215 0 01-.181 0l-1.083-.627c-.044 0-.04-.074 0-.103l.358-.206a.207.207 0 01.176 0l1.088.627c.044.025.04.074 0 .103l-.358.206zM89.553 84.398a.186.186 0 01-.176 0l-1.083-.623c-.05-.03-.044-.073 0-.108l.357-.205a.196.196 0 01.182 0l1.083.622c.049.03.044.073 0 .108l-.363.206zM91.141 85.312a.215.215 0 01-.181 0l-1.083-.622c-.05-.025-.04-.074 0-.103l.358-.206a.206.206 0 01.176 0l1.088.627c.044.03.039.074 0 .103l-.358.201zM75.59 78.094l-1.353.775c-.05.034-.059.078 0 .108l1.832 1.058a.215.215 0 00.182 0l1.347-.78c.054-.029.059-.073 0-.102l-1.837-1.059a.192.192 0 00-.172 0zM54.99 66.203l-1.348.78c-.054.029-.059.078 0 .102l1.083.628a.2.2 0 00.181 0l1.348-.78c.053-.029.058-.073 0-.102l-1.083-.623a.196.196 0 00-.182-.005zM56.576 67.12l-1.347.779c-.054.029-.059.073 0 .102l1.083.628a.216.216 0 00.181 0l1.347-.78c.054-.029.06-.078 0-.102l-1.087-.627a.206.206 0 00-.177 0zM53.672 71.461l1.347-.779c.054-.034.059-.078 0-.103l-1.048-.647a.186.186 0 00-.177 0l-1.347.78c-.054.029-.06.078 0 .102l1.033.647a.196.196 0 00.192 0zM55.254 72.353l1.347-.78c.054-.029.06-.073 0-.102l-1.083-.623a.196.196 0 00-.18 0l-1.349.78c-.053.029-.058.078 0 .102l1.088.628a.19.19 0 00.177-.005zM56.84 73.27l1.348-.78c.05-.03.059-.078 0-.103l-1.083-.627a.201.201 0 00-.181 0l-1.347.779c-.054.03-.06.073 0 .103l1.082.622a.196.196 0 00.182.005zM58.424 74.186l1.347-.78c.054-.034.059-.078 0-.102l-1.088-.627a.186.186 0 00-.176 0l-1.347.779c-.054.029-.06.078 0 .102l1.082.628a.196.196 0 00.182 0zM58.16 68.032l-1.348.779c-.054.034-.059.078 0 .103l1.088.627a.186.186 0 00.176 0l1.347-.78c.054-.029.06-.078 0-.102l-1.082-.627a.215.215 0 00-.182 0zM59.742 68.946l-1.362.779c-.054.03-.059.078 0 .103l1.083.627a.2.2 0 00.181 0l1.348-.779c.049-.03.059-.073 0-.103l-1.083-.622a.196.196 0 00-.167-.005zM70.86 79.79c.054-.029.059-.073 0-.103l-1.083-.622a.196.196 0 00-.181 0l-1.348.78c-.054.029-.059.078 0 .102l1.083.627a.201.201 0 00.181 0l1.348-.784zM72.418 76.263l-1.347.779c-.054.034-.06.078 0 .102l1.082.628a.196.196 0 00.182 0l1.347-.78c.054-.029.06-.078 0-.102l-1.092-.632a.197.197 0 00-.172.005zM65.191 80.315l1.348-.78c.054-.028.058-.078 0-.102l-1.069-.622a.201.201 0 00-.18 0l-1.348.774c-.054.034-.06.078 0 .108l1.087.622a.187.187 0 00.162 0zM68.126 80.454c.049-.035.058-.079 0-.108l-1.083-.623a.195.195 0 00-.182 0l-1.347.78c-.054.029-.059.078 0 .102l1.083.628a.202.202 0 00.181 0l1.348-.78zM70.836 75.352l-1.347.779c-.054.03-.064.073 0 .103l1.082.622a.196.196 0 00.182 0l1.347-.78c.054-.028.059-.077 0-.102l-1.083-.627a.206.206 0 00-.181.005zM62.912 70.774l-1.347.779c-.054.034-.06.078 0 .103l1.088.627a.186.186 0 00.176 0l1.347-.779c.054-.03.06-.078 0-.103l-1.083-.627a.215.215 0 00-.18 0zM69.248 74.436l-1.347.779c-.054.03-.06.078 0 .103l1.083.627a.192.192 0 00.176 0l1.352-.774c.05-.034.06-.079 0-.108l-1.082-.622a.195.195 0 00-.182-.005zM61.32 69.862l-1.348.78c-.054.029-.059.073 0 .102l1.083.623a.195.195 0 00.181 0l1.348-.78c.053-.029.058-.078 0-.103l-1.088-.627a.207.207 0 00-.177.005zM64.495 71.692l-1.347.779c-.054.03-.059.078 0 .103l1.083.627a.191.191 0 00.176 0l1.352-.78c.05-.029.06-.073 0-.102l-1.082-.622a.197.197 0 00-.182-.005zM66.083 72.608l-1.333.78c-.054.029-.058.073 0 .102l1.083.622a.196.196 0 00.181 0l1.348-.779c.054-.03.059-.078 0-.103l-1.088-.627a.205.205 0 00-.19.005zM67.69 73.518l-1.348.78c-.054.033-.059.078 0 .102l1.083.627a.196.196 0 00.181 0l1.348-.779c.054-.03.059-.078 0-.103l-1.083-.627a.216.216 0 00-.181 0zM61.594 76.013l1.348-.779c.049-.03.059-.078 0-.103l-1.083-.627a.2.2 0 00-.181 0l-1.338.789c-.054.03-.059.073 0 .103l1.083.622a.196.196 0 00.171-.005zM60.007 75.097l1.347-.78c.054-.029.059-.073 0-.102l-1.083-.623a.196.196 0 00-.181 0l-1.333.809c-.054.03-.059.078 0 .103l1.088.627a.191.191 0 00.162-.034zM56.935 69.555l-1.348.775c-.054.034-.059.078 0 .107l1.083.623a.196.196 0 00.181 0l1.348-.78c.049-.029.059-.078 0-.102l-1.083-.627a.2.2 0 00-.181.004zM55.352 68.64l-1.348.778c-.054.03-.059.074 0 .103l1.088.627a.205.205 0 00.176 0l1.348-.779c.054-.03.059-.078 0-.103l-1.083-.627a.217.217 0 00-.181 0zM69.278 78.895c.054-.03.059-.078 0-.103l-1.083-.627a.186.186 0 00-.176 0l-1.348.779c-.054.03-.064.078 0 .103l1.083.627a.196.196 0 00.181 0l1.343-.78zM66.343 78.757l1.347-.779c.05-.03.059-.078 0-.103l-1.083-.627a.2.2 0 00-.181 0l-1.348.78c-.053.029-.058.073 0 .102l1.083.623a.187.187 0 00.182.004zM64.75 77.83l1.347-.779c.054-.03.059-.073 0-.103l-1.058-.588a.195.195 0 00-.181 0l-1.348.78c-.054.029-.059.078 0 .102l1.083.627a.202.202 0 00.157-.039zM63.177 76.93l1.347-.78c.054-.034.059-.078 0-.102l-1.088-.627a.187.187 0 00-.176 0l-1.348.779c-.053.034-.058.078 0 .103l1.083.627a.196.196 0 00.182 0zM66.44 75.042l-1.347.774c-.054.034-.059.078 0 .108l1.083.622a.186.186 0 00.176 0l1.353-.78c.049-.029.058-.078 0-.102l-1.083-.627a.2.2 0 00-.181.005zM60.105 71.383l-1.348.78c-.054.029-.059.073 0 .102l1.088.627a.206.206 0 00.176 0l1.348-.779c.054-.029.059-.078 0-.103l-1.083-.627a.215.215 0 00-.181 0zM61.688 72.298l-1.348.774c-.054.034-.059.078 0 .108l1.083.622a.196.196 0 00.181 0l1.348-.78c.049-.029.059-.078 0-.102l-1.083-.627a.2.2 0 00-.181.005zM58.522 70.481l-1.348.78c-.054.029-.059.078 0 .102l1.083.627a.201.201 0 00.181 0l1.348-.774c.054-.034.059-.078 0-.108l-1.088-.627a.186.186 0 00-.176 0zM64.858 74.126l-1.348.764c-.054.03-.059.074 0 .103l1.083.627a.216.216 0 00.181 0l1.348-.779c.054-.03.059-.078 0-.103l-1.083-.627a.215.215 0 00-.181.015zM63.28 73.211l-1.348.78c-.054.029-.059.078 0 .102l1.083.627a.201.201 0 00.181 0l1.348-.774c.053-.034.058-.078 0-.108l-1.088-.622a.185.185 0 00-.177-.005zM72.78 78.674l-1.352.78c-.049.029-.059.078 0 .102l1.083.627a.201.201 0 00.181 0l1.348-.774c.054-.034.059-.078 0-.108l-1.083-.622a.186.186 0 00-.176-.005zM74.447 79.594l-2.195 1.27c-.054.029-.059.078 0 .102l1.083.627a.215.215 0 00.181 0l2.196-1.269c.053-.03.063-.073 0-.103l-1.083-.627a.215.215 0 00-.182 0z" fill="#37474F"/><path d="M71.194 79.998l-1.348.774c-.054.03-.059.078 0 .103l2.357 1.367a.215.215 0 00.181 0l1.348-.78c.054-.029.058-.078 0-.102l-2.362-1.362a.197.197 0 00-.177 0zM68.027 75.93l-1.347.778c-.054.03-.064.079 0 .103l1.083.628a.201.201 0 00.181 0l1.348-.775c.053-.034.058-.078 0-.107l-1.083-.623a.186.186 0 00-.182-.005zM71.194 77.761l-1.348.774c-.054.035-.059.079 0 .103l1.083.627a.186.186 0 00.176 0l1.348-.779c.054-.029.063-.078 0-.103l-1.083-.627a.201.201 0 00-.177.005zM69.61 76.852l-1.347.78c-.054.028-.059.073 0 .102l1.083.627a.215.215 0 00.181 0l1.348-.779c.054-.03.058-.078 0-.103l-1.083-.627a.215.215 0 00-.181 0zM63.608 79.398l1.348-.779c.054-.03.058-.078 0-.103l-1.088-.627a.205.205 0 00-.177 0l-1.347.78c-.054.029-.059.073 0 .102l1.083.627a.215.215 0 00.181 0zM72.644 78.061l1.082.628a.19.19 0 00.177 0l1.347-.78c.054-.029.064-.073 0-.102l-1.082-.623a.196.196 0 00-.182 0l-1.347.78c-.05.024-.05.073.005.097zM51.834 68.226l1.666.98a.196.196 0 00.181 0l1.348-.779c.049-.03.058-.078 0-.103l-1.666-.98a.215.215 0 00-.182 0l-1.347.78c-.044.029-.05.073 0 .102zM55.984 65.742l1.333.769a.201.201 0 00.181 0l1.372-.784c.054-.034.059-.078 0-.108l-1.337-.77a.207.207 0 00-.177 0l-1.347.78c-.079.04-.079.083-.025.113zM49.78 69.3l2.082 1.206a.215.215 0 00.182 0l1.347-.78c.054-.034.059-.078 0-.102l-2.087-1.206a.216.216 0 00-.182 0l-1.347.78c-.034.034-.044.078.005.102zM68.95 82.593l1.332.774a.216.216 0 00.181 0l1.348-.78c.054-.029.059-.073 0-.102l-1.338-.77a.2.2 0 00-.176 0l-1.348.78c-.039.03-.044.073 0 .098zM47.855 70.417l1.332.769a.215.215 0 00.182 0l1.347-.78c.054-.034.059-.078 0-.102l-1.333-.774a.215.215 0 00-.181 0l-1.347.779c-.04.034-.05.078 0 .108zM67.999 71.01c.054-.03.059-.079 0-.103l-1.088-.628a.19.19 0 00-.177 0l-1.347.775c-.054.034-.059.078 0 .107l1.083.623a.196.196 0 00.181 0L68 71.009zM71.169 72.838c.049-.03.059-.073 0-.103l-1.083-.627a.216.216 0 00-.182 0l-1.347.779c-.054.03-.059.078 0 .103l1.083.627a.216.216 0 00.181 0l1.348-.779zM69.58 71.951c.055-.034.06-.078 0-.102l-1.082-.628a.196.196 0 00-.181 0l-1.348.78c-.054.029-.059.078 0 .102l1.088.628a.202.202 0 00.176 0l1.348-.78zM72.752 73.754c.053-.03.058-.079 0-.103l-1.088-.627a.192.192 0 00-.177 0l-1.347.788c-.054.03-.059.074 0 .103l1.083.623a.196.196 0 00.181 0l1.348-.784zM66.71 83.41c-.054.03-.058.08 0 .104l1.666.98a.216.216 0 00.181 0l1.348-.78c.054-.029.059-.078 0-.102l-1.67-.98a.186.186 0 00-.177 0l-1.348.779zM65.73 69.716c.049-.03.059-.074 0-.103l-1.053-.603a.216.216 0 00-.182 0l-1.347.78c-.054.029-.059.073 0 .102l1.083.627a.206.206 0 00.176 0l1.323-.803zM64.162 68.805c.054-.034.059-.078 0-.108l-1.083-.622a.196.196 0 00-.181 0l-1.348.78c-.054.028-.059.078 0 .102l1.088.627a.192.192 0 00.176 0l1.348-.779zM60.997 66.973c.049-.03.059-.074 0-.103l-1.083-.627a.217.217 0 00-.181 0l-1.353.808c-.054.03-.059.074 0 .103l1.083.627a.215.215 0 00.181 0l1.353-.808zM62.579 67.888c.054-.029.059-.078 0-.103l-1.088-.627a.191.191 0 00-.176 0l-1.348.775c-.054.034-.059.078 0 .107l1.083.623a.196.196 0 00.181 0l1.348-.775zM62.025 78.482l1.348-.775c.054-.034.059-.078 0-.107l-1.073-.623a.196.196 0 00-.182 0l-1.347.78c-.054.029-.059.078 0 .102l1.083.628a.201.201 0 00.171-.005zM49.942 73.734c-.054.03-.06.078 0 .103l1.333.774a.215.215 0 00.18 0l1.348-.779c.05-.03.06-.078 0-.103l-1.332-.799a.196.196 0 00-.182 0l-1.347.804zM45.939 71.426c-.05.03-.059.073 0 .103l1.666.98a.196.196 0 00.181 0l1.348-.78c.054-.029.059-.078 0-.102l-1.666-.98a.2.2 0 00-.182 0l-1.347.779zM51.78 74.793c-.054.034-.06.078 0 .103l8.922 5.154a.206.206 0 00.177 0l1.347-.779c.054-.03.064-.073 0-.103l-8.922-5.16a.201.201 0 00-.177 0l-1.347.785zM63.035 81.295c-.054.03-.06.074 0 .103l1.332.77a.2.2 0 00.182 0l1.347-.775c.054-.034.059-.078 0-.108l-1.333-.769a.215.215 0 00-.181 0l-1.348.78zM61.197 80.231c-.05.035-.059.079 0 .108l1.333.77a.2.2 0 00.18 0l1.348-.78c.054-.03.06-.073 0-.103l-1.332-.769a.192.192 0 00-.177 0l-1.352.774zM64.868 82.353c-.054.03-.06.073 0 .103l1.332.769a.186.186 0 00.177 0l1.352-.78c.05-.033.059-.077 0-.102l-1.333-.774a.217.217 0 00-.181 0l-1.347.784zM48.09 72.676c-.054.03-.059.079 0 .103l1.333.77a.196.196 0 00.181 0l1.348-.78c.054-.029.059-.078 0-.103l-1.333-.769a.196.196 0 00-.181 0l-1.348.78z" fill="#37474F"/><path d="M70.473 83.363l1.347-.78c.054-.029.06-.073 0-.102l-3.15-1.828a.196.196 0 00-.182 0l-1.347.78c-.054.033-.059.078 0 .102l3.17 1.833c.053.02.11.017.162-.005zM50.931 72.084l1.348-.78c.054-.029.059-.078 0-.102l-1.083-.628a.201.201 0 00-.181 0l-1.348.775c-.054.034-.059.078 0 .107l1.088.623a.185.185 0 00.176.005zM58.87 76.654l1.347-.779c.054-.03.06-.073 0-.103l-1.087-.627a.205.205 0 00-.177 0l-1.347.779c-.054.03-.059.073 0 .103l1.083.627a.217.217 0 00.18 0zM57.273 75.737l1.347-.774c.054-.034.059-.078 0-.108l-1.083-.622a.196.196 0 00-.181 0l-1.348.78c-.049.029-.059.078 0 .102l1.083.627a.2.2 0 00.181-.005zM60.437 77.572l1.348-.78c.054-.029.059-.078 0-.102l-1.083-.627a.201.201 0 00-.181 0l-1.333.788c-.054.035-.059.079 0 .108l1.088.623a.185.185 0 00.161-.01zM54.102 73.91l1.348-.78c.054-.029.059-.073 0-.102l-1.088-.627a.206.206 0 00-.176 0l-1.348.779c-.054.03-.059.073 0 .103l1.083.627a.215.215 0 00.181 0zM55.685 74.828l1.348-.78c.054-.029.059-.078 0-.102l-1.083-.627a.201.201 0 00-.181 0l-1.309.784c-.054.034-.059.078 0 .107l1.088.623a.186.186 0 00.137-.005zM52.5 72.993l1.347-.774c.054-.034.06-.078 0-.108l-1.082-.622a.196.196 0 00-.182 0l-1.347.78c-.05.028-.059.078 0 .102l1.083.627a.201.201 0 00.181-.005zM77.784 83.136l1.347-.779c.054-.029.06-.078 0-.103l-1.087-.627a.206.206 0 00-.177 0l-1.347.78c-.054.029-.059.073 0 .102l1.083.627a.217.217 0 00.181 0zM79.808 80.526l-1.338.78c-.054.029-.059.078 0 .102l1.083.627a.217.217 0 00.181 0l1.348-.779c.054-.03.059-.073 0-.103l-1.088-.627a.205.205 0 00-.186 0zM81.41 81.442l-1.368.8c-.054.033-.058.078 0 .107l1.088.622a.186.186 0 00.177 0l1.347-.779c.054-.03.059-.078 0-.103l-1.083-.627a.2.2 0 00-.162-.02zM79.366 84.054l1.348-.779c.053-.03.058-.078 0-.103l-1.083-.627a.201.201 0 00-.182 0l-1.347.774c-.054.035-.059.079 0 .108l1.088.622a.186.186 0 00.176.005zM78.22 79.608l-1.348.78c-.053.029-.058.078 0 .102l1.083.627a.216.216 0 00.182 0l1.347-.779c.054-.034.059-.078 0-.103l-1.083-.627a.195.195 0 00-.181 0zM69.16 84.838c-.05.03-.06.074 0 .103l1.083.627a.216.216 0 00.18 0l1.348-.779c.054-.03.06-.073 0-.103l-1.082-.627a.217.217 0 00-.182 0l-1.347.78zM72.34 86.65c-.054.03-.059.078 0 .103l1.088.627a.191.191 0 00.176 0l1.348-.774c.054-.034.059-.079 0-.108l-1.083-.622a.195.195 0 00-.181 0l-1.348.774zM70.757 85.748c-.054.034-.059.078 0 .108l1.083.622a.196.196 0 00.181 0l1.348-.78c.054-.028.059-.077 0-.102l-1.088-.627a.192.192 0 00-.176 0l-1.348.779zM76.201 82.241l1.348-.774c.053-.034.058-.078 0-.108l-1.083-.622a.196.196 0 00-.182 0l-1.347.78c-.054.029-.059.078 0 .102l1.083.622a.201.201 0 00.181 0zM75.28 84.584c.054-.03.059-.079 0-.103l-1.088-.627a.19.19 0 00-.176 0l-1.348.774c-.054.034-.059.078 0 .108l1.083.622a.196.196 0 00.181 0l1.348-.774zM84.977 80.815c.054-.034.059-.079 0-.108l-1.083-.622a.196.196 0 00-.181 0l-1.323.784c-.054.03-.059.078 0 .103l1.083.627a.201.201 0 00.181 0l1.323-.784zM81.811 78.983c.05-.03.059-.074 0-.103l-1.083-.628a.215.215 0 00-.181 0l-1.347.78c-.054.029-.06.078 0 .102l1.082.657a.215.215 0 00.182 0l1.347-.808zM83.394 79.898c.054-.03.059-.078 0-.103l-1.088-.627a.19.19 0 00-.176 0l-1.347.774c-.054.035-.06.079 0 .108l1.082.622a.196.196 0 00.182 0l1.347-.774zM86.383 84.313l-1.348.774c-.053.035-.058.079 0 .108l1.083.623a.196.196 0 00.182 0l1.347-.78c.054-.029.059-.078 0-.102l-1.083-.628a.202.202 0 00-.181.005zM83.453 84.201c-.053.03-.058.074 0 .103l1.083.627a.215.215 0 00.182 0l1.347-.779c.054-.03.059-.073 0-.103l-1.088-.627a.206.206 0 00-.176 0l-1.348.78zM80.851 87.14l1.348-.779c.054-.03.059-.078 0-.103l-1.088-.627a.19.19 0 00-.176 0l-1.348.78c-.054.028-.059.073 0 .102l1.083.622a.196.196 0 00.181.005zM84.35 86.926l1.347-.78c.054-.029.059-.078 0-.102l-1.083-.627a.215.215 0 00-.181 0l-1.348.779c-.054.034-.058.078 0 .103l1.083.627a.195.195 0 00.181 0zM81.528 85.29c-.054.029-.06.073 0 .102l1.082.627a.217.217 0 00.182 0l1.347-.779c.054-.03.06-.078 0-.103l-1.087-.627a.205.205 0 00-.177 0l-1.347.78zM83.782 87.258c.054-.034.059-.078 0-.103l-1.083-.627a.196.196 0 00-.181 0l-1.348.78c-.054.029-.059.078 0 .102l1.083.627a.216.216 0 00.181 0l1.348-.779zM74.162 87.708c-.053.03-.058.074 0 .103l2.666 1.539a.196.196 0 00.181 0l1.348-.78c.054-.029.059-.078 0-.102l-2.67-1.544a.215.215 0 00-.182 0l-1.343.784zM77.333 89.537c-.054.03-.058.078 0 .103l1.088.627a.192.192 0 00.176 0l1.348-.774c.054-.035.059-.079 0-.108l-1.083-.623a.196.196 0 00-.181 0l-1.348.775zM80.508 89.146l1.347-.775c.054-.034.059-.078 0-.107l-1.068-.632a.196.196 0 00-.181 0l-1.348.779c-.054.03-.059.078 0 .103l1.088.627a.19.19 0 00.162.005zM83.213 82.48l-1.347.78c-.054.03-.06.078 0 .103l1.082.627a.191.191 0 00.177 0l1.352-.774c.05-.034.059-.079 0-.108l-1.083-.622a.196.196 0 00-.181-.005zM81.287 83.592l-1.347.78c-.054.029-.06.078 0 .102l1.083.627a.201.201 0 00.18 0l1.348-.774c.05-.034.06-.078 0-.108l-1.082-.622a.196.196 0 00-.182-.005zM78.69 86.537c.05-.03.059-.073 0-.103l-1.083-.627a.215.215 0 00-.181 0l-1.348.78c-.053.029-.058.073 0 .102l1.083.627a.217.217 0 00.182 0l1.347-.779zM79.268 86.206l1.348-.78c.049-.029.059-.073 0-.102l-1.073-.632a.215.215 0 00-.181 0l-1.348.779c-.054.03-.059.078 0 .103l1.083.627a.199.199 0 00.171.005zM87.29 86.955l-1.083-.622a.196.196 0 00-.181 0l-3.274 1.891c-.054.03-.059.079 0 .103l1.083.627a.216.216 0 00.181 0l3.274-1.891c.054-.034.063-.079 0-.108zM78.906 90.57l1.083.627a.215.215 0 00.181 0l3.274-1.891c.053-.03.058-.074 0-.103l-1.054-.652a.217.217 0 00-.181 0l-3.273 1.892c-.074.039-.079.083-.03.127zM89.22 85.95c.05-.035.06-.079 0-.108l-1.082-.623a.196.196 0 00-.182 0L86.61 86c-.054.029-.06.078 0 .103l1.083.627a.201.201 0 00.18 0l1.348-.78zM78.926 88.234l1.347-.78c.054-.029.059-.078 0-.102l-1.088-.627a.19.19 0 00-.176 0l-1.348.774c-.053.034-.058.078 0 .108l1.083.622a.196.196 0 00.182.005zM75.172 75.15c.054-.029.06-.073 0-.103l-1.073-.646a.205.205 0 00-.176 0l-1.333.808c-.054.03-.059.074 0 .103l1.083.627a.215.215 0 00.181 0l1.318-.789zM78.343 76.983c.048-.035.058-.079 0-.108l-1.083-.622a.196.196 0 00-.182 0l-1.347.779c-.054.03-.059.078 0 .103l1.083.627a.2.2 0 00.181 0l1.347-.78zM76.754 76.066c.054-.03.06-.078 0-.103l-1.082-.627a.2.2 0 00-.182 0l-1.347.774c-.054.035-.059.079 0 .108l1.088.622a.186.186 0 00.176 0l1.347-.774zM79.94 77.894c.054-.029.059-.073 0-.102l-1.088-.628a.206.206 0 00-.176 0l-1.348.78c-.053.029-.058.073 0 .102l1.083.628a.217.217 0 00.182 0l1.347-.78z" fill="#37474F"/><path d="M89.617 23.976V52.35c0 .294-.205.412-.455.265l-38.68-22.33a1.02 1.02 0 01-.462-.798V1.108c0-.295.206-.412.461-.265l38.68 22.314a1.03 1.03 0 01.456.819z" fill="#455A64"/><path d="M50.481.847l38.68 22.31a1.028 1.028 0 01.456.798v2.014L50.02 3.066v-1.96c0-.289.206-.406.461-.26z" fill="#37474F"/><path d="M87.95 23.242a.98.98 0 01.456.789c0 .289-.2.407-.455.26a.98.98 0 01-.451-.785c0-.289.2-.406.45-.264zM86.153 22.203a1.015 1.015 0 01.456.789c0 .289-.206.406-.456.26a.98.98 0 01-.45-.785c0-.289.2-.406.45-.264zM84.35 21.164a1.01 1.01 0 01.451.789c0 .289-.2.406-.45.26a.98.98 0 01-.457-.785c.005-.289.211-.406.456-.264z" fill="#FAFAFA"/><path d="M57.625 10.085c-1.847-1.069-3.342-.201-3.342 1.925a7.375 7.375 0 003.342 5.787c1.842 1.063 3.337.201 3.337-1.93a7.384 7.384 0 00-3.337-5.783z" fill="#fff"/><path d="M57.4 11.618c-.597-.348-1.083-.068-1.083.627a2.402 2.402 0 001.083 1.877c.598.343 1.083.064 1.083-.627a2.39 2.39 0 00-1.083-1.877zM55.514 15.444c0-1.136.793-1.597 1.778-1.029l.613.358a3.92 3.92 0 011.783 3.082v.304a2.54 2.54 0 01-2.062-.363 6.54 6.54 0 01-2.112-2.087v-.265z" fill="#263238"/><path d="M63.74 14.014l5.2 3.003a1.198 1.198 0 01.563.931c0 .338-.25.466-.564.284L63.74 15.23a1.184 1.184 0 01-.563-.931c0-.338.25-.451.563-.284zM63.74 16.993l8.472 4.9a1.195 1.195 0 01.559.93c0 .339-.25.49-.559.285l-8.472-4.9a1.185 1.185 0 01-.563-.931c0-.338.25-.466.563-.284zM63.74 19.237l8.472 4.9a1.21 1.21 0 01.559.931c0 .338-.25.49-.559.284l-8.472-4.9a1.205 1.205 0 01-.563-.936c0-.333.25-.46.563-.279zM87.53 45.262v3.288c0 .3-.206.427-.465.275l-9.31-5.366-.828-.49a1.044 1.044 0 01-.49-.818v-3.293c0-.299.21-.421.49-.274l10.128 5.85a1.038 1.038 0 01.475.828zM87.53 27.907v14.249c0 .304-.206.426-.465.274l-9.31-5.39-.828-.49a1.034 1.034 0 01-.49-.813v-14.22c0-.304.21-.421.49-.274l10.138 5.836a1.039 1.039 0 01.465.828z" fill="#fff"/><path d="M76.46 21.516v3.601c.418.7.996 1.29 1.687 1.72 1.42.819 2.567.157 2.567-1.47a5.125 5.125 0 00-.622-2.278l-3.156-1.823c-.264-.172-.475-.069-.475.25zM87.53 37.063v5.091c0 .304-.205.427-.465.275l-9.31-5.39 2.788-5.88 1.764 3.832 2.813-5.694 2.41 7.766z" fill="#263238"/><path d="M52.813 17.548l20.756 11.98a1.412 1.412 0 01.706 1.049c0 .353-.314.456-.706.23L52.833 18.832a1.406 1.406 0 01-.726-1.064c0-.343.314-.45.706-.22zM52.813 20.752l20.756 11.971a1.411 1.411 0 01.706 1.049c0 .352-.314.455-.706.23l-20.756-11.97a1.412 1.412 0 01-.706-1.05c0-.352.314-.455.706-.23zM52.814 23.955L73.57 35.931a1.405 1.405 0 01.706 1.044c0 .357-.314.46-.706.235L52.833 25.234a1.412 1.412 0 01-.705-1.048c-.02-.353.294-.456.686-.23zM52.814 27.164L73.57 39.135a1.41 1.41 0 01.706 1.049c0 .352-.314.455-.706.23l-20.737-11.97a1.412 1.412 0 01-.705-1.05c-.02-.352.294-.455.686-.23z" fill="#fff"/><path d="M36.605 102.817l-3.484-2.038a.575.575 0 010-1.088l13.612-7.84a2.068 2.068 0 011.886 0l3.484 2.038a.574.574 0 010 1.088l-13.612 7.84a2.102 2.102 0 01-1.886 0z" fill="#37474F"/><path d="M34.478 99.715l2.65-1.529a1.392 1.392 0 011.245 0l2.651 1.529a.382.382 0 010 .72l-2.65 1.534a1.4 1.4 0 01-1.245 0l-2.651-1.534a.38.38 0 010-.72z" fill="#fff"/><path d="M36.453 100.025l1.44.833a.227.227 0 00.304-.084l.691-1.195c.059-.108 0-.177-.108-.152l-2.303.446c-.117.02-.147.093-.024.152z" fill="#37474F"/><path d="M40.627 97.451a1.088 1.088 0 00.98 0l6.512-3.758c.274-.162.29-.412.03-.564a1.078 1.078 0 00-.98 0l-6.518 3.759c-.27.161-.284.411-.024.563zM42.371 98.445a1.087 1.087 0 00.98 0l2.94-1.715c.275-.162.29-.412.03-.559a1.073 1.073 0 00-.98 0l-2.94 1.715c-.275.162-.29.412-.03.559z" fill="#fff"/><path d="M29.96 98.981l-3.484-2.033a.578.578 0 010-1.093l13.612-7.84a2.098 2.098 0 011.887 0l3.483 2.038a.578.578 0 010 1.093l-13.612 7.84a2.067 2.067 0 01-1.886-.005z" fill="#37474F"/><path d="M27.848 95.882l2.651-1.528a1.362 1.362 0 011.245 0l2.65 1.528a.382.382 0 010 .72l-2.65 1.525a1.362 1.362 0 01-1.245 0l-2.65-1.53a.382.382 0 010-.715z" fill="#fff"/><path d="M29.823 96.193l1.436.828a.224.224 0 00.25-.017.224.224 0 00.058-.067l.691-1.19c.059-.108 0-.177-.108-.152l-2.303.44c-.117.025-.132.094-.024.158z" fill="#37474F"/><path d="M33.998 93.614a1.088 1.088 0 00.98 0l6.512-3.763c.274-.157.29-.412.03-.559a1.073 1.073 0 00-.98 0l-6.517 3.763c-.27.172-.285.412-.025.559zM35.742 94.614a1.073 1.073 0 00.98 0l2.94-1.71c.274-.162.289-.412.029-.563a1.077 1.077 0 00-.98 0l-2.94 1.715c-.274.151-.29.406-.03.558z" fill="#fff"/><path d="M130.141 99.274l4.346-2.538c.652-.377.652-.98 0-1.362l-16.984-9.8a2.587 2.587 0 00-2.352 0l-4.341 2.538c-.652.377-.652.98 0 1.362l16.979 9.8a2.595 2.595 0 002.352 0z" fill="#37474F"/><path d="M120.766 88.524l-3.307-1.911a1.709 1.709 0 00-1.554 0l-3.307 1.91a.49.49 0 000 .898l3.307 1.906a1.709 1.709 0 001.554 0l3.307-1.906a.49.49 0 000-.897z" fill="#fff"/><path d="M116.513 88.093l-1.333.769c-.264.152-.235.323.059.382l2.45.49c.299.059.407-.103.25-.358l-.676-1.092a.568.568 0 00-.75-.191z" fill="#37474F"/><path d="M131.767 96.422a1.356 1.356 0 01-1.215 0l-8.124-4.695c-.348-.196-.363-.49-.039-.695a1.352 1.352 0 011.21 0l8.129 4.694c.348.196.363.51.039.696zM125.187 95.109a1.352 1.352 0 01-1.215 0l-3.675-2.141c-.343-.196-.358-.49-.035-.696a1.353 1.353 0 011.211 0l3.68 2.141c.357.196.357.51.034.696z" fill="#fff"/><path d="M118.65 105.806l4.346-2.543c.652-.377.652-.98 0-1.362l-16.983-9.8a2.593 2.593 0 00-2.352 0l-4.352 2.538c-.647.378-.647.98 0 1.362l16.984 9.8a2.617 2.617 0 002.357.005z" fill="#37474F"/><path d="M107.639 94.095a5.388 5.388 0 00-4.861 0c-1.342.774-1.342 2.033 0 2.807a5.395 5.395 0 004.861 0c1.343-.774 1.343-2.033 0-2.807zM120.291 102.949a1.312 1.312 0 01-1.21 0l-8.129-4.694c-.343-.196-.358-.49-.034-.696a1.353 1.353 0 011.21 0l8.129 4.694c.353.196.353.51.034.696zM113.716 101.636a1.323 1.323 0 01-1.215 0l-3.675-2.141c-.343-.196-.363-.49-.034-.696a1.353 1.353 0 011.21 0l3.68 2.141c.343.201.358.51.034.696z" fill="#fff"/><path d="M103.759 96.197l-.157-.328c-.206-.431-.328-1.02.265-1.362a1.588 1.588 0 011.47 0c.313.18.382.445.206.666a1.63 1.63 0 011.156.118.445.445 0 010 .843c-.578.333-1.597.269-2.352.151l-.588-.088z" fill="#37474F"/></svg>